%TF.GenerationSoftware,KiCad,Pcbnew,10.0.4*%
%TF.CreationDate,2026-06-22T11:41:31-04:00*%
%TF.ProjectId,smart_vent_v1,736d6172-745f-4766-956e-745f76312e6b,rev?*%
%TF.SameCoordinates,Original*%
%TF.FileFunction,Legend,Top*%
%TF.FilePolarity,Positive*%
%FSLAX46Y46*%
G04 Gerber Fmt 4.6, Leading zero omitted, Abs format (unit mm)*
G04 Created by KiCad (PCBNEW 10.0.4) date 2026-06-22 11:41:31*
%MOMM*%
%LPD*%
G01*
G04 APERTURE LIST*
%ADD10C,0.150000*%
%ADD11C,0.120000*%
G04 APERTURE END LIST*
D10*
X33024819Y-51166666D02*
X32548628Y-51499999D01*
X33024819Y-51738094D02*
X32024819Y-51738094D01*
X32024819Y-51738094D02*
X32024819Y-51357142D01*
X32024819Y-51357142D02*
X32072438Y-51261904D01*
X32072438Y-51261904D02*
X32120057Y-51214285D01*
X32120057Y-51214285D02*
X32215295Y-51166666D01*
X32215295Y-51166666D02*
X32358152Y-51166666D01*
X32358152Y-51166666D02*
X32453390Y-51214285D01*
X32453390Y-51214285D02*
X32501009Y-51261904D01*
X32501009Y-51261904D02*
X32548628Y-51357142D01*
X32548628Y-51357142D02*
X32548628Y-51738094D01*
X32024819Y-50261904D02*
X32024819Y-50738094D01*
X32024819Y-50738094D02*
X32501009Y-50785713D01*
X32501009Y-50785713D02*
X32453390Y-50738094D01*
X32453390Y-50738094D02*
X32405771Y-50642856D01*
X32405771Y-50642856D02*
X32405771Y-50404761D01*
X32405771Y-50404761D02*
X32453390Y-50309523D01*
X32453390Y-50309523D02*
X32501009Y-50261904D01*
X32501009Y-50261904D02*
X32596247Y-50214285D01*
X32596247Y-50214285D02*
X32834342Y-50214285D01*
X32834342Y-50214285D02*
X32929580Y-50261904D01*
X32929580Y-50261904D02*
X32977200Y-50309523D01*
X32977200Y-50309523D02*
X33024819Y-50404761D01*
X33024819Y-50404761D02*
X33024819Y-50642856D01*
X33024819Y-50642856D02*
X32977200Y-50738094D01*
X32977200Y-50738094D02*
X32929580Y-50785713D01*
X36429580Y-49666666D02*
X36477200Y-49714285D01*
X36477200Y-49714285D02*
X36524819Y-49857142D01*
X36524819Y-49857142D02*
X36524819Y-49952380D01*
X36524819Y-49952380D02*
X36477200Y-50095237D01*
X36477200Y-50095237D02*
X36381961Y-50190475D01*
X36381961Y-50190475D02*
X36286723Y-50238094D01*
X36286723Y-50238094D02*
X36096247Y-50285713D01*
X36096247Y-50285713D02*
X35953390Y-50285713D01*
X35953390Y-50285713D02*
X35762914Y-50238094D01*
X35762914Y-50238094D02*
X35667676Y-50190475D01*
X35667676Y-50190475D02*
X35572438Y-50095237D01*
X35572438Y-50095237D02*
X35524819Y-49952380D01*
X35524819Y-49952380D02*
X35524819Y-49857142D01*
X35524819Y-49857142D02*
X35572438Y-49714285D01*
X35572438Y-49714285D02*
X35620057Y-49666666D01*
X36524819Y-48714285D02*
X36524819Y-49285713D01*
X36524819Y-48999999D02*
X35524819Y-48999999D01*
X35524819Y-48999999D02*
X35667676Y-49095237D01*
X35667676Y-49095237D02*
X35762914Y-49190475D01*
X35762914Y-49190475D02*
X35810533Y-49285713D01*
X66833333Y-36679580D02*
X66785714Y-36727200D01*
X66785714Y-36727200D02*
X66642857Y-36774819D01*
X66642857Y-36774819D02*
X66547619Y-36774819D01*
X66547619Y-36774819D02*
X66404762Y-36727200D01*
X66404762Y-36727200D02*
X66309524Y-36631961D01*
X66309524Y-36631961D02*
X66261905Y-36536723D01*
X66261905Y-36536723D02*
X66214286Y-36346247D01*
X66214286Y-36346247D02*
X66214286Y-36203390D01*
X66214286Y-36203390D02*
X66261905Y-36012914D01*
X66261905Y-36012914D02*
X66309524Y-35917676D01*
X66309524Y-35917676D02*
X66404762Y-35822438D01*
X66404762Y-35822438D02*
X66547619Y-35774819D01*
X66547619Y-35774819D02*
X66642857Y-35774819D01*
X66642857Y-35774819D02*
X66785714Y-35822438D01*
X66785714Y-35822438D02*
X66833333Y-35870057D01*
X67690476Y-36108152D02*
X67690476Y-36774819D01*
X67452381Y-35727200D02*
X67214286Y-36441485D01*
X67214286Y-36441485D02*
X67833333Y-36441485D01*
X52166666Y-58574819D02*
X52166666Y-59289104D01*
X52166666Y-59289104D02*
X52119047Y-59431961D01*
X52119047Y-59431961D02*
X52023809Y-59527200D01*
X52023809Y-59527200D02*
X51880952Y-59574819D01*
X51880952Y-59574819D02*
X51785714Y-59574819D01*
X52595238Y-58670057D02*
X52642857Y-58622438D01*
X52642857Y-58622438D02*
X52738095Y-58574819D01*
X52738095Y-58574819D02*
X52976190Y-58574819D01*
X52976190Y-58574819D02*
X53071428Y-58622438D01*
X53071428Y-58622438D02*
X53119047Y-58670057D01*
X53119047Y-58670057D02*
X53166666Y-58765295D01*
X53166666Y-58765295D02*
X53166666Y-58860533D01*
X53166666Y-58860533D02*
X53119047Y-59003390D01*
X53119047Y-59003390D02*
X52547619Y-59574819D01*
X52547619Y-59574819D02*
X53166666Y-59574819D01*
X72429580Y-53666666D02*
X72477200Y-53714285D01*
X72477200Y-53714285D02*
X72524819Y-53857142D01*
X72524819Y-53857142D02*
X72524819Y-53952380D01*
X72524819Y-53952380D02*
X72477200Y-54095237D01*
X72477200Y-54095237D02*
X72381961Y-54190475D01*
X72381961Y-54190475D02*
X72286723Y-54238094D01*
X72286723Y-54238094D02*
X72096247Y-54285713D01*
X72096247Y-54285713D02*
X71953390Y-54285713D01*
X71953390Y-54285713D02*
X71762914Y-54238094D01*
X71762914Y-54238094D02*
X71667676Y-54190475D01*
X71667676Y-54190475D02*
X71572438Y-54095237D01*
X71572438Y-54095237D02*
X71524819Y-53952380D01*
X71524819Y-53952380D02*
X71524819Y-53857142D01*
X71524819Y-53857142D02*
X71572438Y-53714285D01*
X71572438Y-53714285D02*
X71620057Y-53666666D01*
X71524819Y-53333332D02*
X71524819Y-52714285D01*
X71524819Y-52714285D02*
X71905771Y-53047618D01*
X71905771Y-53047618D02*
X71905771Y-52904761D01*
X71905771Y-52904761D02*
X71953390Y-52809523D01*
X71953390Y-52809523D02*
X72001009Y-52761904D01*
X72001009Y-52761904D02*
X72096247Y-52714285D01*
X72096247Y-52714285D02*
X72334342Y-52714285D01*
X72334342Y-52714285D02*
X72429580Y-52761904D01*
X72429580Y-52761904D02*
X72477200Y-52809523D01*
X72477200Y-52809523D02*
X72524819Y-52904761D01*
X72524819Y-52904761D02*
X72524819Y-53190475D01*
X72524819Y-53190475D02*
X72477200Y-53285713D01*
X72477200Y-53285713D02*
X72429580Y-53333332D01*
X71583333Y-49109580D02*
X71535714Y-49157200D01*
X71535714Y-49157200D02*
X71392857Y-49204819D01*
X71392857Y-49204819D02*
X71297619Y-49204819D01*
X71297619Y-49204819D02*
X71154762Y-49157200D01*
X71154762Y-49157200D02*
X71059524Y-49061961D01*
X71059524Y-49061961D02*
X71011905Y-48966723D01*
X71011905Y-48966723D02*
X70964286Y-48776247D01*
X70964286Y-48776247D02*
X70964286Y-48633390D01*
X70964286Y-48633390D02*
X71011905Y-48442914D01*
X71011905Y-48442914D02*
X71059524Y-48347676D01*
X71059524Y-48347676D02*
X71154762Y-48252438D01*
X71154762Y-48252438D02*
X71297619Y-48204819D01*
X71297619Y-48204819D02*
X71392857Y-48204819D01*
X71392857Y-48204819D02*
X71535714Y-48252438D01*
X71535714Y-48252438D02*
X71583333Y-48300057D01*
X71964286Y-48300057D02*
X72011905Y-48252438D01*
X72011905Y-48252438D02*
X72107143Y-48204819D01*
X72107143Y-48204819D02*
X72345238Y-48204819D01*
X72345238Y-48204819D02*
X72440476Y-48252438D01*
X72440476Y-48252438D02*
X72488095Y-48300057D01*
X72488095Y-48300057D02*
X72535714Y-48395295D01*
X72535714Y-48395295D02*
X72535714Y-48490533D01*
X72535714Y-48490533D02*
X72488095Y-48633390D01*
X72488095Y-48633390D02*
X71916667Y-49204819D01*
X71916667Y-49204819D02*
X72535714Y-49204819D01*
X73404761Y-44650057D02*
X73309523Y-44602438D01*
X73309523Y-44602438D02*
X73214285Y-44507200D01*
X73214285Y-44507200D02*
X73071428Y-44364342D01*
X73071428Y-44364342D02*
X72976190Y-44316723D01*
X72976190Y-44316723D02*
X72880952Y-44316723D01*
X72928571Y-44554819D02*
X72833333Y-44507200D01*
X72833333Y-44507200D02*
X72738095Y-44411961D01*
X72738095Y-44411961D02*
X72690476Y-44221485D01*
X72690476Y-44221485D02*
X72690476Y-43888152D01*
X72690476Y-43888152D02*
X72738095Y-43697676D01*
X72738095Y-43697676D02*
X72833333Y-43602438D01*
X72833333Y-43602438D02*
X72928571Y-43554819D01*
X72928571Y-43554819D02*
X73119047Y-43554819D01*
X73119047Y-43554819D02*
X73214285Y-43602438D01*
X73214285Y-43602438D02*
X73309523Y-43697676D01*
X73309523Y-43697676D02*
X73357142Y-43888152D01*
X73357142Y-43888152D02*
X73357142Y-44221485D01*
X73357142Y-44221485D02*
X73309523Y-44411961D01*
X73309523Y-44411961D02*
X73214285Y-44507200D01*
X73214285Y-44507200D02*
X73119047Y-44554819D01*
X73119047Y-44554819D02*
X72928571Y-44554819D01*
X73738095Y-43650057D02*
X73785714Y-43602438D01*
X73785714Y-43602438D02*
X73880952Y-43554819D01*
X73880952Y-43554819D02*
X74119047Y-43554819D01*
X74119047Y-43554819D02*
X74214285Y-43602438D01*
X74214285Y-43602438D02*
X74261904Y-43650057D01*
X74261904Y-43650057D02*
X74309523Y-43745295D01*
X74309523Y-43745295D02*
X74309523Y-43840533D01*
X74309523Y-43840533D02*
X74261904Y-43983390D01*
X74261904Y-43983390D02*
X73690476Y-44554819D01*
X73690476Y-44554819D02*
X74309523Y-44554819D01*
X72929580Y-60666666D02*
X72977200Y-60714285D01*
X72977200Y-60714285D02*
X73024819Y-60857142D01*
X73024819Y-60857142D02*
X73024819Y-60952380D01*
X73024819Y-60952380D02*
X72977200Y-61095237D01*
X72977200Y-61095237D02*
X72881961Y-61190475D01*
X72881961Y-61190475D02*
X72786723Y-61238094D01*
X72786723Y-61238094D02*
X72596247Y-61285713D01*
X72596247Y-61285713D02*
X72453390Y-61285713D01*
X72453390Y-61285713D02*
X72262914Y-61238094D01*
X72262914Y-61238094D02*
X72167676Y-61190475D01*
X72167676Y-61190475D02*
X72072438Y-61095237D01*
X72072438Y-61095237D02*
X72024819Y-60952380D01*
X72024819Y-60952380D02*
X72024819Y-60857142D01*
X72024819Y-60857142D02*
X72072438Y-60714285D01*
X72072438Y-60714285D02*
X72120057Y-60666666D01*
X72024819Y-59761904D02*
X72024819Y-60238094D01*
X72024819Y-60238094D02*
X72501009Y-60285713D01*
X72501009Y-60285713D02*
X72453390Y-60238094D01*
X72453390Y-60238094D02*
X72405771Y-60142856D01*
X72405771Y-60142856D02*
X72405771Y-59904761D01*
X72405771Y-59904761D02*
X72453390Y-59809523D01*
X72453390Y-59809523D02*
X72501009Y-59761904D01*
X72501009Y-59761904D02*
X72596247Y-59714285D01*
X72596247Y-59714285D02*
X72834342Y-59714285D01*
X72834342Y-59714285D02*
X72929580Y-59761904D01*
X72929580Y-59761904D02*
X72977200Y-59809523D01*
X72977200Y-59809523D02*
X73024819Y-59904761D01*
X73024819Y-59904761D02*
X73024819Y-60142856D01*
X73024819Y-60142856D02*
X72977200Y-60238094D01*
X72977200Y-60238094D02*
X72929580Y-60285713D01*
X65524819Y-59666666D02*
X65048628Y-59999999D01*
X65524819Y-60238094D02*
X64524819Y-60238094D01*
X64524819Y-60238094D02*
X64524819Y-59857142D01*
X64524819Y-59857142D02*
X64572438Y-59761904D01*
X64572438Y-59761904D02*
X64620057Y-59714285D01*
X64620057Y-59714285D02*
X64715295Y-59666666D01*
X64715295Y-59666666D02*
X64858152Y-59666666D01*
X64858152Y-59666666D02*
X64953390Y-59714285D01*
X64953390Y-59714285D02*
X65001009Y-59761904D01*
X65001009Y-59761904D02*
X65048628Y-59857142D01*
X65048628Y-59857142D02*
X65048628Y-60238094D01*
X64524819Y-59333332D02*
X64524819Y-58666666D01*
X64524819Y-58666666D02*
X65524819Y-59095237D01*
X73476667Y-37987200D02*
X73619524Y-38034819D01*
X73619524Y-38034819D02*
X73857619Y-38034819D01*
X73857619Y-38034819D02*
X73952857Y-37987200D01*
X73952857Y-37987200D02*
X74000476Y-37939580D01*
X74000476Y-37939580D02*
X74048095Y-37844342D01*
X74048095Y-37844342D02*
X74048095Y-37749104D01*
X74048095Y-37749104D02*
X74000476Y-37653866D01*
X74000476Y-37653866D02*
X73952857Y-37606247D01*
X73952857Y-37606247D02*
X73857619Y-37558628D01*
X73857619Y-37558628D02*
X73667143Y-37511009D01*
X73667143Y-37511009D02*
X73571905Y-37463390D01*
X73571905Y-37463390D02*
X73524286Y-37415771D01*
X73524286Y-37415771D02*
X73476667Y-37320533D01*
X73476667Y-37320533D02*
X73476667Y-37225295D01*
X73476667Y-37225295D02*
X73524286Y-37130057D01*
X73524286Y-37130057D02*
X73571905Y-37082438D01*
X73571905Y-37082438D02*
X73667143Y-37034819D01*
X73667143Y-37034819D02*
X73905238Y-37034819D01*
X73905238Y-37034819D02*
X74048095Y-37082438D01*
X74381429Y-37034819D02*
X74619524Y-38034819D01*
X74619524Y-38034819D02*
X74810000Y-37320533D01*
X74810000Y-37320533D02*
X75000476Y-38034819D01*
X75000476Y-38034819D02*
X75238572Y-37034819D01*
X76143333Y-38034819D02*
X75571905Y-38034819D01*
X75857619Y-38034819D02*
X75857619Y-37034819D01*
X75857619Y-37034819D02*
X75762381Y-37177676D01*
X75762381Y-37177676D02*
X75667143Y-37272914D01*
X75667143Y-37272914D02*
X75571905Y-37320533D01*
X69904761Y-44650057D02*
X69809523Y-44602438D01*
X69809523Y-44602438D02*
X69714285Y-44507200D01*
X69714285Y-44507200D02*
X69571428Y-44364342D01*
X69571428Y-44364342D02*
X69476190Y-44316723D01*
X69476190Y-44316723D02*
X69380952Y-44316723D01*
X69428571Y-44554819D02*
X69333333Y-44507200D01*
X69333333Y-44507200D02*
X69238095Y-44411961D01*
X69238095Y-44411961D02*
X69190476Y-44221485D01*
X69190476Y-44221485D02*
X69190476Y-43888152D01*
X69190476Y-43888152D02*
X69238095Y-43697676D01*
X69238095Y-43697676D02*
X69333333Y-43602438D01*
X69333333Y-43602438D02*
X69428571Y-43554819D01*
X69428571Y-43554819D02*
X69619047Y-43554819D01*
X69619047Y-43554819D02*
X69714285Y-43602438D01*
X69714285Y-43602438D02*
X69809523Y-43697676D01*
X69809523Y-43697676D02*
X69857142Y-43888152D01*
X69857142Y-43888152D02*
X69857142Y-44221485D01*
X69857142Y-44221485D02*
X69809523Y-44411961D01*
X69809523Y-44411961D02*
X69714285Y-44507200D01*
X69714285Y-44507200D02*
X69619047Y-44554819D01*
X69619047Y-44554819D02*
X69428571Y-44554819D01*
X70809523Y-44554819D02*
X70238095Y-44554819D01*
X70523809Y-44554819D02*
X70523809Y-43554819D01*
X70523809Y-43554819D02*
X70428571Y-43697676D01*
X70428571Y-43697676D02*
X70333333Y-43792914D01*
X70333333Y-43792914D02*
X70238095Y-43840533D01*
X73333333Y-49024819D02*
X73000000Y-48548628D01*
X72761905Y-49024819D02*
X72761905Y-48024819D01*
X72761905Y-48024819D02*
X73142857Y-48024819D01*
X73142857Y-48024819D02*
X73238095Y-48072438D01*
X73238095Y-48072438D02*
X73285714Y-48120057D01*
X73285714Y-48120057D02*
X73333333Y-48215295D01*
X73333333Y-48215295D02*
X73333333Y-48358152D01*
X73333333Y-48358152D02*
X73285714Y-48453390D01*
X73285714Y-48453390D02*
X73238095Y-48501009D01*
X73238095Y-48501009D02*
X73142857Y-48548628D01*
X73142857Y-48548628D02*
X72761905Y-48548628D01*
X73666667Y-48024819D02*
X74285714Y-48024819D01*
X74285714Y-48024819D02*
X73952381Y-48405771D01*
X73952381Y-48405771D02*
X74095238Y-48405771D01*
X74095238Y-48405771D02*
X74190476Y-48453390D01*
X74190476Y-48453390D02*
X74238095Y-48501009D01*
X74238095Y-48501009D02*
X74285714Y-48596247D01*
X74285714Y-48596247D02*
X74285714Y-48834342D01*
X74285714Y-48834342D02*
X74238095Y-48929580D01*
X74238095Y-48929580D02*
X74190476Y-48977200D01*
X74190476Y-48977200D02*
X74095238Y-49024819D01*
X74095238Y-49024819D02*
X73809524Y-49024819D01*
X73809524Y-49024819D02*
X73714286Y-48977200D01*
X73714286Y-48977200D02*
X73666667Y-48929580D01*
X69761905Y-57454819D02*
X69761905Y-56454819D01*
X69761905Y-56454819D02*
X70000000Y-56454819D01*
X70000000Y-56454819D02*
X70142857Y-56502438D01*
X70142857Y-56502438D02*
X70238095Y-56597676D01*
X70238095Y-56597676D02*
X70285714Y-56692914D01*
X70285714Y-56692914D02*
X70333333Y-56883390D01*
X70333333Y-56883390D02*
X70333333Y-57026247D01*
X70333333Y-57026247D02*
X70285714Y-57216723D01*
X70285714Y-57216723D02*
X70238095Y-57311961D01*
X70238095Y-57311961D02*
X70142857Y-57407200D01*
X70142857Y-57407200D02*
X70000000Y-57454819D01*
X70000000Y-57454819D02*
X69761905Y-57454819D01*
X71285714Y-57454819D02*
X70714286Y-57454819D01*
X71000000Y-57454819D02*
X71000000Y-56454819D01*
X71000000Y-56454819D02*
X70904762Y-56597676D01*
X70904762Y-56597676D02*
X70809524Y-56692914D01*
X70809524Y-56692914D02*
X70714286Y-56740533D01*
X33024819Y-48166666D02*
X32548628Y-48499999D01*
X33024819Y-48738094D02*
X32024819Y-48738094D01*
X32024819Y-48738094D02*
X32024819Y-48357142D01*
X32024819Y-48357142D02*
X32072438Y-48261904D01*
X32072438Y-48261904D02*
X32120057Y-48214285D01*
X32120057Y-48214285D02*
X32215295Y-48166666D01*
X32215295Y-48166666D02*
X32358152Y-48166666D01*
X32358152Y-48166666D02*
X32453390Y-48214285D01*
X32453390Y-48214285D02*
X32501009Y-48261904D01*
X32501009Y-48261904D02*
X32548628Y-48357142D01*
X32548628Y-48357142D02*
X32548628Y-48738094D01*
X32358152Y-47309523D02*
X33024819Y-47309523D01*
X31977200Y-47547618D02*
X32691485Y-47785713D01*
X32691485Y-47785713D02*
X32691485Y-47166666D01*
X35024819Y-39166666D02*
X34548628Y-39499999D01*
X35024819Y-39738094D02*
X34024819Y-39738094D01*
X34024819Y-39738094D02*
X34024819Y-39357142D01*
X34024819Y-39357142D02*
X34072438Y-39261904D01*
X34072438Y-39261904D02*
X34120057Y-39214285D01*
X34120057Y-39214285D02*
X34215295Y-39166666D01*
X34215295Y-39166666D02*
X34358152Y-39166666D01*
X34358152Y-39166666D02*
X34453390Y-39214285D01*
X34453390Y-39214285D02*
X34501009Y-39261904D01*
X34501009Y-39261904D02*
X34548628Y-39357142D01*
X34548628Y-39357142D02*
X34548628Y-39738094D01*
X34024819Y-38309523D02*
X34024819Y-38499999D01*
X34024819Y-38499999D02*
X34072438Y-38595237D01*
X34072438Y-38595237D02*
X34120057Y-38642856D01*
X34120057Y-38642856D02*
X34262914Y-38738094D01*
X34262914Y-38738094D02*
X34453390Y-38785713D01*
X34453390Y-38785713D02*
X34834342Y-38785713D01*
X34834342Y-38785713D02*
X34929580Y-38738094D01*
X34929580Y-38738094D02*
X34977200Y-38690475D01*
X34977200Y-38690475D02*
X35024819Y-38595237D01*
X35024819Y-38595237D02*
X35024819Y-38404761D01*
X35024819Y-38404761D02*
X34977200Y-38309523D01*
X34977200Y-38309523D02*
X34929580Y-38261904D01*
X34929580Y-38261904D02*
X34834342Y-38214285D01*
X34834342Y-38214285D02*
X34596247Y-38214285D01*
X34596247Y-38214285D02*
X34501009Y-38261904D01*
X34501009Y-38261904D02*
X34453390Y-38309523D01*
X34453390Y-38309523D02*
X34405771Y-38404761D01*
X34405771Y-38404761D02*
X34405771Y-38595237D01*
X34405771Y-38595237D02*
X34453390Y-38690475D01*
X34453390Y-38690475D02*
X34501009Y-38738094D01*
X34501009Y-38738094D02*
X34596247Y-38785713D01*
X70666666Y-33074819D02*
X70666666Y-33789104D01*
X70666666Y-33789104D02*
X70619047Y-33931961D01*
X70619047Y-33931961D02*
X70523809Y-34027200D01*
X70523809Y-34027200D02*
X70380952Y-34074819D01*
X70380952Y-34074819D02*
X70285714Y-34074819D01*
X71666666Y-34074819D02*
X71095238Y-34074819D01*
X71380952Y-34074819D02*
X71380952Y-33074819D01*
X71380952Y-33074819D02*
X71285714Y-33217676D01*
X71285714Y-33217676D02*
X71190476Y-33312914D01*
X71190476Y-33312914D02*
X71095238Y-33360533D01*
X66024819Y-47666666D02*
X65548628Y-47999999D01*
X66024819Y-48238094D02*
X65024819Y-48238094D01*
X65024819Y-48238094D02*
X65024819Y-47857142D01*
X65024819Y-47857142D02*
X65072438Y-47761904D01*
X65072438Y-47761904D02*
X65120057Y-47714285D01*
X65120057Y-47714285D02*
X65215295Y-47666666D01*
X65215295Y-47666666D02*
X65358152Y-47666666D01*
X65358152Y-47666666D02*
X65453390Y-47714285D01*
X65453390Y-47714285D02*
X65501009Y-47761904D01*
X65501009Y-47761904D02*
X65548628Y-47857142D01*
X65548628Y-47857142D02*
X65548628Y-48238094D01*
X65120057Y-47285713D02*
X65072438Y-47238094D01*
X65072438Y-47238094D02*
X65024819Y-47142856D01*
X65024819Y-47142856D02*
X65024819Y-46904761D01*
X65024819Y-46904761D02*
X65072438Y-46809523D01*
X65072438Y-46809523D02*
X65120057Y-46761904D01*
X65120057Y-46761904D02*
X65215295Y-46714285D01*
X65215295Y-46714285D02*
X65310533Y-46714285D01*
X65310533Y-46714285D02*
X65453390Y-46761904D01*
X65453390Y-46761904D02*
X66024819Y-47333332D01*
X66024819Y-47333332D02*
X66024819Y-46714285D01*
X51738095Y-38574819D02*
X51738095Y-39384342D01*
X51738095Y-39384342D02*
X51785714Y-39479580D01*
X51785714Y-39479580D02*
X51833333Y-39527200D01*
X51833333Y-39527200D02*
X51928571Y-39574819D01*
X51928571Y-39574819D02*
X52119047Y-39574819D01*
X52119047Y-39574819D02*
X52214285Y-39527200D01*
X52214285Y-39527200D02*
X52261904Y-39479580D01*
X52261904Y-39479580D02*
X52309523Y-39384342D01*
X52309523Y-39384342D02*
X52309523Y-38574819D01*
X53309523Y-39574819D02*
X52738095Y-39574819D01*
X53023809Y-39574819D02*
X53023809Y-38574819D01*
X53023809Y-38574819D02*
X52928571Y-38717676D01*
X52928571Y-38717676D02*
X52833333Y-38812914D01*
X52833333Y-38812914D02*
X52738095Y-38860533D01*
X66024819Y-45166666D02*
X65548628Y-45499999D01*
X66024819Y-45738094D02*
X65024819Y-45738094D01*
X65024819Y-45738094D02*
X65024819Y-45357142D01*
X65024819Y-45357142D02*
X65072438Y-45261904D01*
X65072438Y-45261904D02*
X65120057Y-45214285D01*
X65120057Y-45214285D02*
X65215295Y-45166666D01*
X65215295Y-45166666D02*
X65358152Y-45166666D01*
X65358152Y-45166666D02*
X65453390Y-45214285D01*
X65453390Y-45214285D02*
X65501009Y-45261904D01*
X65501009Y-45261904D02*
X65548628Y-45357142D01*
X65548628Y-45357142D02*
X65548628Y-45738094D01*
X66024819Y-44214285D02*
X66024819Y-44785713D01*
X66024819Y-44499999D02*
X65024819Y-44499999D01*
X65024819Y-44499999D02*
X65167676Y-44595237D01*
X65167676Y-44595237D02*
X65262914Y-44690475D01*
X65262914Y-44690475D02*
X65310533Y-44785713D01*
%TO.C,R5*%
D11*
X33477500Y-51237258D02*
X33477500Y-50762742D01*
X34522500Y-51237258D02*
X34522500Y-50762742D01*
%TO.C,C1*%
X36990000Y-49640580D02*
X36990000Y-49359420D01*
X38010000Y-49640580D02*
X38010000Y-49359420D01*
%TO.C,C4*%
X66738748Y-37265000D02*
X67261252Y-37265000D01*
X66738748Y-38735000D02*
X67261252Y-38735000D01*
%TO.C,J2*%
X51120000Y-60120000D02*
X52500000Y-60120000D01*
X51120000Y-61500000D02*
X51120000Y-60120000D01*
X51120000Y-62770000D02*
X51120000Y-67960000D01*
X51120000Y-62770000D02*
X53880000Y-62770000D01*
X51120000Y-67960000D02*
X53880000Y-67960000D01*
X53880000Y-62770000D02*
X53880000Y-67960000D01*
%TO.C,C3*%
X72990000Y-53640580D02*
X72990000Y-53359420D01*
X74010000Y-53640580D02*
X74010000Y-53359420D01*
%TO.C,C2*%
X67340302Y-51685000D02*
X68140302Y-51685000D01*
X67740302Y-51285000D02*
X67740302Y-52085000D01*
X71750000Y-49920000D02*
X71750000Y-58080000D01*
X71790000Y-49920000D02*
X71790000Y-58080000D01*
X71830000Y-49921000D02*
X71830000Y-58079000D01*
X71870000Y-49922000D02*
X71870000Y-58078000D01*
X71910000Y-49923000D02*
X71910000Y-58077000D01*
X71950000Y-49925000D02*
X71950000Y-58075000D01*
X71990000Y-49927000D02*
X71990000Y-58073000D01*
X72030000Y-49930000D02*
X72030000Y-58070000D01*
X72070000Y-49932000D02*
X72070000Y-58068000D01*
X72110000Y-49936000D02*
X72110000Y-58064000D01*
X72150000Y-49939000D02*
X72150000Y-58061000D01*
X72190000Y-49944000D02*
X72190000Y-58056000D01*
X72230000Y-49948000D02*
X72230000Y-58052000D01*
X72270000Y-49953000D02*
X72270000Y-58047000D01*
X72310000Y-49958000D02*
X72310000Y-58042000D01*
X72350000Y-49964000D02*
X72350000Y-58036000D01*
X72390000Y-49970000D02*
X72390000Y-58030000D01*
X72430000Y-49977000D02*
X72430000Y-58023000D01*
X72470000Y-49983000D02*
X72470000Y-52960000D01*
X72470000Y-55040000D02*
X72470000Y-58017000D01*
X72510000Y-49991000D02*
X72510000Y-52960000D01*
X72510000Y-55040000D02*
X72510000Y-58009000D01*
X72550000Y-49998000D02*
X72550000Y-52960000D01*
X72550000Y-55040000D02*
X72550000Y-58002000D01*
X72590000Y-50007000D02*
X72590000Y-52960000D01*
X72590000Y-55040000D02*
X72590000Y-57993000D01*
X72630000Y-50015000D02*
X72630000Y-52960000D01*
X72630000Y-55040000D02*
X72630000Y-57985000D01*
X72670000Y-50024000D02*
X72670000Y-52960000D01*
X72670000Y-55040000D02*
X72670000Y-57976000D01*
X72710000Y-50033000D02*
X72710000Y-52960000D01*
X72710000Y-55040000D02*
X72710000Y-57967000D01*
X72750000Y-50043000D02*
X72750000Y-52960000D01*
X72750000Y-55040000D02*
X72750000Y-57957000D01*
X72790000Y-50053000D02*
X72790000Y-52960000D01*
X72790000Y-55040000D02*
X72790000Y-57947000D01*
X72830000Y-50064000D02*
X72830000Y-52960000D01*
X72830000Y-55040000D02*
X72830000Y-57936000D01*
X72870000Y-50075000D02*
X72870000Y-52960000D01*
X72870000Y-55040000D02*
X72870000Y-57925000D01*
X72910000Y-50087000D02*
X72910000Y-52960000D01*
X72910000Y-55040000D02*
X72910000Y-57913000D01*
X72950000Y-50099000D02*
X72950000Y-52960000D01*
X72950000Y-55040000D02*
X72950000Y-57901000D01*
X72990000Y-50111000D02*
X72990000Y-52960000D01*
X72990000Y-55040000D02*
X72990000Y-57889000D01*
X73030000Y-50124000D02*
X73030000Y-52960000D01*
X73030000Y-55040000D02*
X73030000Y-57876000D01*
X73070000Y-50137000D02*
X73070000Y-52960000D01*
X73070000Y-55040000D02*
X73070000Y-57863000D01*
X73110000Y-50151000D02*
X73110000Y-52960000D01*
X73110000Y-55040000D02*
X73110000Y-57849000D01*
X73150000Y-50165000D02*
X73150000Y-52960000D01*
X73150000Y-55040000D02*
X73150000Y-57835000D01*
X73190000Y-50180000D02*
X73190000Y-52960000D01*
X73190000Y-55040000D02*
X73190000Y-57820000D01*
X73230000Y-50195000D02*
X73230000Y-52960000D01*
X73230000Y-55040000D02*
X73230000Y-57805000D01*
X73270000Y-50211000D02*
X73270000Y-52960000D01*
X73270000Y-55040000D02*
X73270000Y-57789000D01*
X73310000Y-50227000D02*
X73310000Y-52960000D01*
X73310000Y-55040000D02*
X73310000Y-57773000D01*
X73350000Y-50243000D02*
X73350000Y-52960000D01*
X73350000Y-55040000D02*
X73350000Y-57757000D01*
X73390000Y-50260000D02*
X73390000Y-52960000D01*
X73390000Y-55040000D02*
X73390000Y-57740000D01*
X73430000Y-50278000D02*
X73430000Y-52960000D01*
X73430000Y-55040000D02*
X73430000Y-57722000D01*
X73470000Y-50296000D02*
X73470000Y-52960000D01*
X73470000Y-55040000D02*
X73470000Y-57704000D01*
X73510000Y-50315000D02*
X73510000Y-52960000D01*
X73510000Y-55040000D02*
X73510000Y-57685000D01*
X73550000Y-50334000D02*
X73550000Y-52960000D01*
X73550000Y-55040000D02*
X73550000Y-57666000D01*
X73590000Y-50354000D02*
X73590000Y-52960000D01*
X73590000Y-55040000D02*
X73590000Y-57646000D01*
X73630000Y-50374000D02*
X73630000Y-52960000D01*
X73630000Y-55040000D02*
X73630000Y-57626000D01*
X73670000Y-50395000D02*
X73670000Y-52960000D01*
X73670000Y-55040000D02*
X73670000Y-57605000D01*
X73710000Y-50416000D02*
X73710000Y-52960000D01*
X73710000Y-55040000D02*
X73710000Y-57584000D01*
X73750000Y-50438000D02*
X73750000Y-52960000D01*
X73750000Y-55040000D02*
X73750000Y-57562000D01*
X73790000Y-50461000D02*
X73790000Y-52960000D01*
X73790000Y-55040000D02*
X73790000Y-57539000D01*
X73830000Y-50484000D02*
X73830000Y-52960000D01*
X73830000Y-55040000D02*
X73830000Y-57516000D01*
X73870000Y-50507000D02*
X73870000Y-52960000D01*
X73870000Y-55040000D02*
X73870000Y-57493000D01*
X73910000Y-50532000D02*
X73910000Y-52960000D01*
X73910000Y-55040000D02*
X73910000Y-57468000D01*
X73950000Y-50557000D02*
X73950000Y-52960000D01*
X73950000Y-55040000D02*
X73950000Y-57443000D01*
X73990000Y-50582000D02*
X73990000Y-52960000D01*
X73990000Y-55040000D02*
X73990000Y-57418000D01*
X74030000Y-50608000D02*
X74030000Y-52960000D01*
X74030000Y-55040000D02*
X74030000Y-57392000D01*
X74070000Y-50635000D02*
X74070000Y-52960000D01*
X74070000Y-55040000D02*
X74070000Y-57365000D01*
X74110000Y-50663000D02*
X74110000Y-52960000D01*
X74110000Y-55040000D02*
X74110000Y-57337000D01*
X74150000Y-50691000D02*
X74150000Y-52960000D01*
X74150000Y-55040000D02*
X74150000Y-57309000D01*
X74190000Y-50720000D02*
X74190000Y-52960000D01*
X74190000Y-55040000D02*
X74190000Y-57280000D01*
X74230000Y-50750000D02*
X74230000Y-52960000D01*
X74230000Y-55040000D02*
X74230000Y-57250000D01*
X74270000Y-50781000D02*
X74270000Y-52960000D01*
X74270000Y-55040000D02*
X74270000Y-57219000D01*
X74310000Y-50812000D02*
X74310000Y-52960000D01*
X74310000Y-55040000D02*
X74310000Y-57188000D01*
X74350000Y-50844000D02*
X74350000Y-52960000D01*
X74350000Y-55040000D02*
X74350000Y-57156000D01*
X74390000Y-50877000D02*
X74390000Y-52960000D01*
X74390000Y-55040000D02*
X74390000Y-57123000D01*
X74430000Y-50911000D02*
X74430000Y-52960000D01*
X74430000Y-55040000D02*
X74430000Y-57089000D01*
X74470000Y-50945000D02*
X74470000Y-52960000D01*
X74470000Y-55040000D02*
X74470000Y-57055000D01*
X74510000Y-50981000D02*
X74510000Y-52960000D01*
X74510000Y-55040000D02*
X74510000Y-57019000D01*
X74550000Y-51018000D02*
X74550000Y-56982000D01*
X74590000Y-51055000D02*
X74590000Y-56945000D01*
X74630000Y-51094000D02*
X74630000Y-56906000D01*
X74670000Y-51133000D02*
X74670000Y-56867000D01*
X74710000Y-51174000D02*
X74710000Y-56826000D01*
X74750000Y-51216000D02*
X74750000Y-56784000D01*
X74790000Y-51259000D02*
X74790000Y-56741000D01*
X74830000Y-51304000D02*
X74830000Y-56696000D01*
X74870000Y-51349000D02*
X74870000Y-56651000D01*
X74910000Y-51396000D02*
X74910000Y-56604000D01*
X74950000Y-51445000D02*
X74950000Y-56555000D01*
X74990000Y-51495000D02*
X74990000Y-56505000D01*
X75030000Y-51547000D02*
X75030000Y-56453000D01*
X75070000Y-51600000D02*
X75070000Y-56400000D01*
X75110000Y-51656000D02*
X75110000Y-56344000D01*
X75150000Y-51713000D02*
X75150000Y-56287000D01*
X75190000Y-51773000D02*
X75190000Y-56227000D01*
X75230000Y-51835000D02*
X75230000Y-56165000D01*
X75270000Y-51899000D02*
X75270000Y-56101000D01*
X75310000Y-51966000D02*
X75310000Y-56034000D01*
X75350000Y-52036000D02*
X75350000Y-55964000D01*
X75390000Y-52110000D02*
X75390000Y-55890000D01*
X75430000Y-52187000D02*
X75430000Y-55813000D01*
X75470000Y-52269000D02*
X75470000Y-55731000D01*
X75510000Y-52356000D02*
X75510000Y-55644000D01*
X75550000Y-52448000D02*
X75550000Y-55552000D01*
X75590000Y-52547000D02*
X75590000Y-55453000D01*
X75630000Y-52654000D02*
X75630000Y-55346000D01*
X75670000Y-52772000D02*
X75670000Y-55228000D01*
X75710000Y-52903000D02*
X75710000Y-55097000D01*
X75750000Y-53053000D02*
X75750000Y-54947000D01*
X75790000Y-53232000D02*
X75790000Y-54768000D01*
X75830000Y-53467000D02*
X75830000Y-54533000D01*
X75870000Y-54000000D02*
G75*
G02*
X67630000Y-54000000I-4120000J0D01*
G01*
X67630000Y-54000000D02*
G75*
G02*
X75870000Y-54000000I4120000J0D01*
G01*
%TO.C,Q2*%
X72740000Y-44940000D02*
X74260000Y-44940000D01*
X72740000Y-44990000D02*
X72740000Y-44940000D01*
X72740000Y-46890000D02*
X72740000Y-46110000D01*
X72740000Y-48060000D02*
X72740000Y-48010000D01*
X74260000Y-44940000D02*
X74260000Y-45940000D01*
X74260000Y-47060000D02*
X74260000Y-48060000D01*
X74260000Y-48060000D02*
X72740000Y-48060000D01*
X72200000Y-46120000D02*
X72440000Y-46450000D01*
X71960000Y-46450000D01*
X72200000Y-46120000D01*
G36*
X72440000Y-46450000D02*
G01*
X71960000Y-46450000D01*
X72200000Y-46120000D01*
X72440000Y-46450000D01*
G37*
%TO.C,C5*%
X73490000Y-60640580D02*
X73490000Y-60359420D01*
X74510000Y-60640580D02*
X74510000Y-60359420D01*
%TO.C,R7*%
X65977500Y-59737258D02*
X65977500Y-59262742D01*
X67022500Y-59737258D02*
X67022500Y-59262742D01*
%TO.C,SW1*%
X69620000Y-38340000D02*
X69620000Y-39723000D01*
X69620000Y-38340000D02*
X71003000Y-38340000D01*
X69860000Y-38580000D02*
X69860000Y-43420000D01*
X69860000Y-38580000D02*
X79760000Y-38580000D01*
X69860000Y-43420000D02*
X79760000Y-43420000D01*
X74133333Y-40365000D02*
X74133333Y-41635000D01*
X79760000Y-38580000D02*
X79760000Y-43420000D01*
X72780000Y-40365000D02*
X74133333Y-40365000D01*
X74133333Y-41635000D01*
X72780000Y-41635000D01*
X72780000Y-40365000D01*
G36*
X72780000Y-40365000D02*
G01*
X74133333Y-40365000D01*
X74133333Y-41635000D01*
X72780000Y-41635000D01*
X72780000Y-40365000D01*
G37*
X72780000Y-40365000D02*
X76840000Y-40365000D01*
X76840000Y-41635000D01*
X72780000Y-41635000D01*
X72780000Y-40365000D01*
%TO.C,Q1*%
X69240000Y-44940000D02*
X70760000Y-44940000D01*
X69240000Y-44990000D02*
X69240000Y-44940000D01*
X69240000Y-46890000D02*
X69240000Y-46110000D01*
X69240000Y-48060000D02*
X69240000Y-48010000D01*
X70760000Y-44940000D02*
X70760000Y-45940000D01*
X70760000Y-47060000D02*
X70760000Y-48060000D01*
X70760000Y-48060000D02*
X69240000Y-48060000D01*
X68700000Y-46120000D02*
X68940000Y-46450000D01*
X68460000Y-46450000D01*
X68700000Y-46120000D01*
G36*
X68940000Y-46450000D02*
G01*
X68460000Y-46450000D01*
X68700000Y-46120000D01*
X68940000Y-46450000D01*
G37*
%TO.C,R3*%
X73262742Y-49477500D02*
X73737258Y-49477500D01*
X73262742Y-50522500D02*
X73737258Y-50522500D01*
%TO.C,D1*%
X67000000Y-58200000D02*
X67000000Y-63250000D01*
X67450000Y-57750000D02*
X67000000Y-58200000D01*
X67800000Y-59600000D02*
X67800000Y-61400000D01*
X73200000Y-59600000D02*
X73200000Y-61400000D01*
X74000000Y-57750000D02*
X67450000Y-57750000D01*
X74000000Y-63250000D02*
X67000000Y-63250000D01*
X74000000Y-63250000D02*
X74000000Y-57750000D01*
%TO.C,R4*%
X33477500Y-48237258D02*
X33477500Y-47762742D01*
X34522500Y-48237258D02*
X34522500Y-47762742D01*
%TO.C,R6*%
X35477500Y-39237258D02*
X35477500Y-38762742D01*
X36522500Y-39237258D02*
X36522500Y-38762742D01*
%TO.C,J1*%
X69620000Y-34620000D02*
X71000000Y-34620000D01*
X69620000Y-36000000D02*
X69620000Y-34620000D01*
X69620000Y-37270000D02*
X69620000Y-39920000D01*
X69620000Y-37270000D02*
X72380000Y-37270000D01*
X69620000Y-39920000D02*
X72380000Y-39920000D01*
X72380000Y-37270000D02*
X72380000Y-39920000D01*
%TO.C,R2*%
X66477500Y-47737258D02*
X66477500Y-47262742D01*
X67522500Y-47737258D02*
X67522500Y-47262742D01*
%TO.C,U1*%
X51120000Y-40120000D02*
X52500000Y-40120000D01*
X51120000Y-41500000D02*
X51120000Y-40120000D01*
X51120000Y-42770000D02*
X51120000Y-58120000D01*
X51120000Y-42770000D02*
X53880000Y-42770000D01*
X51120000Y-58120000D02*
X53880000Y-58120000D01*
X53880000Y-42770000D02*
X53880000Y-58120000D01*
%TO.C,R1*%
X66477500Y-45237258D02*
X66477500Y-44762742D01*
X67522500Y-45237258D02*
X67522500Y-44762742D01*
%TD*%
M02*
