%TF.GenerationSoftware,KiCad,Pcbnew,10.0.4*%
%TF.CreationDate,2026-06-22T12:49:35-04:00*%
%TF.ProjectId,smart_vent_v1,736d6172-745f-4766-956e-745f76312e6b,rev?*%
%TF.SameCoordinates,Original*%
%TF.FileFunction,Legend,Top*%
%TF.FilePolarity,Positive*%
%FSLAX46Y46*%
G04 Gerber Fmt 4.6, Leading zero omitted, Abs format (unit mm)*
G04 Created by KiCad (PCBNEW 10.0.4) date 2026-06-22 12:49:35*
%MOMM*%
%LPD*%
G01*
G04 APERTURE LIST*
%ADD10C,0.150000*%
%ADD11C,0.120000*%
G04 APERTURE END LIST*
D10*
X57666666Y-54574819D02*
X57666666Y-55289104D01*
X57666666Y-55289104D02*
X57619047Y-55431961D01*
X57619047Y-55431961D02*
X57523809Y-55527200D01*
X57523809Y-55527200D02*
X57380952Y-55574819D01*
X57380952Y-55574819D02*
X57285714Y-55574819D01*
X58095238Y-54670057D02*
X58142857Y-54622438D01*
X58142857Y-54622438D02*
X58238095Y-54574819D01*
X58238095Y-54574819D02*
X58476190Y-54574819D01*
X58476190Y-54574819D02*
X58571428Y-54622438D01*
X58571428Y-54622438D02*
X58619047Y-54670057D01*
X58619047Y-54670057D02*
X58666666Y-54765295D01*
X58666666Y-54765295D02*
X58666666Y-54860533D01*
X58666666Y-54860533D02*
X58619047Y-55003390D01*
X58619047Y-55003390D02*
X58047619Y-55574819D01*
X58047619Y-55574819D02*
X58666666Y-55574819D01*
X67724761Y-44470057D02*
X67629523Y-44422438D01*
X67629523Y-44422438D02*
X67534285Y-44327200D01*
X67534285Y-44327200D02*
X67391428Y-44184342D01*
X67391428Y-44184342D02*
X67296190Y-44136723D01*
X67296190Y-44136723D02*
X67200952Y-44136723D01*
X67248571Y-44374819D02*
X67153333Y-44327200D01*
X67153333Y-44327200D02*
X67058095Y-44231961D01*
X67058095Y-44231961D02*
X67010476Y-44041485D01*
X67010476Y-44041485D02*
X67010476Y-43708152D01*
X67010476Y-43708152D02*
X67058095Y-43517676D01*
X67058095Y-43517676D02*
X67153333Y-43422438D01*
X67153333Y-43422438D02*
X67248571Y-43374819D01*
X67248571Y-43374819D02*
X67439047Y-43374819D01*
X67439047Y-43374819D02*
X67534285Y-43422438D01*
X67534285Y-43422438D02*
X67629523Y-43517676D01*
X67629523Y-43517676D02*
X67677142Y-43708152D01*
X67677142Y-43708152D02*
X67677142Y-44041485D01*
X67677142Y-44041485D02*
X67629523Y-44231961D01*
X67629523Y-44231961D02*
X67534285Y-44327200D01*
X67534285Y-44327200D02*
X67439047Y-44374819D01*
X67439047Y-44374819D02*
X67248571Y-44374819D01*
X68629523Y-44374819D02*
X68058095Y-44374819D01*
X68343809Y-44374819D02*
X68343809Y-43374819D01*
X68343809Y-43374819D02*
X68248571Y-43517676D01*
X68248571Y-43517676D02*
X68153333Y-43612914D01*
X68153333Y-43612914D02*
X68058095Y-43660533D01*
X68859580Y-56896666D02*
X68907200Y-56944285D01*
X68907200Y-56944285D02*
X68954819Y-57087142D01*
X68954819Y-57087142D02*
X68954819Y-57182380D01*
X68954819Y-57182380D02*
X68907200Y-57325237D01*
X68907200Y-57325237D02*
X68811961Y-57420475D01*
X68811961Y-57420475D02*
X68716723Y-57468094D01*
X68716723Y-57468094D02*
X68526247Y-57515713D01*
X68526247Y-57515713D02*
X68383390Y-57515713D01*
X68383390Y-57515713D02*
X68192914Y-57468094D01*
X68192914Y-57468094D02*
X68097676Y-57420475D01*
X68097676Y-57420475D02*
X68002438Y-57325237D01*
X68002438Y-57325237D02*
X67954819Y-57182380D01*
X67954819Y-57182380D02*
X67954819Y-57087142D01*
X67954819Y-57087142D02*
X68002438Y-56944285D01*
X68002438Y-56944285D02*
X68050057Y-56896666D01*
X67954819Y-55991904D02*
X67954819Y-56468094D01*
X67954819Y-56468094D02*
X68431009Y-56515713D01*
X68431009Y-56515713D02*
X68383390Y-56468094D01*
X68383390Y-56468094D02*
X68335771Y-56372856D01*
X68335771Y-56372856D02*
X68335771Y-56134761D01*
X68335771Y-56134761D02*
X68383390Y-56039523D01*
X68383390Y-56039523D02*
X68431009Y-55991904D01*
X68431009Y-55991904D02*
X68526247Y-55944285D01*
X68526247Y-55944285D02*
X68764342Y-55944285D01*
X68764342Y-55944285D02*
X68859580Y-55991904D01*
X68859580Y-55991904D02*
X68907200Y-56039523D01*
X68907200Y-56039523D02*
X68954819Y-56134761D01*
X68954819Y-56134761D02*
X68954819Y-56372856D01*
X68954819Y-56372856D02*
X68907200Y-56468094D01*
X68907200Y-56468094D02*
X68859580Y-56515713D01*
X35024819Y-39166666D02*
X34548628Y-39499999D01*
X35024819Y-39738094D02*
X34024819Y-39738094D01*
X34024819Y-39738094D02*
X34024819Y-39357142D01*
X34024819Y-39357142D02*
X34072438Y-39261904D01*
X34072438Y-39261904D02*
X34120057Y-39214285D01*
X34120057Y-39214285D02*
X34215295Y-39166666D01*
X34215295Y-39166666D02*
X34358152Y-39166666D01*
X34358152Y-39166666D02*
X34453390Y-39214285D01*
X34453390Y-39214285D02*
X34501009Y-39261904D01*
X34501009Y-39261904D02*
X34548628Y-39357142D01*
X34548628Y-39357142D02*
X34548628Y-39738094D01*
X34024819Y-38309523D02*
X34024819Y-38499999D01*
X34024819Y-38499999D02*
X34072438Y-38595237D01*
X34072438Y-38595237D02*
X34120057Y-38642856D01*
X34120057Y-38642856D02*
X34262914Y-38738094D01*
X34262914Y-38738094D02*
X34453390Y-38785713D01*
X34453390Y-38785713D02*
X34834342Y-38785713D01*
X34834342Y-38785713D02*
X34929580Y-38738094D01*
X34929580Y-38738094D02*
X34977200Y-38690475D01*
X34977200Y-38690475D02*
X35024819Y-38595237D01*
X35024819Y-38595237D02*
X35024819Y-38404761D01*
X35024819Y-38404761D02*
X34977200Y-38309523D01*
X34977200Y-38309523D02*
X34929580Y-38261904D01*
X34929580Y-38261904D02*
X34834342Y-38214285D01*
X34834342Y-38214285D02*
X34596247Y-38214285D01*
X34596247Y-38214285D02*
X34501009Y-38261904D01*
X34501009Y-38261904D02*
X34453390Y-38309523D01*
X34453390Y-38309523D02*
X34405771Y-38404761D01*
X34405771Y-38404761D02*
X34405771Y-38595237D01*
X34405771Y-38595237D02*
X34453390Y-38690475D01*
X34453390Y-38690475D02*
X34501009Y-38738094D01*
X34501009Y-38738094D02*
X34596247Y-38785713D01*
X64403333Y-47969580D02*
X64355714Y-48017200D01*
X64355714Y-48017200D02*
X64212857Y-48064819D01*
X64212857Y-48064819D02*
X64117619Y-48064819D01*
X64117619Y-48064819D02*
X63974762Y-48017200D01*
X63974762Y-48017200D02*
X63879524Y-47921961D01*
X63879524Y-47921961D02*
X63831905Y-47826723D01*
X63831905Y-47826723D02*
X63784286Y-47636247D01*
X63784286Y-47636247D02*
X63784286Y-47493390D01*
X63784286Y-47493390D02*
X63831905Y-47302914D01*
X63831905Y-47302914D02*
X63879524Y-47207676D01*
X63879524Y-47207676D02*
X63974762Y-47112438D01*
X63974762Y-47112438D02*
X64117619Y-47064819D01*
X64117619Y-47064819D02*
X64212857Y-47064819D01*
X64212857Y-47064819D02*
X64355714Y-47112438D01*
X64355714Y-47112438D02*
X64403333Y-47160057D01*
X64784286Y-47160057D02*
X64831905Y-47112438D01*
X64831905Y-47112438D02*
X64927143Y-47064819D01*
X64927143Y-47064819D02*
X65165238Y-47064819D01*
X65165238Y-47064819D02*
X65260476Y-47112438D01*
X65260476Y-47112438D02*
X65308095Y-47160057D01*
X65308095Y-47160057D02*
X65355714Y-47255295D01*
X65355714Y-47255295D02*
X65355714Y-47350533D01*
X65355714Y-47350533D02*
X65308095Y-47493390D01*
X65308095Y-47493390D02*
X64736667Y-48064819D01*
X64736667Y-48064819D02*
X65355714Y-48064819D01*
X72159579Y-54496666D02*
X72207199Y-54544285D01*
X72207199Y-54544285D02*
X72254818Y-54687142D01*
X72254818Y-54687142D02*
X72254818Y-54782380D01*
X72254818Y-54782380D02*
X72207199Y-54925237D01*
X72207199Y-54925237D02*
X72111960Y-55020475D01*
X72111960Y-55020475D02*
X72016722Y-55068094D01*
X72016722Y-55068094D02*
X71826246Y-55115713D01*
X71826246Y-55115713D02*
X71683389Y-55115713D01*
X71683389Y-55115713D02*
X71492913Y-55068094D01*
X71492913Y-55068094D02*
X71397675Y-55020475D01*
X71397675Y-55020475D02*
X71302437Y-54925237D01*
X71302437Y-54925237D02*
X71254818Y-54782380D01*
X71254818Y-54782380D02*
X71254818Y-54687142D01*
X71254818Y-54687142D02*
X71302437Y-54544285D01*
X71302437Y-54544285D02*
X71350056Y-54496666D01*
X71254818Y-54163332D02*
X71254818Y-53544285D01*
X71254818Y-53544285D02*
X71635770Y-53877618D01*
X71635770Y-53877618D02*
X71635770Y-53734761D01*
X71635770Y-53734761D02*
X71683389Y-53639523D01*
X71683389Y-53639523D02*
X71731008Y-53591904D01*
X71731008Y-53591904D02*
X71826246Y-53544285D01*
X71826246Y-53544285D02*
X72064341Y-53544285D01*
X72064341Y-53544285D02*
X72159579Y-53591904D01*
X72159579Y-53591904D02*
X72207199Y-53639523D01*
X72207199Y-53639523D02*
X72254818Y-53734761D01*
X72254818Y-53734761D02*
X72254818Y-54020475D01*
X72254818Y-54020475D02*
X72207199Y-54115713D01*
X72207199Y-54115713D02*
X72159579Y-54163332D01*
X71953333Y-50764818D02*
X71620000Y-50288627D01*
X71381905Y-50764818D02*
X71381905Y-49764818D01*
X71381905Y-49764818D02*
X71762857Y-49764818D01*
X71762857Y-49764818D02*
X71858095Y-49812437D01*
X71858095Y-49812437D02*
X71905714Y-49860056D01*
X71905714Y-49860056D02*
X71953333Y-49955294D01*
X71953333Y-49955294D02*
X71953333Y-50098151D01*
X71953333Y-50098151D02*
X71905714Y-50193389D01*
X71905714Y-50193389D02*
X71858095Y-50241008D01*
X71858095Y-50241008D02*
X71762857Y-50288627D01*
X71762857Y-50288627D02*
X71381905Y-50288627D01*
X72286667Y-49764818D02*
X72905714Y-49764818D01*
X72905714Y-49764818D02*
X72572381Y-50145770D01*
X72572381Y-50145770D02*
X72715238Y-50145770D01*
X72715238Y-50145770D02*
X72810476Y-50193389D01*
X72810476Y-50193389D02*
X72858095Y-50241008D01*
X72858095Y-50241008D02*
X72905714Y-50336246D01*
X72905714Y-50336246D02*
X72905714Y-50574341D01*
X72905714Y-50574341D02*
X72858095Y-50669579D01*
X72858095Y-50669579D02*
X72810476Y-50717199D01*
X72810476Y-50717199D02*
X72715238Y-50764818D01*
X72715238Y-50764818D02*
X72429524Y-50764818D01*
X72429524Y-50764818D02*
X72334286Y-50717199D01*
X72334286Y-50717199D02*
X72286667Y-50669579D01*
X51738095Y-38574819D02*
X51738095Y-39384342D01*
X51738095Y-39384342D02*
X51785714Y-39479580D01*
X51785714Y-39479580D02*
X51833333Y-39527200D01*
X51833333Y-39527200D02*
X51928571Y-39574819D01*
X51928571Y-39574819D02*
X52119047Y-39574819D01*
X52119047Y-39574819D02*
X52214285Y-39527200D01*
X52214285Y-39527200D02*
X52261904Y-39479580D01*
X52261904Y-39479580D02*
X52309523Y-39384342D01*
X52309523Y-39384342D02*
X52309523Y-38574819D01*
X53309523Y-39574819D02*
X52738095Y-39574819D01*
X53023809Y-39574819D02*
X53023809Y-38574819D01*
X53023809Y-38574819D02*
X52928571Y-38717676D01*
X52928571Y-38717676D02*
X52833333Y-38812914D01*
X52833333Y-38812914D02*
X52738095Y-38860533D01*
X63844818Y-45436665D02*
X63368627Y-45769998D01*
X63844818Y-46008093D02*
X62844818Y-46008093D01*
X62844818Y-46008093D02*
X62844818Y-45627141D01*
X62844818Y-45627141D02*
X62892437Y-45531903D01*
X62892437Y-45531903D02*
X62940056Y-45484284D01*
X62940056Y-45484284D02*
X63035294Y-45436665D01*
X63035294Y-45436665D02*
X63178151Y-45436665D01*
X63178151Y-45436665D02*
X63273389Y-45484284D01*
X63273389Y-45484284D02*
X63321008Y-45531903D01*
X63321008Y-45531903D02*
X63368627Y-45627141D01*
X63368627Y-45627141D02*
X63368627Y-46008093D01*
X63844818Y-44484284D02*
X63844818Y-45055712D01*
X63844818Y-44769998D02*
X62844818Y-44769998D01*
X62844818Y-44769998D02*
X62987675Y-44865236D01*
X62987675Y-44865236D02*
X63082913Y-44960474D01*
X63082913Y-44960474D02*
X63130532Y-45055712D01*
X33024819Y-48166666D02*
X32548628Y-48499999D01*
X33024819Y-48738094D02*
X32024819Y-48738094D01*
X32024819Y-48738094D02*
X32024819Y-48357142D01*
X32024819Y-48357142D02*
X32072438Y-48261904D01*
X32072438Y-48261904D02*
X32120057Y-48214285D01*
X32120057Y-48214285D02*
X32215295Y-48166666D01*
X32215295Y-48166666D02*
X32358152Y-48166666D01*
X32358152Y-48166666D02*
X32453390Y-48214285D01*
X32453390Y-48214285D02*
X32501009Y-48261904D01*
X32501009Y-48261904D02*
X32548628Y-48357142D01*
X32548628Y-48357142D02*
X32548628Y-48738094D01*
X32358152Y-47309523D02*
X33024819Y-47309523D01*
X31977200Y-47547618D02*
X32691485Y-47785713D01*
X32691485Y-47785713D02*
X32691485Y-47166666D01*
X71924761Y-46150057D02*
X71829523Y-46102438D01*
X71829523Y-46102438D02*
X71734285Y-46007200D01*
X71734285Y-46007200D02*
X71591428Y-45864342D01*
X71591428Y-45864342D02*
X71496190Y-45816723D01*
X71496190Y-45816723D02*
X71400952Y-45816723D01*
X71448571Y-46054819D02*
X71353333Y-46007200D01*
X71353333Y-46007200D02*
X71258095Y-45911961D01*
X71258095Y-45911961D02*
X71210476Y-45721485D01*
X71210476Y-45721485D02*
X71210476Y-45388152D01*
X71210476Y-45388152D02*
X71258095Y-45197676D01*
X71258095Y-45197676D02*
X71353333Y-45102438D01*
X71353333Y-45102438D02*
X71448571Y-45054819D01*
X71448571Y-45054819D02*
X71639047Y-45054819D01*
X71639047Y-45054819D02*
X71734285Y-45102438D01*
X71734285Y-45102438D02*
X71829523Y-45197676D01*
X71829523Y-45197676D02*
X71877142Y-45388152D01*
X71877142Y-45388152D02*
X71877142Y-45721485D01*
X71877142Y-45721485D02*
X71829523Y-45911961D01*
X71829523Y-45911961D02*
X71734285Y-46007200D01*
X71734285Y-46007200D02*
X71639047Y-46054819D01*
X71639047Y-46054819D02*
X71448571Y-46054819D01*
X72258095Y-45150057D02*
X72305714Y-45102438D01*
X72305714Y-45102438D02*
X72400952Y-45054819D01*
X72400952Y-45054819D02*
X72639047Y-45054819D01*
X72639047Y-45054819D02*
X72734285Y-45102438D01*
X72734285Y-45102438D02*
X72781904Y-45150057D01*
X72781904Y-45150057D02*
X72829523Y-45245295D01*
X72829523Y-45245295D02*
X72829523Y-45340533D01*
X72829523Y-45340533D02*
X72781904Y-45483390D01*
X72781904Y-45483390D02*
X72210476Y-46054819D01*
X72210476Y-46054819D02*
X72829523Y-46054819D01*
X62503333Y-34679580D02*
X62455714Y-34727200D01*
X62455714Y-34727200D02*
X62312857Y-34774819D01*
X62312857Y-34774819D02*
X62217619Y-34774819D01*
X62217619Y-34774819D02*
X62074762Y-34727200D01*
X62074762Y-34727200D02*
X61979524Y-34631961D01*
X61979524Y-34631961D02*
X61931905Y-34536723D01*
X61931905Y-34536723D02*
X61884286Y-34346247D01*
X61884286Y-34346247D02*
X61884286Y-34203390D01*
X61884286Y-34203390D02*
X61931905Y-34012914D01*
X61931905Y-34012914D02*
X61979524Y-33917676D01*
X61979524Y-33917676D02*
X62074762Y-33822438D01*
X62074762Y-33822438D02*
X62217619Y-33774819D01*
X62217619Y-33774819D02*
X62312857Y-33774819D01*
X62312857Y-33774819D02*
X62455714Y-33822438D01*
X62455714Y-33822438D02*
X62503333Y-33870057D01*
X63360476Y-34108152D02*
X63360476Y-34774819D01*
X63122381Y-33727200D02*
X62884286Y-34441485D01*
X62884286Y-34441485D02*
X63503333Y-34441485D01*
X68267200Y-40433332D02*
X68314819Y-40290475D01*
X68314819Y-40290475D02*
X68314819Y-40052380D01*
X68314819Y-40052380D02*
X68267200Y-39957142D01*
X68267200Y-39957142D02*
X68219580Y-39909523D01*
X68219580Y-39909523D02*
X68124342Y-39861904D01*
X68124342Y-39861904D02*
X68029104Y-39861904D01*
X68029104Y-39861904D02*
X67933866Y-39909523D01*
X67933866Y-39909523D02*
X67886247Y-39957142D01*
X67886247Y-39957142D02*
X67838628Y-40052380D01*
X67838628Y-40052380D02*
X67791009Y-40242856D01*
X67791009Y-40242856D02*
X67743390Y-40338094D01*
X67743390Y-40338094D02*
X67695771Y-40385713D01*
X67695771Y-40385713D02*
X67600533Y-40433332D01*
X67600533Y-40433332D02*
X67505295Y-40433332D01*
X67505295Y-40433332D02*
X67410057Y-40385713D01*
X67410057Y-40385713D02*
X67362438Y-40338094D01*
X67362438Y-40338094D02*
X67314819Y-40242856D01*
X67314819Y-40242856D02*
X67314819Y-40004761D01*
X67314819Y-40004761D02*
X67362438Y-39861904D01*
X67314819Y-39528570D02*
X68314819Y-39290475D01*
X68314819Y-39290475D02*
X67600533Y-39099999D01*
X67600533Y-39099999D02*
X68314819Y-38909523D01*
X68314819Y-38909523D02*
X67314819Y-38671428D01*
X68314819Y-37766666D02*
X68314819Y-38338094D01*
X68314819Y-38052380D02*
X67314819Y-38052380D01*
X67314819Y-38052380D02*
X67457676Y-38147618D01*
X67457676Y-38147618D02*
X67552914Y-38242856D01*
X67552914Y-38242856D02*
X67600533Y-38338094D01*
X36429580Y-49666666D02*
X36477200Y-49714285D01*
X36477200Y-49714285D02*
X36524819Y-49857142D01*
X36524819Y-49857142D02*
X36524819Y-49952380D01*
X36524819Y-49952380D02*
X36477200Y-50095237D01*
X36477200Y-50095237D02*
X36381961Y-50190475D01*
X36381961Y-50190475D02*
X36286723Y-50238094D01*
X36286723Y-50238094D02*
X36096247Y-50285713D01*
X36096247Y-50285713D02*
X35953390Y-50285713D01*
X35953390Y-50285713D02*
X35762914Y-50238094D01*
X35762914Y-50238094D02*
X35667676Y-50190475D01*
X35667676Y-50190475D02*
X35572438Y-50095237D01*
X35572438Y-50095237D02*
X35524819Y-49952380D01*
X35524819Y-49952380D02*
X35524819Y-49857142D01*
X35524819Y-49857142D02*
X35572438Y-49714285D01*
X35572438Y-49714285D02*
X35620057Y-49666666D01*
X36524819Y-48714285D02*
X36524819Y-49285713D01*
X36524819Y-48999999D02*
X35524819Y-48999999D01*
X35524819Y-48999999D02*
X35667676Y-49095237D01*
X35667676Y-49095237D02*
X35762914Y-49190475D01*
X35762914Y-49190475D02*
X35810533Y-49285713D01*
X59734819Y-59846666D02*
X59258628Y-60179999D01*
X59734819Y-60418094D02*
X58734819Y-60418094D01*
X58734819Y-60418094D02*
X58734819Y-60037142D01*
X58734819Y-60037142D02*
X58782438Y-59941904D01*
X58782438Y-59941904D02*
X58830057Y-59894285D01*
X58830057Y-59894285D02*
X58925295Y-59846666D01*
X58925295Y-59846666D02*
X59068152Y-59846666D01*
X59068152Y-59846666D02*
X59163390Y-59894285D01*
X59163390Y-59894285D02*
X59211009Y-59941904D01*
X59211009Y-59941904D02*
X59258628Y-60037142D01*
X59258628Y-60037142D02*
X59258628Y-60418094D01*
X58734819Y-59513332D02*
X58734819Y-58846666D01*
X58734819Y-58846666D02*
X59734819Y-59275237D01*
X33024819Y-51166666D02*
X32548628Y-51499999D01*
X33024819Y-51738094D02*
X32024819Y-51738094D01*
X32024819Y-51738094D02*
X32024819Y-51357142D01*
X32024819Y-51357142D02*
X32072438Y-51261904D01*
X32072438Y-51261904D02*
X32120057Y-51214285D01*
X32120057Y-51214285D02*
X32215295Y-51166666D01*
X32215295Y-51166666D02*
X32358152Y-51166666D01*
X32358152Y-51166666D02*
X32453390Y-51214285D01*
X32453390Y-51214285D02*
X32501009Y-51261904D01*
X32501009Y-51261904D02*
X32548628Y-51357142D01*
X32548628Y-51357142D02*
X32548628Y-51738094D01*
X32024819Y-50261904D02*
X32024819Y-50738094D01*
X32024819Y-50738094D02*
X32501009Y-50785713D01*
X32501009Y-50785713D02*
X32453390Y-50738094D01*
X32453390Y-50738094D02*
X32405771Y-50642856D01*
X32405771Y-50642856D02*
X32405771Y-50404761D01*
X32405771Y-50404761D02*
X32453390Y-50309523D01*
X32453390Y-50309523D02*
X32501009Y-50261904D01*
X32501009Y-50261904D02*
X32596247Y-50214285D01*
X32596247Y-50214285D02*
X32834342Y-50214285D01*
X32834342Y-50214285D02*
X32929580Y-50261904D01*
X32929580Y-50261904D02*
X32977200Y-50309523D01*
X32977200Y-50309523D02*
X33024819Y-50404761D01*
X33024819Y-50404761D02*
X33024819Y-50642856D01*
X33024819Y-50642856D02*
X32977200Y-50738094D01*
X32977200Y-50738094D02*
X32929580Y-50785713D01*
X62034819Y-46946666D02*
X61558628Y-47279999D01*
X62034819Y-47518094D02*
X61034819Y-47518094D01*
X61034819Y-47518094D02*
X61034819Y-47137142D01*
X61034819Y-47137142D02*
X61082438Y-47041904D01*
X61082438Y-47041904D02*
X61130057Y-46994285D01*
X61130057Y-46994285D02*
X61225295Y-46946666D01*
X61225295Y-46946666D02*
X61368152Y-46946666D01*
X61368152Y-46946666D02*
X61463390Y-46994285D01*
X61463390Y-46994285D02*
X61511009Y-47041904D01*
X61511009Y-47041904D02*
X61558628Y-47137142D01*
X61558628Y-47137142D02*
X61558628Y-47518094D01*
X61130057Y-46565713D02*
X61082438Y-46518094D01*
X61082438Y-46518094D02*
X61034819Y-46422856D01*
X61034819Y-46422856D02*
X61034819Y-46184761D01*
X61034819Y-46184761D02*
X61082438Y-46089523D01*
X61082438Y-46089523D02*
X61130057Y-46041904D01*
X61130057Y-46041904D02*
X61225295Y-45994285D01*
X61225295Y-45994285D02*
X61320533Y-45994285D01*
X61320533Y-45994285D02*
X61463390Y-46041904D01*
X61463390Y-46041904D02*
X62034819Y-46613332D01*
X62034819Y-46613332D02*
X62034819Y-45994285D01*
X66156666Y-32074819D02*
X66156666Y-32789104D01*
X66156666Y-32789104D02*
X66109047Y-32931961D01*
X66109047Y-32931961D02*
X66013809Y-33027200D01*
X66013809Y-33027200D02*
X65870952Y-33074819D01*
X65870952Y-33074819D02*
X65775714Y-33074819D01*
X67156666Y-33074819D02*
X66585238Y-33074819D01*
X66870952Y-33074819D02*
X66870952Y-32074819D01*
X66870952Y-32074819D02*
X66775714Y-32217676D01*
X66775714Y-32217676D02*
X66680476Y-32312914D01*
X66680476Y-32312914D02*
X66585238Y-32360533D01*
X64531905Y-57154819D02*
X64531905Y-56154819D01*
X64531905Y-56154819D02*
X64770000Y-56154819D01*
X64770000Y-56154819D02*
X64912857Y-56202438D01*
X64912857Y-56202438D02*
X65008095Y-56297676D01*
X65008095Y-56297676D02*
X65055714Y-56392914D01*
X65055714Y-56392914D02*
X65103333Y-56583390D01*
X65103333Y-56583390D02*
X65103333Y-56726247D01*
X65103333Y-56726247D02*
X65055714Y-56916723D01*
X65055714Y-56916723D02*
X65008095Y-57011961D01*
X65008095Y-57011961D02*
X64912857Y-57107200D01*
X64912857Y-57107200D02*
X64770000Y-57154819D01*
X64770000Y-57154819D02*
X64531905Y-57154819D01*
X66055714Y-57154819D02*
X65484286Y-57154819D01*
X65770000Y-57154819D02*
X65770000Y-56154819D01*
X65770000Y-56154819D02*
X65674762Y-56297676D01*
X65674762Y-56297676D02*
X65579524Y-56392914D01*
X65579524Y-56392914D02*
X65484286Y-56440533D01*
%TO.C,J2*%
D11*
X56620000Y-56120000D02*
X58000000Y-56120000D01*
X56620000Y-57500000D02*
X56620000Y-56120000D01*
X56620000Y-58770000D02*
X56620000Y-63960000D01*
X56620000Y-58770000D02*
X59380000Y-58770000D01*
X56620000Y-63960000D02*
X59380000Y-63960000D01*
X59380000Y-58770000D02*
X59380000Y-63960000D01*
%TO.C,Q1*%
X67060000Y-44760000D02*
X68580000Y-44760000D01*
X67060000Y-44810000D02*
X67060000Y-44760000D01*
X67060000Y-46710000D02*
X67060000Y-45930000D01*
X67060000Y-47880000D02*
X67060000Y-47830000D01*
X68580000Y-44760000D02*
X68580000Y-45760000D01*
X68580000Y-46880000D02*
X68580000Y-47880000D01*
X68580000Y-47880000D02*
X67060000Y-47880000D01*
X66520000Y-45940000D02*
X66760000Y-46270000D01*
X66280000Y-46270000D01*
X66520000Y-45940000D01*
G36*
X66760000Y-46270000D02*
G01*
X66280000Y-46270000D01*
X66520000Y-45940000D01*
X66760000Y-46270000D01*
G37*
%TO.C,C5*%
X69420000Y-56870580D02*
X69420000Y-56589420D01*
X70440000Y-56870580D02*
X70440000Y-56589420D01*
%TO.C,R6*%
X35477500Y-39237258D02*
X35477500Y-38762742D01*
X36522500Y-39237258D02*
X36522500Y-38762742D01*
%TO.C,C2*%
X60160302Y-50545000D02*
X60960302Y-50545000D01*
X60560302Y-50145000D02*
X60560302Y-50945000D01*
X64570000Y-48780000D02*
X64570000Y-56940000D01*
X64610000Y-48780000D02*
X64610000Y-56940000D01*
X64650000Y-48781000D02*
X64650000Y-56939000D01*
X64690000Y-48782000D02*
X64690000Y-56938000D01*
X64730000Y-48783000D02*
X64730000Y-56937000D01*
X64770000Y-48785000D02*
X64770000Y-56935000D01*
X64810000Y-48787000D02*
X64810000Y-56933000D01*
X64850000Y-48790000D02*
X64850000Y-56930000D01*
X64890000Y-48792000D02*
X64890000Y-56928000D01*
X64930000Y-48796000D02*
X64930000Y-56924000D01*
X64970000Y-48799000D02*
X64970000Y-56921000D01*
X65010000Y-48804000D02*
X65010000Y-56916000D01*
X65050000Y-48808000D02*
X65050000Y-56912000D01*
X65090000Y-48813000D02*
X65090000Y-56907000D01*
X65130000Y-48818000D02*
X65130000Y-56902000D01*
X65170000Y-48824000D02*
X65170000Y-56896000D01*
X65210000Y-48830000D02*
X65210000Y-56890000D01*
X65250000Y-48837000D02*
X65250000Y-56883000D01*
X65290000Y-48843000D02*
X65290000Y-51820000D01*
X65290000Y-53900000D02*
X65290000Y-56877000D01*
X65330000Y-48851000D02*
X65330000Y-51820000D01*
X65330000Y-53900000D02*
X65330000Y-56869000D01*
X65370000Y-48858000D02*
X65370000Y-51820000D01*
X65370000Y-53900000D02*
X65370000Y-56862000D01*
X65410000Y-48867000D02*
X65410000Y-51820000D01*
X65410000Y-53900000D02*
X65410000Y-56853000D01*
X65450000Y-48875000D02*
X65450000Y-51820000D01*
X65450000Y-53900000D02*
X65450000Y-56845000D01*
X65490000Y-48884000D02*
X65490000Y-51820000D01*
X65490000Y-53900000D02*
X65490000Y-56836000D01*
X65530000Y-48893000D02*
X65530000Y-51820000D01*
X65530000Y-53900000D02*
X65530000Y-56827000D01*
X65570000Y-48903000D02*
X65570000Y-51820000D01*
X65570000Y-53900000D02*
X65570000Y-56817000D01*
X65610000Y-48913000D02*
X65610000Y-51820000D01*
X65610000Y-53900000D02*
X65610000Y-56807000D01*
X65650000Y-48924000D02*
X65650000Y-51820000D01*
X65650000Y-53900000D02*
X65650000Y-56796000D01*
X65690000Y-48935000D02*
X65690000Y-51820000D01*
X65690000Y-53900000D02*
X65690000Y-56785000D01*
X65730000Y-48947000D02*
X65730000Y-51820000D01*
X65730000Y-53900000D02*
X65730000Y-56773000D01*
X65770000Y-48959000D02*
X65770000Y-51820000D01*
X65770000Y-53900000D02*
X65770000Y-56761000D01*
X65810000Y-48971000D02*
X65810000Y-51820000D01*
X65810000Y-53900000D02*
X65810000Y-56749000D01*
X65850000Y-48984000D02*
X65850000Y-51820000D01*
X65850000Y-53900000D02*
X65850000Y-56736000D01*
X65890000Y-48997000D02*
X65890000Y-51820000D01*
X65890000Y-53900000D02*
X65890000Y-56723000D01*
X65930000Y-49011000D02*
X65930000Y-51820000D01*
X65930000Y-53900000D02*
X65930000Y-56709000D01*
X65970000Y-49025000D02*
X65970000Y-51820000D01*
X65970000Y-53900000D02*
X65970000Y-56695000D01*
X66010000Y-49040000D02*
X66010000Y-51820000D01*
X66010000Y-53900000D02*
X66010000Y-56680000D01*
X66050000Y-49055000D02*
X66050000Y-51820000D01*
X66050000Y-53900000D02*
X66050000Y-56665000D01*
X66090000Y-49071000D02*
X66090000Y-51820000D01*
X66090000Y-53900000D02*
X66090000Y-56649000D01*
X66130000Y-49087000D02*
X66130000Y-51820000D01*
X66130000Y-53900000D02*
X66130000Y-56633000D01*
X66170000Y-49103000D02*
X66170000Y-51820000D01*
X66170000Y-53900000D02*
X66170000Y-56617000D01*
X66210000Y-49120000D02*
X66210000Y-51820000D01*
X66210000Y-53900000D02*
X66210000Y-56600000D01*
X66250000Y-49138000D02*
X66250000Y-51820000D01*
X66250000Y-53900000D02*
X66250000Y-56582000D01*
X66290000Y-49156000D02*
X66290000Y-51820000D01*
X66290000Y-53900000D02*
X66290000Y-56564000D01*
X66330000Y-49175000D02*
X66330000Y-51820000D01*
X66330000Y-53900000D02*
X66330000Y-56545000D01*
X66370000Y-49194000D02*
X66370000Y-51820000D01*
X66370000Y-53900000D02*
X66370000Y-56526000D01*
X66410000Y-49214000D02*
X66410000Y-51820000D01*
X66410000Y-53900000D02*
X66410000Y-56506000D01*
X66450000Y-49234000D02*
X66450000Y-51820000D01*
X66450000Y-53900000D02*
X66450000Y-56486000D01*
X66490000Y-49255000D02*
X66490000Y-51820000D01*
X66490000Y-53900000D02*
X66490000Y-56465000D01*
X66530000Y-49276000D02*
X66530000Y-51820000D01*
X66530000Y-53900000D02*
X66530000Y-56444000D01*
X66570000Y-49298000D02*
X66570000Y-51820000D01*
X66570000Y-53900000D02*
X66570000Y-56422000D01*
X66610000Y-49321000D02*
X66610000Y-51820000D01*
X66610000Y-53900000D02*
X66610000Y-56399000D01*
X66650000Y-49344000D02*
X66650000Y-51820000D01*
X66650000Y-53900000D02*
X66650000Y-56376000D01*
X66690000Y-49367000D02*
X66690000Y-51820000D01*
X66690000Y-53900000D02*
X66690000Y-56353000D01*
X66730000Y-49392000D02*
X66730000Y-51820000D01*
X66730000Y-53900000D02*
X66730000Y-56328000D01*
X66770000Y-49417000D02*
X66770000Y-51820000D01*
X66770000Y-53900000D02*
X66770000Y-56303000D01*
X66810000Y-49442000D02*
X66810000Y-51820000D01*
X66810000Y-53900000D02*
X66810000Y-56278000D01*
X66850000Y-49468000D02*
X66850000Y-51820000D01*
X66850000Y-53900000D02*
X66850000Y-56252000D01*
X66890000Y-49495000D02*
X66890000Y-51820000D01*
X66890000Y-53900000D02*
X66890000Y-56225000D01*
X66930000Y-49523000D02*
X66930000Y-51820000D01*
X66930000Y-53900000D02*
X66930000Y-56197000D01*
X66970000Y-49551000D02*
X66970000Y-51820000D01*
X66970000Y-53900000D02*
X66970000Y-56169000D01*
X67010000Y-49580000D02*
X67010000Y-51820000D01*
X67010000Y-53900000D02*
X67010000Y-56140000D01*
X67050000Y-49610000D02*
X67050000Y-51820000D01*
X67050000Y-53900000D02*
X67050000Y-56110000D01*
X67090000Y-49641000D02*
X67090000Y-51820000D01*
X67090000Y-53900000D02*
X67090000Y-56079000D01*
X67130000Y-49672000D02*
X67130000Y-51820000D01*
X67130000Y-53900000D02*
X67130000Y-56048000D01*
X67170000Y-49704000D02*
X67170000Y-51820000D01*
X67170000Y-53900000D02*
X67170000Y-56016000D01*
X67210000Y-49737000D02*
X67210000Y-51820000D01*
X67210000Y-53900000D02*
X67210000Y-55983000D01*
X67250000Y-49771000D02*
X67250000Y-51820000D01*
X67250000Y-53900000D02*
X67250000Y-55949000D01*
X67290000Y-49805000D02*
X67290000Y-51820000D01*
X67290000Y-53900000D02*
X67290000Y-55915000D01*
X67330000Y-49841000D02*
X67330000Y-51820000D01*
X67330000Y-53900000D02*
X67330000Y-55879000D01*
X67370000Y-49878000D02*
X67370000Y-55842000D01*
X67410000Y-49915000D02*
X67410000Y-55805000D01*
X67450000Y-49954000D02*
X67450000Y-55766000D01*
X67490000Y-49993000D02*
X67490000Y-55727000D01*
X67530000Y-50034000D02*
X67530000Y-55686000D01*
X67570000Y-50076000D02*
X67570000Y-55644000D01*
X67610000Y-50119000D02*
X67610000Y-55601000D01*
X67650000Y-50164000D02*
X67650000Y-55556000D01*
X67690000Y-50209000D02*
X67690000Y-55511000D01*
X67730000Y-50256000D02*
X67730000Y-55464000D01*
X67770000Y-50305000D02*
X67770000Y-55415000D01*
X67810000Y-50355000D02*
X67810000Y-55365000D01*
X67850000Y-50407000D02*
X67850000Y-55313000D01*
X67890000Y-50460000D02*
X67890000Y-55260000D01*
X67930000Y-50516000D02*
X67930000Y-55204000D01*
X67970000Y-50573000D02*
X67970000Y-55147000D01*
X68010000Y-50633000D02*
X68010000Y-55087000D01*
X68050000Y-50695000D02*
X68050000Y-55025000D01*
X68090000Y-50759000D02*
X68090000Y-54961000D01*
X68130000Y-50826000D02*
X68130000Y-54894000D01*
X68170000Y-50896000D02*
X68170000Y-54824000D01*
X68210000Y-50970000D02*
X68210000Y-54750000D01*
X68250000Y-51047000D02*
X68250000Y-54673000D01*
X68290000Y-51129000D02*
X68290000Y-54591000D01*
X68330000Y-51216000D02*
X68330000Y-54504000D01*
X68370000Y-51308000D02*
X68370000Y-54412000D01*
X68410000Y-51407000D02*
X68410000Y-54313000D01*
X68450000Y-51514000D02*
X68450000Y-54206000D01*
X68490000Y-51632000D02*
X68490000Y-54088000D01*
X68530000Y-51763000D02*
X68530000Y-53957000D01*
X68570000Y-51913000D02*
X68570000Y-53807000D01*
X68610000Y-52092000D02*
X68610000Y-53628000D01*
X68650000Y-52327000D02*
X68650000Y-53393000D01*
X68690000Y-52860000D02*
G75*
G02*
X60450000Y-52860000I-4120000J0D01*
G01*
X60450000Y-52860000D02*
G75*
G02*
X68690000Y-52860000I4120000J0D01*
G01*
%TO.C,C3*%
X72719999Y-54470580D02*
X72719999Y-54189420D01*
X73739999Y-54470580D02*
X73739999Y-54189420D01*
%TO.C,R3*%
X71882742Y-51217499D02*
X72357258Y-51217499D01*
X71882742Y-52262499D02*
X72357258Y-52262499D01*
%TO.C,U1*%
X51120000Y-40120000D02*
X52500000Y-40120000D01*
X51120000Y-41500000D02*
X51120000Y-40120000D01*
X51120000Y-42770000D02*
X51120000Y-58120000D01*
X51120000Y-42770000D02*
X53880000Y-42770000D01*
X51120000Y-58120000D02*
X53880000Y-58120000D01*
X53880000Y-42770000D02*
X53880000Y-58120000D01*
%TO.C,R1*%
X64297499Y-45507257D02*
X64297499Y-45032741D01*
X65342499Y-45507257D02*
X65342499Y-45032741D01*
%TO.C,R4*%
X33477500Y-48237258D02*
X33477500Y-47762742D01*
X34522500Y-48237258D02*
X34522500Y-47762742D01*
%TO.C,Q2*%
X71260000Y-46440000D02*
X72780000Y-46440000D01*
X71260000Y-46490000D02*
X71260000Y-46440000D01*
X71260000Y-48390000D02*
X71260000Y-47610000D01*
X71260000Y-49560000D02*
X71260000Y-49510000D01*
X72780000Y-46440000D02*
X72780000Y-47440000D01*
X72780000Y-48560000D02*
X72780000Y-49560000D01*
X72780000Y-49560000D02*
X71260000Y-49560000D01*
X70720000Y-47620000D02*
X70960000Y-47950000D01*
X70480000Y-47950000D01*
X70720000Y-47620000D01*
G36*
X70960000Y-47950000D02*
G01*
X70480000Y-47950000D01*
X70720000Y-47620000D01*
X70960000Y-47950000D01*
G37*
%TO.C,C4*%
X62408748Y-35265000D02*
X62931252Y-35265000D01*
X62408748Y-36735000D02*
X62931252Y-36735000D01*
%TO.C,SW1*%
X68620000Y-44290000D02*
X68620000Y-42907000D01*
X68620000Y-44290000D02*
X70003000Y-44290000D01*
X68860000Y-34150000D02*
X73700000Y-34150000D01*
X68860000Y-44050000D02*
X68860000Y-34150000D01*
X68860000Y-44050000D02*
X73700000Y-44050000D01*
X70645000Y-39776667D02*
X71915000Y-39776667D01*
X73700000Y-44050000D02*
X73700000Y-34150000D01*
X70645000Y-37070000D02*
X71915000Y-37070000D01*
X71915000Y-41130000D01*
X70645000Y-41130000D01*
X70645000Y-37070000D01*
X70645000Y-39776667D02*
X71915000Y-39776667D01*
X71915000Y-41130000D01*
X70645000Y-41130000D01*
X70645000Y-39776667D01*
G36*
X70645000Y-39776667D02*
G01*
X71915000Y-39776667D01*
X71915000Y-41130000D01*
X70645000Y-41130000D01*
X70645000Y-39776667D01*
G37*
%TO.C,C1*%
X36990000Y-49640580D02*
X36990000Y-49359420D01*
X38010000Y-49640580D02*
X38010000Y-49359420D01*
%TO.C,R7*%
X60187500Y-59917258D02*
X60187500Y-59442742D01*
X61232500Y-59917258D02*
X61232500Y-59442742D01*
%TO.C,R5*%
X33477500Y-51237258D02*
X33477500Y-50762742D01*
X34522500Y-51237258D02*
X34522500Y-50762742D01*
%TO.C,R2*%
X62487500Y-47017258D02*
X62487500Y-46542742D01*
X63532500Y-47017258D02*
X63532500Y-46542742D01*
%TO.C,J1*%
X65110000Y-33620000D02*
X66490000Y-33620000D01*
X65110000Y-35000000D02*
X65110000Y-33620000D01*
X65110000Y-36270000D02*
X65110000Y-38920000D01*
X65110000Y-36270000D02*
X67870000Y-36270000D01*
X65110000Y-38920000D02*
X67870000Y-38920000D01*
X67870000Y-36270000D02*
X67870000Y-38920000D01*
%TO.C,D1*%
X61770000Y-57900000D02*
X61770000Y-62950000D01*
X62220000Y-57450000D02*
X61770000Y-57900000D01*
X62570000Y-59300000D02*
X62570000Y-61100000D01*
X67970000Y-59300000D02*
X67970000Y-61100000D01*
X68770000Y-57450000D02*
X62220000Y-57450000D01*
X68770000Y-62950000D02*
X61770000Y-62950000D01*
X68770000Y-62950000D02*
X68770000Y-57450000D01*
%TD*%
M02*
