%TF.GenerationSoftware,KiCad,Pcbnew,10.0.4*%
%TF.CreationDate,2026-06-22T12:49:35-04:00*%
%TF.ProjectId,smart_vent_v1_no_led,736d6172-745f-4766-956e-745f76315f6e,rev?*%
%TF.SameCoordinates,Original*%
%TF.FileFunction,Copper,L1,Top*%
%TF.FilePolarity,Positive*%
%FSLAX46Y46*%
G04 Gerber Fmt 4.6, Leading zero omitted, Abs format (unit mm)*
G04 Created by KiCad (PCBNEW 10.0.4) date 2026-06-22 12:49:35*
%MOMM*%
%LPD*%
G01*
G04 APERTURE LIST*
G04 Aperture macros list*
%AMRoundRect*
0 Rectangle with rounded corners*
0 $1 Rounding radius*
0 $2 $3 $4 $5 $6 $7 $8 $9 X,Y pos of 4 corners*
0 Add a 4 corners polygon primitive as box body*
4,1,4,$2,$3,$4,$5,$6,$7,$8,$9,$2,$3,0*
0 Add four circle primitives for the rounded corners*
1,1,$1+$1,$2,$3*
1,1,$1+$1,$4,$5*
1,1,$1+$1,$6,$7*
1,1,$1+$1,$8,$9*
0 Add four rect primitives between the rounded corners*
20,1,$1+$1,$2,$3,$4,$5,0*
20,1,$1+$1,$4,$5,$6,$7,0*
20,1,$1+$1,$6,$7,$8,$9,0*
20,1,$1+$1,$8,$9,$2,$3,0*%
G04 Aperture macros list end*
%TA.AperFunction,SMDPad,CuDef*%
%ADD10RoundRect,0.200000X-0.200000X-0.275000X0.200000X-0.275000X0.200000X0.275000X-0.200000X0.275000X0*%
%TD*%
%TA.AperFunction,SMDPad,CuDef*%
%ADD11RoundRect,0.250000X-0.250000X-0.475000X0.250000X-0.475000X0.250000X0.475000X-0.250000X0.475000X0*%
%TD*%
%TA.AperFunction,ComponentPad*%
%ADD12R,1.700000X1.700000*%
%TD*%
%TA.AperFunction,ComponentPad*%
%ADD13C,1.700000*%
%TD*%
%TA.AperFunction,SMDPad,CuDef*%
%ADD14RoundRect,0.200000X0.275000X-0.200000X0.275000X0.200000X-0.275000X0.200000X-0.275000X-0.200000X0*%
%TD*%
%TA.AperFunction,SMDPad,CuDef*%
%ADD15RoundRect,0.225000X0.250000X-0.225000X0.250000X0.225000X-0.250000X0.225000X-0.250000X-0.225000X0*%
%TD*%
%TA.AperFunction,SMDPad,CuDef*%
%ADD16RoundRect,0.150000X-0.587500X-0.150000X0.587500X-0.150000X0.587500X0.150000X-0.587500X0.150000X0*%
%TD*%
%TA.AperFunction,ComponentPad*%
%ADD17RoundRect,0.250000X0.550000X-0.550000X0.550000X0.550000X-0.550000X0.550000X-0.550000X-0.550000X0*%
%TD*%
%TA.AperFunction,ComponentPad*%
%ADD18C,1.600000*%
%TD*%
%TA.AperFunction,ComponentPad*%
%ADD19RoundRect,0.250000X-0.550000X-0.550000X0.550000X-0.550000X0.550000X0.550000X-0.550000X0.550000X0*%
%TD*%
G04 APERTURE END LIST*
D10*
%TO.P,R3,1*%
%TO.N,NFET_GATE*%
X69175000Y-50540000D03*
%TO.P,R3,2*%
%TO.N,N/C*%
X70825000Y-50540000D03*
%TD*%
D11*
%TO.P,C4,1*%
%TO.N,VBAT*%
X61720000Y-36000000D03*
%TO.P,C4,2*%
%TO.N,GND*%
X63620000Y-36000000D03*
%TD*%
D12*
%TO.P,J2,1*%
%TO.N,SERVO_SIG*%
X58000000Y-57500000D03*
D13*
%TO.P,J2,2*%
%TO.N,SERVO_VCC*%
X58000000Y-60040000D03*
%TO.P,J2,3*%
%TO.N,GND*%
X58000000Y-62580000D03*
%TD*%
D14*
%TO.P,R1,1*%
%TO.N,VBAT*%
X64819999Y-46755000D03*
%TO.P,R1,2*%
%TO.N,PFET_GATE*%
X64819999Y-45105000D03*
%TD*%
D12*
%TO.P,U1,1*%
%TO.N,N/C*%
X52500000Y-41500000D03*
D13*
%TO.P,U1,2*%
X52500000Y-44040000D03*
%TO.P,U1,3*%
X52500000Y-46580000D03*
%TO.P,U1,4*%
X52500000Y-49120000D03*
%TO.P,U1,5*%
X52500000Y-51660000D03*
%TO.P,U1,6*%
X52500000Y-54200000D03*
%TO.P,U1,7*%
X52500000Y-56740000D03*
%TD*%
D15*
%TO.P,C1,1*%
%TO.N,VBAT_SENSE*%
X37500000Y-50275000D03*
%TO.P,C1,2*%
%TO.N,GND*%
X37500000Y-48725000D03*
%TD*%
D14*
%TO.P,R2,1*%
%TO.N,SERVO_EN*%
X64819999Y-50094999D03*
%TO.P,R2,2*%
%TO.N,NFET_GATE*%
X64819999Y-48444999D03*
%TD*%
D16*
%TO.P,Q1,1*%
%TO.N,PFET_GATE*%
X66882500Y-46800000D03*
%TO.P,Q1,2*%
%TO.N,VBAT*%
X66882500Y-48700000D03*
%TO.P,Q1,3*%
%TO.N,SERVO_VCC*%
X68757500Y-47750000D03*
%TD*%
%TO.P,Q2,1*%
%TO.N,NFET_GATE*%
X71082500Y-46800000D03*
%TO.P,Q2,2*%
%TO.N,GND*%
X71082500Y-48700000D03*
%TO.P,Q2,3*%
%TO.N,PFET_GATE*%
X72957500Y-47750000D03*
%TD*%
D12*
%TO.P,J1,1*%
%TO.N,VBAT_RAW*%
X66490000Y-35000000D03*
D13*
%TO.P,J1,2*%
%TO.N,GND*%
X66490000Y-37540000D03*
%TD*%
D14*
%TO.P,R5,1*%
%TO.N,VBAT_SENSE*%
X34000000Y-51825000D03*
%TO.P,R5,2*%
%TO.N,GND*%
X34000000Y-50175000D03*
%TD*%
D17*
%TO.P,SW1,1*%
%TO.N,VBAT_RAW*%
X71280000Y-43000000D03*
D18*
%TO.P,SW1,2*%
%TO.N,VBAT*%
X71280000Y-35380000D03*
%TD*%
D19*
%TO.P,C2,1*%
%TO.N,SERVO_VCC*%
X64720000Y-55900000D03*
D18*
%TO.P,C2,2*%
%TO.N,GND*%
X68220000Y-55900000D03*
%TD*%
D14*
%TO.P,R4,1*%
%TO.N,VBAT*%
X34000000Y-48825000D03*
%TO.P,R4,2*%
%TO.N,VBAT_SENSE*%
X34000000Y-47175000D03*
%TD*%
%TO.P,R6,1*%
%TO.N,SERVO_SIG_MCU*%
X36000000Y-39825000D03*
%TO.P,R6,2*%
%TO.N,SERVO_SIG*%
X36000000Y-38175000D03*
%TD*%
D15*
%TO.P,C3,1*%
%TO.N,SERVO_VCC*%
X73229999Y-54775000D03*
%TO.P,C3,2*%
%TO.N,GND*%
X73229999Y-53225000D03*
%TD*%
M02*
