%TF.GenerationSoftware,KiCad,Pcbnew,10.0.4*%
%TF.CreationDate,2026-06-22T11:41:32-04:00*%
%TF.ProjectId,smart_vent_v1_no_led,736d6172-745f-4766-956e-745f76315f6e,rev?*%
%TF.SameCoordinates,Original*%
%TF.FileFunction,AssemblyDrawing,Top*%
%FSLAX46Y46*%
G04 Gerber Fmt 4.6, Leading zero omitted, Abs format (unit mm)*
G04 Created by KiCad (PCBNEW 10.0.4) date 2026-06-22 11:41:32*
%MOMM*%
%LPD*%
G01*
G04 APERTURE LIST*
%ADD10C,0.150000*%
%ADD11C,0.060000*%
%ADD12C,0.080000*%
%ADD13C,0.090000*%
%ADD14C,0.110000*%
%ADD15C,0.100000*%
G04 APERTURE END LIST*
D10*
X68884819Y-51523810D02*
X68408628Y-51857143D01*
X68884819Y-52095238D02*
X67884819Y-52095238D01*
X67884819Y-52095238D02*
X67884819Y-51714286D01*
X67884819Y-51714286D02*
X67932438Y-51619048D01*
X67932438Y-51619048D02*
X67980057Y-51571429D01*
X67980057Y-51571429D02*
X68075295Y-51523810D01*
X68075295Y-51523810D02*
X68218152Y-51523810D01*
X68218152Y-51523810D02*
X68313390Y-51571429D01*
X68313390Y-51571429D02*
X68361009Y-51619048D01*
X68361009Y-51619048D02*
X68408628Y-51714286D01*
X68408628Y-51714286D02*
X68408628Y-52095238D01*
X68980057Y-51333334D02*
X68980057Y-50571429D01*
X67884819Y-50142857D02*
X67884819Y-50047619D01*
X67884819Y-50047619D02*
X67932438Y-49952381D01*
X67932438Y-49952381D02*
X67980057Y-49904762D01*
X67980057Y-49904762D02*
X68075295Y-49857143D01*
X68075295Y-49857143D02*
X68265771Y-49809524D01*
X68265771Y-49809524D02*
X68503866Y-49809524D01*
X68503866Y-49809524D02*
X68694342Y-49857143D01*
X68694342Y-49857143D02*
X68789580Y-49904762D01*
X68789580Y-49904762D02*
X68837200Y-49952381D01*
X68837200Y-49952381D02*
X68884819Y-50047619D01*
X68884819Y-50047619D02*
X68884819Y-50142857D01*
X68884819Y-50142857D02*
X68837200Y-50238095D01*
X68837200Y-50238095D02*
X68789580Y-50285714D01*
X68789580Y-50285714D02*
X68694342Y-50333333D01*
X68694342Y-50333333D02*
X68503866Y-50380952D01*
X68503866Y-50380952D02*
X68265771Y-50380952D01*
X68265771Y-50380952D02*
X68075295Y-50333333D01*
X68075295Y-50333333D02*
X67980057Y-50285714D01*
X67980057Y-50285714D02*
X67932438Y-50238095D01*
X67932438Y-50238095D02*
X67884819Y-50142857D01*
X67884819Y-48952381D02*
X67884819Y-49142857D01*
X67884819Y-49142857D02*
X67932438Y-49238095D01*
X67932438Y-49238095D02*
X67980057Y-49285714D01*
X67980057Y-49285714D02*
X68122914Y-49380952D01*
X68122914Y-49380952D02*
X68313390Y-49428571D01*
X68313390Y-49428571D02*
X68694342Y-49428571D01*
X68694342Y-49428571D02*
X68789580Y-49380952D01*
X68789580Y-49380952D02*
X68837200Y-49333333D01*
X68837200Y-49333333D02*
X68884819Y-49238095D01*
X68884819Y-49238095D02*
X68884819Y-49047619D01*
X68884819Y-49047619D02*
X68837200Y-48952381D01*
X68837200Y-48952381D02*
X68789580Y-48904762D01*
X68789580Y-48904762D02*
X68694342Y-48857143D01*
X68694342Y-48857143D02*
X68456247Y-48857143D01*
X68456247Y-48857143D02*
X68361009Y-48904762D01*
X68361009Y-48904762D02*
X68313390Y-48952381D01*
X68313390Y-48952381D02*
X68265771Y-49047619D01*
X68265771Y-49047619D02*
X68265771Y-49238095D01*
X68265771Y-49238095D02*
X68313390Y-49333333D01*
X68313390Y-49333333D02*
X68361009Y-49380952D01*
X68361009Y-49380952D02*
X68456247Y-49428571D01*
X67884819Y-48238095D02*
X67884819Y-48142857D01*
X67884819Y-48142857D02*
X67932438Y-48047619D01*
X67932438Y-48047619D02*
X67980057Y-48000000D01*
X67980057Y-48000000D02*
X68075295Y-47952381D01*
X68075295Y-47952381D02*
X68265771Y-47904762D01*
X68265771Y-47904762D02*
X68503866Y-47904762D01*
X68503866Y-47904762D02*
X68694342Y-47952381D01*
X68694342Y-47952381D02*
X68789580Y-48000000D01*
X68789580Y-48000000D02*
X68837200Y-48047619D01*
X68837200Y-48047619D02*
X68884819Y-48142857D01*
X68884819Y-48142857D02*
X68884819Y-48238095D01*
X68884819Y-48238095D02*
X68837200Y-48333333D01*
X68837200Y-48333333D02*
X68789580Y-48380952D01*
X68789580Y-48380952D02*
X68694342Y-48428571D01*
X68694342Y-48428571D02*
X68503866Y-48476190D01*
X68503866Y-48476190D02*
X68265771Y-48476190D01*
X68265771Y-48476190D02*
X68075295Y-48428571D01*
X68075295Y-48428571D02*
X67980057Y-48380952D01*
X67980057Y-48380952D02*
X67932438Y-48333333D01*
X67932438Y-48333333D02*
X67884819Y-48238095D01*
X67884819Y-47571428D02*
X67884819Y-46952381D01*
X67884819Y-46952381D02*
X68265771Y-47285714D01*
X68265771Y-47285714D02*
X68265771Y-47142857D01*
X68265771Y-47142857D02*
X68313390Y-47047619D01*
X68313390Y-47047619D02*
X68361009Y-47000000D01*
X68361009Y-47000000D02*
X68456247Y-46952381D01*
X68456247Y-46952381D02*
X68694342Y-46952381D01*
X68694342Y-46952381D02*
X68789580Y-47000000D01*
X68789580Y-47000000D02*
X68837200Y-47047619D01*
X68837200Y-47047619D02*
X68884819Y-47142857D01*
X68884819Y-47142857D02*
X68884819Y-47428571D01*
X68884819Y-47428571D02*
X68837200Y-47523809D01*
X68837200Y-47523809D02*
X68789580Y-47571428D01*
X68980057Y-46761905D02*
X68980057Y-46000000D01*
X68884819Y-45238095D02*
X68884819Y-45809523D01*
X68884819Y-45523809D02*
X67884819Y-45523809D01*
X67884819Y-45523809D02*
X68027676Y-45619047D01*
X68027676Y-45619047D02*
X68122914Y-45714285D01*
X68122914Y-45714285D02*
X68170533Y-45809523D01*
X67884819Y-44380952D02*
X67884819Y-44571428D01*
X67884819Y-44571428D02*
X67932438Y-44666666D01*
X67932438Y-44666666D02*
X67980057Y-44714285D01*
X67980057Y-44714285D02*
X68122914Y-44809523D01*
X68122914Y-44809523D02*
X68313390Y-44857142D01*
X68313390Y-44857142D02*
X68694342Y-44857142D01*
X68694342Y-44857142D02*
X68789580Y-44809523D01*
X68789580Y-44809523D02*
X68837200Y-44761904D01*
X68837200Y-44761904D02*
X68884819Y-44666666D01*
X68884819Y-44666666D02*
X68884819Y-44476190D01*
X68884819Y-44476190D02*
X68837200Y-44380952D01*
X68837200Y-44380952D02*
X68789580Y-44333333D01*
X68789580Y-44333333D02*
X68694342Y-44285714D01*
X68694342Y-44285714D02*
X68456247Y-44285714D01*
X68456247Y-44285714D02*
X68361009Y-44333333D01*
X68361009Y-44333333D02*
X68313390Y-44380952D01*
X68313390Y-44380952D02*
X68265771Y-44476190D01*
X68265771Y-44476190D02*
X68265771Y-44666666D01*
X68265771Y-44666666D02*
X68313390Y-44761904D01*
X68313390Y-44761904D02*
X68361009Y-44809523D01*
X68361009Y-44809523D02*
X68456247Y-44857142D01*
X67884819Y-43666666D02*
X67884819Y-43571428D01*
X67884819Y-43571428D02*
X67932438Y-43476190D01*
X67932438Y-43476190D02*
X67980057Y-43428571D01*
X67980057Y-43428571D02*
X68075295Y-43380952D01*
X68075295Y-43380952D02*
X68265771Y-43333333D01*
X68265771Y-43333333D02*
X68503866Y-43333333D01*
X68503866Y-43333333D02*
X68694342Y-43380952D01*
X68694342Y-43380952D02*
X68789580Y-43428571D01*
X68789580Y-43428571D02*
X68837200Y-43476190D01*
X68837200Y-43476190D02*
X68884819Y-43571428D01*
X68884819Y-43571428D02*
X68884819Y-43666666D01*
X68884819Y-43666666D02*
X68837200Y-43761904D01*
X68837200Y-43761904D02*
X68789580Y-43809523D01*
X68789580Y-43809523D02*
X68694342Y-43857142D01*
X68694342Y-43857142D02*
X68503866Y-43904761D01*
X68503866Y-43904761D02*
X68265771Y-43904761D01*
X68265771Y-43904761D02*
X68075295Y-43857142D01*
X68075295Y-43857142D02*
X67980057Y-43809523D01*
X67980057Y-43809523D02*
X67932438Y-43761904D01*
X67932438Y-43761904D02*
X67884819Y-43666666D01*
X68313390Y-42761904D02*
X68265771Y-42857142D01*
X68265771Y-42857142D02*
X68218152Y-42904761D01*
X68218152Y-42904761D02*
X68122914Y-42952380D01*
X68122914Y-42952380D02*
X68075295Y-42952380D01*
X68075295Y-42952380D02*
X67980057Y-42904761D01*
X67980057Y-42904761D02*
X67932438Y-42857142D01*
X67932438Y-42857142D02*
X67884819Y-42761904D01*
X67884819Y-42761904D02*
X67884819Y-42571428D01*
X67884819Y-42571428D02*
X67932438Y-42476190D01*
X67932438Y-42476190D02*
X67980057Y-42428571D01*
X67980057Y-42428571D02*
X68075295Y-42380952D01*
X68075295Y-42380952D02*
X68122914Y-42380952D01*
X68122914Y-42380952D02*
X68218152Y-42428571D01*
X68218152Y-42428571D02*
X68265771Y-42476190D01*
X68265771Y-42476190D02*
X68313390Y-42571428D01*
X68313390Y-42571428D02*
X68313390Y-42761904D01*
X68313390Y-42761904D02*
X68361009Y-42857142D01*
X68361009Y-42857142D02*
X68408628Y-42904761D01*
X68408628Y-42904761D02*
X68503866Y-42952380D01*
X68503866Y-42952380D02*
X68694342Y-42952380D01*
X68694342Y-42952380D02*
X68789580Y-42904761D01*
X68789580Y-42904761D02*
X68837200Y-42857142D01*
X68837200Y-42857142D02*
X68884819Y-42761904D01*
X68884819Y-42761904D02*
X68884819Y-42571428D01*
X68884819Y-42571428D02*
X68837200Y-42476190D01*
X68837200Y-42476190D02*
X68789580Y-42428571D01*
X68789580Y-42428571D02*
X68694342Y-42380952D01*
X68694342Y-42380952D02*
X68503866Y-42380952D01*
X68503866Y-42380952D02*
X68408628Y-42428571D01*
X68408628Y-42428571D02*
X68361009Y-42476190D01*
X68361009Y-42476190D02*
X68313390Y-42571428D01*
X68884819Y-41952380D02*
X67884819Y-41952380D01*
X67884819Y-41952380D02*
X68599104Y-41619047D01*
X68599104Y-41619047D02*
X67884819Y-41285714D01*
X67884819Y-41285714D02*
X68884819Y-41285714D01*
X68837200Y-40428571D02*
X68884819Y-40523809D01*
X68884819Y-40523809D02*
X68884819Y-40714285D01*
X68884819Y-40714285D02*
X68837200Y-40809523D01*
X68837200Y-40809523D02*
X68741961Y-40857142D01*
X68741961Y-40857142D02*
X68361009Y-40857142D01*
X68361009Y-40857142D02*
X68265771Y-40809523D01*
X68265771Y-40809523D02*
X68218152Y-40714285D01*
X68218152Y-40714285D02*
X68218152Y-40523809D01*
X68218152Y-40523809D02*
X68265771Y-40428571D01*
X68265771Y-40428571D02*
X68361009Y-40380952D01*
X68361009Y-40380952D02*
X68456247Y-40380952D01*
X68456247Y-40380952D02*
X68551485Y-40857142D01*
X68218152Y-40095237D02*
X68218152Y-39714285D01*
X67884819Y-39952380D02*
X68741961Y-39952380D01*
X68741961Y-39952380D02*
X68837200Y-39904761D01*
X68837200Y-39904761D02*
X68884819Y-39809523D01*
X68884819Y-39809523D02*
X68884819Y-39714285D01*
X68884819Y-39380951D02*
X68218152Y-39380951D01*
X68408628Y-39380951D02*
X68313390Y-39333332D01*
X68313390Y-39333332D02*
X68265771Y-39285713D01*
X68265771Y-39285713D02*
X68218152Y-39190475D01*
X68218152Y-39190475D02*
X68218152Y-39095237D01*
X68884819Y-38761903D02*
X68218152Y-38761903D01*
X67884819Y-38761903D02*
X67932438Y-38809522D01*
X67932438Y-38809522D02*
X67980057Y-38761903D01*
X67980057Y-38761903D02*
X67932438Y-38714284D01*
X67932438Y-38714284D02*
X67884819Y-38761903D01*
X67884819Y-38761903D02*
X67980057Y-38761903D01*
X68837200Y-37857142D02*
X68884819Y-37952380D01*
X68884819Y-37952380D02*
X68884819Y-38142856D01*
X68884819Y-38142856D02*
X68837200Y-38238094D01*
X68837200Y-38238094D02*
X68789580Y-38285713D01*
X68789580Y-38285713D02*
X68694342Y-38333332D01*
X68694342Y-38333332D02*
X68408628Y-38333332D01*
X68408628Y-38333332D02*
X68313390Y-38285713D01*
X68313390Y-38285713D02*
X68265771Y-38238094D01*
X68265771Y-38238094D02*
X68218152Y-38142856D01*
X68218152Y-38142856D02*
X68218152Y-37952380D01*
X68218152Y-37952380D02*
X68265771Y-37857142D01*
D11*
X67181927Y-45066666D02*
X66991451Y-45199999D01*
X67181927Y-45295237D02*
X66781927Y-45295237D01*
X66781927Y-45295237D02*
X66781927Y-45142856D01*
X66781927Y-45142856D02*
X66800975Y-45104761D01*
X66800975Y-45104761D02*
X66820022Y-45085714D01*
X66820022Y-45085714D02*
X66858118Y-45066666D01*
X66858118Y-45066666D02*
X66915260Y-45066666D01*
X66915260Y-45066666D02*
X66953356Y-45085714D01*
X66953356Y-45085714D02*
X66972403Y-45104761D01*
X66972403Y-45104761D02*
X66991451Y-45142856D01*
X66991451Y-45142856D02*
X66991451Y-45295237D01*
X67181927Y-44685714D02*
X67181927Y-44914285D01*
X67181927Y-44799999D02*
X66781927Y-44799999D01*
X66781927Y-44799999D02*
X66839070Y-44838095D01*
X66839070Y-44838095D02*
X66877165Y-44876190D01*
X66877165Y-44876190D02*
X66896213Y-44914285D01*
D10*
X75289580Y-60023810D02*
X75337200Y-60071429D01*
X75337200Y-60071429D02*
X75384819Y-60214286D01*
X75384819Y-60214286D02*
X75384819Y-60309524D01*
X75384819Y-60309524D02*
X75337200Y-60452381D01*
X75337200Y-60452381D02*
X75241961Y-60547619D01*
X75241961Y-60547619D02*
X75146723Y-60595238D01*
X75146723Y-60595238D02*
X74956247Y-60642857D01*
X74956247Y-60642857D02*
X74813390Y-60642857D01*
X74813390Y-60642857D02*
X74622914Y-60595238D01*
X74622914Y-60595238D02*
X74527676Y-60547619D01*
X74527676Y-60547619D02*
X74432438Y-60452381D01*
X74432438Y-60452381D02*
X74384819Y-60309524D01*
X74384819Y-60309524D02*
X74384819Y-60214286D01*
X74384819Y-60214286D02*
X74432438Y-60071429D01*
X74432438Y-60071429D02*
X74480057Y-60023810D01*
X75480057Y-59833334D02*
X75480057Y-59071429D01*
X74384819Y-58642857D02*
X74384819Y-58547619D01*
X74384819Y-58547619D02*
X74432438Y-58452381D01*
X74432438Y-58452381D02*
X74480057Y-58404762D01*
X74480057Y-58404762D02*
X74575295Y-58357143D01*
X74575295Y-58357143D02*
X74765771Y-58309524D01*
X74765771Y-58309524D02*
X75003866Y-58309524D01*
X75003866Y-58309524D02*
X75194342Y-58357143D01*
X75194342Y-58357143D02*
X75289580Y-58404762D01*
X75289580Y-58404762D02*
X75337200Y-58452381D01*
X75337200Y-58452381D02*
X75384819Y-58547619D01*
X75384819Y-58547619D02*
X75384819Y-58642857D01*
X75384819Y-58642857D02*
X75337200Y-58738095D01*
X75337200Y-58738095D02*
X75289580Y-58785714D01*
X75289580Y-58785714D02*
X75194342Y-58833333D01*
X75194342Y-58833333D02*
X75003866Y-58880952D01*
X75003866Y-58880952D02*
X74765771Y-58880952D01*
X74765771Y-58880952D02*
X74575295Y-58833333D01*
X74575295Y-58833333D02*
X74480057Y-58785714D01*
X74480057Y-58785714D02*
X74432438Y-58738095D01*
X74432438Y-58738095D02*
X74384819Y-58642857D01*
X74384819Y-57452381D02*
X74384819Y-57642857D01*
X74384819Y-57642857D02*
X74432438Y-57738095D01*
X74432438Y-57738095D02*
X74480057Y-57785714D01*
X74480057Y-57785714D02*
X74622914Y-57880952D01*
X74622914Y-57880952D02*
X74813390Y-57928571D01*
X74813390Y-57928571D02*
X75194342Y-57928571D01*
X75194342Y-57928571D02*
X75289580Y-57880952D01*
X75289580Y-57880952D02*
X75337200Y-57833333D01*
X75337200Y-57833333D02*
X75384819Y-57738095D01*
X75384819Y-57738095D02*
X75384819Y-57547619D01*
X75384819Y-57547619D02*
X75337200Y-57452381D01*
X75337200Y-57452381D02*
X75289580Y-57404762D01*
X75289580Y-57404762D02*
X75194342Y-57357143D01*
X75194342Y-57357143D02*
X74956247Y-57357143D01*
X74956247Y-57357143D02*
X74861009Y-57404762D01*
X74861009Y-57404762D02*
X74813390Y-57452381D01*
X74813390Y-57452381D02*
X74765771Y-57547619D01*
X74765771Y-57547619D02*
X74765771Y-57738095D01*
X74765771Y-57738095D02*
X74813390Y-57833333D01*
X74813390Y-57833333D02*
X74861009Y-57880952D01*
X74861009Y-57880952D02*
X74956247Y-57928571D01*
X74384819Y-56738095D02*
X74384819Y-56642857D01*
X74384819Y-56642857D02*
X74432438Y-56547619D01*
X74432438Y-56547619D02*
X74480057Y-56500000D01*
X74480057Y-56500000D02*
X74575295Y-56452381D01*
X74575295Y-56452381D02*
X74765771Y-56404762D01*
X74765771Y-56404762D02*
X75003866Y-56404762D01*
X75003866Y-56404762D02*
X75194342Y-56452381D01*
X75194342Y-56452381D02*
X75289580Y-56500000D01*
X75289580Y-56500000D02*
X75337200Y-56547619D01*
X75337200Y-56547619D02*
X75384819Y-56642857D01*
X75384819Y-56642857D02*
X75384819Y-56738095D01*
X75384819Y-56738095D02*
X75337200Y-56833333D01*
X75337200Y-56833333D02*
X75289580Y-56880952D01*
X75289580Y-56880952D02*
X75194342Y-56928571D01*
X75194342Y-56928571D02*
X75003866Y-56976190D01*
X75003866Y-56976190D02*
X74765771Y-56976190D01*
X74765771Y-56976190D02*
X74575295Y-56928571D01*
X74575295Y-56928571D02*
X74480057Y-56880952D01*
X74480057Y-56880952D02*
X74432438Y-56833333D01*
X74432438Y-56833333D02*
X74384819Y-56738095D01*
X74384819Y-56071428D02*
X74384819Y-55452381D01*
X74384819Y-55452381D02*
X74765771Y-55785714D01*
X74765771Y-55785714D02*
X74765771Y-55642857D01*
X74765771Y-55642857D02*
X74813390Y-55547619D01*
X74813390Y-55547619D02*
X74861009Y-55500000D01*
X74861009Y-55500000D02*
X74956247Y-55452381D01*
X74956247Y-55452381D02*
X75194342Y-55452381D01*
X75194342Y-55452381D02*
X75289580Y-55500000D01*
X75289580Y-55500000D02*
X75337200Y-55547619D01*
X75337200Y-55547619D02*
X75384819Y-55642857D01*
X75384819Y-55642857D02*
X75384819Y-55928571D01*
X75384819Y-55928571D02*
X75337200Y-56023809D01*
X75337200Y-56023809D02*
X75289580Y-56071428D01*
X75480057Y-55261905D02*
X75480057Y-54500000D01*
X75384819Y-53738095D02*
X75384819Y-54309523D01*
X75384819Y-54023809D02*
X74384819Y-54023809D01*
X74384819Y-54023809D02*
X74527676Y-54119047D01*
X74527676Y-54119047D02*
X74622914Y-54214285D01*
X74622914Y-54214285D02*
X74670533Y-54309523D01*
X74384819Y-52880952D02*
X74384819Y-53071428D01*
X74384819Y-53071428D02*
X74432438Y-53166666D01*
X74432438Y-53166666D02*
X74480057Y-53214285D01*
X74480057Y-53214285D02*
X74622914Y-53309523D01*
X74622914Y-53309523D02*
X74813390Y-53357142D01*
X74813390Y-53357142D02*
X75194342Y-53357142D01*
X75194342Y-53357142D02*
X75289580Y-53309523D01*
X75289580Y-53309523D02*
X75337200Y-53261904D01*
X75337200Y-53261904D02*
X75384819Y-53166666D01*
X75384819Y-53166666D02*
X75384819Y-52976190D01*
X75384819Y-52976190D02*
X75337200Y-52880952D01*
X75337200Y-52880952D02*
X75289580Y-52833333D01*
X75289580Y-52833333D02*
X75194342Y-52785714D01*
X75194342Y-52785714D02*
X74956247Y-52785714D01*
X74956247Y-52785714D02*
X74861009Y-52833333D01*
X74861009Y-52833333D02*
X74813390Y-52880952D01*
X74813390Y-52880952D02*
X74765771Y-52976190D01*
X74765771Y-52976190D02*
X74765771Y-53166666D01*
X74765771Y-53166666D02*
X74813390Y-53261904D01*
X74813390Y-53261904D02*
X74861009Y-53309523D01*
X74861009Y-53309523D02*
X74956247Y-53357142D01*
X74384819Y-52166666D02*
X74384819Y-52071428D01*
X74384819Y-52071428D02*
X74432438Y-51976190D01*
X74432438Y-51976190D02*
X74480057Y-51928571D01*
X74480057Y-51928571D02*
X74575295Y-51880952D01*
X74575295Y-51880952D02*
X74765771Y-51833333D01*
X74765771Y-51833333D02*
X75003866Y-51833333D01*
X75003866Y-51833333D02*
X75194342Y-51880952D01*
X75194342Y-51880952D02*
X75289580Y-51928571D01*
X75289580Y-51928571D02*
X75337200Y-51976190D01*
X75337200Y-51976190D02*
X75384819Y-52071428D01*
X75384819Y-52071428D02*
X75384819Y-52166666D01*
X75384819Y-52166666D02*
X75337200Y-52261904D01*
X75337200Y-52261904D02*
X75289580Y-52309523D01*
X75289580Y-52309523D02*
X75194342Y-52357142D01*
X75194342Y-52357142D02*
X75003866Y-52404761D01*
X75003866Y-52404761D02*
X74765771Y-52404761D01*
X74765771Y-52404761D02*
X74575295Y-52357142D01*
X74575295Y-52357142D02*
X74480057Y-52309523D01*
X74480057Y-52309523D02*
X74432438Y-52261904D01*
X74432438Y-52261904D02*
X74384819Y-52166666D01*
X74813390Y-51261904D02*
X74765771Y-51357142D01*
X74765771Y-51357142D02*
X74718152Y-51404761D01*
X74718152Y-51404761D02*
X74622914Y-51452380D01*
X74622914Y-51452380D02*
X74575295Y-51452380D01*
X74575295Y-51452380D02*
X74480057Y-51404761D01*
X74480057Y-51404761D02*
X74432438Y-51357142D01*
X74432438Y-51357142D02*
X74384819Y-51261904D01*
X74384819Y-51261904D02*
X74384819Y-51071428D01*
X74384819Y-51071428D02*
X74432438Y-50976190D01*
X74432438Y-50976190D02*
X74480057Y-50928571D01*
X74480057Y-50928571D02*
X74575295Y-50880952D01*
X74575295Y-50880952D02*
X74622914Y-50880952D01*
X74622914Y-50880952D02*
X74718152Y-50928571D01*
X74718152Y-50928571D02*
X74765771Y-50976190D01*
X74765771Y-50976190D02*
X74813390Y-51071428D01*
X74813390Y-51071428D02*
X74813390Y-51261904D01*
X74813390Y-51261904D02*
X74861009Y-51357142D01*
X74861009Y-51357142D02*
X74908628Y-51404761D01*
X74908628Y-51404761D02*
X75003866Y-51452380D01*
X75003866Y-51452380D02*
X75194342Y-51452380D01*
X75194342Y-51452380D02*
X75289580Y-51404761D01*
X75289580Y-51404761D02*
X75337200Y-51357142D01*
X75337200Y-51357142D02*
X75384819Y-51261904D01*
X75384819Y-51261904D02*
X75384819Y-51071428D01*
X75384819Y-51071428D02*
X75337200Y-50976190D01*
X75337200Y-50976190D02*
X75289580Y-50928571D01*
X75289580Y-50928571D02*
X75194342Y-50880952D01*
X75194342Y-50880952D02*
X75003866Y-50880952D01*
X75003866Y-50880952D02*
X74908628Y-50928571D01*
X74908628Y-50928571D02*
X74861009Y-50976190D01*
X74861009Y-50976190D02*
X74813390Y-51071428D01*
X75384819Y-50452380D02*
X74384819Y-50452380D01*
X74384819Y-50452380D02*
X75099104Y-50119047D01*
X75099104Y-50119047D02*
X74384819Y-49785714D01*
X74384819Y-49785714D02*
X75384819Y-49785714D01*
X75337200Y-48928571D02*
X75384819Y-49023809D01*
X75384819Y-49023809D02*
X75384819Y-49214285D01*
X75384819Y-49214285D02*
X75337200Y-49309523D01*
X75337200Y-49309523D02*
X75241961Y-49357142D01*
X75241961Y-49357142D02*
X74861009Y-49357142D01*
X74861009Y-49357142D02*
X74765771Y-49309523D01*
X74765771Y-49309523D02*
X74718152Y-49214285D01*
X74718152Y-49214285D02*
X74718152Y-49023809D01*
X74718152Y-49023809D02*
X74765771Y-48928571D01*
X74765771Y-48928571D02*
X74861009Y-48880952D01*
X74861009Y-48880952D02*
X74956247Y-48880952D01*
X74956247Y-48880952D02*
X75051485Y-49357142D01*
X74718152Y-48595237D02*
X74718152Y-48214285D01*
X74384819Y-48452380D02*
X75241961Y-48452380D01*
X75241961Y-48452380D02*
X75337200Y-48404761D01*
X75337200Y-48404761D02*
X75384819Y-48309523D01*
X75384819Y-48309523D02*
X75384819Y-48214285D01*
X75384819Y-47880951D02*
X74718152Y-47880951D01*
X74908628Y-47880951D02*
X74813390Y-47833332D01*
X74813390Y-47833332D02*
X74765771Y-47785713D01*
X74765771Y-47785713D02*
X74718152Y-47690475D01*
X74718152Y-47690475D02*
X74718152Y-47595237D01*
X75384819Y-47261903D02*
X74718152Y-47261903D01*
X74384819Y-47261903D02*
X74432438Y-47309522D01*
X74432438Y-47309522D02*
X74480057Y-47261903D01*
X74480057Y-47261903D02*
X74432438Y-47214284D01*
X74432438Y-47214284D02*
X74384819Y-47261903D01*
X74384819Y-47261903D02*
X74480057Y-47261903D01*
X75337200Y-46357142D02*
X75384819Y-46452380D01*
X75384819Y-46452380D02*
X75384819Y-46642856D01*
X75384819Y-46642856D02*
X75337200Y-46738094D01*
X75337200Y-46738094D02*
X75289580Y-46785713D01*
X75289580Y-46785713D02*
X75194342Y-46833332D01*
X75194342Y-46833332D02*
X74908628Y-46833332D01*
X74908628Y-46833332D02*
X74813390Y-46785713D01*
X74813390Y-46785713D02*
X74765771Y-46738094D01*
X74765771Y-46738094D02*
X74718152Y-46642856D01*
X74718152Y-46642856D02*
X74718152Y-46452380D01*
X74718152Y-46452380D02*
X74765771Y-46357142D01*
D11*
X73643832Y-53566666D02*
X73662880Y-53585714D01*
X73662880Y-53585714D02*
X73681927Y-53642856D01*
X73681927Y-53642856D02*
X73681927Y-53680952D01*
X73681927Y-53680952D02*
X73662880Y-53738095D01*
X73662880Y-53738095D02*
X73624784Y-53776190D01*
X73624784Y-53776190D02*
X73586689Y-53795237D01*
X73586689Y-53795237D02*
X73510499Y-53814285D01*
X73510499Y-53814285D02*
X73453356Y-53814285D01*
X73453356Y-53814285D02*
X73377165Y-53795237D01*
X73377165Y-53795237D02*
X73339070Y-53776190D01*
X73339070Y-53776190D02*
X73300975Y-53738095D01*
X73300975Y-53738095D02*
X73281927Y-53680952D01*
X73281927Y-53680952D02*
X73281927Y-53642856D01*
X73281927Y-53642856D02*
X73300975Y-53585714D01*
X73300975Y-53585714D02*
X73320022Y-53566666D01*
X73281927Y-53433333D02*
X73281927Y-53185714D01*
X73281927Y-53185714D02*
X73434308Y-53319047D01*
X73434308Y-53319047D02*
X73434308Y-53261904D01*
X73434308Y-53261904D02*
X73453356Y-53223809D01*
X73453356Y-53223809D02*
X73472403Y-53204761D01*
X73472403Y-53204761D02*
X73510499Y-53185714D01*
X73510499Y-53185714D02*
X73605737Y-53185714D01*
X73605737Y-53185714D02*
X73643832Y-53204761D01*
X73643832Y-53204761D02*
X73662880Y-53223809D01*
X73662880Y-53223809D02*
X73681927Y-53261904D01*
X73681927Y-53261904D02*
X73681927Y-53376190D01*
X73681927Y-53376190D02*
X73662880Y-53414285D01*
X73662880Y-53414285D02*
X73643832Y-53433333D01*
D10*
X35884819Y-57523810D02*
X35408628Y-57857143D01*
X35884819Y-58095238D02*
X34884819Y-58095238D01*
X34884819Y-58095238D02*
X34884819Y-57714286D01*
X34884819Y-57714286D02*
X34932438Y-57619048D01*
X34932438Y-57619048D02*
X34980057Y-57571429D01*
X34980057Y-57571429D02*
X35075295Y-57523810D01*
X35075295Y-57523810D02*
X35218152Y-57523810D01*
X35218152Y-57523810D02*
X35313390Y-57571429D01*
X35313390Y-57571429D02*
X35361009Y-57619048D01*
X35361009Y-57619048D02*
X35408628Y-57714286D01*
X35408628Y-57714286D02*
X35408628Y-58095238D01*
X35980057Y-57333334D02*
X35980057Y-56571429D01*
X34884819Y-56142857D02*
X34884819Y-56047619D01*
X34884819Y-56047619D02*
X34932438Y-55952381D01*
X34932438Y-55952381D02*
X34980057Y-55904762D01*
X34980057Y-55904762D02*
X35075295Y-55857143D01*
X35075295Y-55857143D02*
X35265771Y-55809524D01*
X35265771Y-55809524D02*
X35503866Y-55809524D01*
X35503866Y-55809524D02*
X35694342Y-55857143D01*
X35694342Y-55857143D02*
X35789580Y-55904762D01*
X35789580Y-55904762D02*
X35837200Y-55952381D01*
X35837200Y-55952381D02*
X35884819Y-56047619D01*
X35884819Y-56047619D02*
X35884819Y-56142857D01*
X35884819Y-56142857D02*
X35837200Y-56238095D01*
X35837200Y-56238095D02*
X35789580Y-56285714D01*
X35789580Y-56285714D02*
X35694342Y-56333333D01*
X35694342Y-56333333D02*
X35503866Y-56380952D01*
X35503866Y-56380952D02*
X35265771Y-56380952D01*
X35265771Y-56380952D02*
X35075295Y-56333333D01*
X35075295Y-56333333D02*
X34980057Y-56285714D01*
X34980057Y-56285714D02*
X34932438Y-56238095D01*
X34932438Y-56238095D02*
X34884819Y-56142857D01*
X34884819Y-54952381D02*
X34884819Y-55142857D01*
X34884819Y-55142857D02*
X34932438Y-55238095D01*
X34932438Y-55238095D02*
X34980057Y-55285714D01*
X34980057Y-55285714D02*
X35122914Y-55380952D01*
X35122914Y-55380952D02*
X35313390Y-55428571D01*
X35313390Y-55428571D02*
X35694342Y-55428571D01*
X35694342Y-55428571D02*
X35789580Y-55380952D01*
X35789580Y-55380952D02*
X35837200Y-55333333D01*
X35837200Y-55333333D02*
X35884819Y-55238095D01*
X35884819Y-55238095D02*
X35884819Y-55047619D01*
X35884819Y-55047619D02*
X35837200Y-54952381D01*
X35837200Y-54952381D02*
X35789580Y-54904762D01*
X35789580Y-54904762D02*
X35694342Y-54857143D01*
X35694342Y-54857143D02*
X35456247Y-54857143D01*
X35456247Y-54857143D02*
X35361009Y-54904762D01*
X35361009Y-54904762D02*
X35313390Y-54952381D01*
X35313390Y-54952381D02*
X35265771Y-55047619D01*
X35265771Y-55047619D02*
X35265771Y-55238095D01*
X35265771Y-55238095D02*
X35313390Y-55333333D01*
X35313390Y-55333333D02*
X35361009Y-55380952D01*
X35361009Y-55380952D02*
X35456247Y-55428571D01*
X34884819Y-54238095D02*
X34884819Y-54142857D01*
X34884819Y-54142857D02*
X34932438Y-54047619D01*
X34932438Y-54047619D02*
X34980057Y-54000000D01*
X34980057Y-54000000D02*
X35075295Y-53952381D01*
X35075295Y-53952381D02*
X35265771Y-53904762D01*
X35265771Y-53904762D02*
X35503866Y-53904762D01*
X35503866Y-53904762D02*
X35694342Y-53952381D01*
X35694342Y-53952381D02*
X35789580Y-54000000D01*
X35789580Y-54000000D02*
X35837200Y-54047619D01*
X35837200Y-54047619D02*
X35884819Y-54142857D01*
X35884819Y-54142857D02*
X35884819Y-54238095D01*
X35884819Y-54238095D02*
X35837200Y-54333333D01*
X35837200Y-54333333D02*
X35789580Y-54380952D01*
X35789580Y-54380952D02*
X35694342Y-54428571D01*
X35694342Y-54428571D02*
X35503866Y-54476190D01*
X35503866Y-54476190D02*
X35265771Y-54476190D01*
X35265771Y-54476190D02*
X35075295Y-54428571D01*
X35075295Y-54428571D02*
X34980057Y-54380952D01*
X34980057Y-54380952D02*
X34932438Y-54333333D01*
X34932438Y-54333333D02*
X34884819Y-54238095D01*
X34884819Y-53571428D02*
X34884819Y-52952381D01*
X34884819Y-52952381D02*
X35265771Y-53285714D01*
X35265771Y-53285714D02*
X35265771Y-53142857D01*
X35265771Y-53142857D02*
X35313390Y-53047619D01*
X35313390Y-53047619D02*
X35361009Y-53000000D01*
X35361009Y-53000000D02*
X35456247Y-52952381D01*
X35456247Y-52952381D02*
X35694342Y-52952381D01*
X35694342Y-52952381D02*
X35789580Y-53000000D01*
X35789580Y-53000000D02*
X35837200Y-53047619D01*
X35837200Y-53047619D02*
X35884819Y-53142857D01*
X35884819Y-53142857D02*
X35884819Y-53428571D01*
X35884819Y-53428571D02*
X35837200Y-53523809D01*
X35837200Y-53523809D02*
X35789580Y-53571428D01*
X35980057Y-52761905D02*
X35980057Y-52000000D01*
X35884819Y-51238095D02*
X35884819Y-51809523D01*
X35884819Y-51523809D02*
X34884819Y-51523809D01*
X34884819Y-51523809D02*
X35027676Y-51619047D01*
X35027676Y-51619047D02*
X35122914Y-51714285D01*
X35122914Y-51714285D02*
X35170533Y-51809523D01*
X34884819Y-50380952D02*
X34884819Y-50571428D01*
X34884819Y-50571428D02*
X34932438Y-50666666D01*
X34932438Y-50666666D02*
X34980057Y-50714285D01*
X34980057Y-50714285D02*
X35122914Y-50809523D01*
X35122914Y-50809523D02*
X35313390Y-50857142D01*
X35313390Y-50857142D02*
X35694342Y-50857142D01*
X35694342Y-50857142D02*
X35789580Y-50809523D01*
X35789580Y-50809523D02*
X35837200Y-50761904D01*
X35837200Y-50761904D02*
X35884819Y-50666666D01*
X35884819Y-50666666D02*
X35884819Y-50476190D01*
X35884819Y-50476190D02*
X35837200Y-50380952D01*
X35837200Y-50380952D02*
X35789580Y-50333333D01*
X35789580Y-50333333D02*
X35694342Y-50285714D01*
X35694342Y-50285714D02*
X35456247Y-50285714D01*
X35456247Y-50285714D02*
X35361009Y-50333333D01*
X35361009Y-50333333D02*
X35313390Y-50380952D01*
X35313390Y-50380952D02*
X35265771Y-50476190D01*
X35265771Y-50476190D02*
X35265771Y-50666666D01*
X35265771Y-50666666D02*
X35313390Y-50761904D01*
X35313390Y-50761904D02*
X35361009Y-50809523D01*
X35361009Y-50809523D02*
X35456247Y-50857142D01*
X34884819Y-49666666D02*
X34884819Y-49571428D01*
X34884819Y-49571428D02*
X34932438Y-49476190D01*
X34932438Y-49476190D02*
X34980057Y-49428571D01*
X34980057Y-49428571D02*
X35075295Y-49380952D01*
X35075295Y-49380952D02*
X35265771Y-49333333D01*
X35265771Y-49333333D02*
X35503866Y-49333333D01*
X35503866Y-49333333D02*
X35694342Y-49380952D01*
X35694342Y-49380952D02*
X35789580Y-49428571D01*
X35789580Y-49428571D02*
X35837200Y-49476190D01*
X35837200Y-49476190D02*
X35884819Y-49571428D01*
X35884819Y-49571428D02*
X35884819Y-49666666D01*
X35884819Y-49666666D02*
X35837200Y-49761904D01*
X35837200Y-49761904D02*
X35789580Y-49809523D01*
X35789580Y-49809523D02*
X35694342Y-49857142D01*
X35694342Y-49857142D02*
X35503866Y-49904761D01*
X35503866Y-49904761D02*
X35265771Y-49904761D01*
X35265771Y-49904761D02*
X35075295Y-49857142D01*
X35075295Y-49857142D02*
X34980057Y-49809523D01*
X34980057Y-49809523D02*
X34932438Y-49761904D01*
X34932438Y-49761904D02*
X34884819Y-49666666D01*
X35313390Y-48761904D02*
X35265771Y-48857142D01*
X35265771Y-48857142D02*
X35218152Y-48904761D01*
X35218152Y-48904761D02*
X35122914Y-48952380D01*
X35122914Y-48952380D02*
X35075295Y-48952380D01*
X35075295Y-48952380D02*
X34980057Y-48904761D01*
X34980057Y-48904761D02*
X34932438Y-48857142D01*
X34932438Y-48857142D02*
X34884819Y-48761904D01*
X34884819Y-48761904D02*
X34884819Y-48571428D01*
X34884819Y-48571428D02*
X34932438Y-48476190D01*
X34932438Y-48476190D02*
X34980057Y-48428571D01*
X34980057Y-48428571D02*
X35075295Y-48380952D01*
X35075295Y-48380952D02*
X35122914Y-48380952D01*
X35122914Y-48380952D02*
X35218152Y-48428571D01*
X35218152Y-48428571D02*
X35265771Y-48476190D01*
X35265771Y-48476190D02*
X35313390Y-48571428D01*
X35313390Y-48571428D02*
X35313390Y-48761904D01*
X35313390Y-48761904D02*
X35361009Y-48857142D01*
X35361009Y-48857142D02*
X35408628Y-48904761D01*
X35408628Y-48904761D02*
X35503866Y-48952380D01*
X35503866Y-48952380D02*
X35694342Y-48952380D01*
X35694342Y-48952380D02*
X35789580Y-48904761D01*
X35789580Y-48904761D02*
X35837200Y-48857142D01*
X35837200Y-48857142D02*
X35884819Y-48761904D01*
X35884819Y-48761904D02*
X35884819Y-48571428D01*
X35884819Y-48571428D02*
X35837200Y-48476190D01*
X35837200Y-48476190D02*
X35789580Y-48428571D01*
X35789580Y-48428571D02*
X35694342Y-48380952D01*
X35694342Y-48380952D02*
X35503866Y-48380952D01*
X35503866Y-48380952D02*
X35408628Y-48428571D01*
X35408628Y-48428571D02*
X35361009Y-48476190D01*
X35361009Y-48476190D02*
X35313390Y-48571428D01*
X35884819Y-47952380D02*
X34884819Y-47952380D01*
X34884819Y-47952380D02*
X35599104Y-47619047D01*
X35599104Y-47619047D02*
X34884819Y-47285714D01*
X34884819Y-47285714D02*
X35884819Y-47285714D01*
X35837200Y-46428571D02*
X35884819Y-46523809D01*
X35884819Y-46523809D02*
X35884819Y-46714285D01*
X35884819Y-46714285D02*
X35837200Y-46809523D01*
X35837200Y-46809523D02*
X35741961Y-46857142D01*
X35741961Y-46857142D02*
X35361009Y-46857142D01*
X35361009Y-46857142D02*
X35265771Y-46809523D01*
X35265771Y-46809523D02*
X35218152Y-46714285D01*
X35218152Y-46714285D02*
X35218152Y-46523809D01*
X35218152Y-46523809D02*
X35265771Y-46428571D01*
X35265771Y-46428571D02*
X35361009Y-46380952D01*
X35361009Y-46380952D02*
X35456247Y-46380952D01*
X35456247Y-46380952D02*
X35551485Y-46857142D01*
X35218152Y-46095237D02*
X35218152Y-45714285D01*
X34884819Y-45952380D02*
X35741961Y-45952380D01*
X35741961Y-45952380D02*
X35837200Y-45904761D01*
X35837200Y-45904761D02*
X35884819Y-45809523D01*
X35884819Y-45809523D02*
X35884819Y-45714285D01*
X35884819Y-45380951D02*
X35218152Y-45380951D01*
X35408628Y-45380951D02*
X35313390Y-45333332D01*
X35313390Y-45333332D02*
X35265771Y-45285713D01*
X35265771Y-45285713D02*
X35218152Y-45190475D01*
X35218152Y-45190475D02*
X35218152Y-45095237D01*
X35884819Y-44761903D02*
X35218152Y-44761903D01*
X34884819Y-44761903D02*
X34932438Y-44809522D01*
X34932438Y-44809522D02*
X34980057Y-44761903D01*
X34980057Y-44761903D02*
X34932438Y-44714284D01*
X34932438Y-44714284D02*
X34884819Y-44761903D01*
X34884819Y-44761903D02*
X34980057Y-44761903D01*
X35837200Y-43857142D02*
X35884819Y-43952380D01*
X35884819Y-43952380D02*
X35884819Y-44142856D01*
X35884819Y-44142856D02*
X35837200Y-44238094D01*
X35837200Y-44238094D02*
X35789580Y-44285713D01*
X35789580Y-44285713D02*
X35694342Y-44333332D01*
X35694342Y-44333332D02*
X35408628Y-44333332D01*
X35408628Y-44333332D02*
X35313390Y-44285713D01*
X35313390Y-44285713D02*
X35265771Y-44238094D01*
X35265771Y-44238094D02*
X35218152Y-44142856D01*
X35218152Y-44142856D02*
X35218152Y-43952380D01*
X35218152Y-43952380D02*
X35265771Y-43857142D01*
D11*
X34181927Y-51066666D02*
X33991451Y-51199999D01*
X34181927Y-51295237D02*
X33781927Y-51295237D01*
X33781927Y-51295237D02*
X33781927Y-51142856D01*
X33781927Y-51142856D02*
X33800975Y-51104761D01*
X33800975Y-51104761D02*
X33820022Y-51085714D01*
X33820022Y-51085714D02*
X33858118Y-51066666D01*
X33858118Y-51066666D02*
X33915260Y-51066666D01*
X33915260Y-51066666D02*
X33953356Y-51085714D01*
X33953356Y-51085714D02*
X33972403Y-51104761D01*
X33972403Y-51104761D02*
X33991451Y-51142856D01*
X33991451Y-51142856D02*
X33991451Y-51295237D01*
X33781927Y-50704761D02*
X33781927Y-50895237D01*
X33781927Y-50895237D02*
X33972403Y-50914285D01*
X33972403Y-50914285D02*
X33953356Y-50895237D01*
X33953356Y-50895237D02*
X33934308Y-50857142D01*
X33934308Y-50857142D02*
X33934308Y-50761904D01*
X33934308Y-50761904D02*
X33953356Y-50723809D01*
X33953356Y-50723809D02*
X33972403Y-50704761D01*
X33972403Y-50704761D02*
X34010499Y-50685714D01*
X34010499Y-50685714D02*
X34105737Y-50685714D01*
X34105737Y-50685714D02*
X34143832Y-50704761D01*
X34143832Y-50704761D02*
X34162880Y-50723809D01*
X34162880Y-50723809D02*
X34181927Y-50761904D01*
X34181927Y-50761904D02*
X34181927Y-50857142D01*
X34181927Y-50857142D02*
X34162880Y-50895237D01*
X34162880Y-50895237D02*
X34143832Y-50914285D01*
D10*
X39289580Y-56023810D02*
X39337200Y-56071429D01*
X39337200Y-56071429D02*
X39384819Y-56214286D01*
X39384819Y-56214286D02*
X39384819Y-56309524D01*
X39384819Y-56309524D02*
X39337200Y-56452381D01*
X39337200Y-56452381D02*
X39241961Y-56547619D01*
X39241961Y-56547619D02*
X39146723Y-56595238D01*
X39146723Y-56595238D02*
X38956247Y-56642857D01*
X38956247Y-56642857D02*
X38813390Y-56642857D01*
X38813390Y-56642857D02*
X38622914Y-56595238D01*
X38622914Y-56595238D02*
X38527676Y-56547619D01*
X38527676Y-56547619D02*
X38432438Y-56452381D01*
X38432438Y-56452381D02*
X38384819Y-56309524D01*
X38384819Y-56309524D02*
X38384819Y-56214286D01*
X38384819Y-56214286D02*
X38432438Y-56071429D01*
X38432438Y-56071429D02*
X38480057Y-56023810D01*
X39480057Y-55833334D02*
X39480057Y-55071429D01*
X38384819Y-54642857D02*
X38384819Y-54547619D01*
X38384819Y-54547619D02*
X38432438Y-54452381D01*
X38432438Y-54452381D02*
X38480057Y-54404762D01*
X38480057Y-54404762D02*
X38575295Y-54357143D01*
X38575295Y-54357143D02*
X38765771Y-54309524D01*
X38765771Y-54309524D02*
X39003866Y-54309524D01*
X39003866Y-54309524D02*
X39194342Y-54357143D01*
X39194342Y-54357143D02*
X39289580Y-54404762D01*
X39289580Y-54404762D02*
X39337200Y-54452381D01*
X39337200Y-54452381D02*
X39384819Y-54547619D01*
X39384819Y-54547619D02*
X39384819Y-54642857D01*
X39384819Y-54642857D02*
X39337200Y-54738095D01*
X39337200Y-54738095D02*
X39289580Y-54785714D01*
X39289580Y-54785714D02*
X39194342Y-54833333D01*
X39194342Y-54833333D02*
X39003866Y-54880952D01*
X39003866Y-54880952D02*
X38765771Y-54880952D01*
X38765771Y-54880952D02*
X38575295Y-54833333D01*
X38575295Y-54833333D02*
X38480057Y-54785714D01*
X38480057Y-54785714D02*
X38432438Y-54738095D01*
X38432438Y-54738095D02*
X38384819Y-54642857D01*
X38384819Y-53452381D02*
X38384819Y-53642857D01*
X38384819Y-53642857D02*
X38432438Y-53738095D01*
X38432438Y-53738095D02*
X38480057Y-53785714D01*
X38480057Y-53785714D02*
X38622914Y-53880952D01*
X38622914Y-53880952D02*
X38813390Y-53928571D01*
X38813390Y-53928571D02*
X39194342Y-53928571D01*
X39194342Y-53928571D02*
X39289580Y-53880952D01*
X39289580Y-53880952D02*
X39337200Y-53833333D01*
X39337200Y-53833333D02*
X39384819Y-53738095D01*
X39384819Y-53738095D02*
X39384819Y-53547619D01*
X39384819Y-53547619D02*
X39337200Y-53452381D01*
X39337200Y-53452381D02*
X39289580Y-53404762D01*
X39289580Y-53404762D02*
X39194342Y-53357143D01*
X39194342Y-53357143D02*
X38956247Y-53357143D01*
X38956247Y-53357143D02*
X38861009Y-53404762D01*
X38861009Y-53404762D02*
X38813390Y-53452381D01*
X38813390Y-53452381D02*
X38765771Y-53547619D01*
X38765771Y-53547619D02*
X38765771Y-53738095D01*
X38765771Y-53738095D02*
X38813390Y-53833333D01*
X38813390Y-53833333D02*
X38861009Y-53880952D01*
X38861009Y-53880952D02*
X38956247Y-53928571D01*
X38384819Y-52738095D02*
X38384819Y-52642857D01*
X38384819Y-52642857D02*
X38432438Y-52547619D01*
X38432438Y-52547619D02*
X38480057Y-52500000D01*
X38480057Y-52500000D02*
X38575295Y-52452381D01*
X38575295Y-52452381D02*
X38765771Y-52404762D01*
X38765771Y-52404762D02*
X39003866Y-52404762D01*
X39003866Y-52404762D02*
X39194342Y-52452381D01*
X39194342Y-52452381D02*
X39289580Y-52500000D01*
X39289580Y-52500000D02*
X39337200Y-52547619D01*
X39337200Y-52547619D02*
X39384819Y-52642857D01*
X39384819Y-52642857D02*
X39384819Y-52738095D01*
X39384819Y-52738095D02*
X39337200Y-52833333D01*
X39337200Y-52833333D02*
X39289580Y-52880952D01*
X39289580Y-52880952D02*
X39194342Y-52928571D01*
X39194342Y-52928571D02*
X39003866Y-52976190D01*
X39003866Y-52976190D02*
X38765771Y-52976190D01*
X38765771Y-52976190D02*
X38575295Y-52928571D01*
X38575295Y-52928571D02*
X38480057Y-52880952D01*
X38480057Y-52880952D02*
X38432438Y-52833333D01*
X38432438Y-52833333D02*
X38384819Y-52738095D01*
X38384819Y-52071428D02*
X38384819Y-51452381D01*
X38384819Y-51452381D02*
X38765771Y-51785714D01*
X38765771Y-51785714D02*
X38765771Y-51642857D01*
X38765771Y-51642857D02*
X38813390Y-51547619D01*
X38813390Y-51547619D02*
X38861009Y-51500000D01*
X38861009Y-51500000D02*
X38956247Y-51452381D01*
X38956247Y-51452381D02*
X39194342Y-51452381D01*
X39194342Y-51452381D02*
X39289580Y-51500000D01*
X39289580Y-51500000D02*
X39337200Y-51547619D01*
X39337200Y-51547619D02*
X39384819Y-51642857D01*
X39384819Y-51642857D02*
X39384819Y-51928571D01*
X39384819Y-51928571D02*
X39337200Y-52023809D01*
X39337200Y-52023809D02*
X39289580Y-52071428D01*
X39480057Y-51261905D02*
X39480057Y-50500000D01*
X39384819Y-49738095D02*
X39384819Y-50309523D01*
X39384819Y-50023809D02*
X38384819Y-50023809D01*
X38384819Y-50023809D02*
X38527676Y-50119047D01*
X38527676Y-50119047D02*
X38622914Y-50214285D01*
X38622914Y-50214285D02*
X38670533Y-50309523D01*
X38384819Y-48880952D02*
X38384819Y-49071428D01*
X38384819Y-49071428D02*
X38432438Y-49166666D01*
X38432438Y-49166666D02*
X38480057Y-49214285D01*
X38480057Y-49214285D02*
X38622914Y-49309523D01*
X38622914Y-49309523D02*
X38813390Y-49357142D01*
X38813390Y-49357142D02*
X39194342Y-49357142D01*
X39194342Y-49357142D02*
X39289580Y-49309523D01*
X39289580Y-49309523D02*
X39337200Y-49261904D01*
X39337200Y-49261904D02*
X39384819Y-49166666D01*
X39384819Y-49166666D02*
X39384819Y-48976190D01*
X39384819Y-48976190D02*
X39337200Y-48880952D01*
X39337200Y-48880952D02*
X39289580Y-48833333D01*
X39289580Y-48833333D02*
X39194342Y-48785714D01*
X39194342Y-48785714D02*
X38956247Y-48785714D01*
X38956247Y-48785714D02*
X38861009Y-48833333D01*
X38861009Y-48833333D02*
X38813390Y-48880952D01*
X38813390Y-48880952D02*
X38765771Y-48976190D01*
X38765771Y-48976190D02*
X38765771Y-49166666D01*
X38765771Y-49166666D02*
X38813390Y-49261904D01*
X38813390Y-49261904D02*
X38861009Y-49309523D01*
X38861009Y-49309523D02*
X38956247Y-49357142D01*
X38384819Y-48166666D02*
X38384819Y-48071428D01*
X38384819Y-48071428D02*
X38432438Y-47976190D01*
X38432438Y-47976190D02*
X38480057Y-47928571D01*
X38480057Y-47928571D02*
X38575295Y-47880952D01*
X38575295Y-47880952D02*
X38765771Y-47833333D01*
X38765771Y-47833333D02*
X39003866Y-47833333D01*
X39003866Y-47833333D02*
X39194342Y-47880952D01*
X39194342Y-47880952D02*
X39289580Y-47928571D01*
X39289580Y-47928571D02*
X39337200Y-47976190D01*
X39337200Y-47976190D02*
X39384819Y-48071428D01*
X39384819Y-48071428D02*
X39384819Y-48166666D01*
X39384819Y-48166666D02*
X39337200Y-48261904D01*
X39337200Y-48261904D02*
X39289580Y-48309523D01*
X39289580Y-48309523D02*
X39194342Y-48357142D01*
X39194342Y-48357142D02*
X39003866Y-48404761D01*
X39003866Y-48404761D02*
X38765771Y-48404761D01*
X38765771Y-48404761D02*
X38575295Y-48357142D01*
X38575295Y-48357142D02*
X38480057Y-48309523D01*
X38480057Y-48309523D02*
X38432438Y-48261904D01*
X38432438Y-48261904D02*
X38384819Y-48166666D01*
X38813390Y-47261904D02*
X38765771Y-47357142D01*
X38765771Y-47357142D02*
X38718152Y-47404761D01*
X38718152Y-47404761D02*
X38622914Y-47452380D01*
X38622914Y-47452380D02*
X38575295Y-47452380D01*
X38575295Y-47452380D02*
X38480057Y-47404761D01*
X38480057Y-47404761D02*
X38432438Y-47357142D01*
X38432438Y-47357142D02*
X38384819Y-47261904D01*
X38384819Y-47261904D02*
X38384819Y-47071428D01*
X38384819Y-47071428D02*
X38432438Y-46976190D01*
X38432438Y-46976190D02*
X38480057Y-46928571D01*
X38480057Y-46928571D02*
X38575295Y-46880952D01*
X38575295Y-46880952D02*
X38622914Y-46880952D01*
X38622914Y-46880952D02*
X38718152Y-46928571D01*
X38718152Y-46928571D02*
X38765771Y-46976190D01*
X38765771Y-46976190D02*
X38813390Y-47071428D01*
X38813390Y-47071428D02*
X38813390Y-47261904D01*
X38813390Y-47261904D02*
X38861009Y-47357142D01*
X38861009Y-47357142D02*
X38908628Y-47404761D01*
X38908628Y-47404761D02*
X39003866Y-47452380D01*
X39003866Y-47452380D02*
X39194342Y-47452380D01*
X39194342Y-47452380D02*
X39289580Y-47404761D01*
X39289580Y-47404761D02*
X39337200Y-47357142D01*
X39337200Y-47357142D02*
X39384819Y-47261904D01*
X39384819Y-47261904D02*
X39384819Y-47071428D01*
X39384819Y-47071428D02*
X39337200Y-46976190D01*
X39337200Y-46976190D02*
X39289580Y-46928571D01*
X39289580Y-46928571D02*
X39194342Y-46880952D01*
X39194342Y-46880952D02*
X39003866Y-46880952D01*
X39003866Y-46880952D02*
X38908628Y-46928571D01*
X38908628Y-46928571D02*
X38861009Y-46976190D01*
X38861009Y-46976190D02*
X38813390Y-47071428D01*
X39384819Y-46452380D02*
X38384819Y-46452380D01*
X38384819Y-46452380D02*
X39099104Y-46119047D01*
X39099104Y-46119047D02*
X38384819Y-45785714D01*
X38384819Y-45785714D02*
X39384819Y-45785714D01*
X39337200Y-44928571D02*
X39384819Y-45023809D01*
X39384819Y-45023809D02*
X39384819Y-45214285D01*
X39384819Y-45214285D02*
X39337200Y-45309523D01*
X39337200Y-45309523D02*
X39241961Y-45357142D01*
X39241961Y-45357142D02*
X38861009Y-45357142D01*
X38861009Y-45357142D02*
X38765771Y-45309523D01*
X38765771Y-45309523D02*
X38718152Y-45214285D01*
X38718152Y-45214285D02*
X38718152Y-45023809D01*
X38718152Y-45023809D02*
X38765771Y-44928571D01*
X38765771Y-44928571D02*
X38861009Y-44880952D01*
X38861009Y-44880952D02*
X38956247Y-44880952D01*
X38956247Y-44880952D02*
X39051485Y-45357142D01*
X38718152Y-44595237D02*
X38718152Y-44214285D01*
X38384819Y-44452380D02*
X39241961Y-44452380D01*
X39241961Y-44452380D02*
X39337200Y-44404761D01*
X39337200Y-44404761D02*
X39384819Y-44309523D01*
X39384819Y-44309523D02*
X39384819Y-44214285D01*
X39384819Y-43880951D02*
X38718152Y-43880951D01*
X38908628Y-43880951D02*
X38813390Y-43833332D01*
X38813390Y-43833332D02*
X38765771Y-43785713D01*
X38765771Y-43785713D02*
X38718152Y-43690475D01*
X38718152Y-43690475D02*
X38718152Y-43595237D01*
X39384819Y-43261903D02*
X38718152Y-43261903D01*
X38384819Y-43261903D02*
X38432438Y-43309522D01*
X38432438Y-43309522D02*
X38480057Y-43261903D01*
X38480057Y-43261903D02*
X38432438Y-43214284D01*
X38432438Y-43214284D02*
X38384819Y-43261903D01*
X38384819Y-43261903D02*
X38480057Y-43261903D01*
X39337200Y-42357142D02*
X39384819Y-42452380D01*
X39384819Y-42452380D02*
X39384819Y-42642856D01*
X39384819Y-42642856D02*
X39337200Y-42738094D01*
X39337200Y-42738094D02*
X39289580Y-42785713D01*
X39289580Y-42785713D02*
X39194342Y-42833332D01*
X39194342Y-42833332D02*
X38908628Y-42833332D01*
X38908628Y-42833332D02*
X38813390Y-42785713D01*
X38813390Y-42785713D02*
X38765771Y-42738094D01*
X38765771Y-42738094D02*
X38718152Y-42642856D01*
X38718152Y-42642856D02*
X38718152Y-42452380D01*
X38718152Y-42452380D02*
X38765771Y-42357142D01*
D11*
X37643832Y-49566666D02*
X37662880Y-49585714D01*
X37662880Y-49585714D02*
X37681927Y-49642856D01*
X37681927Y-49642856D02*
X37681927Y-49680952D01*
X37681927Y-49680952D02*
X37662880Y-49738095D01*
X37662880Y-49738095D02*
X37624784Y-49776190D01*
X37624784Y-49776190D02*
X37586689Y-49795237D01*
X37586689Y-49795237D02*
X37510499Y-49814285D01*
X37510499Y-49814285D02*
X37453356Y-49814285D01*
X37453356Y-49814285D02*
X37377165Y-49795237D01*
X37377165Y-49795237D02*
X37339070Y-49776190D01*
X37339070Y-49776190D02*
X37300975Y-49738095D01*
X37300975Y-49738095D02*
X37281927Y-49680952D01*
X37281927Y-49680952D02*
X37281927Y-49642856D01*
X37281927Y-49642856D02*
X37300975Y-49585714D01*
X37300975Y-49585714D02*
X37320022Y-49566666D01*
X37681927Y-49185714D02*
X37681927Y-49414285D01*
X37681927Y-49299999D02*
X37281927Y-49299999D01*
X37281927Y-49299999D02*
X37339070Y-49338095D01*
X37339070Y-49338095D02*
X37377165Y-49376190D01*
X37377165Y-49376190D02*
X37396213Y-49414285D01*
D10*
X60476189Y-40039580D02*
X60428570Y-40087200D01*
X60428570Y-40087200D02*
X60285713Y-40134819D01*
X60285713Y-40134819D02*
X60190475Y-40134819D01*
X60190475Y-40134819D02*
X60047618Y-40087200D01*
X60047618Y-40087200D02*
X59952380Y-39991961D01*
X59952380Y-39991961D02*
X59904761Y-39896723D01*
X59904761Y-39896723D02*
X59857142Y-39706247D01*
X59857142Y-39706247D02*
X59857142Y-39563390D01*
X59857142Y-39563390D02*
X59904761Y-39372914D01*
X59904761Y-39372914D02*
X59952380Y-39277676D01*
X59952380Y-39277676D02*
X60047618Y-39182438D01*
X60047618Y-39182438D02*
X60190475Y-39134819D01*
X60190475Y-39134819D02*
X60285713Y-39134819D01*
X60285713Y-39134819D02*
X60428570Y-39182438D01*
X60428570Y-39182438D02*
X60476189Y-39230057D01*
X60666666Y-40230057D02*
X61428570Y-40230057D01*
X61857142Y-39134819D02*
X61952380Y-39134819D01*
X61952380Y-39134819D02*
X62047618Y-39182438D01*
X62047618Y-39182438D02*
X62095237Y-39230057D01*
X62095237Y-39230057D02*
X62142856Y-39325295D01*
X62142856Y-39325295D02*
X62190475Y-39515771D01*
X62190475Y-39515771D02*
X62190475Y-39753866D01*
X62190475Y-39753866D02*
X62142856Y-39944342D01*
X62142856Y-39944342D02*
X62095237Y-40039580D01*
X62095237Y-40039580D02*
X62047618Y-40087200D01*
X62047618Y-40087200D02*
X61952380Y-40134819D01*
X61952380Y-40134819D02*
X61857142Y-40134819D01*
X61857142Y-40134819D02*
X61761904Y-40087200D01*
X61761904Y-40087200D02*
X61714285Y-40039580D01*
X61714285Y-40039580D02*
X61666666Y-39944342D01*
X61666666Y-39944342D02*
X61619047Y-39753866D01*
X61619047Y-39753866D02*
X61619047Y-39515771D01*
X61619047Y-39515771D02*
X61666666Y-39325295D01*
X61666666Y-39325295D02*
X61714285Y-39230057D01*
X61714285Y-39230057D02*
X61761904Y-39182438D01*
X61761904Y-39182438D02*
X61857142Y-39134819D01*
X62761904Y-39563390D02*
X62666666Y-39515771D01*
X62666666Y-39515771D02*
X62619047Y-39468152D01*
X62619047Y-39468152D02*
X62571428Y-39372914D01*
X62571428Y-39372914D02*
X62571428Y-39325295D01*
X62571428Y-39325295D02*
X62619047Y-39230057D01*
X62619047Y-39230057D02*
X62666666Y-39182438D01*
X62666666Y-39182438D02*
X62761904Y-39134819D01*
X62761904Y-39134819D02*
X62952380Y-39134819D01*
X62952380Y-39134819D02*
X63047618Y-39182438D01*
X63047618Y-39182438D02*
X63095237Y-39230057D01*
X63095237Y-39230057D02*
X63142856Y-39325295D01*
X63142856Y-39325295D02*
X63142856Y-39372914D01*
X63142856Y-39372914D02*
X63095237Y-39468152D01*
X63095237Y-39468152D02*
X63047618Y-39515771D01*
X63047618Y-39515771D02*
X62952380Y-39563390D01*
X62952380Y-39563390D02*
X62761904Y-39563390D01*
X62761904Y-39563390D02*
X62666666Y-39611009D01*
X62666666Y-39611009D02*
X62619047Y-39658628D01*
X62619047Y-39658628D02*
X62571428Y-39753866D01*
X62571428Y-39753866D02*
X62571428Y-39944342D01*
X62571428Y-39944342D02*
X62619047Y-40039580D01*
X62619047Y-40039580D02*
X62666666Y-40087200D01*
X62666666Y-40087200D02*
X62761904Y-40134819D01*
X62761904Y-40134819D02*
X62952380Y-40134819D01*
X62952380Y-40134819D02*
X63047618Y-40087200D01*
X63047618Y-40087200D02*
X63095237Y-40039580D01*
X63095237Y-40039580D02*
X63142856Y-39944342D01*
X63142856Y-39944342D02*
X63142856Y-39753866D01*
X63142856Y-39753866D02*
X63095237Y-39658628D01*
X63095237Y-39658628D02*
X63047618Y-39611009D01*
X63047618Y-39611009D02*
X62952380Y-39563390D01*
X63761904Y-39134819D02*
X63857142Y-39134819D01*
X63857142Y-39134819D02*
X63952380Y-39182438D01*
X63952380Y-39182438D02*
X63999999Y-39230057D01*
X63999999Y-39230057D02*
X64047618Y-39325295D01*
X64047618Y-39325295D02*
X64095237Y-39515771D01*
X64095237Y-39515771D02*
X64095237Y-39753866D01*
X64095237Y-39753866D02*
X64047618Y-39944342D01*
X64047618Y-39944342D02*
X63999999Y-40039580D01*
X63999999Y-40039580D02*
X63952380Y-40087200D01*
X63952380Y-40087200D02*
X63857142Y-40134819D01*
X63857142Y-40134819D02*
X63761904Y-40134819D01*
X63761904Y-40134819D02*
X63666666Y-40087200D01*
X63666666Y-40087200D02*
X63619047Y-40039580D01*
X63619047Y-40039580D02*
X63571428Y-39944342D01*
X63571428Y-39944342D02*
X63523809Y-39753866D01*
X63523809Y-39753866D02*
X63523809Y-39515771D01*
X63523809Y-39515771D02*
X63571428Y-39325295D01*
X63571428Y-39325295D02*
X63619047Y-39230057D01*
X63619047Y-39230057D02*
X63666666Y-39182438D01*
X63666666Y-39182438D02*
X63761904Y-39134819D01*
X64999999Y-39134819D02*
X64523809Y-39134819D01*
X64523809Y-39134819D02*
X64476190Y-39611009D01*
X64476190Y-39611009D02*
X64523809Y-39563390D01*
X64523809Y-39563390D02*
X64619047Y-39515771D01*
X64619047Y-39515771D02*
X64857142Y-39515771D01*
X64857142Y-39515771D02*
X64952380Y-39563390D01*
X64952380Y-39563390D02*
X64999999Y-39611009D01*
X64999999Y-39611009D02*
X65047618Y-39706247D01*
X65047618Y-39706247D02*
X65047618Y-39944342D01*
X65047618Y-39944342D02*
X64999999Y-40039580D01*
X64999999Y-40039580D02*
X64952380Y-40087200D01*
X64952380Y-40087200D02*
X64857142Y-40134819D01*
X64857142Y-40134819D02*
X64619047Y-40134819D01*
X64619047Y-40134819D02*
X64523809Y-40087200D01*
X64523809Y-40087200D02*
X64476190Y-40039580D01*
X65238095Y-40230057D02*
X65999999Y-40230057D01*
X66190476Y-39230057D02*
X66238095Y-39182438D01*
X66238095Y-39182438D02*
X66333333Y-39134819D01*
X66333333Y-39134819D02*
X66571428Y-39134819D01*
X66571428Y-39134819D02*
X66666666Y-39182438D01*
X66666666Y-39182438D02*
X66714285Y-39230057D01*
X66714285Y-39230057D02*
X66761904Y-39325295D01*
X66761904Y-39325295D02*
X66761904Y-39420533D01*
X66761904Y-39420533D02*
X66714285Y-39563390D01*
X66714285Y-39563390D02*
X66142857Y-40134819D01*
X66142857Y-40134819D02*
X66761904Y-40134819D01*
X67380952Y-39134819D02*
X67476190Y-39134819D01*
X67476190Y-39134819D02*
X67571428Y-39182438D01*
X67571428Y-39182438D02*
X67619047Y-39230057D01*
X67619047Y-39230057D02*
X67666666Y-39325295D01*
X67666666Y-39325295D02*
X67714285Y-39515771D01*
X67714285Y-39515771D02*
X67714285Y-39753866D01*
X67714285Y-39753866D02*
X67666666Y-39944342D01*
X67666666Y-39944342D02*
X67619047Y-40039580D01*
X67619047Y-40039580D02*
X67571428Y-40087200D01*
X67571428Y-40087200D02*
X67476190Y-40134819D01*
X67476190Y-40134819D02*
X67380952Y-40134819D01*
X67380952Y-40134819D02*
X67285714Y-40087200D01*
X67285714Y-40087200D02*
X67238095Y-40039580D01*
X67238095Y-40039580D02*
X67190476Y-39944342D01*
X67190476Y-39944342D02*
X67142857Y-39753866D01*
X67142857Y-39753866D02*
X67142857Y-39515771D01*
X67142857Y-39515771D02*
X67190476Y-39325295D01*
X67190476Y-39325295D02*
X67238095Y-39230057D01*
X67238095Y-39230057D02*
X67285714Y-39182438D01*
X67285714Y-39182438D02*
X67380952Y-39134819D01*
X68666666Y-40134819D02*
X68095238Y-40134819D01*
X68380952Y-40134819D02*
X68380952Y-39134819D01*
X68380952Y-39134819D02*
X68285714Y-39277676D01*
X68285714Y-39277676D02*
X68190476Y-39372914D01*
X68190476Y-39372914D02*
X68095238Y-39420533D01*
X69047619Y-39230057D02*
X69095238Y-39182438D01*
X69095238Y-39182438D02*
X69190476Y-39134819D01*
X69190476Y-39134819D02*
X69428571Y-39134819D01*
X69428571Y-39134819D02*
X69523809Y-39182438D01*
X69523809Y-39182438D02*
X69571428Y-39230057D01*
X69571428Y-39230057D02*
X69619047Y-39325295D01*
X69619047Y-39325295D02*
X69619047Y-39420533D01*
X69619047Y-39420533D02*
X69571428Y-39563390D01*
X69571428Y-39563390D02*
X69000000Y-40134819D01*
X69000000Y-40134819D02*
X69619047Y-40134819D01*
X70047619Y-40134819D02*
X70047619Y-39134819D01*
X70047619Y-39134819D02*
X70380952Y-39849104D01*
X70380952Y-39849104D02*
X70714285Y-39134819D01*
X70714285Y-39134819D02*
X70714285Y-40134819D01*
X71571428Y-40087200D02*
X71476190Y-40134819D01*
X71476190Y-40134819D02*
X71285714Y-40134819D01*
X71285714Y-40134819D02*
X71190476Y-40087200D01*
X71190476Y-40087200D02*
X71142857Y-39991961D01*
X71142857Y-39991961D02*
X71142857Y-39611009D01*
X71142857Y-39611009D02*
X71190476Y-39515771D01*
X71190476Y-39515771D02*
X71285714Y-39468152D01*
X71285714Y-39468152D02*
X71476190Y-39468152D01*
X71476190Y-39468152D02*
X71571428Y-39515771D01*
X71571428Y-39515771D02*
X71619047Y-39611009D01*
X71619047Y-39611009D02*
X71619047Y-39706247D01*
X71619047Y-39706247D02*
X71142857Y-39801485D01*
X71904762Y-39468152D02*
X72285714Y-39468152D01*
X72047619Y-39134819D02*
X72047619Y-39991961D01*
X72047619Y-39991961D02*
X72095238Y-40087200D01*
X72095238Y-40087200D02*
X72190476Y-40134819D01*
X72190476Y-40134819D02*
X72285714Y-40134819D01*
X72619048Y-40134819D02*
X72619048Y-39468152D01*
X72619048Y-39658628D02*
X72666667Y-39563390D01*
X72666667Y-39563390D02*
X72714286Y-39515771D01*
X72714286Y-39515771D02*
X72809524Y-39468152D01*
X72809524Y-39468152D02*
X72904762Y-39468152D01*
X73238096Y-40134819D02*
X73238096Y-39468152D01*
X73238096Y-39134819D02*
X73190477Y-39182438D01*
X73190477Y-39182438D02*
X73238096Y-39230057D01*
X73238096Y-39230057D02*
X73285715Y-39182438D01*
X73285715Y-39182438D02*
X73238096Y-39134819D01*
X73238096Y-39134819D02*
X73238096Y-39230057D01*
X74142857Y-40087200D02*
X74047619Y-40134819D01*
X74047619Y-40134819D02*
X73857143Y-40134819D01*
X73857143Y-40134819D02*
X73761905Y-40087200D01*
X73761905Y-40087200D02*
X73714286Y-40039580D01*
X73714286Y-40039580D02*
X73666667Y-39944342D01*
X73666667Y-39944342D02*
X73666667Y-39658628D01*
X73666667Y-39658628D02*
X73714286Y-39563390D01*
X73714286Y-39563390D02*
X73761905Y-39515771D01*
X73761905Y-39515771D02*
X73857143Y-39468152D01*
X73857143Y-39468152D02*
X74047619Y-39468152D01*
X74047619Y-39468152D02*
X74142857Y-39515771D01*
D12*
X66916666Y-38179530D02*
X66892857Y-38203340D01*
X66892857Y-38203340D02*
X66821428Y-38227149D01*
X66821428Y-38227149D02*
X66773809Y-38227149D01*
X66773809Y-38227149D02*
X66702381Y-38203340D01*
X66702381Y-38203340D02*
X66654762Y-38155720D01*
X66654762Y-38155720D02*
X66630952Y-38108101D01*
X66630952Y-38108101D02*
X66607143Y-38012863D01*
X66607143Y-38012863D02*
X66607143Y-37941435D01*
X66607143Y-37941435D02*
X66630952Y-37846197D01*
X66630952Y-37846197D02*
X66654762Y-37798578D01*
X66654762Y-37798578D02*
X66702381Y-37750959D01*
X66702381Y-37750959D02*
X66773809Y-37727149D01*
X66773809Y-37727149D02*
X66821428Y-37727149D01*
X66821428Y-37727149D02*
X66892857Y-37750959D01*
X66892857Y-37750959D02*
X66916666Y-37774768D01*
X67345238Y-37893816D02*
X67345238Y-38227149D01*
X67226190Y-37703340D02*
X67107143Y-38060482D01*
X67107143Y-38060482D02*
X67416666Y-38060482D01*
D10*
X61535714Y-59609580D02*
X61488095Y-59657200D01*
X61488095Y-59657200D02*
X61345238Y-59704819D01*
X61345238Y-59704819D02*
X61250000Y-59704819D01*
X61250000Y-59704819D02*
X61107143Y-59657200D01*
X61107143Y-59657200D02*
X61011905Y-59561961D01*
X61011905Y-59561961D02*
X60964286Y-59466723D01*
X60964286Y-59466723D02*
X60916667Y-59276247D01*
X60916667Y-59276247D02*
X60916667Y-59133390D01*
X60916667Y-59133390D02*
X60964286Y-58942914D01*
X60964286Y-58942914D02*
X61011905Y-58847676D01*
X61011905Y-58847676D02*
X61107143Y-58752438D01*
X61107143Y-58752438D02*
X61250000Y-58704819D01*
X61250000Y-58704819D02*
X61345238Y-58704819D01*
X61345238Y-58704819D02*
X61488095Y-58752438D01*
X61488095Y-58752438D02*
X61535714Y-58800057D01*
X61964286Y-59704819D02*
X61964286Y-58704819D01*
X61964286Y-58704819D02*
X62345238Y-58704819D01*
X62345238Y-58704819D02*
X62440476Y-58752438D01*
X62440476Y-58752438D02*
X62488095Y-58800057D01*
X62488095Y-58800057D02*
X62535714Y-58895295D01*
X62535714Y-58895295D02*
X62535714Y-59038152D01*
X62535714Y-59038152D02*
X62488095Y-59133390D01*
X62488095Y-59133390D02*
X62440476Y-59181009D01*
X62440476Y-59181009D02*
X62345238Y-59228628D01*
X62345238Y-59228628D02*
X61964286Y-59228628D01*
X62726191Y-59800057D02*
X63488095Y-59800057D01*
X64297619Y-59704819D02*
X63964286Y-59228628D01*
X63726191Y-59704819D02*
X63726191Y-58704819D01*
X63726191Y-58704819D02*
X64107143Y-58704819D01*
X64107143Y-58704819D02*
X64202381Y-58752438D01*
X64202381Y-58752438D02*
X64250000Y-58800057D01*
X64250000Y-58800057D02*
X64297619Y-58895295D01*
X64297619Y-58895295D02*
X64297619Y-59038152D01*
X64297619Y-59038152D02*
X64250000Y-59133390D01*
X64250000Y-59133390D02*
X64202381Y-59181009D01*
X64202381Y-59181009D02*
X64107143Y-59228628D01*
X64107143Y-59228628D02*
X63726191Y-59228628D01*
X65154762Y-59704819D02*
X65154762Y-59181009D01*
X65154762Y-59181009D02*
X65107143Y-59085771D01*
X65107143Y-59085771D02*
X65011905Y-59038152D01*
X65011905Y-59038152D02*
X64821429Y-59038152D01*
X64821429Y-59038152D02*
X64726191Y-59085771D01*
X65154762Y-59657200D02*
X65059524Y-59704819D01*
X65059524Y-59704819D02*
X64821429Y-59704819D01*
X64821429Y-59704819D02*
X64726191Y-59657200D01*
X64726191Y-59657200D02*
X64678572Y-59561961D01*
X64678572Y-59561961D02*
X64678572Y-59466723D01*
X64678572Y-59466723D02*
X64726191Y-59371485D01*
X64726191Y-59371485D02*
X64821429Y-59323866D01*
X64821429Y-59323866D02*
X65059524Y-59323866D01*
X65059524Y-59323866D02*
X65154762Y-59276247D01*
X66059524Y-59704819D02*
X66059524Y-58704819D01*
X66059524Y-59657200D02*
X65964286Y-59704819D01*
X65964286Y-59704819D02*
X65773810Y-59704819D01*
X65773810Y-59704819D02*
X65678572Y-59657200D01*
X65678572Y-59657200D02*
X65630953Y-59609580D01*
X65630953Y-59609580D02*
X65583334Y-59514342D01*
X65583334Y-59514342D02*
X65583334Y-59228628D01*
X65583334Y-59228628D02*
X65630953Y-59133390D01*
X65630953Y-59133390D02*
X65678572Y-59085771D01*
X65678572Y-59085771D02*
X65773810Y-59038152D01*
X65773810Y-59038152D02*
X65964286Y-59038152D01*
X65964286Y-59038152D02*
X66059524Y-59085771D01*
X66535715Y-59704819D02*
X66535715Y-59038152D01*
X66535715Y-58704819D02*
X66488096Y-58752438D01*
X66488096Y-58752438D02*
X66535715Y-58800057D01*
X66535715Y-58800057D02*
X66583334Y-58752438D01*
X66583334Y-58752438D02*
X66535715Y-58704819D01*
X66535715Y-58704819D02*
X66535715Y-58800057D01*
X67440476Y-59704819D02*
X67440476Y-59181009D01*
X67440476Y-59181009D02*
X67392857Y-59085771D01*
X67392857Y-59085771D02*
X67297619Y-59038152D01*
X67297619Y-59038152D02*
X67107143Y-59038152D01*
X67107143Y-59038152D02*
X67011905Y-59085771D01*
X67440476Y-59657200D02*
X67345238Y-59704819D01*
X67345238Y-59704819D02*
X67107143Y-59704819D01*
X67107143Y-59704819D02*
X67011905Y-59657200D01*
X67011905Y-59657200D02*
X66964286Y-59561961D01*
X66964286Y-59561961D02*
X66964286Y-59466723D01*
X66964286Y-59466723D02*
X67011905Y-59371485D01*
X67011905Y-59371485D02*
X67107143Y-59323866D01*
X67107143Y-59323866D02*
X67345238Y-59323866D01*
X67345238Y-59323866D02*
X67440476Y-59276247D01*
X68059524Y-59704819D02*
X67964286Y-59657200D01*
X67964286Y-59657200D02*
X67916667Y-59561961D01*
X67916667Y-59561961D02*
X67916667Y-58704819D01*
X68202382Y-59800057D02*
X68964286Y-59800057D01*
X69202382Y-59704819D02*
X69202382Y-58704819D01*
X69202382Y-58704819D02*
X69440477Y-58704819D01*
X69440477Y-58704819D02*
X69583334Y-58752438D01*
X69583334Y-58752438D02*
X69678572Y-58847676D01*
X69678572Y-58847676D02*
X69726191Y-58942914D01*
X69726191Y-58942914D02*
X69773810Y-59133390D01*
X69773810Y-59133390D02*
X69773810Y-59276247D01*
X69773810Y-59276247D02*
X69726191Y-59466723D01*
X69726191Y-59466723D02*
X69678572Y-59561961D01*
X69678572Y-59561961D02*
X69583334Y-59657200D01*
X69583334Y-59657200D02*
X69440477Y-59704819D01*
X69440477Y-59704819D02*
X69202382Y-59704819D01*
X70345239Y-59133390D02*
X70250001Y-59085771D01*
X70250001Y-59085771D02*
X70202382Y-59038152D01*
X70202382Y-59038152D02*
X70154763Y-58942914D01*
X70154763Y-58942914D02*
X70154763Y-58895295D01*
X70154763Y-58895295D02*
X70202382Y-58800057D01*
X70202382Y-58800057D02*
X70250001Y-58752438D01*
X70250001Y-58752438D02*
X70345239Y-58704819D01*
X70345239Y-58704819D02*
X70535715Y-58704819D01*
X70535715Y-58704819D02*
X70630953Y-58752438D01*
X70630953Y-58752438D02*
X70678572Y-58800057D01*
X70678572Y-58800057D02*
X70726191Y-58895295D01*
X70726191Y-58895295D02*
X70726191Y-58942914D01*
X70726191Y-58942914D02*
X70678572Y-59038152D01*
X70678572Y-59038152D02*
X70630953Y-59085771D01*
X70630953Y-59085771D02*
X70535715Y-59133390D01*
X70535715Y-59133390D02*
X70345239Y-59133390D01*
X70345239Y-59133390D02*
X70250001Y-59181009D01*
X70250001Y-59181009D02*
X70202382Y-59228628D01*
X70202382Y-59228628D02*
X70154763Y-59323866D01*
X70154763Y-59323866D02*
X70154763Y-59514342D01*
X70154763Y-59514342D02*
X70202382Y-59609580D01*
X70202382Y-59609580D02*
X70250001Y-59657200D01*
X70250001Y-59657200D02*
X70345239Y-59704819D01*
X70345239Y-59704819D02*
X70535715Y-59704819D01*
X70535715Y-59704819D02*
X70630953Y-59657200D01*
X70630953Y-59657200D02*
X70678572Y-59609580D01*
X70678572Y-59609580D02*
X70726191Y-59514342D01*
X70726191Y-59514342D02*
X70726191Y-59323866D01*
X70726191Y-59323866D02*
X70678572Y-59228628D01*
X70678572Y-59228628D02*
X70630953Y-59181009D01*
X70630953Y-59181009D02*
X70535715Y-59133390D01*
X71154763Y-59609580D02*
X71202382Y-59657200D01*
X71202382Y-59657200D02*
X71154763Y-59704819D01*
X71154763Y-59704819D02*
X71107144Y-59657200D01*
X71107144Y-59657200D02*
X71154763Y-59609580D01*
X71154763Y-59609580D02*
X71154763Y-59704819D01*
X71821429Y-58704819D02*
X71916667Y-58704819D01*
X71916667Y-58704819D02*
X72011905Y-58752438D01*
X72011905Y-58752438D02*
X72059524Y-58800057D01*
X72059524Y-58800057D02*
X72107143Y-58895295D01*
X72107143Y-58895295D02*
X72154762Y-59085771D01*
X72154762Y-59085771D02*
X72154762Y-59323866D01*
X72154762Y-59323866D02*
X72107143Y-59514342D01*
X72107143Y-59514342D02*
X72059524Y-59609580D01*
X72059524Y-59609580D02*
X72011905Y-59657200D01*
X72011905Y-59657200D02*
X71916667Y-59704819D01*
X71916667Y-59704819D02*
X71821429Y-59704819D01*
X71821429Y-59704819D02*
X71726191Y-59657200D01*
X71726191Y-59657200D02*
X71678572Y-59609580D01*
X71678572Y-59609580D02*
X71630953Y-59514342D01*
X71630953Y-59514342D02*
X71583334Y-59323866D01*
X71583334Y-59323866D02*
X71583334Y-59085771D01*
X71583334Y-59085771D02*
X71630953Y-58895295D01*
X71630953Y-58895295D02*
X71678572Y-58800057D01*
X71678572Y-58800057D02*
X71726191Y-58752438D01*
X71726191Y-58752438D02*
X71821429Y-58704819D01*
X72583334Y-59704819D02*
X72583334Y-59038152D01*
X72583334Y-59133390D02*
X72630953Y-59085771D01*
X72630953Y-59085771D02*
X72726191Y-59038152D01*
X72726191Y-59038152D02*
X72869048Y-59038152D01*
X72869048Y-59038152D02*
X72964286Y-59085771D01*
X72964286Y-59085771D02*
X73011905Y-59181009D01*
X73011905Y-59181009D02*
X73011905Y-59704819D01*
X73011905Y-59181009D02*
X73059524Y-59085771D01*
X73059524Y-59085771D02*
X73154762Y-59038152D01*
X73154762Y-59038152D02*
X73297619Y-59038152D01*
X73297619Y-59038152D02*
X73392858Y-59085771D01*
X73392858Y-59085771D02*
X73440477Y-59181009D01*
X73440477Y-59181009D02*
X73440477Y-59704819D01*
X73916667Y-59704819D02*
X73916667Y-59038152D01*
X73916667Y-59133390D02*
X73964286Y-59085771D01*
X73964286Y-59085771D02*
X74059524Y-59038152D01*
X74059524Y-59038152D02*
X74202381Y-59038152D01*
X74202381Y-59038152D02*
X74297619Y-59085771D01*
X74297619Y-59085771D02*
X74345238Y-59181009D01*
X74345238Y-59181009D02*
X74345238Y-59704819D01*
X74345238Y-59181009D02*
X74392857Y-59085771D01*
X74392857Y-59085771D02*
X74488095Y-59038152D01*
X74488095Y-59038152D02*
X74630952Y-59038152D01*
X74630952Y-59038152D02*
X74726191Y-59085771D01*
X74726191Y-59085771D02*
X74773810Y-59181009D01*
X74773810Y-59181009D02*
X74773810Y-59704819D01*
X75011905Y-59800057D02*
X75773809Y-59800057D01*
X76011905Y-59704819D02*
X76011905Y-58704819D01*
X76011905Y-58704819D02*
X76392857Y-58704819D01*
X76392857Y-58704819D02*
X76488095Y-58752438D01*
X76488095Y-58752438D02*
X76535714Y-58800057D01*
X76535714Y-58800057D02*
X76583333Y-58895295D01*
X76583333Y-58895295D02*
X76583333Y-59038152D01*
X76583333Y-59038152D02*
X76535714Y-59133390D01*
X76535714Y-59133390D02*
X76488095Y-59181009D01*
X76488095Y-59181009D02*
X76392857Y-59228628D01*
X76392857Y-59228628D02*
X76011905Y-59228628D01*
X76916667Y-58704819D02*
X77535714Y-58704819D01*
X77535714Y-58704819D02*
X77202381Y-59085771D01*
X77202381Y-59085771D02*
X77345238Y-59085771D01*
X77345238Y-59085771D02*
X77440476Y-59133390D01*
X77440476Y-59133390D02*
X77488095Y-59181009D01*
X77488095Y-59181009D02*
X77535714Y-59276247D01*
X77535714Y-59276247D02*
X77535714Y-59514342D01*
X77535714Y-59514342D02*
X77488095Y-59609580D01*
X77488095Y-59609580D02*
X77440476Y-59657200D01*
X77440476Y-59657200D02*
X77345238Y-59704819D01*
X77345238Y-59704819D02*
X77059524Y-59704819D01*
X77059524Y-59704819D02*
X76964286Y-59657200D01*
X76964286Y-59657200D02*
X76916667Y-59609580D01*
X77964286Y-59609580D02*
X78011905Y-59657200D01*
X78011905Y-59657200D02*
X77964286Y-59704819D01*
X77964286Y-59704819D02*
X77916667Y-59657200D01*
X77916667Y-59657200D02*
X77964286Y-59609580D01*
X77964286Y-59609580D02*
X77964286Y-59704819D01*
X78916666Y-58704819D02*
X78440476Y-58704819D01*
X78440476Y-58704819D02*
X78392857Y-59181009D01*
X78392857Y-59181009D02*
X78440476Y-59133390D01*
X78440476Y-59133390D02*
X78535714Y-59085771D01*
X78535714Y-59085771D02*
X78773809Y-59085771D01*
X78773809Y-59085771D02*
X78869047Y-59133390D01*
X78869047Y-59133390D02*
X78916666Y-59181009D01*
X78916666Y-59181009D02*
X78964285Y-59276247D01*
X78964285Y-59276247D02*
X78964285Y-59514342D01*
X78964285Y-59514342D02*
X78916666Y-59609580D01*
X78916666Y-59609580D02*
X78869047Y-59657200D01*
X78869047Y-59657200D02*
X78773809Y-59704819D01*
X78773809Y-59704819D02*
X78535714Y-59704819D01*
X78535714Y-59704819D02*
X78440476Y-59657200D01*
X78440476Y-59657200D02*
X78392857Y-59609580D01*
X79583333Y-58704819D02*
X79678571Y-58704819D01*
X79678571Y-58704819D02*
X79773809Y-58752438D01*
X79773809Y-58752438D02*
X79821428Y-58800057D01*
X79821428Y-58800057D02*
X79869047Y-58895295D01*
X79869047Y-58895295D02*
X79916666Y-59085771D01*
X79916666Y-59085771D02*
X79916666Y-59323866D01*
X79916666Y-59323866D02*
X79869047Y-59514342D01*
X79869047Y-59514342D02*
X79821428Y-59609580D01*
X79821428Y-59609580D02*
X79773809Y-59657200D01*
X79773809Y-59657200D02*
X79678571Y-59704819D01*
X79678571Y-59704819D02*
X79583333Y-59704819D01*
X79583333Y-59704819D02*
X79488095Y-59657200D01*
X79488095Y-59657200D02*
X79440476Y-59609580D01*
X79440476Y-59609580D02*
X79392857Y-59514342D01*
X79392857Y-59514342D02*
X79345238Y-59323866D01*
X79345238Y-59323866D02*
X79345238Y-59085771D01*
X79345238Y-59085771D02*
X79392857Y-58895295D01*
X79392857Y-58895295D02*
X79440476Y-58800057D01*
X79440476Y-58800057D02*
X79488095Y-58752438D01*
X79488095Y-58752438D02*
X79583333Y-58704819D01*
X80345238Y-59704819D02*
X80345238Y-59038152D01*
X80345238Y-59133390D02*
X80392857Y-59085771D01*
X80392857Y-59085771D02*
X80488095Y-59038152D01*
X80488095Y-59038152D02*
X80630952Y-59038152D01*
X80630952Y-59038152D02*
X80726190Y-59085771D01*
X80726190Y-59085771D02*
X80773809Y-59181009D01*
X80773809Y-59181009D02*
X80773809Y-59704819D01*
X80773809Y-59181009D02*
X80821428Y-59085771D01*
X80821428Y-59085771D02*
X80916666Y-59038152D01*
X80916666Y-59038152D02*
X81059523Y-59038152D01*
X81059523Y-59038152D02*
X81154762Y-59085771D01*
X81154762Y-59085771D02*
X81202381Y-59181009D01*
X81202381Y-59181009D02*
X81202381Y-59704819D01*
X81678571Y-59704819D02*
X81678571Y-59038152D01*
X81678571Y-59133390D02*
X81726190Y-59085771D01*
X81726190Y-59085771D02*
X81821428Y-59038152D01*
X81821428Y-59038152D02*
X81964285Y-59038152D01*
X81964285Y-59038152D02*
X82059523Y-59085771D01*
X82059523Y-59085771D02*
X82107142Y-59181009D01*
X82107142Y-59181009D02*
X82107142Y-59704819D01*
X82107142Y-59181009D02*
X82154761Y-59085771D01*
X82154761Y-59085771D02*
X82249999Y-59038152D01*
X82249999Y-59038152D02*
X82392856Y-59038152D01*
X82392856Y-59038152D02*
X82488095Y-59085771D01*
X82488095Y-59085771D02*
X82535714Y-59181009D01*
X82535714Y-59181009D02*
X82535714Y-59704819D01*
X71583333Y-54359580D02*
X71535714Y-54407200D01*
X71535714Y-54407200D02*
X71392857Y-54454819D01*
X71392857Y-54454819D02*
X71297619Y-54454819D01*
X71297619Y-54454819D02*
X71154762Y-54407200D01*
X71154762Y-54407200D02*
X71059524Y-54311961D01*
X71059524Y-54311961D02*
X71011905Y-54216723D01*
X71011905Y-54216723D02*
X70964286Y-54026247D01*
X70964286Y-54026247D02*
X70964286Y-53883390D01*
X70964286Y-53883390D02*
X71011905Y-53692914D01*
X71011905Y-53692914D02*
X71059524Y-53597676D01*
X71059524Y-53597676D02*
X71154762Y-53502438D01*
X71154762Y-53502438D02*
X71297619Y-53454819D01*
X71297619Y-53454819D02*
X71392857Y-53454819D01*
X71392857Y-53454819D02*
X71535714Y-53502438D01*
X71535714Y-53502438D02*
X71583333Y-53550057D01*
X71964286Y-53550057D02*
X72011905Y-53502438D01*
X72011905Y-53502438D02*
X72107143Y-53454819D01*
X72107143Y-53454819D02*
X72345238Y-53454819D01*
X72345238Y-53454819D02*
X72440476Y-53502438D01*
X72440476Y-53502438D02*
X72488095Y-53550057D01*
X72488095Y-53550057D02*
X72535714Y-53645295D01*
X72535714Y-53645295D02*
X72535714Y-53740533D01*
X72535714Y-53740533D02*
X72488095Y-53883390D01*
X72488095Y-53883390D02*
X71916667Y-54454819D01*
X71916667Y-54454819D02*
X72535714Y-54454819D01*
X68884819Y-54023810D02*
X68408628Y-54357143D01*
X68884819Y-54595238D02*
X67884819Y-54595238D01*
X67884819Y-54595238D02*
X67884819Y-54214286D01*
X67884819Y-54214286D02*
X67932438Y-54119048D01*
X67932438Y-54119048D02*
X67980057Y-54071429D01*
X67980057Y-54071429D02*
X68075295Y-54023810D01*
X68075295Y-54023810D02*
X68218152Y-54023810D01*
X68218152Y-54023810D02*
X68313390Y-54071429D01*
X68313390Y-54071429D02*
X68361009Y-54119048D01*
X68361009Y-54119048D02*
X68408628Y-54214286D01*
X68408628Y-54214286D02*
X68408628Y-54595238D01*
X68980057Y-53833334D02*
X68980057Y-53071429D01*
X67884819Y-52642857D02*
X67884819Y-52547619D01*
X67884819Y-52547619D02*
X67932438Y-52452381D01*
X67932438Y-52452381D02*
X67980057Y-52404762D01*
X67980057Y-52404762D02*
X68075295Y-52357143D01*
X68075295Y-52357143D02*
X68265771Y-52309524D01*
X68265771Y-52309524D02*
X68503866Y-52309524D01*
X68503866Y-52309524D02*
X68694342Y-52357143D01*
X68694342Y-52357143D02*
X68789580Y-52404762D01*
X68789580Y-52404762D02*
X68837200Y-52452381D01*
X68837200Y-52452381D02*
X68884819Y-52547619D01*
X68884819Y-52547619D02*
X68884819Y-52642857D01*
X68884819Y-52642857D02*
X68837200Y-52738095D01*
X68837200Y-52738095D02*
X68789580Y-52785714D01*
X68789580Y-52785714D02*
X68694342Y-52833333D01*
X68694342Y-52833333D02*
X68503866Y-52880952D01*
X68503866Y-52880952D02*
X68265771Y-52880952D01*
X68265771Y-52880952D02*
X68075295Y-52833333D01*
X68075295Y-52833333D02*
X67980057Y-52785714D01*
X67980057Y-52785714D02*
X67932438Y-52738095D01*
X67932438Y-52738095D02*
X67884819Y-52642857D01*
X67884819Y-51452381D02*
X67884819Y-51642857D01*
X67884819Y-51642857D02*
X67932438Y-51738095D01*
X67932438Y-51738095D02*
X67980057Y-51785714D01*
X67980057Y-51785714D02*
X68122914Y-51880952D01*
X68122914Y-51880952D02*
X68313390Y-51928571D01*
X68313390Y-51928571D02*
X68694342Y-51928571D01*
X68694342Y-51928571D02*
X68789580Y-51880952D01*
X68789580Y-51880952D02*
X68837200Y-51833333D01*
X68837200Y-51833333D02*
X68884819Y-51738095D01*
X68884819Y-51738095D02*
X68884819Y-51547619D01*
X68884819Y-51547619D02*
X68837200Y-51452381D01*
X68837200Y-51452381D02*
X68789580Y-51404762D01*
X68789580Y-51404762D02*
X68694342Y-51357143D01*
X68694342Y-51357143D02*
X68456247Y-51357143D01*
X68456247Y-51357143D02*
X68361009Y-51404762D01*
X68361009Y-51404762D02*
X68313390Y-51452381D01*
X68313390Y-51452381D02*
X68265771Y-51547619D01*
X68265771Y-51547619D02*
X68265771Y-51738095D01*
X68265771Y-51738095D02*
X68313390Y-51833333D01*
X68313390Y-51833333D02*
X68361009Y-51880952D01*
X68361009Y-51880952D02*
X68456247Y-51928571D01*
X67884819Y-50738095D02*
X67884819Y-50642857D01*
X67884819Y-50642857D02*
X67932438Y-50547619D01*
X67932438Y-50547619D02*
X67980057Y-50500000D01*
X67980057Y-50500000D02*
X68075295Y-50452381D01*
X68075295Y-50452381D02*
X68265771Y-50404762D01*
X68265771Y-50404762D02*
X68503866Y-50404762D01*
X68503866Y-50404762D02*
X68694342Y-50452381D01*
X68694342Y-50452381D02*
X68789580Y-50500000D01*
X68789580Y-50500000D02*
X68837200Y-50547619D01*
X68837200Y-50547619D02*
X68884819Y-50642857D01*
X68884819Y-50642857D02*
X68884819Y-50738095D01*
X68884819Y-50738095D02*
X68837200Y-50833333D01*
X68837200Y-50833333D02*
X68789580Y-50880952D01*
X68789580Y-50880952D02*
X68694342Y-50928571D01*
X68694342Y-50928571D02*
X68503866Y-50976190D01*
X68503866Y-50976190D02*
X68265771Y-50976190D01*
X68265771Y-50976190D02*
X68075295Y-50928571D01*
X68075295Y-50928571D02*
X67980057Y-50880952D01*
X67980057Y-50880952D02*
X67932438Y-50833333D01*
X67932438Y-50833333D02*
X67884819Y-50738095D01*
X67884819Y-50071428D02*
X67884819Y-49452381D01*
X67884819Y-49452381D02*
X68265771Y-49785714D01*
X68265771Y-49785714D02*
X68265771Y-49642857D01*
X68265771Y-49642857D02*
X68313390Y-49547619D01*
X68313390Y-49547619D02*
X68361009Y-49500000D01*
X68361009Y-49500000D02*
X68456247Y-49452381D01*
X68456247Y-49452381D02*
X68694342Y-49452381D01*
X68694342Y-49452381D02*
X68789580Y-49500000D01*
X68789580Y-49500000D02*
X68837200Y-49547619D01*
X68837200Y-49547619D02*
X68884819Y-49642857D01*
X68884819Y-49642857D02*
X68884819Y-49928571D01*
X68884819Y-49928571D02*
X68837200Y-50023809D01*
X68837200Y-50023809D02*
X68789580Y-50071428D01*
X68980057Y-49261905D02*
X68980057Y-48500000D01*
X68884819Y-47738095D02*
X68884819Y-48309523D01*
X68884819Y-48023809D02*
X67884819Y-48023809D01*
X67884819Y-48023809D02*
X68027676Y-48119047D01*
X68027676Y-48119047D02*
X68122914Y-48214285D01*
X68122914Y-48214285D02*
X68170533Y-48309523D01*
X67884819Y-46880952D02*
X67884819Y-47071428D01*
X67884819Y-47071428D02*
X67932438Y-47166666D01*
X67932438Y-47166666D02*
X67980057Y-47214285D01*
X67980057Y-47214285D02*
X68122914Y-47309523D01*
X68122914Y-47309523D02*
X68313390Y-47357142D01*
X68313390Y-47357142D02*
X68694342Y-47357142D01*
X68694342Y-47357142D02*
X68789580Y-47309523D01*
X68789580Y-47309523D02*
X68837200Y-47261904D01*
X68837200Y-47261904D02*
X68884819Y-47166666D01*
X68884819Y-47166666D02*
X68884819Y-46976190D01*
X68884819Y-46976190D02*
X68837200Y-46880952D01*
X68837200Y-46880952D02*
X68789580Y-46833333D01*
X68789580Y-46833333D02*
X68694342Y-46785714D01*
X68694342Y-46785714D02*
X68456247Y-46785714D01*
X68456247Y-46785714D02*
X68361009Y-46833333D01*
X68361009Y-46833333D02*
X68313390Y-46880952D01*
X68313390Y-46880952D02*
X68265771Y-46976190D01*
X68265771Y-46976190D02*
X68265771Y-47166666D01*
X68265771Y-47166666D02*
X68313390Y-47261904D01*
X68313390Y-47261904D02*
X68361009Y-47309523D01*
X68361009Y-47309523D02*
X68456247Y-47357142D01*
X67884819Y-46166666D02*
X67884819Y-46071428D01*
X67884819Y-46071428D02*
X67932438Y-45976190D01*
X67932438Y-45976190D02*
X67980057Y-45928571D01*
X67980057Y-45928571D02*
X68075295Y-45880952D01*
X68075295Y-45880952D02*
X68265771Y-45833333D01*
X68265771Y-45833333D02*
X68503866Y-45833333D01*
X68503866Y-45833333D02*
X68694342Y-45880952D01*
X68694342Y-45880952D02*
X68789580Y-45928571D01*
X68789580Y-45928571D02*
X68837200Y-45976190D01*
X68837200Y-45976190D02*
X68884819Y-46071428D01*
X68884819Y-46071428D02*
X68884819Y-46166666D01*
X68884819Y-46166666D02*
X68837200Y-46261904D01*
X68837200Y-46261904D02*
X68789580Y-46309523D01*
X68789580Y-46309523D02*
X68694342Y-46357142D01*
X68694342Y-46357142D02*
X68503866Y-46404761D01*
X68503866Y-46404761D02*
X68265771Y-46404761D01*
X68265771Y-46404761D02*
X68075295Y-46357142D01*
X68075295Y-46357142D02*
X67980057Y-46309523D01*
X67980057Y-46309523D02*
X67932438Y-46261904D01*
X67932438Y-46261904D02*
X67884819Y-46166666D01*
X68313390Y-45261904D02*
X68265771Y-45357142D01*
X68265771Y-45357142D02*
X68218152Y-45404761D01*
X68218152Y-45404761D02*
X68122914Y-45452380D01*
X68122914Y-45452380D02*
X68075295Y-45452380D01*
X68075295Y-45452380D02*
X67980057Y-45404761D01*
X67980057Y-45404761D02*
X67932438Y-45357142D01*
X67932438Y-45357142D02*
X67884819Y-45261904D01*
X67884819Y-45261904D02*
X67884819Y-45071428D01*
X67884819Y-45071428D02*
X67932438Y-44976190D01*
X67932438Y-44976190D02*
X67980057Y-44928571D01*
X67980057Y-44928571D02*
X68075295Y-44880952D01*
X68075295Y-44880952D02*
X68122914Y-44880952D01*
X68122914Y-44880952D02*
X68218152Y-44928571D01*
X68218152Y-44928571D02*
X68265771Y-44976190D01*
X68265771Y-44976190D02*
X68313390Y-45071428D01*
X68313390Y-45071428D02*
X68313390Y-45261904D01*
X68313390Y-45261904D02*
X68361009Y-45357142D01*
X68361009Y-45357142D02*
X68408628Y-45404761D01*
X68408628Y-45404761D02*
X68503866Y-45452380D01*
X68503866Y-45452380D02*
X68694342Y-45452380D01*
X68694342Y-45452380D02*
X68789580Y-45404761D01*
X68789580Y-45404761D02*
X68837200Y-45357142D01*
X68837200Y-45357142D02*
X68884819Y-45261904D01*
X68884819Y-45261904D02*
X68884819Y-45071428D01*
X68884819Y-45071428D02*
X68837200Y-44976190D01*
X68837200Y-44976190D02*
X68789580Y-44928571D01*
X68789580Y-44928571D02*
X68694342Y-44880952D01*
X68694342Y-44880952D02*
X68503866Y-44880952D01*
X68503866Y-44880952D02*
X68408628Y-44928571D01*
X68408628Y-44928571D02*
X68361009Y-44976190D01*
X68361009Y-44976190D02*
X68313390Y-45071428D01*
X68884819Y-44452380D02*
X67884819Y-44452380D01*
X67884819Y-44452380D02*
X68599104Y-44119047D01*
X68599104Y-44119047D02*
X67884819Y-43785714D01*
X67884819Y-43785714D02*
X68884819Y-43785714D01*
X68837200Y-42928571D02*
X68884819Y-43023809D01*
X68884819Y-43023809D02*
X68884819Y-43214285D01*
X68884819Y-43214285D02*
X68837200Y-43309523D01*
X68837200Y-43309523D02*
X68741961Y-43357142D01*
X68741961Y-43357142D02*
X68361009Y-43357142D01*
X68361009Y-43357142D02*
X68265771Y-43309523D01*
X68265771Y-43309523D02*
X68218152Y-43214285D01*
X68218152Y-43214285D02*
X68218152Y-43023809D01*
X68218152Y-43023809D02*
X68265771Y-42928571D01*
X68265771Y-42928571D02*
X68361009Y-42880952D01*
X68361009Y-42880952D02*
X68456247Y-42880952D01*
X68456247Y-42880952D02*
X68551485Y-43357142D01*
X68218152Y-42595237D02*
X68218152Y-42214285D01*
X67884819Y-42452380D02*
X68741961Y-42452380D01*
X68741961Y-42452380D02*
X68837200Y-42404761D01*
X68837200Y-42404761D02*
X68884819Y-42309523D01*
X68884819Y-42309523D02*
X68884819Y-42214285D01*
X68884819Y-41880951D02*
X68218152Y-41880951D01*
X68408628Y-41880951D02*
X68313390Y-41833332D01*
X68313390Y-41833332D02*
X68265771Y-41785713D01*
X68265771Y-41785713D02*
X68218152Y-41690475D01*
X68218152Y-41690475D02*
X68218152Y-41595237D01*
X68884819Y-41261903D02*
X68218152Y-41261903D01*
X67884819Y-41261903D02*
X67932438Y-41309522D01*
X67932438Y-41309522D02*
X67980057Y-41261903D01*
X67980057Y-41261903D02*
X67932438Y-41214284D01*
X67932438Y-41214284D02*
X67884819Y-41261903D01*
X67884819Y-41261903D02*
X67980057Y-41261903D01*
X68837200Y-40357142D02*
X68884819Y-40452380D01*
X68884819Y-40452380D02*
X68884819Y-40642856D01*
X68884819Y-40642856D02*
X68837200Y-40738094D01*
X68837200Y-40738094D02*
X68789580Y-40785713D01*
X68789580Y-40785713D02*
X68694342Y-40833332D01*
X68694342Y-40833332D02*
X68408628Y-40833332D01*
X68408628Y-40833332D02*
X68313390Y-40785713D01*
X68313390Y-40785713D02*
X68265771Y-40738094D01*
X68265771Y-40738094D02*
X68218152Y-40642856D01*
X68218152Y-40642856D02*
X68218152Y-40452380D01*
X68218152Y-40452380D02*
X68265771Y-40357142D01*
D11*
X67181927Y-47566666D02*
X66991451Y-47699999D01*
X67181927Y-47795237D02*
X66781927Y-47795237D01*
X66781927Y-47795237D02*
X66781927Y-47642856D01*
X66781927Y-47642856D02*
X66800975Y-47604761D01*
X66800975Y-47604761D02*
X66820022Y-47585714D01*
X66820022Y-47585714D02*
X66858118Y-47566666D01*
X66858118Y-47566666D02*
X66915260Y-47566666D01*
X66915260Y-47566666D02*
X66953356Y-47585714D01*
X66953356Y-47585714D02*
X66972403Y-47604761D01*
X66972403Y-47604761D02*
X66991451Y-47642856D01*
X66991451Y-47642856D02*
X66991451Y-47795237D01*
X66820022Y-47414285D02*
X66800975Y-47395237D01*
X66800975Y-47395237D02*
X66781927Y-47357142D01*
X66781927Y-47357142D02*
X66781927Y-47261904D01*
X66781927Y-47261904D02*
X66800975Y-47223809D01*
X66800975Y-47223809D02*
X66820022Y-47204761D01*
X66820022Y-47204761D02*
X66858118Y-47185714D01*
X66858118Y-47185714D02*
X66896213Y-47185714D01*
X66896213Y-47185714D02*
X66953356Y-47204761D01*
X66953356Y-47204761D02*
X67181927Y-47433333D01*
X67181927Y-47433333D02*
X67181927Y-47185714D01*
D10*
X53238572Y-44827200D02*
X53381429Y-44874819D01*
X53381429Y-44874819D02*
X53619524Y-44874819D01*
X53619524Y-44874819D02*
X53714762Y-44827200D01*
X53714762Y-44827200D02*
X53762381Y-44779580D01*
X53762381Y-44779580D02*
X53810000Y-44684342D01*
X53810000Y-44684342D02*
X53810000Y-44589104D01*
X53810000Y-44589104D02*
X53762381Y-44493866D01*
X53762381Y-44493866D02*
X53714762Y-44446247D01*
X53714762Y-44446247D02*
X53619524Y-44398628D01*
X53619524Y-44398628D02*
X53429048Y-44351009D01*
X53429048Y-44351009D02*
X53333810Y-44303390D01*
X53333810Y-44303390D02*
X53286191Y-44255771D01*
X53286191Y-44255771D02*
X53238572Y-44160533D01*
X53238572Y-44160533D02*
X53238572Y-44065295D01*
X53238572Y-44065295D02*
X53286191Y-43970057D01*
X53286191Y-43970057D02*
X53333810Y-43922438D01*
X53333810Y-43922438D02*
X53429048Y-43874819D01*
X53429048Y-43874819D02*
X53667143Y-43874819D01*
X53667143Y-43874819D02*
X53810000Y-43922438D01*
X54143334Y-43874819D02*
X54381429Y-44874819D01*
X54381429Y-44874819D02*
X54571905Y-44160533D01*
X54571905Y-44160533D02*
X54762381Y-44874819D01*
X54762381Y-44874819D02*
X55000477Y-43874819D01*
X55143334Y-44970057D02*
X55905238Y-44970057D01*
X56143334Y-44874819D02*
X56143334Y-43874819D01*
X56143334Y-43874819D02*
X56381429Y-43874819D01*
X56381429Y-43874819D02*
X56524286Y-43922438D01*
X56524286Y-43922438D02*
X56619524Y-44017676D01*
X56619524Y-44017676D02*
X56667143Y-44112914D01*
X56667143Y-44112914D02*
X56714762Y-44303390D01*
X56714762Y-44303390D02*
X56714762Y-44446247D01*
X56714762Y-44446247D02*
X56667143Y-44636723D01*
X56667143Y-44636723D02*
X56619524Y-44731961D01*
X56619524Y-44731961D02*
X56524286Y-44827200D01*
X56524286Y-44827200D02*
X56381429Y-44874819D01*
X56381429Y-44874819D02*
X56143334Y-44874819D01*
X57143334Y-44874819D02*
X57143334Y-43874819D01*
X57619524Y-44874819D02*
X57619524Y-43874819D01*
X57619524Y-43874819D02*
X58000476Y-43874819D01*
X58000476Y-43874819D02*
X58095714Y-43922438D01*
X58095714Y-43922438D02*
X58143333Y-43970057D01*
X58143333Y-43970057D02*
X58190952Y-44065295D01*
X58190952Y-44065295D02*
X58190952Y-44208152D01*
X58190952Y-44208152D02*
X58143333Y-44303390D01*
X58143333Y-44303390D02*
X58095714Y-44351009D01*
X58095714Y-44351009D02*
X58000476Y-44398628D01*
X58000476Y-44398628D02*
X57619524Y-44398628D01*
X58381429Y-44970057D02*
X59143333Y-44970057D01*
X59333810Y-44827200D02*
X59476667Y-44874819D01*
X59476667Y-44874819D02*
X59714762Y-44874819D01*
X59714762Y-44874819D02*
X59810000Y-44827200D01*
X59810000Y-44827200D02*
X59857619Y-44779580D01*
X59857619Y-44779580D02*
X59905238Y-44684342D01*
X59905238Y-44684342D02*
X59905238Y-44589104D01*
X59905238Y-44589104D02*
X59857619Y-44493866D01*
X59857619Y-44493866D02*
X59810000Y-44446247D01*
X59810000Y-44446247D02*
X59714762Y-44398628D01*
X59714762Y-44398628D02*
X59524286Y-44351009D01*
X59524286Y-44351009D02*
X59429048Y-44303390D01*
X59429048Y-44303390D02*
X59381429Y-44255771D01*
X59381429Y-44255771D02*
X59333810Y-44160533D01*
X59333810Y-44160533D02*
X59333810Y-44065295D01*
X59333810Y-44065295D02*
X59381429Y-43970057D01*
X59381429Y-43970057D02*
X59429048Y-43922438D01*
X59429048Y-43922438D02*
X59524286Y-43874819D01*
X59524286Y-43874819D02*
X59762381Y-43874819D01*
X59762381Y-43874819D02*
X59905238Y-43922438D01*
X60333810Y-44874819D02*
X60333810Y-43874819D01*
X60333810Y-43874819D02*
X60714762Y-43874819D01*
X60714762Y-43874819D02*
X60810000Y-43922438D01*
X60810000Y-43922438D02*
X60857619Y-43970057D01*
X60857619Y-43970057D02*
X60905238Y-44065295D01*
X60905238Y-44065295D02*
X60905238Y-44208152D01*
X60905238Y-44208152D02*
X60857619Y-44303390D01*
X60857619Y-44303390D02*
X60810000Y-44351009D01*
X60810000Y-44351009D02*
X60714762Y-44398628D01*
X60714762Y-44398628D02*
X60333810Y-44398628D01*
X61286191Y-44827200D02*
X61429048Y-44874819D01*
X61429048Y-44874819D02*
X61667143Y-44874819D01*
X61667143Y-44874819D02*
X61762381Y-44827200D01*
X61762381Y-44827200D02*
X61810000Y-44779580D01*
X61810000Y-44779580D02*
X61857619Y-44684342D01*
X61857619Y-44684342D02*
X61857619Y-44589104D01*
X61857619Y-44589104D02*
X61810000Y-44493866D01*
X61810000Y-44493866D02*
X61762381Y-44446247D01*
X61762381Y-44446247D02*
X61667143Y-44398628D01*
X61667143Y-44398628D02*
X61476667Y-44351009D01*
X61476667Y-44351009D02*
X61381429Y-44303390D01*
X61381429Y-44303390D02*
X61333810Y-44255771D01*
X61333810Y-44255771D02*
X61286191Y-44160533D01*
X61286191Y-44160533D02*
X61286191Y-44065295D01*
X61286191Y-44065295D02*
X61333810Y-43970057D01*
X61333810Y-43970057D02*
X61381429Y-43922438D01*
X61381429Y-43922438D02*
X61476667Y-43874819D01*
X61476667Y-43874819D02*
X61714762Y-43874819D01*
X61714762Y-43874819D02*
X61857619Y-43922438D01*
X62143334Y-43874819D02*
X62714762Y-43874819D01*
X62429048Y-44874819D02*
X62429048Y-43874819D01*
X62952858Y-44874819D02*
X63476667Y-44208152D01*
X62952858Y-44208152D02*
X63476667Y-44874819D01*
X64048096Y-43874819D02*
X64143334Y-43874819D01*
X64143334Y-43874819D02*
X64238572Y-43922438D01*
X64238572Y-43922438D02*
X64286191Y-43970057D01*
X64286191Y-43970057D02*
X64333810Y-44065295D01*
X64333810Y-44065295D02*
X64381429Y-44255771D01*
X64381429Y-44255771D02*
X64381429Y-44493866D01*
X64381429Y-44493866D02*
X64333810Y-44684342D01*
X64333810Y-44684342D02*
X64286191Y-44779580D01*
X64286191Y-44779580D02*
X64238572Y-44827200D01*
X64238572Y-44827200D02*
X64143334Y-44874819D01*
X64143334Y-44874819D02*
X64048096Y-44874819D01*
X64048096Y-44874819D02*
X63952858Y-44827200D01*
X63952858Y-44827200D02*
X63905239Y-44779580D01*
X63905239Y-44779580D02*
X63857620Y-44684342D01*
X63857620Y-44684342D02*
X63810001Y-44493866D01*
X63810001Y-44493866D02*
X63810001Y-44255771D01*
X63810001Y-44255771D02*
X63857620Y-44065295D01*
X63857620Y-44065295D02*
X63905239Y-43970057D01*
X63905239Y-43970057D02*
X63952858Y-43922438D01*
X63952858Y-43922438D02*
X64048096Y-43874819D01*
X65333810Y-44874819D02*
X64762382Y-44874819D01*
X65048096Y-44874819D02*
X65048096Y-43874819D01*
X65048096Y-43874819D02*
X64952858Y-44017676D01*
X64952858Y-44017676D02*
X64857620Y-44112914D01*
X64857620Y-44112914D02*
X64762382Y-44160533D01*
X65524287Y-44970057D02*
X66286191Y-44970057D01*
X66476668Y-44827200D02*
X66619525Y-44874819D01*
X66619525Y-44874819D02*
X66857620Y-44874819D01*
X66857620Y-44874819D02*
X66952858Y-44827200D01*
X66952858Y-44827200D02*
X67000477Y-44779580D01*
X67000477Y-44779580D02*
X67048096Y-44684342D01*
X67048096Y-44684342D02*
X67048096Y-44589104D01*
X67048096Y-44589104D02*
X67000477Y-44493866D01*
X67000477Y-44493866D02*
X66952858Y-44446247D01*
X66952858Y-44446247D02*
X66857620Y-44398628D01*
X66857620Y-44398628D02*
X66667144Y-44351009D01*
X66667144Y-44351009D02*
X66571906Y-44303390D01*
X66571906Y-44303390D02*
X66524287Y-44255771D01*
X66524287Y-44255771D02*
X66476668Y-44160533D01*
X66476668Y-44160533D02*
X66476668Y-44065295D01*
X66476668Y-44065295D02*
X66524287Y-43970057D01*
X66524287Y-43970057D02*
X66571906Y-43922438D01*
X66571906Y-43922438D02*
X66667144Y-43874819D01*
X66667144Y-43874819D02*
X66905239Y-43874819D01*
X66905239Y-43874819D02*
X67048096Y-43922438D01*
X67619525Y-44874819D02*
X67524287Y-44827200D01*
X67524287Y-44827200D02*
X67476668Y-44731961D01*
X67476668Y-44731961D02*
X67476668Y-43874819D01*
X68000478Y-44874819D02*
X68000478Y-44208152D01*
X68000478Y-43874819D02*
X67952859Y-43922438D01*
X67952859Y-43922438D02*
X68000478Y-43970057D01*
X68000478Y-43970057D02*
X68048097Y-43922438D01*
X68048097Y-43922438D02*
X68000478Y-43874819D01*
X68000478Y-43874819D02*
X68000478Y-43970057D01*
X68905239Y-44874819D02*
X68905239Y-43874819D01*
X68905239Y-44827200D02*
X68810001Y-44874819D01*
X68810001Y-44874819D02*
X68619525Y-44874819D01*
X68619525Y-44874819D02*
X68524287Y-44827200D01*
X68524287Y-44827200D02*
X68476668Y-44779580D01*
X68476668Y-44779580D02*
X68429049Y-44684342D01*
X68429049Y-44684342D02*
X68429049Y-44398628D01*
X68429049Y-44398628D02*
X68476668Y-44303390D01*
X68476668Y-44303390D02*
X68524287Y-44255771D01*
X68524287Y-44255771D02*
X68619525Y-44208152D01*
X68619525Y-44208152D02*
X68810001Y-44208152D01*
X68810001Y-44208152D02*
X68905239Y-44255771D01*
X69762382Y-44827200D02*
X69667144Y-44874819D01*
X69667144Y-44874819D02*
X69476668Y-44874819D01*
X69476668Y-44874819D02*
X69381430Y-44827200D01*
X69381430Y-44827200D02*
X69333811Y-44731961D01*
X69333811Y-44731961D02*
X69333811Y-44351009D01*
X69333811Y-44351009D02*
X69381430Y-44255771D01*
X69381430Y-44255771D02*
X69476668Y-44208152D01*
X69476668Y-44208152D02*
X69667144Y-44208152D01*
X69667144Y-44208152D02*
X69762382Y-44255771D01*
X69762382Y-44255771D02*
X69810001Y-44351009D01*
X69810001Y-44351009D02*
X69810001Y-44446247D01*
X69810001Y-44446247D02*
X69333811Y-44541485D01*
X70000478Y-44970057D02*
X70762382Y-44970057D01*
X71048097Y-44874819D02*
X71238573Y-44874819D01*
X71238573Y-44874819D02*
X71333811Y-44827200D01*
X71333811Y-44827200D02*
X71381430Y-44779580D01*
X71381430Y-44779580D02*
X71476668Y-44636723D01*
X71476668Y-44636723D02*
X71524287Y-44446247D01*
X71524287Y-44446247D02*
X71524287Y-44065295D01*
X71524287Y-44065295D02*
X71476668Y-43970057D01*
X71476668Y-43970057D02*
X71429049Y-43922438D01*
X71429049Y-43922438D02*
X71333811Y-43874819D01*
X71333811Y-43874819D02*
X71143335Y-43874819D01*
X71143335Y-43874819D02*
X71048097Y-43922438D01*
X71048097Y-43922438D02*
X71000478Y-43970057D01*
X71000478Y-43970057D02*
X70952859Y-44065295D01*
X70952859Y-44065295D02*
X70952859Y-44303390D01*
X70952859Y-44303390D02*
X71000478Y-44398628D01*
X71000478Y-44398628D02*
X71048097Y-44446247D01*
X71048097Y-44446247D02*
X71143335Y-44493866D01*
X71143335Y-44493866D02*
X71333811Y-44493866D01*
X71333811Y-44493866D02*
X71429049Y-44446247D01*
X71429049Y-44446247D02*
X71476668Y-44398628D01*
X71476668Y-44398628D02*
X71524287Y-44303390D01*
X71952859Y-44779580D02*
X72000478Y-44827200D01*
X72000478Y-44827200D02*
X71952859Y-44874819D01*
X71952859Y-44874819D02*
X71905240Y-44827200D01*
X71905240Y-44827200D02*
X71952859Y-44779580D01*
X71952859Y-44779580D02*
X71952859Y-44874819D01*
X72333811Y-43874819D02*
X73000477Y-43874819D01*
X73000477Y-43874819D02*
X72571906Y-44874819D01*
X73524287Y-44303390D02*
X73429049Y-44255771D01*
X73429049Y-44255771D02*
X73381430Y-44208152D01*
X73381430Y-44208152D02*
X73333811Y-44112914D01*
X73333811Y-44112914D02*
X73333811Y-44065295D01*
X73333811Y-44065295D02*
X73381430Y-43970057D01*
X73381430Y-43970057D02*
X73429049Y-43922438D01*
X73429049Y-43922438D02*
X73524287Y-43874819D01*
X73524287Y-43874819D02*
X73714763Y-43874819D01*
X73714763Y-43874819D02*
X73810001Y-43922438D01*
X73810001Y-43922438D02*
X73857620Y-43970057D01*
X73857620Y-43970057D02*
X73905239Y-44065295D01*
X73905239Y-44065295D02*
X73905239Y-44112914D01*
X73905239Y-44112914D02*
X73857620Y-44208152D01*
X73857620Y-44208152D02*
X73810001Y-44255771D01*
X73810001Y-44255771D02*
X73714763Y-44303390D01*
X73714763Y-44303390D02*
X73524287Y-44303390D01*
X73524287Y-44303390D02*
X73429049Y-44351009D01*
X73429049Y-44351009D02*
X73381430Y-44398628D01*
X73381430Y-44398628D02*
X73333811Y-44493866D01*
X73333811Y-44493866D02*
X73333811Y-44684342D01*
X73333811Y-44684342D02*
X73381430Y-44779580D01*
X73381430Y-44779580D02*
X73429049Y-44827200D01*
X73429049Y-44827200D02*
X73524287Y-44874819D01*
X73524287Y-44874819D02*
X73714763Y-44874819D01*
X73714763Y-44874819D02*
X73810001Y-44827200D01*
X73810001Y-44827200D02*
X73857620Y-44779580D01*
X73857620Y-44779580D02*
X73905239Y-44684342D01*
X73905239Y-44684342D02*
X73905239Y-44493866D01*
X73905239Y-44493866D02*
X73857620Y-44398628D01*
X73857620Y-44398628D02*
X73810001Y-44351009D01*
X73810001Y-44351009D02*
X73714763Y-44303390D01*
X74238573Y-44874819D02*
X74762382Y-44208152D01*
X74238573Y-44208152D02*
X74762382Y-44874819D01*
X75571906Y-44208152D02*
X75571906Y-44874819D01*
X75333811Y-43827200D02*
X75095716Y-44541485D01*
X75095716Y-44541485D02*
X75714763Y-44541485D01*
X76095716Y-44779580D02*
X76143335Y-44827200D01*
X76143335Y-44827200D02*
X76095716Y-44874819D01*
X76095716Y-44874819D02*
X76048097Y-44827200D01*
X76048097Y-44827200D02*
X76095716Y-44779580D01*
X76095716Y-44779580D02*
X76095716Y-44874819D01*
X76476668Y-43874819D02*
X77143334Y-43874819D01*
X77143334Y-43874819D02*
X76714763Y-44874819D01*
X77476668Y-43970057D02*
X77524287Y-43922438D01*
X77524287Y-43922438D02*
X77619525Y-43874819D01*
X77619525Y-43874819D02*
X77857620Y-43874819D01*
X77857620Y-43874819D02*
X77952858Y-43922438D01*
X77952858Y-43922438D02*
X78000477Y-43970057D01*
X78000477Y-43970057D02*
X78048096Y-44065295D01*
X78048096Y-44065295D02*
X78048096Y-44160533D01*
X78048096Y-44160533D02*
X78000477Y-44303390D01*
X78000477Y-44303390D02*
X77429049Y-44874819D01*
X77429049Y-44874819D02*
X78048096Y-44874819D01*
X78476668Y-44874819D02*
X78476668Y-44208152D01*
X78476668Y-44303390D02*
X78524287Y-44255771D01*
X78524287Y-44255771D02*
X78619525Y-44208152D01*
X78619525Y-44208152D02*
X78762382Y-44208152D01*
X78762382Y-44208152D02*
X78857620Y-44255771D01*
X78857620Y-44255771D02*
X78905239Y-44351009D01*
X78905239Y-44351009D02*
X78905239Y-44874819D01*
X78905239Y-44351009D02*
X78952858Y-44255771D01*
X78952858Y-44255771D02*
X79048096Y-44208152D01*
X79048096Y-44208152D02*
X79190953Y-44208152D01*
X79190953Y-44208152D02*
X79286192Y-44255771D01*
X79286192Y-44255771D02*
X79333811Y-44351009D01*
X79333811Y-44351009D02*
X79333811Y-44874819D01*
X79810001Y-44874819D02*
X79810001Y-44208152D01*
X79810001Y-44303390D02*
X79857620Y-44255771D01*
X79857620Y-44255771D02*
X79952858Y-44208152D01*
X79952858Y-44208152D02*
X80095715Y-44208152D01*
X80095715Y-44208152D02*
X80190953Y-44255771D01*
X80190953Y-44255771D02*
X80238572Y-44351009D01*
X80238572Y-44351009D02*
X80238572Y-44874819D01*
X80238572Y-44351009D02*
X80286191Y-44255771D01*
X80286191Y-44255771D02*
X80381429Y-44208152D01*
X80381429Y-44208152D02*
X80524286Y-44208152D01*
X80524286Y-44208152D02*
X80619525Y-44255771D01*
X80619525Y-44255771D02*
X80667144Y-44351009D01*
X80667144Y-44351009D02*
X80667144Y-44874819D01*
X80905239Y-44970057D02*
X81667143Y-44970057D01*
X81810001Y-43874819D02*
X82048096Y-44874819D01*
X82048096Y-44874819D02*
X82238572Y-44160533D01*
X82238572Y-44160533D02*
X82429048Y-44874819D01*
X82429048Y-44874819D02*
X82667144Y-43874819D01*
X82952858Y-43874819D02*
X83619524Y-43874819D01*
X83619524Y-43874819D02*
X83190953Y-44874819D01*
X84000477Y-44779580D02*
X84048096Y-44827200D01*
X84048096Y-44827200D02*
X84000477Y-44874819D01*
X84000477Y-44874819D02*
X83952858Y-44827200D01*
X83952858Y-44827200D02*
X84000477Y-44779580D01*
X84000477Y-44779580D02*
X84000477Y-44874819D01*
X84905238Y-43874819D02*
X84714762Y-43874819D01*
X84714762Y-43874819D02*
X84619524Y-43922438D01*
X84619524Y-43922438D02*
X84571905Y-43970057D01*
X84571905Y-43970057D02*
X84476667Y-44112914D01*
X84476667Y-44112914D02*
X84429048Y-44303390D01*
X84429048Y-44303390D02*
X84429048Y-44684342D01*
X84429048Y-44684342D02*
X84476667Y-44779580D01*
X84476667Y-44779580D02*
X84524286Y-44827200D01*
X84524286Y-44827200D02*
X84619524Y-44874819D01*
X84619524Y-44874819D02*
X84810000Y-44874819D01*
X84810000Y-44874819D02*
X84905238Y-44827200D01*
X84905238Y-44827200D02*
X84952857Y-44779580D01*
X84952857Y-44779580D02*
X85000476Y-44684342D01*
X85000476Y-44684342D02*
X85000476Y-44446247D01*
X85000476Y-44446247D02*
X84952857Y-44351009D01*
X84952857Y-44351009D02*
X84905238Y-44303390D01*
X84905238Y-44303390D02*
X84810000Y-44255771D01*
X84810000Y-44255771D02*
X84619524Y-44255771D01*
X84619524Y-44255771D02*
X84524286Y-44303390D01*
X84524286Y-44303390D02*
X84476667Y-44351009D01*
X84476667Y-44351009D02*
X84429048Y-44446247D01*
X85381429Y-43970057D02*
X85429048Y-43922438D01*
X85429048Y-43922438D02*
X85524286Y-43874819D01*
X85524286Y-43874819D02*
X85762381Y-43874819D01*
X85762381Y-43874819D02*
X85857619Y-43922438D01*
X85857619Y-43922438D02*
X85905238Y-43970057D01*
X85905238Y-43970057D02*
X85952857Y-44065295D01*
X85952857Y-44065295D02*
X85952857Y-44160533D01*
X85952857Y-44160533D02*
X85905238Y-44303390D01*
X85905238Y-44303390D02*
X85333810Y-44874819D01*
X85333810Y-44874819D02*
X85952857Y-44874819D01*
X86381429Y-44874819D02*
X86381429Y-44208152D01*
X86381429Y-44303390D02*
X86429048Y-44255771D01*
X86429048Y-44255771D02*
X86524286Y-44208152D01*
X86524286Y-44208152D02*
X86667143Y-44208152D01*
X86667143Y-44208152D02*
X86762381Y-44255771D01*
X86762381Y-44255771D02*
X86810000Y-44351009D01*
X86810000Y-44351009D02*
X86810000Y-44874819D01*
X86810000Y-44351009D02*
X86857619Y-44255771D01*
X86857619Y-44255771D02*
X86952857Y-44208152D01*
X86952857Y-44208152D02*
X87095714Y-44208152D01*
X87095714Y-44208152D02*
X87190953Y-44255771D01*
X87190953Y-44255771D02*
X87238572Y-44351009D01*
X87238572Y-44351009D02*
X87238572Y-44874819D01*
X87714762Y-44874819D02*
X87714762Y-44208152D01*
X87714762Y-44303390D02*
X87762381Y-44255771D01*
X87762381Y-44255771D02*
X87857619Y-44208152D01*
X87857619Y-44208152D02*
X88000476Y-44208152D01*
X88000476Y-44208152D02*
X88095714Y-44255771D01*
X88095714Y-44255771D02*
X88143333Y-44351009D01*
X88143333Y-44351009D02*
X88143333Y-44874819D01*
X88143333Y-44351009D02*
X88190952Y-44255771D01*
X88190952Y-44255771D02*
X88286190Y-44208152D01*
X88286190Y-44208152D02*
X88429047Y-44208152D01*
X88429047Y-44208152D02*
X88524286Y-44255771D01*
X88524286Y-44255771D02*
X88571905Y-44351009D01*
X88571905Y-44351009D02*
X88571905Y-44874819D01*
X88810000Y-44970057D02*
X89571904Y-44970057D01*
X89810000Y-44874819D02*
X89810000Y-43874819D01*
X89810000Y-43874819D02*
X90190952Y-43874819D01*
X90190952Y-43874819D02*
X90286190Y-43922438D01*
X90286190Y-43922438D02*
X90333809Y-43970057D01*
X90333809Y-43970057D02*
X90381428Y-44065295D01*
X90381428Y-44065295D02*
X90381428Y-44208152D01*
X90381428Y-44208152D02*
X90333809Y-44303390D01*
X90333809Y-44303390D02*
X90286190Y-44351009D01*
X90286190Y-44351009D02*
X90190952Y-44398628D01*
X90190952Y-44398628D02*
X89810000Y-44398628D01*
X90762381Y-43970057D02*
X90810000Y-43922438D01*
X90810000Y-43922438D02*
X90905238Y-43874819D01*
X90905238Y-43874819D02*
X91143333Y-43874819D01*
X91143333Y-43874819D02*
X91238571Y-43922438D01*
X91238571Y-43922438D02*
X91286190Y-43970057D01*
X91286190Y-43970057D02*
X91333809Y-44065295D01*
X91333809Y-44065295D02*
X91333809Y-44160533D01*
X91333809Y-44160533D02*
X91286190Y-44303390D01*
X91286190Y-44303390D02*
X90714762Y-44874819D01*
X90714762Y-44874819D02*
X91333809Y-44874819D01*
X91762381Y-44779580D02*
X91810000Y-44827200D01*
X91810000Y-44827200D02*
X91762381Y-44874819D01*
X91762381Y-44874819D02*
X91714762Y-44827200D01*
X91714762Y-44827200D02*
X91762381Y-44779580D01*
X91762381Y-44779580D02*
X91762381Y-44874819D01*
X92714761Y-43874819D02*
X92238571Y-43874819D01*
X92238571Y-43874819D02*
X92190952Y-44351009D01*
X92190952Y-44351009D02*
X92238571Y-44303390D01*
X92238571Y-44303390D02*
X92333809Y-44255771D01*
X92333809Y-44255771D02*
X92571904Y-44255771D01*
X92571904Y-44255771D02*
X92667142Y-44303390D01*
X92667142Y-44303390D02*
X92714761Y-44351009D01*
X92714761Y-44351009D02*
X92762380Y-44446247D01*
X92762380Y-44446247D02*
X92762380Y-44684342D01*
X92762380Y-44684342D02*
X92714761Y-44779580D01*
X92714761Y-44779580D02*
X92667142Y-44827200D01*
X92667142Y-44827200D02*
X92571904Y-44874819D01*
X92571904Y-44874819D02*
X92333809Y-44874819D01*
X92333809Y-44874819D02*
X92238571Y-44827200D01*
X92238571Y-44827200D02*
X92190952Y-44779580D01*
X93619523Y-44208152D02*
X93619523Y-44874819D01*
X93381428Y-43827200D02*
X93143333Y-44541485D01*
X93143333Y-44541485D02*
X93762380Y-44541485D01*
X94143333Y-44874819D02*
X94143333Y-44208152D01*
X94143333Y-44303390D02*
X94190952Y-44255771D01*
X94190952Y-44255771D02*
X94286190Y-44208152D01*
X94286190Y-44208152D02*
X94429047Y-44208152D01*
X94429047Y-44208152D02*
X94524285Y-44255771D01*
X94524285Y-44255771D02*
X94571904Y-44351009D01*
X94571904Y-44351009D02*
X94571904Y-44874819D01*
X94571904Y-44351009D02*
X94619523Y-44255771D01*
X94619523Y-44255771D02*
X94714761Y-44208152D01*
X94714761Y-44208152D02*
X94857618Y-44208152D01*
X94857618Y-44208152D02*
X94952857Y-44255771D01*
X94952857Y-44255771D02*
X95000476Y-44351009D01*
X95000476Y-44351009D02*
X95000476Y-44874819D01*
X95476666Y-44874819D02*
X95476666Y-44208152D01*
X95476666Y-44303390D02*
X95524285Y-44255771D01*
X95524285Y-44255771D02*
X95619523Y-44208152D01*
X95619523Y-44208152D02*
X95762380Y-44208152D01*
X95762380Y-44208152D02*
X95857618Y-44255771D01*
X95857618Y-44255771D02*
X95905237Y-44351009D01*
X95905237Y-44351009D02*
X95905237Y-44874819D01*
X95905237Y-44351009D02*
X95952856Y-44255771D01*
X95952856Y-44255771D02*
X96048094Y-44208152D01*
X96048094Y-44208152D02*
X96190951Y-44208152D01*
X96190951Y-44208152D02*
X96286190Y-44255771D01*
X96286190Y-44255771D02*
X96333809Y-44351009D01*
X96333809Y-44351009D02*
X96333809Y-44874819D01*
D13*
X76050714Y-39775391D02*
X75993571Y-39746820D01*
X75993571Y-39746820D02*
X75965000Y-39718248D01*
X75965000Y-39718248D02*
X75936428Y-39661105D01*
X75936428Y-39661105D02*
X75936428Y-39489677D01*
X75936428Y-39489677D02*
X75965000Y-39432534D01*
X75965000Y-39432534D02*
X75993571Y-39403962D01*
X75993571Y-39403962D02*
X76050714Y-39375391D01*
X76050714Y-39375391D02*
X76136428Y-39375391D01*
X76136428Y-39375391D02*
X76193571Y-39403962D01*
X76193571Y-39403962D02*
X76222143Y-39432534D01*
X76222143Y-39432534D02*
X76250714Y-39489677D01*
X76250714Y-39489677D02*
X76250714Y-39661105D01*
X76250714Y-39661105D02*
X76222143Y-39718248D01*
X76222143Y-39718248D02*
X76193571Y-39746820D01*
X76193571Y-39746820D02*
X76136428Y-39775391D01*
X76136428Y-39775391D02*
X76050714Y-39775391D01*
X76507857Y-39375391D02*
X76507857Y-39775391D01*
X76507857Y-39432534D02*
X76536428Y-39403962D01*
X76536428Y-39403962D02*
X76593571Y-39375391D01*
X76593571Y-39375391D02*
X76679285Y-39375391D01*
X76679285Y-39375391D02*
X76736428Y-39403962D01*
X76736428Y-39403962D02*
X76765000Y-39461105D01*
X76765000Y-39461105D02*
X76765000Y-39775391D01*
X78514320Y-41800000D02*
X78542891Y-41714286D01*
X78542891Y-41714286D02*
X78542891Y-41571428D01*
X78542891Y-41571428D02*
X78514320Y-41514286D01*
X78514320Y-41514286D02*
X78485748Y-41485714D01*
X78485748Y-41485714D02*
X78428605Y-41457143D01*
X78428605Y-41457143D02*
X78371462Y-41457143D01*
X78371462Y-41457143D02*
X78314320Y-41485714D01*
X78314320Y-41485714D02*
X78285748Y-41514286D01*
X78285748Y-41514286D02*
X78257177Y-41571428D01*
X78257177Y-41571428D02*
X78228605Y-41685714D01*
X78228605Y-41685714D02*
X78200034Y-41742857D01*
X78200034Y-41742857D02*
X78171462Y-41771428D01*
X78171462Y-41771428D02*
X78114320Y-41800000D01*
X78114320Y-41800000D02*
X78057177Y-41800000D01*
X78057177Y-41800000D02*
X78000034Y-41771428D01*
X78000034Y-41771428D02*
X77971462Y-41742857D01*
X77971462Y-41742857D02*
X77942891Y-41685714D01*
X77942891Y-41685714D02*
X77942891Y-41542857D01*
X77942891Y-41542857D02*
X77971462Y-41457143D01*
X77942891Y-41257142D02*
X78542891Y-41114285D01*
X78542891Y-41114285D02*
X78114320Y-40999999D01*
X78114320Y-40999999D02*
X78542891Y-40885714D01*
X78542891Y-40885714D02*
X77942891Y-40742857D01*
X78542891Y-40200000D02*
X78542891Y-40542857D01*
X78542891Y-40371428D02*
X77942891Y-40371428D01*
X77942891Y-40371428D02*
X78028605Y-40428571D01*
X78028605Y-40428571D02*
X78085748Y-40485714D01*
X78085748Y-40485714D02*
X78114320Y-40542857D01*
D10*
X39642856Y-69414819D02*
X39642856Y-68414819D01*
X39642856Y-68414819D02*
X40023808Y-68414819D01*
X40023808Y-68414819D02*
X40119046Y-68462438D01*
X40119046Y-68462438D02*
X40166665Y-68510057D01*
X40166665Y-68510057D02*
X40214284Y-68605295D01*
X40214284Y-68605295D02*
X40214284Y-68748152D01*
X40214284Y-68748152D02*
X40166665Y-68843390D01*
X40166665Y-68843390D02*
X40119046Y-68891009D01*
X40119046Y-68891009D02*
X40023808Y-68938628D01*
X40023808Y-68938628D02*
X39642856Y-68938628D01*
X40642856Y-69414819D02*
X40642856Y-68748152D01*
X40642856Y-68414819D02*
X40595237Y-68462438D01*
X40595237Y-68462438D02*
X40642856Y-68510057D01*
X40642856Y-68510057D02*
X40690475Y-68462438D01*
X40690475Y-68462438D02*
X40642856Y-68414819D01*
X40642856Y-68414819D02*
X40642856Y-68510057D01*
X41119046Y-68748152D02*
X41119046Y-69414819D01*
X41119046Y-68843390D02*
X41166665Y-68795771D01*
X41166665Y-68795771D02*
X41261903Y-68748152D01*
X41261903Y-68748152D02*
X41404760Y-68748152D01*
X41404760Y-68748152D02*
X41499998Y-68795771D01*
X41499998Y-68795771D02*
X41547617Y-68891009D01*
X41547617Y-68891009D02*
X41547617Y-69414819D01*
X42023808Y-69414819D02*
X42023808Y-68414819D01*
X42023808Y-68891009D02*
X42595236Y-68891009D01*
X42595236Y-69414819D02*
X42595236Y-68414819D01*
X43452379Y-69367200D02*
X43357141Y-69414819D01*
X43357141Y-69414819D02*
X43166665Y-69414819D01*
X43166665Y-69414819D02*
X43071427Y-69367200D01*
X43071427Y-69367200D02*
X43023808Y-69271961D01*
X43023808Y-69271961D02*
X43023808Y-68891009D01*
X43023808Y-68891009D02*
X43071427Y-68795771D01*
X43071427Y-68795771D02*
X43166665Y-68748152D01*
X43166665Y-68748152D02*
X43357141Y-68748152D01*
X43357141Y-68748152D02*
X43452379Y-68795771D01*
X43452379Y-68795771D02*
X43499998Y-68891009D01*
X43499998Y-68891009D02*
X43499998Y-68986247D01*
X43499998Y-68986247D02*
X43023808Y-69081485D01*
X44357141Y-69414819D02*
X44357141Y-68891009D01*
X44357141Y-68891009D02*
X44309522Y-68795771D01*
X44309522Y-68795771D02*
X44214284Y-68748152D01*
X44214284Y-68748152D02*
X44023808Y-68748152D01*
X44023808Y-68748152D02*
X43928570Y-68795771D01*
X44357141Y-69367200D02*
X44261903Y-69414819D01*
X44261903Y-69414819D02*
X44023808Y-69414819D01*
X44023808Y-69414819D02*
X43928570Y-69367200D01*
X43928570Y-69367200D02*
X43880951Y-69271961D01*
X43880951Y-69271961D02*
X43880951Y-69176723D01*
X43880951Y-69176723D02*
X43928570Y-69081485D01*
X43928570Y-69081485D02*
X44023808Y-69033866D01*
X44023808Y-69033866D02*
X44261903Y-69033866D01*
X44261903Y-69033866D02*
X44357141Y-68986247D01*
X45261903Y-69414819D02*
X45261903Y-68414819D01*
X45261903Y-69367200D02*
X45166665Y-69414819D01*
X45166665Y-69414819D02*
X44976189Y-69414819D01*
X44976189Y-69414819D02*
X44880951Y-69367200D01*
X44880951Y-69367200D02*
X44833332Y-69319580D01*
X44833332Y-69319580D02*
X44785713Y-69224342D01*
X44785713Y-69224342D02*
X44785713Y-68938628D01*
X44785713Y-68938628D02*
X44833332Y-68843390D01*
X44833332Y-68843390D02*
X44880951Y-68795771D01*
X44880951Y-68795771D02*
X44976189Y-68748152D01*
X44976189Y-68748152D02*
X45166665Y-68748152D01*
X45166665Y-68748152D02*
X45261903Y-68795771D01*
X46119046Y-69367200D02*
X46023808Y-69414819D01*
X46023808Y-69414819D02*
X45833332Y-69414819D01*
X45833332Y-69414819D02*
X45738094Y-69367200D01*
X45738094Y-69367200D02*
X45690475Y-69271961D01*
X45690475Y-69271961D02*
X45690475Y-68891009D01*
X45690475Y-68891009D02*
X45738094Y-68795771D01*
X45738094Y-68795771D02*
X45833332Y-68748152D01*
X45833332Y-68748152D02*
X46023808Y-68748152D01*
X46023808Y-68748152D02*
X46119046Y-68795771D01*
X46119046Y-68795771D02*
X46166665Y-68891009D01*
X46166665Y-68891009D02*
X46166665Y-68986247D01*
X46166665Y-68986247D02*
X45690475Y-69081485D01*
X46595237Y-69414819D02*
X46595237Y-68748152D01*
X46595237Y-68938628D02*
X46642856Y-68843390D01*
X46642856Y-68843390D02*
X46690475Y-68795771D01*
X46690475Y-68795771D02*
X46785713Y-68748152D01*
X46785713Y-68748152D02*
X46880951Y-68748152D01*
X46976190Y-69510057D02*
X47738094Y-69510057D01*
X48499999Y-69414819D02*
X47928571Y-69414819D01*
X48214285Y-69414819D02*
X48214285Y-68414819D01*
X48214285Y-68414819D02*
X48119047Y-68557676D01*
X48119047Y-68557676D02*
X48023809Y-68652914D01*
X48023809Y-68652914D02*
X47928571Y-68700533D01*
X48833333Y-69414819D02*
X49357142Y-68748152D01*
X48833333Y-68748152D02*
X49357142Y-69414819D01*
X49928571Y-68414819D02*
X50023809Y-68414819D01*
X50023809Y-68414819D02*
X50119047Y-68462438D01*
X50119047Y-68462438D02*
X50166666Y-68510057D01*
X50166666Y-68510057D02*
X50214285Y-68605295D01*
X50214285Y-68605295D02*
X50261904Y-68795771D01*
X50261904Y-68795771D02*
X50261904Y-69033866D01*
X50261904Y-69033866D02*
X50214285Y-69224342D01*
X50214285Y-69224342D02*
X50166666Y-69319580D01*
X50166666Y-69319580D02*
X50119047Y-69367200D01*
X50119047Y-69367200D02*
X50023809Y-69414819D01*
X50023809Y-69414819D02*
X49928571Y-69414819D01*
X49928571Y-69414819D02*
X49833333Y-69367200D01*
X49833333Y-69367200D02*
X49785714Y-69319580D01*
X49785714Y-69319580D02*
X49738095Y-69224342D01*
X49738095Y-69224342D02*
X49690476Y-69033866D01*
X49690476Y-69033866D02*
X49690476Y-68795771D01*
X49690476Y-68795771D02*
X49738095Y-68605295D01*
X49738095Y-68605295D02*
X49785714Y-68510057D01*
X49785714Y-68510057D02*
X49833333Y-68462438D01*
X49833333Y-68462438D02*
X49928571Y-68414819D01*
X50595238Y-68414819D02*
X51214285Y-68414819D01*
X51214285Y-68414819D02*
X50880952Y-68795771D01*
X50880952Y-68795771D02*
X51023809Y-68795771D01*
X51023809Y-68795771D02*
X51119047Y-68843390D01*
X51119047Y-68843390D02*
X51166666Y-68891009D01*
X51166666Y-68891009D02*
X51214285Y-68986247D01*
X51214285Y-68986247D02*
X51214285Y-69224342D01*
X51214285Y-69224342D02*
X51166666Y-69319580D01*
X51166666Y-69319580D02*
X51119047Y-69367200D01*
X51119047Y-69367200D02*
X51023809Y-69414819D01*
X51023809Y-69414819D02*
X50738095Y-69414819D01*
X50738095Y-69414819D02*
X50642857Y-69367200D01*
X50642857Y-69367200D02*
X50595238Y-69319580D01*
X51404762Y-69510057D02*
X52166666Y-69510057D01*
X52404762Y-69414819D02*
X52404762Y-68414819D01*
X52404762Y-68414819D02*
X52785714Y-68414819D01*
X52785714Y-68414819D02*
X52880952Y-68462438D01*
X52880952Y-68462438D02*
X52928571Y-68510057D01*
X52928571Y-68510057D02*
X52976190Y-68605295D01*
X52976190Y-68605295D02*
X52976190Y-68748152D01*
X52976190Y-68748152D02*
X52928571Y-68843390D01*
X52928571Y-68843390D02*
X52880952Y-68891009D01*
X52880952Y-68891009D02*
X52785714Y-68938628D01*
X52785714Y-68938628D02*
X52404762Y-68938628D01*
X53357143Y-68510057D02*
X53404762Y-68462438D01*
X53404762Y-68462438D02*
X53500000Y-68414819D01*
X53500000Y-68414819D02*
X53738095Y-68414819D01*
X53738095Y-68414819D02*
X53833333Y-68462438D01*
X53833333Y-68462438D02*
X53880952Y-68510057D01*
X53880952Y-68510057D02*
X53928571Y-68605295D01*
X53928571Y-68605295D02*
X53928571Y-68700533D01*
X53928571Y-68700533D02*
X53880952Y-68843390D01*
X53880952Y-68843390D02*
X53309524Y-69414819D01*
X53309524Y-69414819D02*
X53928571Y-69414819D01*
X54357143Y-69319580D02*
X54404762Y-69367200D01*
X54404762Y-69367200D02*
X54357143Y-69414819D01*
X54357143Y-69414819D02*
X54309524Y-69367200D01*
X54309524Y-69367200D02*
X54357143Y-69319580D01*
X54357143Y-69319580D02*
X54357143Y-69414819D01*
X55309523Y-68414819D02*
X54833333Y-68414819D01*
X54833333Y-68414819D02*
X54785714Y-68891009D01*
X54785714Y-68891009D02*
X54833333Y-68843390D01*
X54833333Y-68843390D02*
X54928571Y-68795771D01*
X54928571Y-68795771D02*
X55166666Y-68795771D01*
X55166666Y-68795771D02*
X55261904Y-68843390D01*
X55261904Y-68843390D02*
X55309523Y-68891009D01*
X55309523Y-68891009D02*
X55357142Y-68986247D01*
X55357142Y-68986247D02*
X55357142Y-69224342D01*
X55357142Y-69224342D02*
X55309523Y-69319580D01*
X55309523Y-69319580D02*
X55261904Y-69367200D01*
X55261904Y-69367200D02*
X55166666Y-69414819D01*
X55166666Y-69414819D02*
X54928571Y-69414819D01*
X54928571Y-69414819D02*
X54833333Y-69367200D01*
X54833333Y-69367200D02*
X54785714Y-69319580D01*
X56214285Y-68748152D02*
X56214285Y-69414819D01*
X55976190Y-68367200D02*
X55738095Y-69081485D01*
X55738095Y-69081485D02*
X56357142Y-69081485D01*
X56738095Y-69414819D02*
X56738095Y-68748152D01*
X56738095Y-68843390D02*
X56785714Y-68795771D01*
X56785714Y-68795771D02*
X56880952Y-68748152D01*
X56880952Y-68748152D02*
X57023809Y-68748152D01*
X57023809Y-68748152D02*
X57119047Y-68795771D01*
X57119047Y-68795771D02*
X57166666Y-68891009D01*
X57166666Y-68891009D02*
X57166666Y-69414819D01*
X57166666Y-68891009D02*
X57214285Y-68795771D01*
X57214285Y-68795771D02*
X57309523Y-68748152D01*
X57309523Y-68748152D02*
X57452380Y-68748152D01*
X57452380Y-68748152D02*
X57547619Y-68795771D01*
X57547619Y-68795771D02*
X57595238Y-68891009D01*
X57595238Y-68891009D02*
X57595238Y-69414819D01*
X58071428Y-69414819D02*
X58071428Y-68748152D01*
X58071428Y-68843390D02*
X58119047Y-68795771D01*
X58119047Y-68795771D02*
X58214285Y-68748152D01*
X58214285Y-68748152D02*
X58357142Y-68748152D01*
X58357142Y-68748152D02*
X58452380Y-68795771D01*
X58452380Y-68795771D02*
X58499999Y-68891009D01*
X58499999Y-68891009D02*
X58499999Y-69414819D01*
X58499999Y-68891009D02*
X58547618Y-68795771D01*
X58547618Y-68795771D02*
X58642856Y-68748152D01*
X58642856Y-68748152D02*
X58785713Y-68748152D01*
X58785713Y-68748152D02*
X58880952Y-68795771D01*
X58880952Y-68795771D02*
X58928571Y-68891009D01*
X58928571Y-68891009D02*
X58928571Y-69414819D01*
X59166666Y-69510057D02*
X59928570Y-69510057D01*
X60023809Y-68414819D02*
X60357142Y-69414819D01*
X60357142Y-69414819D02*
X60690475Y-68414819D01*
X61404761Y-69367200D02*
X61309523Y-69414819D01*
X61309523Y-69414819D02*
X61119047Y-69414819D01*
X61119047Y-69414819D02*
X61023809Y-69367200D01*
X61023809Y-69367200D02*
X60976190Y-69271961D01*
X60976190Y-69271961D02*
X60976190Y-68891009D01*
X60976190Y-68891009D02*
X61023809Y-68795771D01*
X61023809Y-68795771D02*
X61119047Y-68748152D01*
X61119047Y-68748152D02*
X61309523Y-68748152D01*
X61309523Y-68748152D02*
X61404761Y-68795771D01*
X61404761Y-68795771D02*
X61452380Y-68891009D01*
X61452380Y-68891009D02*
X61452380Y-68986247D01*
X61452380Y-68986247D02*
X60976190Y-69081485D01*
X61880952Y-69414819D02*
X61880952Y-68748152D01*
X61880952Y-68938628D02*
X61928571Y-68843390D01*
X61928571Y-68843390D02*
X61976190Y-68795771D01*
X61976190Y-68795771D02*
X62071428Y-68748152D01*
X62071428Y-68748152D02*
X62166666Y-68748152D01*
X62357143Y-68748152D02*
X62738095Y-68748152D01*
X62500000Y-68414819D02*
X62500000Y-69271961D01*
X62500000Y-69271961D02*
X62547619Y-69367200D01*
X62547619Y-69367200D02*
X62642857Y-69414819D01*
X62642857Y-69414819D02*
X62738095Y-69414819D01*
X63071429Y-69414819D02*
X63071429Y-68748152D01*
X63071429Y-68414819D02*
X63023810Y-68462438D01*
X63023810Y-68462438D02*
X63071429Y-68510057D01*
X63071429Y-68510057D02*
X63119048Y-68462438D01*
X63119048Y-68462438D02*
X63071429Y-68414819D01*
X63071429Y-68414819D02*
X63071429Y-68510057D01*
X63976190Y-69367200D02*
X63880952Y-69414819D01*
X63880952Y-69414819D02*
X63690476Y-69414819D01*
X63690476Y-69414819D02*
X63595238Y-69367200D01*
X63595238Y-69367200D02*
X63547619Y-69319580D01*
X63547619Y-69319580D02*
X63500000Y-69224342D01*
X63500000Y-69224342D02*
X63500000Y-68938628D01*
X63500000Y-68938628D02*
X63547619Y-68843390D01*
X63547619Y-68843390D02*
X63595238Y-68795771D01*
X63595238Y-68795771D02*
X63690476Y-68748152D01*
X63690476Y-68748152D02*
X63880952Y-68748152D01*
X63880952Y-68748152D02*
X63976190Y-68795771D01*
X64833333Y-69414819D02*
X64833333Y-68891009D01*
X64833333Y-68891009D02*
X64785714Y-68795771D01*
X64785714Y-68795771D02*
X64690476Y-68748152D01*
X64690476Y-68748152D02*
X64500000Y-68748152D01*
X64500000Y-68748152D02*
X64404762Y-68795771D01*
X64833333Y-69367200D02*
X64738095Y-69414819D01*
X64738095Y-69414819D02*
X64500000Y-69414819D01*
X64500000Y-69414819D02*
X64404762Y-69367200D01*
X64404762Y-69367200D02*
X64357143Y-69271961D01*
X64357143Y-69271961D02*
X64357143Y-69176723D01*
X64357143Y-69176723D02*
X64404762Y-69081485D01*
X64404762Y-69081485D02*
X64500000Y-69033866D01*
X64500000Y-69033866D02*
X64738095Y-69033866D01*
X64738095Y-69033866D02*
X64833333Y-68986247D01*
X65452381Y-69414819D02*
X65357143Y-69367200D01*
X65357143Y-69367200D02*
X65309524Y-69271961D01*
X65309524Y-69271961D02*
X65309524Y-68414819D01*
X51954819Y-64373333D02*
X52669104Y-64373333D01*
X52669104Y-64373333D02*
X52811961Y-64420952D01*
X52811961Y-64420952D02*
X52907200Y-64516190D01*
X52907200Y-64516190D02*
X52954819Y-64659047D01*
X52954819Y-64659047D02*
X52954819Y-64754285D01*
X52050057Y-63944761D02*
X52002438Y-63897142D01*
X52002438Y-63897142D02*
X51954819Y-63801904D01*
X51954819Y-63801904D02*
X51954819Y-63563809D01*
X51954819Y-63563809D02*
X52002438Y-63468571D01*
X52002438Y-63468571D02*
X52050057Y-63420952D01*
X52050057Y-63420952D02*
X52145295Y-63373333D01*
X52145295Y-63373333D02*
X52240533Y-63373333D01*
X52240533Y-63373333D02*
X52383390Y-63420952D01*
X52383390Y-63420952D02*
X52954819Y-63992380D01*
X52954819Y-63992380D02*
X52954819Y-63373333D01*
X70738095Y-49307200D02*
X70880952Y-49354819D01*
X70880952Y-49354819D02*
X71119047Y-49354819D01*
X71119047Y-49354819D02*
X71214285Y-49307200D01*
X71214285Y-49307200D02*
X71261904Y-49259580D01*
X71261904Y-49259580D02*
X71309523Y-49164342D01*
X71309523Y-49164342D02*
X71309523Y-49069104D01*
X71309523Y-49069104D02*
X71261904Y-48973866D01*
X71261904Y-48973866D02*
X71214285Y-48926247D01*
X71214285Y-48926247D02*
X71119047Y-48878628D01*
X71119047Y-48878628D02*
X70928571Y-48831009D01*
X70928571Y-48831009D02*
X70833333Y-48783390D01*
X70833333Y-48783390D02*
X70785714Y-48735771D01*
X70785714Y-48735771D02*
X70738095Y-48640533D01*
X70738095Y-48640533D02*
X70738095Y-48545295D01*
X70738095Y-48545295D02*
X70785714Y-48450057D01*
X70785714Y-48450057D02*
X70833333Y-48402438D01*
X70833333Y-48402438D02*
X70928571Y-48354819D01*
X70928571Y-48354819D02*
X71166666Y-48354819D01*
X71166666Y-48354819D02*
X71309523Y-48402438D01*
X71928571Y-48354819D02*
X72119047Y-48354819D01*
X72119047Y-48354819D02*
X72214285Y-48402438D01*
X72214285Y-48402438D02*
X72309523Y-48497676D01*
X72309523Y-48497676D02*
X72357142Y-48688152D01*
X72357142Y-48688152D02*
X72357142Y-49021485D01*
X72357142Y-49021485D02*
X72309523Y-49211961D01*
X72309523Y-49211961D02*
X72214285Y-49307200D01*
X72214285Y-49307200D02*
X72119047Y-49354819D01*
X72119047Y-49354819D02*
X71928571Y-49354819D01*
X71928571Y-49354819D02*
X71833333Y-49307200D01*
X71833333Y-49307200D02*
X71738095Y-49211961D01*
X71738095Y-49211961D02*
X71690476Y-49021485D01*
X71690476Y-49021485D02*
X71690476Y-48688152D01*
X71690476Y-48688152D02*
X71738095Y-48497676D01*
X71738095Y-48497676D02*
X71833333Y-48402438D01*
X71833333Y-48402438D02*
X71928571Y-48354819D01*
X72642857Y-48354819D02*
X73214285Y-48354819D01*
X72928571Y-49354819D02*
X72928571Y-48354819D01*
X73547619Y-48973866D02*
X74309524Y-48973866D01*
X74738095Y-48450057D02*
X74785714Y-48402438D01*
X74785714Y-48402438D02*
X74880952Y-48354819D01*
X74880952Y-48354819D02*
X75119047Y-48354819D01*
X75119047Y-48354819D02*
X75214285Y-48402438D01*
X75214285Y-48402438D02*
X75261904Y-48450057D01*
X75261904Y-48450057D02*
X75309523Y-48545295D01*
X75309523Y-48545295D02*
X75309523Y-48640533D01*
X75309523Y-48640533D02*
X75261904Y-48783390D01*
X75261904Y-48783390D02*
X74690476Y-49354819D01*
X74690476Y-49354819D02*
X75309523Y-49354819D01*
X75642857Y-48354819D02*
X76261904Y-48354819D01*
X76261904Y-48354819D02*
X75928571Y-48735771D01*
X75928571Y-48735771D02*
X76071428Y-48735771D01*
X76071428Y-48735771D02*
X76166666Y-48783390D01*
X76166666Y-48783390D02*
X76214285Y-48831009D01*
X76214285Y-48831009D02*
X76261904Y-48926247D01*
X76261904Y-48926247D02*
X76261904Y-49164342D01*
X76261904Y-49164342D02*
X76214285Y-49259580D01*
X76214285Y-49259580D02*
X76166666Y-49307200D01*
X76166666Y-49307200D02*
X76071428Y-49354819D01*
X76071428Y-49354819D02*
X75785714Y-49354819D01*
X75785714Y-49354819D02*
X75690476Y-49307200D01*
X75690476Y-49307200D02*
X75642857Y-49259580D01*
D14*
X73895937Y-46568571D02*
X73861651Y-46637142D01*
X73861651Y-46637142D02*
X73793080Y-46705714D01*
X73793080Y-46705714D02*
X73690222Y-46808571D01*
X73690222Y-46808571D02*
X73655937Y-46877142D01*
X73655937Y-46877142D02*
X73655937Y-46945714D01*
X73827365Y-46911428D02*
X73793080Y-46980000D01*
X73793080Y-46980000D02*
X73724508Y-47048571D01*
X73724508Y-47048571D02*
X73587365Y-47082857D01*
X73587365Y-47082857D02*
X73347365Y-47082857D01*
X73347365Y-47082857D02*
X73210222Y-47048571D01*
X73210222Y-47048571D02*
X73141651Y-46980000D01*
X73141651Y-46980000D02*
X73107365Y-46911428D01*
X73107365Y-46911428D02*
X73107365Y-46774285D01*
X73107365Y-46774285D02*
X73141651Y-46705714D01*
X73141651Y-46705714D02*
X73210222Y-46637142D01*
X73210222Y-46637142D02*
X73347365Y-46602857D01*
X73347365Y-46602857D02*
X73587365Y-46602857D01*
X73587365Y-46602857D02*
X73724508Y-46637142D01*
X73724508Y-46637142D02*
X73793080Y-46705714D01*
X73793080Y-46705714D02*
X73827365Y-46774285D01*
X73827365Y-46774285D02*
X73827365Y-46911428D01*
X73175937Y-46328571D02*
X73141651Y-46294285D01*
X73141651Y-46294285D02*
X73107365Y-46225714D01*
X73107365Y-46225714D02*
X73107365Y-46054285D01*
X73107365Y-46054285D02*
X73141651Y-45985714D01*
X73141651Y-45985714D02*
X73175937Y-45951428D01*
X73175937Y-45951428D02*
X73244508Y-45917142D01*
X73244508Y-45917142D02*
X73313080Y-45917142D01*
X73313080Y-45917142D02*
X73415937Y-45951428D01*
X73415937Y-45951428D02*
X73827365Y-46362856D01*
X73827365Y-46362856D02*
X73827365Y-45917142D01*
D10*
X58142856Y-41374819D02*
X58142856Y-40374819D01*
X58142856Y-40374819D02*
X58523808Y-40374819D01*
X58523808Y-40374819D02*
X58619046Y-40422438D01*
X58619046Y-40422438D02*
X58666665Y-40470057D01*
X58666665Y-40470057D02*
X58714284Y-40565295D01*
X58714284Y-40565295D02*
X58714284Y-40708152D01*
X58714284Y-40708152D02*
X58666665Y-40803390D01*
X58666665Y-40803390D02*
X58619046Y-40851009D01*
X58619046Y-40851009D02*
X58523808Y-40898628D01*
X58523808Y-40898628D02*
X58142856Y-40898628D01*
X59142856Y-41374819D02*
X59142856Y-40708152D01*
X59142856Y-40374819D02*
X59095237Y-40422438D01*
X59095237Y-40422438D02*
X59142856Y-40470057D01*
X59142856Y-40470057D02*
X59190475Y-40422438D01*
X59190475Y-40422438D02*
X59142856Y-40374819D01*
X59142856Y-40374819D02*
X59142856Y-40470057D01*
X59619046Y-40708152D02*
X59619046Y-41374819D01*
X59619046Y-40803390D02*
X59666665Y-40755771D01*
X59666665Y-40755771D02*
X59761903Y-40708152D01*
X59761903Y-40708152D02*
X59904760Y-40708152D01*
X59904760Y-40708152D02*
X59999998Y-40755771D01*
X59999998Y-40755771D02*
X60047617Y-40851009D01*
X60047617Y-40851009D02*
X60047617Y-41374819D01*
X60523808Y-41374819D02*
X60523808Y-40374819D01*
X60523808Y-40851009D02*
X61095236Y-40851009D01*
X61095236Y-41374819D02*
X61095236Y-40374819D01*
X61952379Y-41327200D02*
X61857141Y-41374819D01*
X61857141Y-41374819D02*
X61666665Y-41374819D01*
X61666665Y-41374819D02*
X61571427Y-41327200D01*
X61571427Y-41327200D02*
X61523808Y-41231961D01*
X61523808Y-41231961D02*
X61523808Y-40851009D01*
X61523808Y-40851009D02*
X61571427Y-40755771D01*
X61571427Y-40755771D02*
X61666665Y-40708152D01*
X61666665Y-40708152D02*
X61857141Y-40708152D01*
X61857141Y-40708152D02*
X61952379Y-40755771D01*
X61952379Y-40755771D02*
X61999998Y-40851009D01*
X61999998Y-40851009D02*
X61999998Y-40946247D01*
X61999998Y-40946247D02*
X61523808Y-41041485D01*
X62857141Y-41374819D02*
X62857141Y-40851009D01*
X62857141Y-40851009D02*
X62809522Y-40755771D01*
X62809522Y-40755771D02*
X62714284Y-40708152D01*
X62714284Y-40708152D02*
X62523808Y-40708152D01*
X62523808Y-40708152D02*
X62428570Y-40755771D01*
X62857141Y-41327200D02*
X62761903Y-41374819D01*
X62761903Y-41374819D02*
X62523808Y-41374819D01*
X62523808Y-41374819D02*
X62428570Y-41327200D01*
X62428570Y-41327200D02*
X62380951Y-41231961D01*
X62380951Y-41231961D02*
X62380951Y-41136723D01*
X62380951Y-41136723D02*
X62428570Y-41041485D01*
X62428570Y-41041485D02*
X62523808Y-40993866D01*
X62523808Y-40993866D02*
X62761903Y-40993866D01*
X62761903Y-40993866D02*
X62857141Y-40946247D01*
X63761903Y-41374819D02*
X63761903Y-40374819D01*
X63761903Y-41327200D02*
X63666665Y-41374819D01*
X63666665Y-41374819D02*
X63476189Y-41374819D01*
X63476189Y-41374819D02*
X63380951Y-41327200D01*
X63380951Y-41327200D02*
X63333332Y-41279580D01*
X63333332Y-41279580D02*
X63285713Y-41184342D01*
X63285713Y-41184342D02*
X63285713Y-40898628D01*
X63285713Y-40898628D02*
X63333332Y-40803390D01*
X63333332Y-40803390D02*
X63380951Y-40755771D01*
X63380951Y-40755771D02*
X63476189Y-40708152D01*
X63476189Y-40708152D02*
X63666665Y-40708152D01*
X63666665Y-40708152D02*
X63761903Y-40755771D01*
X64619046Y-41327200D02*
X64523808Y-41374819D01*
X64523808Y-41374819D02*
X64333332Y-41374819D01*
X64333332Y-41374819D02*
X64238094Y-41327200D01*
X64238094Y-41327200D02*
X64190475Y-41231961D01*
X64190475Y-41231961D02*
X64190475Y-40851009D01*
X64190475Y-40851009D02*
X64238094Y-40755771D01*
X64238094Y-40755771D02*
X64333332Y-40708152D01*
X64333332Y-40708152D02*
X64523808Y-40708152D01*
X64523808Y-40708152D02*
X64619046Y-40755771D01*
X64619046Y-40755771D02*
X64666665Y-40851009D01*
X64666665Y-40851009D02*
X64666665Y-40946247D01*
X64666665Y-40946247D02*
X64190475Y-41041485D01*
X65095237Y-41374819D02*
X65095237Y-40708152D01*
X65095237Y-40898628D02*
X65142856Y-40803390D01*
X65142856Y-40803390D02*
X65190475Y-40755771D01*
X65190475Y-40755771D02*
X65285713Y-40708152D01*
X65285713Y-40708152D02*
X65380951Y-40708152D01*
X65476190Y-41470057D02*
X66238094Y-41470057D01*
X66999999Y-41374819D02*
X66428571Y-41374819D01*
X66714285Y-41374819D02*
X66714285Y-40374819D01*
X66714285Y-40374819D02*
X66619047Y-40517676D01*
X66619047Y-40517676D02*
X66523809Y-40612914D01*
X66523809Y-40612914D02*
X66428571Y-40660533D01*
X67333333Y-41374819D02*
X67857142Y-40708152D01*
X67333333Y-40708152D02*
X67857142Y-41374819D01*
X68428571Y-40374819D02*
X68523809Y-40374819D01*
X68523809Y-40374819D02*
X68619047Y-40422438D01*
X68619047Y-40422438D02*
X68666666Y-40470057D01*
X68666666Y-40470057D02*
X68714285Y-40565295D01*
X68714285Y-40565295D02*
X68761904Y-40755771D01*
X68761904Y-40755771D02*
X68761904Y-40993866D01*
X68761904Y-40993866D02*
X68714285Y-41184342D01*
X68714285Y-41184342D02*
X68666666Y-41279580D01*
X68666666Y-41279580D02*
X68619047Y-41327200D01*
X68619047Y-41327200D02*
X68523809Y-41374819D01*
X68523809Y-41374819D02*
X68428571Y-41374819D01*
X68428571Y-41374819D02*
X68333333Y-41327200D01*
X68333333Y-41327200D02*
X68285714Y-41279580D01*
X68285714Y-41279580D02*
X68238095Y-41184342D01*
X68238095Y-41184342D02*
X68190476Y-40993866D01*
X68190476Y-40993866D02*
X68190476Y-40755771D01*
X68190476Y-40755771D02*
X68238095Y-40565295D01*
X68238095Y-40565295D02*
X68285714Y-40470057D01*
X68285714Y-40470057D02*
X68333333Y-40422438D01*
X68333333Y-40422438D02*
X68428571Y-40374819D01*
X69142857Y-40470057D02*
X69190476Y-40422438D01*
X69190476Y-40422438D02*
X69285714Y-40374819D01*
X69285714Y-40374819D02*
X69523809Y-40374819D01*
X69523809Y-40374819D02*
X69619047Y-40422438D01*
X69619047Y-40422438D02*
X69666666Y-40470057D01*
X69666666Y-40470057D02*
X69714285Y-40565295D01*
X69714285Y-40565295D02*
X69714285Y-40660533D01*
X69714285Y-40660533D02*
X69666666Y-40803390D01*
X69666666Y-40803390D02*
X69095238Y-41374819D01*
X69095238Y-41374819D02*
X69714285Y-41374819D01*
X69904762Y-41470057D02*
X70666666Y-41470057D01*
X70904762Y-41374819D02*
X70904762Y-40374819D01*
X70904762Y-40374819D02*
X71285714Y-40374819D01*
X71285714Y-40374819D02*
X71380952Y-40422438D01*
X71380952Y-40422438D02*
X71428571Y-40470057D01*
X71428571Y-40470057D02*
X71476190Y-40565295D01*
X71476190Y-40565295D02*
X71476190Y-40708152D01*
X71476190Y-40708152D02*
X71428571Y-40803390D01*
X71428571Y-40803390D02*
X71380952Y-40851009D01*
X71380952Y-40851009D02*
X71285714Y-40898628D01*
X71285714Y-40898628D02*
X70904762Y-40898628D01*
X71857143Y-40470057D02*
X71904762Y-40422438D01*
X71904762Y-40422438D02*
X72000000Y-40374819D01*
X72000000Y-40374819D02*
X72238095Y-40374819D01*
X72238095Y-40374819D02*
X72333333Y-40422438D01*
X72333333Y-40422438D02*
X72380952Y-40470057D01*
X72380952Y-40470057D02*
X72428571Y-40565295D01*
X72428571Y-40565295D02*
X72428571Y-40660533D01*
X72428571Y-40660533D02*
X72380952Y-40803390D01*
X72380952Y-40803390D02*
X71809524Y-41374819D01*
X71809524Y-41374819D02*
X72428571Y-41374819D01*
X72857143Y-41279580D02*
X72904762Y-41327200D01*
X72904762Y-41327200D02*
X72857143Y-41374819D01*
X72857143Y-41374819D02*
X72809524Y-41327200D01*
X72809524Y-41327200D02*
X72857143Y-41279580D01*
X72857143Y-41279580D02*
X72857143Y-41374819D01*
X73809523Y-40374819D02*
X73333333Y-40374819D01*
X73333333Y-40374819D02*
X73285714Y-40851009D01*
X73285714Y-40851009D02*
X73333333Y-40803390D01*
X73333333Y-40803390D02*
X73428571Y-40755771D01*
X73428571Y-40755771D02*
X73666666Y-40755771D01*
X73666666Y-40755771D02*
X73761904Y-40803390D01*
X73761904Y-40803390D02*
X73809523Y-40851009D01*
X73809523Y-40851009D02*
X73857142Y-40946247D01*
X73857142Y-40946247D02*
X73857142Y-41184342D01*
X73857142Y-41184342D02*
X73809523Y-41279580D01*
X73809523Y-41279580D02*
X73761904Y-41327200D01*
X73761904Y-41327200D02*
X73666666Y-41374819D01*
X73666666Y-41374819D02*
X73428571Y-41374819D01*
X73428571Y-41374819D02*
X73333333Y-41327200D01*
X73333333Y-41327200D02*
X73285714Y-41279580D01*
X74714285Y-40708152D02*
X74714285Y-41374819D01*
X74476190Y-40327200D02*
X74238095Y-41041485D01*
X74238095Y-41041485D02*
X74857142Y-41041485D01*
X75238095Y-41374819D02*
X75238095Y-40708152D01*
X75238095Y-40803390D02*
X75285714Y-40755771D01*
X75285714Y-40755771D02*
X75380952Y-40708152D01*
X75380952Y-40708152D02*
X75523809Y-40708152D01*
X75523809Y-40708152D02*
X75619047Y-40755771D01*
X75619047Y-40755771D02*
X75666666Y-40851009D01*
X75666666Y-40851009D02*
X75666666Y-41374819D01*
X75666666Y-40851009D02*
X75714285Y-40755771D01*
X75714285Y-40755771D02*
X75809523Y-40708152D01*
X75809523Y-40708152D02*
X75952380Y-40708152D01*
X75952380Y-40708152D02*
X76047619Y-40755771D01*
X76047619Y-40755771D02*
X76095238Y-40851009D01*
X76095238Y-40851009D02*
X76095238Y-41374819D01*
X76571428Y-41374819D02*
X76571428Y-40708152D01*
X76571428Y-40803390D02*
X76619047Y-40755771D01*
X76619047Y-40755771D02*
X76714285Y-40708152D01*
X76714285Y-40708152D02*
X76857142Y-40708152D01*
X76857142Y-40708152D02*
X76952380Y-40755771D01*
X76952380Y-40755771D02*
X76999999Y-40851009D01*
X76999999Y-40851009D02*
X76999999Y-41374819D01*
X76999999Y-40851009D02*
X77047618Y-40755771D01*
X77047618Y-40755771D02*
X77142856Y-40708152D01*
X77142856Y-40708152D02*
X77285713Y-40708152D01*
X77285713Y-40708152D02*
X77380952Y-40755771D01*
X77380952Y-40755771D02*
X77428571Y-40851009D01*
X77428571Y-40851009D02*
X77428571Y-41374819D01*
X77666666Y-41470057D02*
X78428570Y-41470057D01*
X78523809Y-40374819D02*
X78857142Y-41374819D01*
X78857142Y-41374819D02*
X79190475Y-40374819D01*
X79904761Y-41327200D02*
X79809523Y-41374819D01*
X79809523Y-41374819D02*
X79619047Y-41374819D01*
X79619047Y-41374819D02*
X79523809Y-41327200D01*
X79523809Y-41327200D02*
X79476190Y-41231961D01*
X79476190Y-41231961D02*
X79476190Y-40851009D01*
X79476190Y-40851009D02*
X79523809Y-40755771D01*
X79523809Y-40755771D02*
X79619047Y-40708152D01*
X79619047Y-40708152D02*
X79809523Y-40708152D01*
X79809523Y-40708152D02*
X79904761Y-40755771D01*
X79904761Y-40755771D02*
X79952380Y-40851009D01*
X79952380Y-40851009D02*
X79952380Y-40946247D01*
X79952380Y-40946247D02*
X79476190Y-41041485D01*
X80380952Y-41374819D02*
X80380952Y-40708152D01*
X80380952Y-40898628D02*
X80428571Y-40803390D01*
X80428571Y-40803390D02*
X80476190Y-40755771D01*
X80476190Y-40755771D02*
X80571428Y-40708152D01*
X80571428Y-40708152D02*
X80666666Y-40708152D01*
X80857143Y-40708152D02*
X81238095Y-40708152D01*
X81000000Y-40374819D02*
X81000000Y-41231961D01*
X81000000Y-41231961D02*
X81047619Y-41327200D01*
X81047619Y-41327200D02*
X81142857Y-41374819D01*
X81142857Y-41374819D02*
X81238095Y-41374819D01*
X81571429Y-41374819D02*
X81571429Y-40708152D01*
X81571429Y-40374819D02*
X81523810Y-40422438D01*
X81523810Y-40422438D02*
X81571429Y-40470057D01*
X81571429Y-40470057D02*
X81619048Y-40422438D01*
X81619048Y-40422438D02*
X81571429Y-40374819D01*
X81571429Y-40374819D02*
X81571429Y-40470057D01*
X82476190Y-41327200D02*
X82380952Y-41374819D01*
X82380952Y-41374819D02*
X82190476Y-41374819D01*
X82190476Y-41374819D02*
X82095238Y-41327200D01*
X82095238Y-41327200D02*
X82047619Y-41279580D01*
X82047619Y-41279580D02*
X82000000Y-41184342D01*
X82000000Y-41184342D02*
X82000000Y-40898628D01*
X82000000Y-40898628D02*
X82047619Y-40803390D01*
X82047619Y-40803390D02*
X82095238Y-40755771D01*
X82095238Y-40755771D02*
X82190476Y-40708152D01*
X82190476Y-40708152D02*
X82380952Y-40708152D01*
X82380952Y-40708152D02*
X82476190Y-40755771D01*
X83333333Y-41374819D02*
X83333333Y-40851009D01*
X83333333Y-40851009D02*
X83285714Y-40755771D01*
X83285714Y-40755771D02*
X83190476Y-40708152D01*
X83190476Y-40708152D02*
X83000000Y-40708152D01*
X83000000Y-40708152D02*
X82904762Y-40755771D01*
X83333333Y-41327200D02*
X83238095Y-41374819D01*
X83238095Y-41374819D02*
X83000000Y-41374819D01*
X83000000Y-41374819D02*
X82904762Y-41327200D01*
X82904762Y-41327200D02*
X82857143Y-41231961D01*
X82857143Y-41231961D02*
X82857143Y-41136723D01*
X82857143Y-41136723D02*
X82904762Y-41041485D01*
X82904762Y-41041485D02*
X83000000Y-40993866D01*
X83000000Y-40993866D02*
X83238095Y-40993866D01*
X83238095Y-40993866D02*
X83333333Y-40946247D01*
X83952381Y-41374819D02*
X83857143Y-41327200D01*
X83857143Y-41327200D02*
X83809524Y-41231961D01*
X83809524Y-41231961D02*
X83809524Y-40374819D01*
X70454819Y-37603333D02*
X71169104Y-37603333D01*
X71169104Y-37603333D02*
X71311961Y-37650952D01*
X71311961Y-37650952D02*
X71407200Y-37746190D01*
X71407200Y-37746190D02*
X71454819Y-37889047D01*
X71454819Y-37889047D02*
X71454819Y-37984285D01*
X71454819Y-36603333D02*
X71454819Y-37174761D01*
X71454819Y-36889047D02*
X70454819Y-36889047D01*
X70454819Y-36889047D02*
X70597676Y-36984285D01*
X70597676Y-36984285D02*
X70692914Y-37079523D01*
X70692914Y-37079523D02*
X70740533Y-37174761D01*
X66976189Y-51884819D02*
X66642856Y-51408628D01*
X66404761Y-51884819D02*
X66404761Y-50884819D01*
X66404761Y-50884819D02*
X66785713Y-50884819D01*
X66785713Y-50884819D02*
X66880951Y-50932438D01*
X66880951Y-50932438D02*
X66928570Y-50980057D01*
X66928570Y-50980057D02*
X66976189Y-51075295D01*
X66976189Y-51075295D02*
X66976189Y-51218152D01*
X66976189Y-51218152D02*
X66928570Y-51313390D01*
X66928570Y-51313390D02*
X66880951Y-51361009D01*
X66880951Y-51361009D02*
X66785713Y-51408628D01*
X66785713Y-51408628D02*
X66404761Y-51408628D01*
X67166666Y-51980057D02*
X67928570Y-51980057D01*
X68357142Y-50884819D02*
X68452380Y-50884819D01*
X68452380Y-50884819D02*
X68547618Y-50932438D01*
X68547618Y-50932438D02*
X68595237Y-50980057D01*
X68595237Y-50980057D02*
X68642856Y-51075295D01*
X68642856Y-51075295D02*
X68690475Y-51265771D01*
X68690475Y-51265771D02*
X68690475Y-51503866D01*
X68690475Y-51503866D02*
X68642856Y-51694342D01*
X68642856Y-51694342D02*
X68595237Y-51789580D01*
X68595237Y-51789580D02*
X68547618Y-51837200D01*
X68547618Y-51837200D02*
X68452380Y-51884819D01*
X68452380Y-51884819D02*
X68357142Y-51884819D01*
X68357142Y-51884819D02*
X68261904Y-51837200D01*
X68261904Y-51837200D02*
X68214285Y-51789580D01*
X68214285Y-51789580D02*
X68166666Y-51694342D01*
X68166666Y-51694342D02*
X68119047Y-51503866D01*
X68119047Y-51503866D02*
X68119047Y-51265771D01*
X68119047Y-51265771D02*
X68166666Y-51075295D01*
X68166666Y-51075295D02*
X68214285Y-50980057D01*
X68214285Y-50980057D02*
X68261904Y-50932438D01*
X68261904Y-50932438D02*
X68357142Y-50884819D01*
X69547618Y-50884819D02*
X69357142Y-50884819D01*
X69357142Y-50884819D02*
X69261904Y-50932438D01*
X69261904Y-50932438D02*
X69214285Y-50980057D01*
X69214285Y-50980057D02*
X69119047Y-51122914D01*
X69119047Y-51122914D02*
X69071428Y-51313390D01*
X69071428Y-51313390D02*
X69071428Y-51694342D01*
X69071428Y-51694342D02*
X69119047Y-51789580D01*
X69119047Y-51789580D02*
X69166666Y-51837200D01*
X69166666Y-51837200D02*
X69261904Y-51884819D01*
X69261904Y-51884819D02*
X69452380Y-51884819D01*
X69452380Y-51884819D02*
X69547618Y-51837200D01*
X69547618Y-51837200D02*
X69595237Y-51789580D01*
X69595237Y-51789580D02*
X69642856Y-51694342D01*
X69642856Y-51694342D02*
X69642856Y-51456247D01*
X69642856Y-51456247D02*
X69595237Y-51361009D01*
X69595237Y-51361009D02*
X69547618Y-51313390D01*
X69547618Y-51313390D02*
X69452380Y-51265771D01*
X69452380Y-51265771D02*
X69261904Y-51265771D01*
X69261904Y-51265771D02*
X69166666Y-51313390D01*
X69166666Y-51313390D02*
X69119047Y-51361009D01*
X69119047Y-51361009D02*
X69071428Y-51456247D01*
X70261904Y-50884819D02*
X70357142Y-50884819D01*
X70357142Y-50884819D02*
X70452380Y-50932438D01*
X70452380Y-50932438D02*
X70499999Y-50980057D01*
X70499999Y-50980057D02*
X70547618Y-51075295D01*
X70547618Y-51075295D02*
X70595237Y-51265771D01*
X70595237Y-51265771D02*
X70595237Y-51503866D01*
X70595237Y-51503866D02*
X70547618Y-51694342D01*
X70547618Y-51694342D02*
X70499999Y-51789580D01*
X70499999Y-51789580D02*
X70452380Y-51837200D01*
X70452380Y-51837200D02*
X70357142Y-51884819D01*
X70357142Y-51884819D02*
X70261904Y-51884819D01*
X70261904Y-51884819D02*
X70166666Y-51837200D01*
X70166666Y-51837200D02*
X70119047Y-51789580D01*
X70119047Y-51789580D02*
X70071428Y-51694342D01*
X70071428Y-51694342D02*
X70023809Y-51503866D01*
X70023809Y-51503866D02*
X70023809Y-51265771D01*
X70023809Y-51265771D02*
X70071428Y-51075295D01*
X70071428Y-51075295D02*
X70119047Y-50980057D01*
X70119047Y-50980057D02*
X70166666Y-50932438D01*
X70166666Y-50932438D02*
X70261904Y-50884819D01*
X70928571Y-50884819D02*
X71547618Y-50884819D01*
X71547618Y-50884819D02*
X71214285Y-51265771D01*
X71214285Y-51265771D02*
X71357142Y-51265771D01*
X71357142Y-51265771D02*
X71452380Y-51313390D01*
X71452380Y-51313390D02*
X71499999Y-51361009D01*
X71499999Y-51361009D02*
X71547618Y-51456247D01*
X71547618Y-51456247D02*
X71547618Y-51694342D01*
X71547618Y-51694342D02*
X71499999Y-51789580D01*
X71499999Y-51789580D02*
X71452380Y-51837200D01*
X71452380Y-51837200D02*
X71357142Y-51884819D01*
X71357142Y-51884819D02*
X71071428Y-51884819D01*
X71071428Y-51884819D02*
X70976190Y-51837200D01*
X70976190Y-51837200D02*
X70928571Y-51789580D01*
X71738095Y-51980057D02*
X72499999Y-51980057D01*
X73261904Y-51884819D02*
X72690476Y-51884819D01*
X72976190Y-51884819D02*
X72976190Y-50884819D01*
X72976190Y-50884819D02*
X72880952Y-51027676D01*
X72880952Y-51027676D02*
X72785714Y-51122914D01*
X72785714Y-51122914D02*
X72690476Y-51170533D01*
X74119047Y-50884819D02*
X73928571Y-50884819D01*
X73928571Y-50884819D02*
X73833333Y-50932438D01*
X73833333Y-50932438D02*
X73785714Y-50980057D01*
X73785714Y-50980057D02*
X73690476Y-51122914D01*
X73690476Y-51122914D02*
X73642857Y-51313390D01*
X73642857Y-51313390D02*
X73642857Y-51694342D01*
X73642857Y-51694342D02*
X73690476Y-51789580D01*
X73690476Y-51789580D02*
X73738095Y-51837200D01*
X73738095Y-51837200D02*
X73833333Y-51884819D01*
X73833333Y-51884819D02*
X74023809Y-51884819D01*
X74023809Y-51884819D02*
X74119047Y-51837200D01*
X74119047Y-51837200D02*
X74166666Y-51789580D01*
X74166666Y-51789580D02*
X74214285Y-51694342D01*
X74214285Y-51694342D02*
X74214285Y-51456247D01*
X74214285Y-51456247D02*
X74166666Y-51361009D01*
X74166666Y-51361009D02*
X74119047Y-51313390D01*
X74119047Y-51313390D02*
X74023809Y-51265771D01*
X74023809Y-51265771D02*
X73833333Y-51265771D01*
X73833333Y-51265771D02*
X73738095Y-51313390D01*
X73738095Y-51313390D02*
X73690476Y-51361009D01*
X73690476Y-51361009D02*
X73642857Y-51456247D01*
X74833333Y-50884819D02*
X74928571Y-50884819D01*
X74928571Y-50884819D02*
X75023809Y-50932438D01*
X75023809Y-50932438D02*
X75071428Y-50980057D01*
X75071428Y-50980057D02*
X75119047Y-51075295D01*
X75119047Y-51075295D02*
X75166666Y-51265771D01*
X75166666Y-51265771D02*
X75166666Y-51503866D01*
X75166666Y-51503866D02*
X75119047Y-51694342D01*
X75119047Y-51694342D02*
X75071428Y-51789580D01*
X75071428Y-51789580D02*
X75023809Y-51837200D01*
X75023809Y-51837200D02*
X74928571Y-51884819D01*
X74928571Y-51884819D02*
X74833333Y-51884819D01*
X74833333Y-51884819D02*
X74738095Y-51837200D01*
X74738095Y-51837200D02*
X74690476Y-51789580D01*
X74690476Y-51789580D02*
X74642857Y-51694342D01*
X74642857Y-51694342D02*
X74595238Y-51503866D01*
X74595238Y-51503866D02*
X74595238Y-51265771D01*
X74595238Y-51265771D02*
X74642857Y-51075295D01*
X74642857Y-51075295D02*
X74690476Y-50980057D01*
X74690476Y-50980057D02*
X74738095Y-50932438D01*
X74738095Y-50932438D02*
X74833333Y-50884819D01*
X75738095Y-51313390D02*
X75642857Y-51265771D01*
X75642857Y-51265771D02*
X75595238Y-51218152D01*
X75595238Y-51218152D02*
X75547619Y-51122914D01*
X75547619Y-51122914D02*
X75547619Y-51075295D01*
X75547619Y-51075295D02*
X75595238Y-50980057D01*
X75595238Y-50980057D02*
X75642857Y-50932438D01*
X75642857Y-50932438D02*
X75738095Y-50884819D01*
X75738095Y-50884819D02*
X75928571Y-50884819D01*
X75928571Y-50884819D02*
X76023809Y-50932438D01*
X76023809Y-50932438D02*
X76071428Y-50980057D01*
X76071428Y-50980057D02*
X76119047Y-51075295D01*
X76119047Y-51075295D02*
X76119047Y-51122914D01*
X76119047Y-51122914D02*
X76071428Y-51218152D01*
X76071428Y-51218152D02*
X76023809Y-51265771D01*
X76023809Y-51265771D02*
X75928571Y-51313390D01*
X75928571Y-51313390D02*
X75738095Y-51313390D01*
X75738095Y-51313390D02*
X75642857Y-51361009D01*
X75642857Y-51361009D02*
X75595238Y-51408628D01*
X75595238Y-51408628D02*
X75547619Y-51503866D01*
X75547619Y-51503866D02*
X75547619Y-51694342D01*
X75547619Y-51694342D02*
X75595238Y-51789580D01*
X75595238Y-51789580D02*
X75642857Y-51837200D01*
X75642857Y-51837200D02*
X75738095Y-51884819D01*
X75738095Y-51884819D02*
X75928571Y-51884819D01*
X75928571Y-51884819D02*
X76023809Y-51837200D01*
X76023809Y-51837200D02*
X76071428Y-51789580D01*
X76071428Y-51789580D02*
X76119047Y-51694342D01*
X76119047Y-51694342D02*
X76119047Y-51503866D01*
X76119047Y-51503866D02*
X76071428Y-51408628D01*
X76071428Y-51408628D02*
X76023809Y-51361009D01*
X76023809Y-51361009D02*
X75928571Y-51313390D01*
X76547619Y-51884819D02*
X76547619Y-50884819D01*
X76547619Y-50884819D02*
X76880952Y-51599104D01*
X76880952Y-51599104D02*
X77214285Y-50884819D01*
X77214285Y-50884819D02*
X77214285Y-51884819D01*
X78071428Y-51837200D02*
X77976190Y-51884819D01*
X77976190Y-51884819D02*
X77785714Y-51884819D01*
X77785714Y-51884819D02*
X77690476Y-51837200D01*
X77690476Y-51837200D02*
X77642857Y-51741961D01*
X77642857Y-51741961D02*
X77642857Y-51361009D01*
X77642857Y-51361009D02*
X77690476Y-51265771D01*
X77690476Y-51265771D02*
X77785714Y-51218152D01*
X77785714Y-51218152D02*
X77976190Y-51218152D01*
X77976190Y-51218152D02*
X78071428Y-51265771D01*
X78071428Y-51265771D02*
X78119047Y-51361009D01*
X78119047Y-51361009D02*
X78119047Y-51456247D01*
X78119047Y-51456247D02*
X77642857Y-51551485D01*
X78404762Y-51218152D02*
X78785714Y-51218152D01*
X78547619Y-50884819D02*
X78547619Y-51741961D01*
X78547619Y-51741961D02*
X78595238Y-51837200D01*
X78595238Y-51837200D02*
X78690476Y-51884819D01*
X78690476Y-51884819D02*
X78785714Y-51884819D01*
X79119048Y-51884819D02*
X79119048Y-51218152D01*
X79119048Y-51408628D02*
X79166667Y-51313390D01*
X79166667Y-51313390D02*
X79214286Y-51265771D01*
X79214286Y-51265771D02*
X79309524Y-51218152D01*
X79309524Y-51218152D02*
X79404762Y-51218152D01*
X79738096Y-51884819D02*
X79738096Y-51218152D01*
X79738096Y-50884819D02*
X79690477Y-50932438D01*
X79690477Y-50932438D02*
X79738096Y-50980057D01*
X79738096Y-50980057D02*
X79785715Y-50932438D01*
X79785715Y-50932438D02*
X79738096Y-50884819D01*
X79738096Y-50884819D02*
X79738096Y-50980057D01*
X80642857Y-51837200D02*
X80547619Y-51884819D01*
X80547619Y-51884819D02*
X80357143Y-51884819D01*
X80357143Y-51884819D02*
X80261905Y-51837200D01*
X80261905Y-51837200D02*
X80214286Y-51789580D01*
X80214286Y-51789580D02*
X80166667Y-51694342D01*
X80166667Y-51694342D02*
X80166667Y-51408628D01*
X80166667Y-51408628D02*
X80214286Y-51313390D01*
X80214286Y-51313390D02*
X80261905Y-51265771D01*
X80261905Y-51265771D02*
X80357143Y-51218152D01*
X80357143Y-51218152D02*
X80547619Y-51218152D01*
X80547619Y-51218152D02*
X80642857Y-51265771D01*
D11*
X73433333Y-50181927D02*
X73300000Y-49991451D01*
X73204762Y-50181927D02*
X73204762Y-49781927D01*
X73204762Y-49781927D02*
X73357143Y-49781927D01*
X73357143Y-49781927D02*
X73395238Y-49800975D01*
X73395238Y-49800975D02*
X73414285Y-49820022D01*
X73414285Y-49820022D02*
X73433333Y-49858118D01*
X73433333Y-49858118D02*
X73433333Y-49915260D01*
X73433333Y-49915260D02*
X73414285Y-49953356D01*
X73414285Y-49953356D02*
X73395238Y-49972403D01*
X73395238Y-49972403D02*
X73357143Y-49991451D01*
X73357143Y-49991451D02*
X73204762Y-49991451D01*
X73566666Y-49781927D02*
X73814285Y-49781927D01*
X73814285Y-49781927D02*
X73680952Y-49934308D01*
X73680952Y-49934308D02*
X73738095Y-49934308D01*
X73738095Y-49934308D02*
X73776190Y-49953356D01*
X73776190Y-49953356D02*
X73795238Y-49972403D01*
X73795238Y-49972403D02*
X73814285Y-50010499D01*
X73814285Y-50010499D02*
X73814285Y-50105737D01*
X73814285Y-50105737D02*
X73795238Y-50143832D01*
X73795238Y-50143832D02*
X73776190Y-50162880D01*
X73776190Y-50162880D02*
X73738095Y-50181927D01*
X73738095Y-50181927D02*
X73623809Y-50181927D01*
X73623809Y-50181927D02*
X73585714Y-50162880D01*
X73585714Y-50162880D02*
X73566666Y-50143832D01*
D10*
X37884819Y-45523810D02*
X37408628Y-45857143D01*
X37884819Y-46095238D02*
X36884819Y-46095238D01*
X36884819Y-46095238D02*
X36884819Y-45714286D01*
X36884819Y-45714286D02*
X36932438Y-45619048D01*
X36932438Y-45619048D02*
X36980057Y-45571429D01*
X36980057Y-45571429D02*
X37075295Y-45523810D01*
X37075295Y-45523810D02*
X37218152Y-45523810D01*
X37218152Y-45523810D02*
X37313390Y-45571429D01*
X37313390Y-45571429D02*
X37361009Y-45619048D01*
X37361009Y-45619048D02*
X37408628Y-45714286D01*
X37408628Y-45714286D02*
X37408628Y-46095238D01*
X37980057Y-45333334D02*
X37980057Y-44571429D01*
X36884819Y-44142857D02*
X36884819Y-44047619D01*
X36884819Y-44047619D02*
X36932438Y-43952381D01*
X36932438Y-43952381D02*
X36980057Y-43904762D01*
X36980057Y-43904762D02*
X37075295Y-43857143D01*
X37075295Y-43857143D02*
X37265771Y-43809524D01*
X37265771Y-43809524D02*
X37503866Y-43809524D01*
X37503866Y-43809524D02*
X37694342Y-43857143D01*
X37694342Y-43857143D02*
X37789580Y-43904762D01*
X37789580Y-43904762D02*
X37837200Y-43952381D01*
X37837200Y-43952381D02*
X37884819Y-44047619D01*
X37884819Y-44047619D02*
X37884819Y-44142857D01*
X37884819Y-44142857D02*
X37837200Y-44238095D01*
X37837200Y-44238095D02*
X37789580Y-44285714D01*
X37789580Y-44285714D02*
X37694342Y-44333333D01*
X37694342Y-44333333D02*
X37503866Y-44380952D01*
X37503866Y-44380952D02*
X37265771Y-44380952D01*
X37265771Y-44380952D02*
X37075295Y-44333333D01*
X37075295Y-44333333D02*
X36980057Y-44285714D01*
X36980057Y-44285714D02*
X36932438Y-44238095D01*
X36932438Y-44238095D02*
X36884819Y-44142857D01*
X36884819Y-42952381D02*
X36884819Y-43142857D01*
X36884819Y-43142857D02*
X36932438Y-43238095D01*
X36932438Y-43238095D02*
X36980057Y-43285714D01*
X36980057Y-43285714D02*
X37122914Y-43380952D01*
X37122914Y-43380952D02*
X37313390Y-43428571D01*
X37313390Y-43428571D02*
X37694342Y-43428571D01*
X37694342Y-43428571D02*
X37789580Y-43380952D01*
X37789580Y-43380952D02*
X37837200Y-43333333D01*
X37837200Y-43333333D02*
X37884819Y-43238095D01*
X37884819Y-43238095D02*
X37884819Y-43047619D01*
X37884819Y-43047619D02*
X37837200Y-42952381D01*
X37837200Y-42952381D02*
X37789580Y-42904762D01*
X37789580Y-42904762D02*
X37694342Y-42857143D01*
X37694342Y-42857143D02*
X37456247Y-42857143D01*
X37456247Y-42857143D02*
X37361009Y-42904762D01*
X37361009Y-42904762D02*
X37313390Y-42952381D01*
X37313390Y-42952381D02*
X37265771Y-43047619D01*
X37265771Y-43047619D02*
X37265771Y-43238095D01*
X37265771Y-43238095D02*
X37313390Y-43333333D01*
X37313390Y-43333333D02*
X37361009Y-43380952D01*
X37361009Y-43380952D02*
X37456247Y-43428571D01*
X36884819Y-42238095D02*
X36884819Y-42142857D01*
X36884819Y-42142857D02*
X36932438Y-42047619D01*
X36932438Y-42047619D02*
X36980057Y-42000000D01*
X36980057Y-42000000D02*
X37075295Y-41952381D01*
X37075295Y-41952381D02*
X37265771Y-41904762D01*
X37265771Y-41904762D02*
X37503866Y-41904762D01*
X37503866Y-41904762D02*
X37694342Y-41952381D01*
X37694342Y-41952381D02*
X37789580Y-42000000D01*
X37789580Y-42000000D02*
X37837200Y-42047619D01*
X37837200Y-42047619D02*
X37884819Y-42142857D01*
X37884819Y-42142857D02*
X37884819Y-42238095D01*
X37884819Y-42238095D02*
X37837200Y-42333333D01*
X37837200Y-42333333D02*
X37789580Y-42380952D01*
X37789580Y-42380952D02*
X37694342Y-42428571D01*
X37694342Y-42428571D02*
X37503866Y-42476190D01*
X37503866Y-42476190D02*
X37265771Y-42476190D01*
X37265771Y-42476190D02*
X37075295Y-42428571D01*
X37075295Y-42428571D02*
X36980057Y-42380952D01*
X36980057Y-42380952D02*
X36932438Y-42333333D01*
X36932438Y-42333333D02*
X36884819Y-42238095D01*
X36884819Y-41571428D02*
X36884819Y-40952381D01*
X36884819Y-40952381D02*
X37265771Y-41285714D01*
X37265771Y-41285714D02*
X37265771Y-41142857D01*
X37265771Y-41142857D02*
X37313390Y-41047619D01*
X37313390Y-41047619D02*
X37361009Y-41000000D01*
X37361009Y-41000000D02*
X37456247Y-40952381D01*
X37456247Y-40952381D02*
X37694342Y-40952381D01*
X37694342Y-40952381D02*
X37789580Y-41000000D01*
X37789580Y-41000000D02*
X37837200Y-41047619D01*
X37837200Y-41047619D02*
X37884819Y-41142857D01*
X37884819Y-41142857D02*
X37884819Y-41428571D01*
X37884819Y-41428571D02*
X37837200Y-41523809D01*
X37837200Y-41523809D02*
X37789580Y-41571428D01*
X37980057Y-40761905D02*
X37980057Y-40000000D01*
X37884819Y-39238095D02*
X37884819Y-39809523D01*
X37884819Y-39523809D02*
X36884819Y-39523809D01*
X36884819Y-39523809D02*
X37027676Y-39619047D01*
X37027676Y-39619047D02*
X37122914Y-39714285D01*
X37122914Y-39714285D02*
X37170533Y-39809523D01*
X36884819Y-38380952D02*
X36884819Y-38571428D01*
X36884819Y-38571428D02*
X36932438Y-38666666D01*
X36932438Y-38666666D02*
X36980057Y-38714285D01*
X36980057Y-38714285D02*
X37122914Y-38809523D01*
X37122914Y-38809523D02*
X37313390Y-38857142D01*
X37313390Y-38857142D02*
X37694342Y-38857142D01*
X37694342Y-38857142D02*
X37789580Y-38809523D01*
X37789580Y-38809523D02*
X37837200Y-38761904D01*
X37837200Y-38761904D02*
X37884819Y-38666666D01*
X37884819Y-38666666D02*
X37884819Y-38476190D01*
X37884819Y-38476190D02*
X37837200Y-38380952D01*
X37837200Y-38380952D02*
X37789580Y-38333333D01*
X37789580Y-38333333D02*
X37694342Y-38285714D01*
X37694342Y-38285714D02*
X37456247Y-38285714D01*
X37456247Y-38285714D02*
X37361009Y-38333333D01*
X37361009Y-38333333D02*
X37313390Y-38380952D01*
X37313390Y-38380952D02*
X37265771Y-38476190D01*
X37265771Y-38476190D02*
X37265771Y-38666666D01*
X37265771Y-38666666D02*
X37313390Y-38761904D01*
X37313390Y-38761904D02*
X37361009Y-38809523D01*
X37361009Y-38809523D02*
X37456247Y-38857142D01*
X36884819Y-37666666D02*
X36884819Y-37571428D01*
X36884819Y-37571428D02*
X36932438Y-37476190D01*
X36932438Y-37476190D02*
X36980057Y-37428571D01*
X36980057Y-37428571D02*
X37075295Y-37380952D01*
X37075295Y-37380952D02*
X37265771Y-37333333D01*
X37265771Y-37333333D02*
X37503866Y-37333333D01*
X37503866Y-37333333D02*
X37694342Y-37380952D01*
X37694342Y-37380952D02*
X37789580Y-37428571D01*
X37789580Y-37428571D02*
X37837200Y-37476190D01*
X37837200Y-37476190D02*
X37884819Y-37571428D01*
X37884819Y-37571428D02*
X37884819Y-37666666D01*
X37884819Y-37666666D02*
X37837200Y-37761904D01*
X37837200Y-37761904D02*
X37789580Y-37809523D01*
X37789580Y-37809523D02*
X37694342Y-37857142D01*
X37694342Y-37857142D02*
X37503866Y-37904761D01*
X37503866Y-37904761D02*
X37265771Y-37904761D01*
X37265771Y-37904761D02*
X37075295Y-37857142D01*
X37075295Y-37857142D02*
X36980057Y-37809523D01*
X36980057Y-37809523D02*
X36932438Y-37761904D01*
X36932438Y-37761904D02*
X36884819Y-37666666D01*
X37313390Y-36761904D02*
X37265771Y-36857142D01*
X37265771Y-36857142D02*
X37218152Y-36904761D01*
X37218152Y-36904761D02*
X37122914Y-36952380D01*
X37122914Y-36952380D02*
X37075295Y-36952380D01*
X37075295Y-36952380D02*
X36980057Y-36904761D01*
X36980057Y-36904761D02*
X36932438Y-36857142D01*
X36932438Y-36857142D02*
X36884819Y-36761904D01*
X36884819Y-36761904D02*
X36884819Y-36571428D01*
X36884819Y-36571428D02*
X36932438Y-36476190D01*
X36932438Y-36476190D02*
X36980057Y-36428571D01*
X36980057Y-36428571D02*
X37075295Y-36380952D01*
X37075295Y-36380952D02*
X37122914Y-36380952D01*
X37122914Y-36380952D02*
X37218152Y-36428571D01*
X37218152Y-36428571D02*
X37265771Y-36476190D01*
X37265771Y-36476190D02*
X37313390Y-36571428D01*
X37313390Y-36571428D02*
X37313390Y-36761904D01*
X37313390Y-36761904D02*
X37361009Y-36857142D01*
X37361009Y-36857142D02*
X37408628Y-36904761D01*
X37408628Y-36904761D02*
X37503866Y-36952380D01*
X37503866Y-36952380D02*
X37694342Y-36952380D01*
X37694342Y-36952380D02*
X37789580Y-36904761D01*
X37789580Y-36904761D02*
X37837200Y-36857142D01*
X37837200Y-36857142D02*
X37884819Y-36761904D01*
X37884819Y-36761904D02*
X37884819Y-36571428D01*
X37884819Y-36571428D02*
X37837200Y-36476190D01*
X37837200Y-36476190D02*
X37789580Y-36428571D01*
X37789580Y-36428571D02*
X37694342Y-36380952D01*
X37694342Y-36380952D02*
X37503866Y-36380952D01*
X37503866Y-36380952D02*
X37408628Y-36428571D01*
X37408628Y-36428571D02*
X37361009Y-36476190D01*
X37361009Y-36476190D02*
X37313390Y-36571428D01*
X37884819Y-35952380D02*
X36884819Y-35952380D01*
X36884819Y-35952380D02*
X37599104Y-35619047D01*
X37599104Y-35619047D02*
X36884819Y-35285714D01*
X36884819Y-35285714D02*
X37884819Y-35285714D01*
X37837200Y-34428571D02*
X37884819Y-34523809D01*
X37884819Y-34523809D02*
X37884819Y-34714285D01*
X37884819Y-34714285D02*
X37837200Y-34809523D01*
X37837200Y-34809523D02*
X37741961Y-34857142D01*
X37741961Y-34857142D02*
X37361009Y-34857142D01*
X37361009Y-34857142D02*
X37265771Y-34809523D01*
X37265771Y-34809523D02*
X37218152Y-34714285D01*
X37218152Y-34714285D02*
X37218152Y-34523809D01*
X37218152Y-34523809D02*
X37265771Y-34428571D01*
X37265771Y-34428571D02*
X37361009Y-34380952D01*
X37361009Y-34380952D02*
X37456247Y-34380952D01*
X37456247Y-34380952D02*
X37551485Y-34857142D01*
X37218152Y-34095237D02*
X37218152Y-33714285D01*
X36884819Y-33952380D02*
X37741961Y-33952380D01*
X37741961Y-33952380D02*
X37837200Y-33904761D01*
X37837200Y-33904761D02*
X37884819Y-33809523D01*
X37884819Y-33809523D02*
X37884819Y-33714285D01*
X37884819Y-33380951D02*
X37218152Y-33380951D01*
X37408628Y-33380951D02*
X37313390Y-33333332D01*
X37313390Y-33333332D02*
X37265771Y-33285713D01*
X37265771Y-33285713D02*
X37218152Y-33190475D01*
X37218152Y-33190475D02*
X37218152Y-33095237D01*
X37884819Y-32761903D02*
X37218152Y-32761903D01*
X36884819Y-32761903D02*
X36932438Y-32809522D01*
X36932438Y-32809522D02*
X36980057Y-32761903D01*
X36980057Y-32761903D02*
X36932438Y-32714284D01*
X36932438Y-32714284D02*
X36884819Y-32761903D01*
X36884819Y-32761903D02*
X36980057Y-32761903D01*
X37837200Y-31857142D02*
X37884819Y-31952380D01*
X37884819Y-31952380D02*
X37884819Y-32142856D01*
X37884819Y-32142856D02*
X37837200Y-32238094D01*
X37837200Y-32238094D02*
X37789580Y-32285713D01*
X37789580Y-32285713D02*
X37694342Y-32333332D01*
X37694342Y-32333332D02*
X37408628Y-32333332D01*
X37408628Y-32333332D02*
X37313390Y-32285713D01*
X37313390Y-32285713D02*
X37265771Y-32238094D01*
X37265771Y-32238094D02*
X37218152Y-32142856D01*
X37218152Y-32142856D02*
X37218152Y-31952380D01*
X37218152Y-31952380D02*
X37265771Y-31857142D01*
D11*
X36181927Y-39066666D02*
X35991451Y-39199999D01*
X36181927Y-39295237D02*
X35781927Y-39295237D01*
X35781927Y-39295237D02*
X35781927Y-39142856D01*
X35781927Y-39142856D02*
X35800975Y-39104761D01*
X35800975Y-39104761D02*
X35820022Y-39085714D01*
X35820022Y-39085714D02*
X35858118Y-39066666D01*
X35858118Y-39066666D02*
X35915260Y-39066666D01*
X35915260Y-39066666D02*
X35953356Y-39085714D01*
X35953356Y-39085714D02*
X35972403Y-39104761D01*
X35972403Y-39104761D02*
X35991451Y-39142856D01*
X35991451Y-39142856D02*
X35991451Y-39295237D01*
X35781927Y-38723809D02*
X35781927Y-38799999D01*
X35781927Y-38799999D02*
X35800975Y-38838095D01*
X35800975Y-38838095D02*
X35820022Y-38857142D01*
X35820022Y-38857142D02*
X35877165Y-38895237D01*
X35877165Y-38895237D02*
X35953356Y-38914285D01*
X35953356Y-38914285D02*
X36105737Y-38914285D01*
X36105737Y-38914285D02*
X36143832Y-38895237D01*
X36143832Y-38895237D02*
X36162880Y-38876190D01*
X36162880Y-38876190D02*
X36181927Y-38838095D01*
X36181927Y-38838095D02*
X36181927Y-38761904D01*
X36181927Y-38761904D02*
X36162880Y-38723809D01*
X36162880Y-38723809D02*
X36143832Y-38704761D01*
X36143832Y-38704761D02*
X36105737Y-38685714D01*
X36105737Y-38685714D02*
X36010499Y-38685714D01*
X36010499Y-38685714D02*
X35972403Y-38704761D01*
X35972403Y-38704761D02*
X35953356Y-38723809D01*
X35953356Y-38723809D02*
X35934308Y-38761904D01*
X35934308Y-38761904D02*
X35934308Y-38838095D01*
X35934308Y-38838095D02*
X35953356Y-38876190D01*
X35953356Y-38876190D02*
X35972403Y-38895237D01*
X35972403Y-38895237D02*
X36010499Y-38914285D01*
D10*
X39642856Y-59574819D02*
X39642856Y-58574819D01*
X39642856Y-58574819D02*
X40023808Y-58574819D01*
X40023808Y-58574819D02*
X40119046Y-58622438D01*
X40119046Y-58622438D02*
X40166665Y-58670057D01*
X40166665Y-58670057D02*
X40214284Y-58765295D01*
X40214284Y-58765295D02*
X40214284Y-58908152D01*
X40214284Y-58908152D02*
X40166665Y-59003390D01*
X40166665Y-59003390D02*
X40119046Y-59051009D01*
X40119046Y-59051009D02*
X40023808Y-59098628D01*
X40023808Y-59098628D02*
X39642856Y-59098628D01*
X40642856Y-59574819D02*
X40642856Y-58908152D01*
X40642856Y-58574819D02*
X40595237Y-58622438D01*
X40595237Y-58622438D02*
X40642856Y-58670057D01*
X40642856Y-58670057D02*
X40690475Y-58622438D01*
X40690475Y-58622438D02*
X40642856Y-58574819D01*
X40642856Y-58574819D02*
X40642856Y-58670057D01*
X41119046Y-58908152D02*
X41119046Y-59574819D01*
X41119046Y-59003390D02*
X41166665Y-58955771D01*
X41166665Y-58955771D02*
X41261903Y-58908152D01*
X41261903Y-58908152D02*
X41404760Y-58908152D01*
X41404760Y-58908152D02*
X41499998Y-58955771D01*
X41499998Y-58955771D02*
X41547617Y-59051009D01*
X41547617Y-59051009D02*
X41547617Y-59574819D01*
X42023808Y-59574819D02*
X42023808Y-58574819D01*
X42023808Y-59051009D02*
X42595236Y-59051009D01*
X42595236Y-59574819D02*
X42595236Y-58574819D01*
X43452379Y-59527200D02*
X43357141Y-59574819D01*
X43357141Y-59574819D02*
X43166665Y-59574819D01*
X43166665Y-59574819D02*
X43071427Y-59527200D01*
X43071427Y-59527200D02*
X43023808Y-59431961D01*
X43023808Y-59431961D02*
X43023808Y-59051009D01*
X43023808Y-59051009D02*
X43071427Y-58955771D01*
X43071427Y-58955771D02*
X43166665Y-58908152D01*
X43166665Y-58908152D02*
X43357141Y-58908152D01*
X43357141Y-58908152D02*
X43452379Y-58955771D01*
X43452379Y-58955771D02*
X43499998Y-59051009D01*
X43499998Y-59051009D02*
X43499998Y-59146247D01*
X43499998Y-59146247D02*
X43023808Y-59241485D01*
X44357141Y-59574819D02*
X44357141Y-59051009D01*
X44357141Y-59051009D02*
X44309522Y-58955771D01*
X44309522Y-58955771D02*
X44214284Y-58908152D01*
X44214284Y-58908152D02*
X44023808Y-58908152D01*
X44023808Y-58908152D02*
X43928570Y-58955771D01*
X44357141Y-59527200D02*
X44261903Y-59574819D01*
X44261903Y-59574819D02*
X44023808Y-59574819D01*
X44023808Y-59574819D02*
X43928570Y-59527200D01*
X43928570Y-59527200D02*
X43880951Y-59431961D01*
X43880951Y-59431961D02*
X43880951Y-59336723D01*
X43880951Y-59336723D02*
X43928570Y-59241485D01*
X43928570Y-59241485D02*
X44023808Y-59193866D01*
X44023808Y-59193866D02*
X44261903Y-59193866D01*
X44261903Y-59193866D02*
X44357141Y-59146247D01*
X45261903Y-59574819D02*
X45261903Y-58574819D01*
X45261903Y-59527200D02*
X45166665Y-59574819D01*
X45166665Y-59574819D02*
X44976189Y-59574819D01*
X44976189Y-59574819D02*
X44880951Y-59527200D01*
X44880951Y-59527200D02*
X44833332Y-59479580D01*
X44833332Y-59479580D02*
X44785713Y-59384342D01*
X44785713Y-59384342D02*
X44785713Y-59098628D01*
X44785713Y-59098628D02*
X44833332Y-59003390D01*
X44833332Y-59003390D02*
X44880951Y-58955771D01*
X44880951Y-58955771D02*
X44976189Y-58908152D01*
X44976189Y-58908152D02*
X45166665Y-58908152D01*
X45166665Y-58908152D02*
X45261903Y-58955771D01*
X46119046Y-59527200D02*
X46023808Y-59574819D01*
X46023808Y-59574819D02*
X45833332Y-59574819D01*
X45833332Y-59574819D02*
X45738094Y-59527200D01*
X45738094Y-59527200D02*
X45690475Y-59431961D01*
X45690475Y-59431961D02*
X45690475Y-59051009D01*
X45690475Y-59051009D02*
X45738094Y-58955771D01*
X45738094Y-58955771D02*
X45833332Y-58908152D01*
X45833332Y-58908152D02*
X46023808Y-58908152D01*
X46023808Y-58908152D02*
X46119046Y-58955771D01*
X46119046Y-58955771D02*
X46166665Y-59051009D01*
X46166665Y-59051009D02*
X46166665Y-59146247D01*
X46166665Y-59146247D02*
X45690475Y-59241485D01*
X46595237Y-59574819D02*
X46595237Y-58908152D01*
X46595237Y-59098628D02*
X46642856Y-59003390D01*
X46642856Y-59003390D02*
X46690475Y-58955771D01*
X46690475Y-58955771D02*
X46785713Y-58908152D01*
X46785713Y-58908152D02*
X46880951Y-58908152D01*
X46976190Y-59670057D02*
X47738094Y-59670057D01*
X48499999Y-59574819D02*
X47928571Y-59574819D01*
X48214285Y-59574819D02*
X48214285Y-58574819D01*
X48214285Y-58574819D02*
X48119047Y-58717676D01*
X48119047Y-58717676D02*
X48023809Y-58812914D01*
X48023809Y-58812914D02*
X47928571Y-58860533D01*
X48833333Y-59574819D02*
X49357142Y-58908152D01*
X48833333Y-58908152D02*
X49357142Y-59574819D01*
X49928571Y-58574819D02*
X50023809Y-58574819D01*
X50023809Y-58574819D02*
X50119047Y-58622438D01*
X50119047Y-58622438D02*
X50166666Y-58670057D01*
X50166666Y-58670057D02*
X50214285Y-58765295D01*
X50214285Y-58765295D02*
X50261904Y-58955771D01*
X50261904Y-58955771D02*
X50261904Y-59193866D01*
X50261904Y-59193866D02*
X50214285Y-59384342D01*
X50214285Y-59384342D02*
X50166666Y-59479580D01*
X50166666Y-59479580D02*
X50119047Y-59527200D01*
X50119047Y-59527200D02*
X50023809Y-59574819D01*
X50023809Y-59574819D02*
X49928571Y-59574819D01*
X49928571Y-59574819D02*
X49833333Y-59527200D01*
X49833333Y-59527200D02*
X49785714Y-59479580D01*
X49785714Y-59479580D02*
X49738095Y-59384342D01*
X49738095Y-59384342D02*
X49690476Y-59193866D01*
X49690476Y-59193866D02*
X49690476Y-58955771D01*
X49690476Y-58955771D02*
X49738095Y-58765295D01*
X49738095Y-58765295D02*
X49785714Y-58670057D01*
X49785714Y-58670057D02*
X49833333Y-58622438D01*
X49833333Y-58622438D02*
X49928571Y-58574819D01*
X50595238Y-58574819D02*
X51261904Y-58574819D01*
X51261904Y-58574819D02*
X50833333Y-59574819D01*
X51404762Y-59670057D02*
X52166666Y-59670057D01*
X52404762Y-59574819D02*
X52404762Y-58574819D01*
X52404762Y-58574819D02*
X52785714Y-58574819D01*
X52785714Y-58574819D02*
X52880952Y-58622438D01*
X52880952Y-58622438D02*
X52928571Y-58670057D01*
X52928571Y-58670057D02*
X52976190Y-58765295D01*
X52976190Y-58765295D02*
X52976190Y-58908152D01*
X52976190Y-58908152D02*
X52928571Y-59003390D01*
X52928571Y-59003390D02*
X52880952Y-59051009D01*
X52880952Y-59051009D02*
X52785714Y-59098628D01*
X52785714Y-59098628D02*
X52404762Y-59098628D01*
X53357143Y-58670057D02*
X53404762Y-58622438D01*
X53404762Y-58622438D02*
X53500000Y-58574819D01*
X53500000Y-58574819D02*
X53738095Y-58574819D01*
X53738095Y-58574819D02*
X53833333Y-58622438D01*
X53833333Y-58622438D02*
X53880952Y-58670057D01*
X53880952Y-58670057D02*
X53928571Y-58765295D01*
X53928571Y-58765295D02*
X53928571Y-58860533D01*
X53928571Y-58860533D02*
X53880952Y-59003390D01*
X53880952Y-59003390D02*
X53309524Y-59574819D01*
X53309524Y-59574819D02*
X53928571Y-59574819D01*
X54357143Y-59479580D02*
X54404762Y-59527200D01*
X54404762Y-59527200D02*
X54357143Y-59574819D01*
X54357143Y-59574819D02*
X54309524Y-59527200D01*
X54309524Y-59527200D02*
X54357143Y-59479580D01*
X54357143Y-59479580D02*
X54357143Y-59574819D01*
X55309523Y-58574819D02*
X54833333Y-58574819D01*
X54833333Y-58574819D02*
X54785714Y-59051009D01*
X54785714Y-59051009D02*
X54833333Y-59003390D01*
X54833333Y-59003390D02*
X54928571Y-58955771D01*
X54928571Y-58955771D02*
X55166666Y-58955771D01*
X55166666Y-58955771D02*
X55261904Y-59003390D01*
X55261904Y-59003390D02*
X55309523Y-59051009D01*
X55309523Y-59051009D02*
X55357142Y-59146247D01*
X55357142Y-59146247D02*
X55357142Y-59384342D01*
X55357142Y-59384342D02*
X55309523Y-59479580D01*
X55309523Y-59479580D02*
X55261904Y-59527200D01*
X55261904Y-59527200D02*
X55166666Y-59574819D01*
X55166666Y-59574819D02*
X54928571Y-59574819D01*
X54928571Y-59574819D02*
X54833333Y-59527200D01*
X54833333Y-59527200D02*
X54785714Y-59479580D01*
X56214285Y-58908152D02*
X56214285Y-59574819D01*
X55976190Y-58527200D02*
X55738095Y-59241485D01*
X55738095Y-59241485D02*
X56357142Y-59241485D01*
X56738095Y-59574819D02*
X56738095Y-58908152D01*
X56738095Y-59003390D02*
X56785714Y-58955771D01*
X56785714Y-58955771D02*
X56880952Y-58908152D01*
X56880952Y-58908152D02*
X57023809Y-58908152D01*
X57023809Y-58908152D02*
X57119047Y-58955771D01*
X57119047Y-58955771D02*
X57166666Y-59051009D01*
X57166666Y-59051009D02*
X57166666Y-59574819D01*
X57166666Y-59051009D02*
X57214285Y-58955771D01*
X57214285Y-58955771D02*
X57309523Y-58908152D01*
X57309523Y-58908152D02*
X57452380Y-58908152D01*
X57452380Y-58908152D02*
X57547619Y-58955771D01*
X57547619Y-58955771D02*
X57595238Y-59051009D01*
X57595238Y-59051009D02*
X57595238Y-59574819D01*
X58071428Y-59574819D02*
X58071428Y-58908152D01*
X58071428Y-59003390D02*
X58119047Y-58955771D01*
X58119047Y-58955771D02*
X58214285Y-58908152D01*
X58214285Y-58908152D02*
X58357142Y-58908152D01*
X58357142Y-58908152D02*
X58452380Y-58955771D01*
X58452380Y-58955771D02*
X58499999Y-59051009D01*
X58499999Y-59051009D02*
X58499999Y-59574819D01*
X58499999Y-59051009D02*
X58547618Y-58955771D01*
X58547618Y-58955771D02*
X58642856Y-58908152D01*
X58642856Y-58908152D02*
X58785713Y-58908152D01*
X58785713Y-58908152D02*
X58880952Y-58955771D01*
X58880952Y-58955771D02*
X58928571Y-59051009D01*
X58928571Y-59051009D02*
X58928571Y-59574819D01*
X59166666Y-59670057D02*
X59928570Y-59670057D01*
X60023809Y-58574819D02*
X60357142Y-59574819D01*
X60357142Y-59574819D02*
X60690475Y-58574819D01*
X61404761Y-59527200D02*
X61309523Y-59574819D01*
X61309523Y-59574819D02*
X61119047Y-59574819D01*
X61119047Y-59574819D02*
X61023809Y-59527200D01*
X61023809Y-59527200D02*
X60976190Y-59431961D01*
X60976190Y-59431961D02*
X60976190Y-59051009D01*
X60976190Y-59051009D02*
X61023809Y-58955771D01*
X61023809Y-58955771D02*
X61119047Y-58908152D01*
X61119047Y-58908152D02*
X61309523Y-58908152D01*
X61309523Y-58908152D02*
X61404761Y-58955771D01*
X61404761Y-58955771D02*
X61452380Y-59051009D01*
X61452380Y-59051009D02*
X61452380Y-59146247D01*
X61452380Y-59146247D02*
X60976190Y-59241485D01*
X61880952Y-59574819D02*
X61880952Y-58908152D01*
X61880952Y-59098628D02*
X61928571Y-59003390D01*
X61928571Y-59003390D02*
X61976190Y-58955771D01*
X61976190Y-58955771D02*
X62071428Y-58908152D01*
X62071428Y-58908152D02*
X62166666Y-58908152D01*
X62357143Y-58908152D02*
X62738095Y-58908152D01*
X62500000Y-58574819D02*
X62500000Y-59431961D01*
X62500000Y-59431961D02*
X62547619Y-59527200D01*
X62547619Y-59527200D02*
X62642857Y-59574819D01*
X62642857Y-59574819D02*
X62738095Y-59574819D01*
X63071429Y-59574819D02*
X63071429Y-58908152D01*
X63071429Y-58574819D02*
X63023810Y-58622438D01*
X63023810Y-58622438D02*
X63071429Y-58670057D01*
X63071429Y-58670057D02*
X63119048Y-58622438D01*
X63119048Y-58622438D02*
X63071429Y-58574819D01*
X63071429Y-58574819D02*
X63071429Y-58670057D01*
X63976190Y-59527200D02*
X63880952Y-59574819D01*
X63880952Y-59574819D02*
X63690476Y-59574819D01*
X63690476Y-59574819D02*
X63595238Y-59527200D01*
X63595238Y-59527200D02*
X63547619Y-59479580D01*
X63547619Y-59479580D02*
X63500000Y-59384342D01*
X63500000Y-59384342D02*
X63500000Y-59098628D01*
X63500000Y-59098628D02*
X63547619Y-59003390D01*
X63547619Y-59003390D02*
X63595238Y-58955771D01*
X63595238Y-58955771D02*
X63690476Y-58908152D01*
X63690476Y-58908152D02*
X63880952Y-58908152D01*
X63880952Y-58908152D02*
X63976190Y-58955771D01*
X64833333Y-59574819D02*
X64833333Y-59051009D01*
X64833333Y-59051009D02*
X64785714Y-58955771D01*
X64785714Y-58955771D02*
X64690476Y-58908152D01*
X64690476Y-58908152D02*
X64500000Y-58908152D01*
X64500000Y-58908152D02*
X64404762Y-58955771D01*
X64833333Y-59527200D02*
X64738095Y-59574819D01*
X64738095Y-59574819D02*
X64500000Y-59574819D01*
X64500000Y-59574819D02*
X64404762Y-59527200D01*
X64404762Y-59527200D02*
X64357143Y-59431961D01*
X64357143Y-59431961D02*
X64357143Y-59336723D01*
X64357143Y-59336723D02*
X64404762Y-59241485D01*
X64404762Y-59241485D02*
X64500000Y-59193866D01*
X64500000Y-59193866D02*
X64738095Y-59193866D01*
X64738095Y-59193866D02*
X64833333Y-59146247D01*
X65452381Y-59574819D02*
X65357143Y-59527200D01*
X65357143Y-59527200D02*
X65309524Y-59431961D01*
X65309524Y-59431961D02*
X65309524Y-58574819D01*
X51954819Y-49881904D02*
X52764342Y-49881904D01*
X52764342Y-49881904D02*
X52859580Y-49834285D01*
X52859580Y-49834285D02*
X52907200Y-49786666D01*
X52907200Y-49786666D02*
X52954819Y-49691428D01*
X52954819Y-49691428D02*
X52954819Y-49500952D01*
X52954819Y-49500952D02*
X52907200Y-49405714D01*
X52907200Y-49405714D02*
X52859580Y-49358095D01*
X52859580Y-49358095D02*
X52764342Y-49310476D01*
X52764342Y-49310476D02*
X51954819Y-49310476D01*
X52954819Y-48310476D02*
X52954819Y-48881904D01*
X52954819Y-48596190D02*
X51954819Y-48596190D01*
X51954819Y-48596190D02*
X52097676Y-48691428D01*
X52097676Y-48691428D02*
X52192914Y-48786666D01*
X52192914Y-48786666D02*
X52240533Y-48881904D01*
X35884819Y-54523810D02*
X35408628Y-54857143D01*
X35884819Y-55095238D02*
X34884819Y-55095238D01*
X34884819Y-55095238D02*
X34884819Y-54714286D01*
X34884819Y-54714286D02*
X34932438Y-54619048D01*
X34932438Y-54619048D02*
X34980057Y-54571429D01*
X34980057Y-54571429D02*
X35075295Y-54523810D01*
X35075295Y-54523810D02*
X35218152Y-54523810D01*
X35218152Y-54523810D02*
X35313390Y-54571429D01*
X35313390Y-54571429D02*
X35361009Y-54619048D01*
X35361009Y-54619048D02*
X35408628Y-54714286D01*
X35408628Y-54714286D02*
X35408628Y-55095238D01*
X35980057Y-54333334D02*
X35980057Y-53571429D01*
X34884819Y-53142857D02*
X34884819Y-53047619D01*
X34884819Y-53047619D02*
X34932438Y-52952381D01*
X34932438Y-52952381D02*
X34980057Y-52904762D01*
X34980057Y-52904762D02*
X35075295Y-52857143D01*
X35075295Y-52857143D02*
X35265771Y-52809524D01*
X35265771Y-52809524D02*
X35503866Y-52809524D01*
X35503866Y-52809524D02*
X35694342Y-52857143D01*
X35694342Y-52857143D02*
X35789580Y-52904762D01*
X35789580Y-52904762D02*
X35837200Y-52952381D01*
X35837200Y-52952381D02*
X35884819Y-53047619D01*
X35884819Y-53047619D02*
X35884819Y-53142857D01*
X35884819Y-53142857D02*
X35837200Y-53238095D01*
X35837200Y-53238095D02*
X35789580Y-53285714D01*
X35789580Y-53285714D02*
X35694342Y-53333333D01*
X35694342Y-53333333D02*
X35503866Y-53380952D01*
X35503866Y-53380952D02*
X35265771Y-53380952D01*
X35265771Y-53380952D02*
X35075295Y-53333333D01*
X35075295Y-53333333D02*
X34980057Y-53285714D01*
X34980057Y-53285714D02*
X34932438Y-53238095D01*
X34932438Y-53238095D02*
X34884819Y-53142857D01*
X34884819Y-51952381D02*
X34884819Y-52142857D01*
X34884819Y-52142857D02*
X34932438Y-52238095D01*
X34932438Y-52238095D02*
X34980057Y-52285714D01*
X34980057Y-52285714D02*
X35122914Y-52380952D01*
X35122914Y-52380952D02*
X35313390Y-52428571D01*
X35313390Y-52428571D02*
X35694342Y-52428571D01*
X35694342Y-52428571D02*
X35789580Y-52380952D01*
X35789580Y-52380952D02*
X35837200Y-52333333D01*
X35837200Y-52333333D02*
X35884819Y-52238095D01*
X35884819Y-52238095D02*
X35884819Y-52047619D01*
X35884819Y-52047619D02*
X35837200Y-51952381D01*
X35837200Y-51952381D02*
X35789580Y-51904762D01*
X35789580Y-51904762D02*
X35694342Y-51857143D01*
X35694342Y-51857143D02*
X35456247Y-51857143D01*
X35456247Y-51857143D02*
X35361009Y-51904762D01*
X35361009Y-51904762D02*
X35313390Y-51952381D01*
X35313390Y-51952381D02*
X35265771Y-52047619D01*
X35265771Y-52047619D02*
X35265771Y-52238095D01*
X35265771Y-52238095D02*
X35313390Y-52333333D01*
X35313390Y-52333333D02*
X35361009Y-52380952D01*
X35361009Y-52380952D02*
X35456247Y-52428571D01*
X34884819Y-51238095D02*
X34884819Y-51142857D01*
X34884819Y-51142857D02*
X34932438Y-51047619D01*
X34932438Y-51047619D02*
X34980057Y-51000000D01*
X34980057Y-51000000D02*
X35075295Y-50952381D01*
X35075295Y-50952381D02*
X35265771Y-50904762D01*
X35265771Y-50904762D02*
X35503866Y-50904762D01*
X35503866Y-50904762D02*
X35694342Y-50952381D01*
X35694342Y-50952381D02*
X35789580Y-51000000D01*
X35789580Y-51000000D02*
X35837200Y-51047619D01*
X35837200Y-51047619D02*
X35884819Y-51142857D01*
X35884819Y-51142857D02*
X35884819Y-51238095D01*
X35884819Y-51238095D02*
X35837200Y-51333333D01*
X35837200Y-51333333D02*
X35789580Y-51380952D01*
X35789580Y-51380952D02*
X35694342Y-51428571D01*
X35694342Y-51428571D02*
X35503866Y-51476190D01*
X35503866Y-51476190D02*
X35265771Y-51476190D01*
X35265771Y-51476190D02*
X35075295Y-51428571D01*
X35075295Y-51428571D02*
X34980057Y-51380952D01*
X34980057Y-51380952D02*
X34932438Y-51333333D01*
X34932438Y-51333333D02*
X34884819Y-51238095D01*
X34884819Y-50571428D02*
X34884819Y-49952381D01*
X34884819Y-49952381D02*
X35265771Y-50285714D01*
X35265771Y-50285714D02*
X35265771Y-50142857D01*
X35265771Y-50142857D02*
X35313390Y-50047619D01*
X35313390Y-50047619D02*
X35361009Y-50000000D01*
X35361009Y-50000000D02*
X35456247Y-49952381D01*
X35456247Y-49952381D02*
X35694342Y-49952381D01*
X35694342Y-49952381D02*
X35789580Y-50000000D01*
X35789580Y-50000000D02*
X35837200Y-50047619D01*
X35837200Y-50047619D02*
X35884819Y-50142857D01*
X35884819Y-50142857D02*
X35884819Y-50428571D01*
X35884819Y-50428571D02*
X35837200Y-50523809D01*
X35837200Y-50523809D02*
X35789580Y-50571428D01*
X35980057Y-49761905D02*
X35980057Y-49000000D01*
X35884819Y-48238095D02*
X35884819Y-48809523D01*
X35884819Y-48523809D02*
X34884819Y-48523809D01*
X34884819Y-48523809D02*
X35027676Y-48619047D01*
X35027676Y-48619047D02*
X35122914Y-48714285D01*
X35122914Y-48714285D02*
X35170533Y-48809523D01*
X34884819Y-47380952D02*
X34884819Y-47571428D01*
X34884819Y-47571428D02*
X34932438Y-47666666D01*
X34932438Y-47666666D02*
X34980057Y-47714285D01*
X34980057Y-47714285D02*
X35122914Y-47809523D01*
X35122914Y-47809523D02*
X35313390Y-47857142D01*
X35313390Y-47857142D02*
X35694342Y-47857142D01*
X35694342Y-47857142D02*
X35789580Y-47809523D01*
X35789580Y-47809523D02*
X35837200Y-47761904D01*
X35837200Y-47761904D02*
X35884819Y-47666666D01*
X35884819Y-47666666D02*
X35884819Y-47476190D01*
X35884819Y-47476190D02*
X35837200Y-47380952D01*
X35837200Y-47380952D02*
X35789580Y-47333333D01*
X35789580Y-47333333D02*
X35694342Y-47285714D01*
X35694342Y-47285714D02*
X35456247Y-47285714D01*
X35456247Y-47285714D02*
X35361009Y-47333333D01*
X35361009Y-47333333D02*
X35313390Y-47380952D01*
X35313390Y-47380952D02*
X35265771Y-47476190D01*
X35265771Y-47476190D02*
X35265771Y-47666666D01*
X35265771Y-47666666D02*
X35313390Y-47761904D01*
X35313390Y-47761904D02*
X35361009Y-47809523D01*
X35361009Y-47809523D02*
X35456247Y-47857142D01*
X34884819Y-46666666D02*
X34884819Y-46571428D01*
X34884819Y-46571428D02*
X34932438Y-46476190D01*
X34932438Y-46476190D02*
X34980057Y-46428571D01*
X34980057Y-46428571D02*
X35075295Y-46380952D01*
X35075295Y-46380952D02*
X35265771Y-46333333D01*
X35265771Y-46333333D02*
X35503866Y-46333333D01*
X35503866Y-46333333D02*
X35694342Y-46380952D01*
X35694342Y-46380952D02*
X35789580Y-46428571D01*
X35789580Y-46428571D02*
X35837200Y-46476190D01*
X35837200Y-46476190D02*
X35884819Y-46571428D01*
X35884819Y-46571428D02*
X35884819Y-46666666D01*
X35884819Y-46666666D02*
X35837200Y-46761904D01*
X35837200Y-46761904D02*
X35789580Y-46809523D01*
X35789580Y-46809523D02*
X35694342Y-46857142D01*
X35694342Y-46857142D02*
X35503866Y-46904761D01*
X35503866Y-46904761D02*
X35265771Y-46904761D01*
X35265771Y-46904761D02*
X35075295Y-46857142D01*
X35075295Y-46857142D02*
X34980057Y-46809523D01*
X34980057Y-46809523D02*
X34932438Y-46761904D01*
X34932438Y-46761904D02*
X34884819Y-46666666D01*
X35313390Y-45761904D02*
X35265771Y-45857142D01*
X35265771Y-45857142D02*
X35218152Y-45904761D01*
X35218152Y-45904761D02*
X35122914Y-45952380D01*
X35122914Y-45952380D02*
X35075295Y-45952380D01*
X35075295Y-45952380D02*
X34980057Y-45904761D01*
X34980057Y-45904761D02*
X34932438Y-45857142D01*
X34932438Y-45857142D02*
X34884819Y-45761904D01*
X34884819Y-45761904D02*
X34884819Y-45571428D01*
X34884819Y-45571428D02*
X34932438Y-45476190D01*
X34932438Y-45476190D02*
X34980057Y-45428571D01*
X34980057Y-45428571D02*
X35075295Y-45380952D01*
X35075295Y-45380952D02*
X35122914Y-45380952D01*
X35122914Y-45380952D02*
X35218152Y-45428571D01*
X35218152Y-45428571D02*
X35265771Y-45476190D01*
X35265771Y-45476190D02*
X35313390Y-45571428D01*
X35313390Y-45571428D02*
X35313390Y-45761904D01*
X35313390Y-45761904D02*
X35361009Y-45857142D01*
X35361009Y-45857142D02*
X35408628Y-45904761D01*
X35408628Y-45904761D02*
X35503866Y-45952380D01*
X35503866Y-45952380D02*
X35694342Y-45952380D01*
X35694342Y-45952380D02*
X35789580Y-45904761D01*
X35789580Y-45904761D02*
X35837200Y-45857142D01*
X35837200Y-45857142D02*
X35884819Y-45761904D01*
X35884819Y-45761904D02*
X35884819Y-45571428D01*
X35884819Y-45571428D02*
X35837200Y-45476190D01*
X35837200Y-45476190D02*
X35789580Y-45428571D01*
X35789580Y-45428571D02*
X35694342Y-45380952D01*
X35694342Y-45380952D02*
X35503866Y-45380952D01*
X35503866Y-45380952D02*
X35408628Y-45428571D01*
X35408628Y-45428571D02*
X35361009Y-45476190D01*
X35361009Y-45476190D02*
X35313390Y-45571428D01*
X35884819Y-44952380D02*
X34884819Y-44952380D01*
X34884819Y-44952380D02*
X35599104Y-44619047D01*
X35599104Y-44619047D02*
X34884819Y-44285714D01*
X34884819Y-44285714D02*
X35884819Y-44285714D01*
X35837200Y-43428571D02*
X35884819Y-43523809D01*
X35884819Y-43523809D02*
X35884819Y-43714285D01*
X35884819Y-43714285D02*
X35837200Y-43809523D01*
X35837200Y-43809523D02*
X35741961Y-43857142D01*
X35741961Y-43857142D02*
X35361009Y-43857142D01*
X35361009Y-43857142D02*
X35265771Y-43809523D01*
X35265771Y-43809523D02*
X35218152Y-43714285D01*
X35218152Y-43714285D02*
X35218152Y-43523809D01*
X35218152Y-43523809D02*
X35265771Y-43428571D01*
X35265771Y-43428571D02*
X35361009Y-43380952D01*
X35361009Y-43380952D02*
X35456247Y-43380952D01*
X35456247Y-43380952D02*
X35551485Y-43857142D01*
X35218152Y-43095237D02*
X35218152Y-42714285D01*
X34884819Y-42952380D02*
X35741961Y-42952380D01*
X35741961Y-42952380D02*
X35837200Y-42904761D01*
X35837200Y-42904761D02*
X35884819Y-42809523D01*
X35884819Y-42809523D02*
X35884819Y-42714285D01*
X35884819Y-42380951D02*
X35218152Y-42380951D01*
X35408628Y-42380951D02*
X35313390Y-42333332D01*
X35313390Y-42333332D02*
X35265771Y-42285713D01*
X35265771Y-42285713D02*
X35218152Y-42190475D01*
X35218152Y-42190475D02*
X35218152Y-42095237D01*
X35884819Y-41761903D02*
X35218152Y-41761903D01*
X34884819Y-41761903D02*
X34932438Y-41809522D01*
X34932438Y-41809522D02*
X34980057Y-41761903D01*
X34980057Y-41761903D02*
X34932438Y-41714284D01*
X34932438Y-41714284D02*
X34884819Y-41761903D01*
X34884819Y-41761903D02*
X34980057Y-41761903D01*
X35837200Y-40857142D02*
X35884819Y-40952380D01*
X35884819Y-40952380D02*
X35884819Y-41142856D01*
X35884819Y-41142856D02*
X35837200Y-41238094D01*
X35837200Y-41238094D02*
X35789580Y-41285713D01*
X35789580Y-41285713D02*
X35694342Y-41333332D01*
X35694342Y-41333332D02*
X35408628Y-41333332D01*
X35408628Y-41333332D02*
X35313390Y-41285713D01*
X35313390Y-41285713D02*
X35265771Y-41238094D01*
X35265771Y-41238094D02*
X35218152Y-41142856D01*
X35218152Y-41142856D02*
X35218152Y-40952380D01*
X35218152Y-40952380D02*
X35265771Y-40857142D01*
D11*
X34181927Y-48066666D02*
X33991451Y-48199999D01*
X34181927Y-48295237D02*
X33781927Y-48295237D01*
X33781927Y-48295237D02*
X33781927Y-48142856D01*
X33781927Y-48142856D02*
X33800975Y-48104761D01*
X33800975Y-48104761D02*
X33820022Y-48085714D01*
X33820022Y-48085714D02*
X33858118Y-48066666D01*
X33858118Y-48066666D02*
X33915260Y-48066666D01*
X33915260Y-48066666D02*
X33953356Y-48085714D01*
X33953356Y-48085714D02*
X33972403Y-48104761D01*
X33972403Y-48104761D02*
X33991451Y-48142856D01*
X33991451Y-48142856D02*
X33991451Y-48295237D01*
X33915260Y-47723809D02*
X34181927Y-47723809D01*
X33762880Y-47819047D02*
X34048594Y-47914285D01*
X34048594Y-47914285D02*
X34048594Y-47666666D01*
D10*
X67238095Y-49307200D02*
X67380952Y-49354819D01*
X67380952Y-49354819D02*
X67619047Y-49354819D01*
X67619047Y-49354819D02*
X67714285Y-49307200D01*
X67714285Y-49307200D02*
X67761904Y-49259580D01*
X67761904Y-49259580D02*
X67809523Y-49164342D01*
X67809523Y-49164342D02*
X67809523Y-49069104D01*
X67809523Y-49069104D02*
X67761904Y-48973866D01*
X67761904Y-48973866D02*
X67714285Y-48926247D01*
X67714285Y-48926247D02*
X67619047Y-48878628D01*
X67619047Y-48878628D02*
X67428571Y-48831009D01*
X67428571Y-48831009D02*
X67333333Y-48783390D01*
X67333333Y-48783390D02*
X67285714Y-48735771D01*
X67285714Y-48735771D02*
X67238095Y-48640533D01*
X67238095Y-48640533D02*
X67238095Y-48545295D01*
X67238095Y-48545295D02*
X67285714Y-48450057D01*
X67285714Y-48450057D02*
X67333333Y-48402438D01*
X67333333Y-48402438D02*
X67428571Y-48354819D01*
X67428571Y-48354819D02*
X67666666Y-48354819D01*
X67666666Y-48354819D02*
X67809523Y-48402438D01*
X68428571Y-48354819D02*
X68619047Y-48354819D01*
X68619047Y-48354819D02*
X68714285Y-48402438D01*
X68714285Y-48402438D02*
X68809523Y-48497676D01*
X68809523Y-48497676D02*
X68857142Y-48688152D01*
X68857142Y-48688152D02*
X68857142Y-49021485D01*
X68857142Y-49021485D02*
X68809523Y-49211961D01*
X68809523Y-49211961D02*
X68714285Y-49307200D01*
X68714285Y-49307200D02*
X68619047Y-49354819D01*
X68619047Y-49354819D02*
X68428571Y-49354819D01*
X68428571Y-49354819D02*
X68333333Y-49307200D01*
X68333333Y-49307200D02*
X68238095Y-49211961D01*
X68238095Y-49211961D02*
X68190476Y-49021485D01*
X68190476Y-49021485D02*
X68190476Y-48688152D01*
X68190476Y-48688152D02*
X68238095Y-48497676D01*
X68238095Y-48497676D02*
X68333333Y-48402438D01*
X68333333Y-48402438D02*
X68428571Y-48354819D01*
X69142857Y-48354819D02*
X69714285Y-48354819D01*
X69428571Y-49354819D02*
X69428571Y-48354819D01*
X70047619Y-48973866D02*
X70809524Y-48973866D01*
X71238095Y-48450057D02*
X71285714Y-48402438D01*
X71285714Y-48402438D02*
X71380952Y-48354819D01*
X71380952Y-48354819D02*
X71619047Y-48354819D01*
X71619047Y-48354819D02*
X71714285Y-48402438D01*
X71714285Y-48402438D02*
X71761904Y-48450057D01*
X71761904Y-48450057D02*
X71809523Y-48545295D01*
X71809523Y-48545295D02*
X71809523Y-48640533D01*
X71809523Y-48640533D02*
X71761904Y-48783390D01*
X71761904Y-48783390D02*
X71190476Y-49354819D01*
X71190476Y-49354819D02*
X71809523Y-49354819D01*
X72142857Y-48354819D02*
X72761904Y-48354819D01*
X72761904Y-48354819D02*
X72428571Y-48735771D01*
X72428571Y-48735771D02*
X72571428Y-48735771D01*
X72571428Y-48735771D02*
X72666666Y-48783390D01*
X72666666Y-48783390D02*
X72714285Y-48831009D01*
X72714285Y-48831009D02*
X72761904Y-48926247D01*
X72761904Y-48926247D02*
X72761904Y-49164342D01*
X72761904Y-49164342D02*
X72714285Y-49259580D01*
X72714285Y-49259580D02*
X72666666Y-49307200D01*
X72666666Y-49307200D02*
X72571428Y-49354819D01*
X72571428Y-49354819D02*
X72285714Y-49354819D01*
X72285714Y-49354819D02*
X72190476Y-49307200D01*
X72190476Y-49307200D02*
X72142857Y-49259580D01*
D14*
X70395937Y-46568571D02*
X70361651Y-46637142D01*
X70361651Y-46637142D02*
X70293080Y-46705714D01*
X70293080Y-46705714D02*
X70190222Y-46808571D01*
X70190222Y-46808571D02*
X70155937Y-46877142D01*
X70155937Y-46877142D02*
X70155937Y-46945714D01*
X70327365Y-46911428D02*
X70293080Y-46980000D01*
X70293080Y-46980000D02*
X70224508Y-47048571D01*
X70224508Y-47048571D02*
X70087365Y-47082857D01*
X70087365Y-47082857D02*
X69847365Y-47082857D01*
X69847365Y-47082857D02*
X69710222Y-47048571D01*
X69710222Y-47048571D02*
X69641651Y-46980000D01*
X69641651Y-46980000D02*
X69607365Y-46911428D01*
X69607365Y-46911428D02*
X69607365Y-46774285D01*
X69607365Y-46774285D02*
X69641651Y-46705714D01*
X69641651Y-46705714D02*
X69710222Y-46637142D01*
X69710222Y-46637142D02*
X69847365Y-46602857D01*
X69847365Y-46602857D02*
X70087365Y-46602857D01*
X70087365Y-46602857D02*
X70224508Y-46637142D01*
X70224508Y-46637142D02*
X70293080Y-46705714D01*
X70293080Y-46705714D02*
X70327365Y-46774285D01*
X70327365Y-46774285D02*
X70327365Y-46911428D01*
X70327365Y-45917142D02*
X70327365Y-46328571D01*
X70327365Y-46122856D02*
X69607365Y-46122856D01*
X69607365Y-46122856D02*
X69710222Y-46191428D01*
X69710222Y-46191428D02*
X69778794Y-46259999D01*
X69778794Y-46259999D02*
X69813080Y-46328571D01*
%TO.C,R1*%
D15*
X66587500Y-44200000D02*
X67412500Y-44200000D01*
X67412500Y-45800000D01*
X66587500Y-45800000D01*
X66587500Y-44200000D01*
%TO.C,C3*%
X73100000Y-52700000D02*
X73900000Y-52700000D01*
X73900000Y-54300000D01*
X73100000Y-54300000D01*
X73100000Y-52700000D01*
%TO.C,R5*%
X33587500Y-50200000D02*
X34412500Y-50200000D01*
X34412500Y-51800000D01*
X33587500Y-51800000D01*
X33587500Y-50200000D01*
%TO.C,C1*%
X37100000Y-48700000D02*
X37900000Y-48700000D01*
X37900000Y-50300000D01*
X37100000Y-50300000D01*
X37100000Y-48700000D01*
%TO.C,C4*%
X66000000Y-37375000D02*
X68000000Y-37375000D01*
X68000000Y-38625000D01*
X66000000Y-38625000D01*
X66000000Y-37375000D01*
%TO.C,C2*%
X68323241Y-52252500D02*
X69123241Y-52252500D01*
X68723241Y-51852500D02*
X68723241Y-52652500D01*
X75750000Y-54000000D02*
G75*
G02*
X67750000Y-54000000I-4000000J0D01*
G01*
X67750000Y-54000000D02*
G75*
G02*
X75750000Y-54000000I4000000J0D01*
G01*
%TO.C,R2*%
X66587500Y-46700000D02*
X67412500Y-46700000D01*
X67412500Y-48300000D01*
X66587500Y-48300000D01*
X66587500Y-46700000D01*
%TO.C,SW1*%
X69920000Y-39640000D02*
X70920000Y-38640000D01*
X69920000Y-43360000D02*
X69920000Y-39640000D01*
X70920000Y-38640000D02*
X79700000Y-38640000D01*
X74133333Y-40365000D02*
X74133333Y-41635000D01*
X79700000Y-38640000D02*
X79700000Y-43360000D01*
X79700000Y-43360000D02*
X69920000Y-43360000D01*
X72780000Y-40365000D02*
X74133333Y-40365000D01*
X74133333Y-41635000D01*
X72780000Y-41635000D01*
X72780000Y-40365000D01*
G36*
X72780000Y-40365000D02*
G01*
X74133333Y-40365000D01*
X74133333Y-41635000D01*
X72780000Y-41635000D01*
X72780000Y-40365000D01*
G37*
X72780000Y-40365000D02*
X76840000Y-40365000D01*
X76840000Y-41635000D01*
X72780000Y-41635000D01*
X72780000Y-40365000D01*
%TO.C,J2*%
X51230000Y-60865000D02*
X51865000Y-60230000D01*
X51230000Y-67850000D02*
X51230000Y-60865000D01*
X51865000Y-60230000D02*
X53770000Y-60230000D01*
X53770000Y-60230000D02*
X53770000Y-67850000D01*
X53770000Y-67850000D02*
X51230000Y-67850000D01*
%TO.C,Q2*%
X73175000Y-45050000D02*
X74150000Y-45050000D01*
X74150000Y-47950000D01*
X72850000Y-47950000D01*
X72850000Y-45375000D01*
X73175000Y-45050000D01*
%TO.C,J1*%
X69730000Y-35365000D02*
X70365000Y-34730000D01*
X69730000Y-39810000D02*
X69730000Y-35365000D01*
X70365000Y-34730000D02*
X72270000Y-34730000D01*
X72270000Y-34730000D02*
X72270000Y-39810000D01*
X72270000Y-39810000D02*
X69730000Y-39810000D01*
%TO.C,R3*%
X72700000Y-49587500D02*
X74300000Y-49587500D01*
X74300000Y-50412500D01*
X72700000Y-50412500D01*
X72700000Y-49587500D01*
%TO.C,R6*%
X35587500Y-38200000D02*
X36412500Y-38200000D01*
X36412500Y-39800000D01*
X35587500Y-39800000D01*
X35587500Y-38200000D01*
%TO.C,U1*%
X51230000Y-40865000D02*
X51865000Y-40230000D01*
X51230000Y-58010000D02*
X51230000Y-40865000D01*
X51865000Y-40230000D02*
X53770000Y-40230000D01*
X53770000Y-40230000D02*
X53770000Y-58010000D01*
X53770000Y-58010000D02*
X51230000Y-58010000D01*
%TO.C,R4*%
X33587500Y-47200000D02*
X34412500Y-47200000D01*
X34412500Y-48800000D01*
X33587500Y-48800000D01*
X33587500Y-47200000D01*
%TO.C,Q1*%
X69675000Y-45050000D02*
X70650000Y-45050000D01*
X70650000Y-47950000D01*
X69350000Y-47950000D01*
X69350000Y-45375000D01*
X69675000Y-45050000D01*
%TD*%
M02*
