%TF.GenerationSoftware,KiCad,Pcbnew,10.0.4*%
%TF.CreationDate,2026-06-22T12:49:35-04:00*%
%TF.ProjectId,smart_vent_v1_no_led,736d6172-745f-4766-956e-745f76315f6e,rev?*%
%TF.SameCoordinates,Original*%
%TF.FileFunction,Legend,Top*%
%TF.FilePolarity,Positive*%
%FSLAX46Y46*%
G04 Gerber Fmt 4.6, Leading zero omitted, Abs format (unit mm)*
G04 Created by KiCad (PCBNEW 10.0.4) date 2026-06-22 12:49:35*
%MOMM*%
%LPD*%
G01*
G04 APERTURE LIST*
%ADD10C,0.150000*%
%ADD11C,0.120000*%
G04 APERTURE END LIST*
D10*
X69833333Y-49564819D02*
X69500000Y-49088628D01*
X69261905Y-49564819D02*
X69261905Y-48564819D01*
X69261905Y-48564819D02*
X69642857Y-48564819D01*
X69642857Y-48564819D02*
X69738095Y-48612438D01*
X69738095Y-48612438D02*
X69785714Y-48660057D01*
X69785714Y-48660057D02*
X69833333Y-48755295D01*
X69833333Y-48755295D02*
X69833333Y-48898152D01*
X69833333Y-48898152D02*
X69785714Y-48993390D01*
X69785714Y-48993390D02*
X69738095Y-49041009D01*
X69738095Y-49041009D02*
X69642857Y-49088628D01*
X69642857Y-49088628D02*
X69261905Y-49088628D01*
X70166667Y-48564819D02*
X70785714Y-48564819D01*
X70785714Y-48564819D02*
X70452381Y-48945771D01*
X70452381Y-48945771D02*
X70595238Y-48945771D01*
X70595238Y-48945771D02*
X70690476Y-48993390D01*
X70690476Y-48993390D02*
X70738095Y-49041009D01*
X70738095Y-49041009D02*
X70785714Y-49136247D01*
X70785714Y-49136247D02*
X70785714Y-49374342D01*
X70785714Y-49374342D02*
X70738095Y-49469580D01*
X70738095Y-49469580D02*
X70690476Y-49517200D01*
X70690476Y-49517200D02*
X70595238Y-49564819D01*
X70595238Y-49564819D02*
X70309524Y-49564819D01*
X70309524Y-49564819D02*
X70214286Y-49517200D01*
X70214286Y-49517200D02*
X70166667Y-49469580D01*
X62503333Y-34679580D02*
X62455714Y-34727200D01*
X62455714Y-34727200D02*
X62312857Y-34774819D01*
X62312857Y-34774819D02*
X62217619Y-34774819D01*
X62217619Y-34774819D02*
X62074762Y-34727200D01*
X62074762Y-34727200D02*
X61979524Y-34631961D01*
X61979524Y-34631961D02*
X61931905Y-34536723D01*
X61931905Y-34536723D02*
X61884286Y-34346247D01*
X61884286Y-34346247D02*
X61884286Y-34203390D01*
X61884286Y-34203390D02*
X61931905Y-34012914D01*
X61931905Y-34012914D02*
X61979524Y-33917676D01*
X61979524Y-33917676D02*
X62074762Y-33822438D01*
X62074762Y-33822438D02*
X62217619Y-33774819D01*
X62217619Y-33774819D02*
X62312857Y-33774819D01*
X62312857Y-33774819D02*
X62455714Y-33822438D01*
X62455714Y-33822438D02*
X62503333Y-33870057D01*
X63360476Y-34108152D02*
X63360476Y-34774819D01*
X63122381Y-33727200D02*
X62884286Y-34441485D01*
X62884286Y-34441485D02*
X63503333Y-34441485D01*
X57666666Y-54574819D02*
X57666666Y-55289104D01*
X57666666Y-55289104D02*
X57619047Y-55431961D01*
X57619047Y-55431961D02*
X57523809Y-55527200D01*
X57523809Y-55527200D02*
X57380952Y-55574819D01*
X57380952Y-55574819D02*
X57285714Y-55574819D01*
X58095238Y-54670057D02*
X58142857Y-54622438D01*
X58142857Y-54622438D02*
X58238095Y-54574819D01*
X58238095Y-54574819D02*
X58476190Y-54574819D01*
X58476190Y-54574819D02*
X58571428Y-54622438D01*
X58571428Y-54622438D02*
X58619047Y-54670057D01*
X58619047Y-54670057D02*
X58666666Y-54765295D01*
X58666666Y-54765295D02*
X58666666Y-54860533D01*
X58666666Y-54860533D02*
X58619047Y-55003390D01*
X58619047Y-55003390D02*
X58047619Y-55574819D01*
X58047619Y-55574819D02*
X58666666Y-55574819D01*
X63844818Y-46096666D02*
X63368627Y-46429999D01*
X63844818Y-46668094D02*
X62844818Y-46668094D01*
X62844818Y-46668094D02*
X62844818Y-46287142D01*
X62844818Y-46287142D02*
X62892437Y-46191904D01*
X62892437Y-46191904D02*
X62940056Y-46144285D01*
X62940056Y-46144285D02*
X63035294Y-46096666D01*
X63035294Y-46096666D02*
X63178151Y-46096666D01*
X63178151Y-46096666D02*
X63273389Y-46144285D01*
X63273389Y-46144285D02*
X63321008Y-46191904D01*
X63321008Y-46191904D02*
X63368627Y-46287142D01*
X63368627Y-46287142D02*
X63368627Y-46668094D01*
X63844818Y-45144285D02*
X63844818Y-45715713D01*
X63844818Y-45429999D02*
X62844818Y-45429999D01*
X62844818Y-45429999D02*
X62987675Y-45525237D01*
X62987675Y-45525237D02*
X63082913Y-45620475D01*
X63082913Y-45620475D02*
X63130532Y-45715713D01*
X51738095Y-38574819D02*
X51738095Y-39384342D01*
X51738095Y-39384342D02*
X51785714Y-39479580D01*
X51785714Y-39479580D02*
X51833333Y-39527200D01*
X51833333Y-39527200D02*
X51928571Y-39574819D01*
X51928571Y-39574819D02*
X52119047Y-39574819D01*
X52119047Y-39574819D02*
X52214285Y-39527200D01*
X52214285Y-39527200D02*
X52261904Y-39479580D01*
X52261904Y-39479580D02*
X52309523Y-39384342D01*
X52309523Y-39384342D02*
X52309523Y-38574819D01*
X53309523Y-39574819D02*
X52738095Y-39574819D01*
X53023809Y-39574819D02*
X53023809Y-38574819D01*
X53023809Y-38574819D02*
X52928571Y-38717676D01*
X52928571Y-38717676D02*
X52833333Y-38812914D01*
X52833333Y-38812914D02*
X52738095Y-38860533D01*
X36429580Y-49666666D02*
X36477200Y-49714285D01*
X36477200Y-49714285D02*
X36524819Y-49857142D01*
X36524819Y-49857142D02*
X36524819Y-49952380D01*
X36524819Y-49952380D02*
X36477200Y-50095237D01*
X36477200Y-50095237D02*
X36381961Y-50190475D01*
X36381961Y-50190475D02*
X36286723Y-50238094D01*
X36286723Y-50238094D02*
X36096247Y-50285713D01*
X36096247Y-50285713D02*
X35953390Y-50285713D01*
X35953390Y-50285713D02*
X35762914Y-50238094D01*
X35762914Y-50238094D02*
X35667676Y-50190475D01*
X35667676Y-50190475D02*
X35572438Y-50095237D01*
X35572438Y-50095237D02*
X35524819Y-49952380D01*
X35524819Y-49952380D02*
X35524819Y-49857142D01*
X35524819Y-49857142D02*
X35572438Y-49714285D01*
X35572438Y-49714285D02*
X35620057Y-49666666D01*
X36524819Y-48714285D02*
X36524819Y-49285713D01*
X36524819Y-48999999D02*
X35524819Y-48999999D01*
X35524819Y-48999999D02*
X35667676Y-49095237D01*
X35667676Y-49095237D02*
X35762914Y-49190475D01*
X35762914Y-49190475D02*
X35810533Y-49285713D01*
X63844818Y-49436665D02*
X63368627Y-49769998D01*
X63844818Y-50008093D02*
X62844818Y-50008093D01*
X62844818Y-50008093D02*
X62844818Y-49627141D01*
X62844818Y-49627141D02*
X62892437Y-49531903D01*
X62892437Y-49531903D02*
X62940056Y-49484284D01*
X62940056Y-49484284D02*
X63035294Y-49436665D01*
X63035294Y-49436665D02*
X63178151Y-49436665D01*
X63178151Y-49436665D02*
X63273389Y-49484284D01*
X63273389Y-49484284D02*
X63321008Y-49531903D01*
X63321008Y-49531903D02*
X63368627Y-49627141D01*
X63368627Y-49627141D02*
X63368627Y-50008093D01*
X62940056Y-49055712D02*
X62892437Y-49008093D01*
X62892437Y-49008093D02*
X62844818Y-48912855D01*
X62844818Y-48912855D02*
X62844818Y-48674760D01*
X62844818Y-48674760D02*
X62892437Y-48579522D01*
X62892437Y-48579522D02*
X62940056Y-48531903D01*
X62940056Y-48531903D02*
X63035294Y-48484284D01*
X63035294Y-48484284D02*
X63130532Y-48484284D01*
X63130532Y-48484284D02*
X63273389Y-48531903D01*
X63273389Y-48531903D02*
X63844818Y-49103331D01*
X63844818Y-49103331D02*
X63844818Y-48484284D01*
X67724761Y-45900057D02*
X67629523Y-45852438D01*
X67629523Y-45852438D02*
X67534285Y-45757200D01*
X67534285Y-45757200D02*
X67391428Y-45614342D01*
X67391428Y-45614342D02*
X67296190Y-45566723D01*
X67296190Y-45566723D02*
X67200952Y-45566723D01*
X67248571Y-45804819D02*
X67153333Y-45757200D01*
X67153333Y-45757200D02*
X67058095Y-45661961D01*
X67058095Y-45661961D02*
X67010476Y-45471485D01*
X67010476Y-45471485D02*
X67010476Y-45138152D01*
X67010476Y-45138152D02*
X67058095Y-44947676D01*
X67058095Y-44947676D02*
X67153333Y-44852438D01*
X67153333Y-44852438D02*
X67248571Y-44804819D01*
X67248571Y-44804819D02*
X67439047Y-44804819D01*
X67439047Y-44804819D02*
X67534285Y-44852438D01*
X67534285Y-44852438D02*
X67629523Y-44947676D01*
X67629523Y-44947676D02*
X67677142Y-45138152D01*
X67677142Y-45138152D02*
X67677142Y-45471485D01*
X67677142Y-45471485D02*
X67629523Y-45661961D01*
X67629523Y-45661961D02*
X67534285Y-45757200D01*
X67534285Y-45757200D02*
X67439047Y-45804819D01*
X67439047Y-45804819D02*
X67248571Y-45804819D01*
X68629523Y-45804819D02*
X68058095Y-45804819D01*
X68343809Y-45804819D02*
X68343809Y-44804819D01*
X68343809Y-44804819D02*
X68248571Y-44947676D01*
X68248571Y-44947676D02*
X68153333Y-45042914D01*
X68153333Y-45042914D02*
X68058095Y-45090533D01*
X71924761Y-45900057D02*
X71829523Y-45852438D01*
X71829523Y-45852438D02*
X71734285Y-45757200D01*
X71734285Y-45757200D02*
X71591428Y-45614342D01*
X71591428Y-45614342D02*
X71496190Y-45566723D01*
X71496190Y-45566723D02*
X71400952Y-45566723D01*
X71448571Y-45804819D02*
X71353333Y-45757200D01*
X71353333Y-45757200D02*
X71258095Y-45661961D01*
X71258095Y-45661961D02*
X71210476Y-45471485D01*
X71210476Y-45471485D02*
X71210476Y-45138152D01*
X71210476Y-45138152D02*
X71258095Y-44947676D01*
X71258095Y-44947676D02*
X71353333Y-44852438D01*
X71353333Y-44852438D02*
X71448571Y-44804819D01*
X71448571Y-44804819D02*
X71639047Y-44804819D01*
X71639047Y-44804819D02*
X71734285Y-44852438D01*
X71734285Y-44852438D02*
X71829523Y-44947676D01*
X71829523Y-44947676D02*
X71877142Y-45138152D01*
X71877142Y-45138152D02*
X71877142Y-45471485D01*
X71877142Y-45471485D02*
X71829523Y-45661961D01*
X71829523Y-45661961D02*
X71734285Y-45757200D01*
X71734285Y-45757200D02*
X71639047Y-45804819D01*
X71639047Y-45804819D02*
X71448571Y-45804819D01*
X72258095Y-44900057D02*
X72305714Y-44852438D01*
X72305714Y-44852438D02*
X72400952Y-44804819D01*
X72400952Y-44804819D02*
X72639047Y-44804819D01*
X72639047Y-44804819D02*
X72734285Y-44852438D01*
X72734285Y-44852438D02*
X72781904Y-44900057D01*
X72781904Y-44900057D02*
X72829523Y-44995295D01*
X72829523Y-44995295D02*
X72829523Y-45090533D01*
X72829523Y-45090533D02*
X72781904Y-45233390D01*
X72781904Y-45233390D02*
X72210476Y-45804819D01*
X72210476Y-45804819D02*
X72829523Y-45804819D01*
X66156666Y-32074819D02*
X66156666Y-32789104D01*
X66156666Y-32789104D02*
X66109047Y-32931961D01*
X66109047Y-32931961D02*
X66013809Y-33027200D01*
X66013809Y-33027200D02*
X65870952Y-33074819D01*
X65870952Y-33074819D02*
X65775714Y-33074819D01*
X67156666Y-33074819D02*
X66585238Y-33074819D01*
X66870952Y-33074819D02*
X66870952Y-32074819D01*
X66870952Y-32074819D02*
X66775714Y-32217676D01*
X66775714Y-32217676D02*
X66680476Y-32312914D01*
X66680476Y-32312914D02*
X66585238Y-32360533D01*
X33024819Y-51166666D02*
X32548628Y-51499999D01*
X33024819Y-51738094D02*
X32024819Y-51738094D01*
X32024819Y-51738094D02*
X32024819Y-51357142D01*
X32024819Y-51357142D02*
X32072438Y-51261904D01*
X32072438Y-51261904D02*
X32120057Y-51214285D01*
X32120057Y-51214285D02*
X32215295Y-51166666D01*
X32215295Y-51166666D02*
X32358152Y-51166666D01*
X32358152Y-51166666D02*
X32453390Y-51214285D01*
X32453390Y-51214285D02*
X32501009Y-51261904D01*
X32501009Y-51261904D02*
X32548628Y-51357142D01*
X32548628Y-51357142D02*
X32548628Y-51738094D01*
X32024819Y-50261904D02*
X32024819Y-50738094D01*
X32024819Y-50738094D02*
X32501009Y-50785713D01*
X32501009Y-50785713D02*
X32453390Y-50738094D01*
X32453390Y-50738094D02*
X32405771Y-50642856D01*
X32405771Y-50642856D02*
X32405771Y-50404761D01*
X32405771Y-50404761D02*
X32453390Y-50309523D01*
X32453390Y-50309523D02*
X32501009Y-50261904D01*
X32501009Y-50261904D02*
X32596247Y-50214285D01*
X32596247Y-50214285D02*
X32834342Y-50214285D01*
X32834342Y-50214285D02*
X32929580Y-50261904D01*
X32929580Y-50261904D02*
X32977200Y-50309523D01*
X32977200Y-50309523D02*
X33024819Y-50404761D01*
X33024819Y-50404761D02*
X33024819Y-50642856D01*
X33024819Y-50642856D02*
X32977200Y-50738094D01*
X32977200Y-50738094D02*
X32929580Y-50785713D01*
X68267200Y-40523332D02*
X68314819Y-40380475D01*
X68314819Y-40380475D02*
X68314819Y-40142380D01*
X68314819Y-40142380D02*
X68267200Y-40047142D01*
X68267200Y-40047142D02*
X68219580Y-39999523D01*
X68219580Y-39999523D02*
X68124342Y-39951904D01*
X68124342Y-39951904D02*
X68029104Y-39951904D01*
X68029104Y-39951904D02*
X67933866Y-39999523D01*
X67933866Y-39999523D02*
X67886247Y-40047142D01*
X67886247Y-40047142D02*
X67838628Y-40142380D01*
X67838628Y-40142380D02*
X67791009Y-40332856D01*
X67791009Y-40332856D02*
X67743390Y-40428094D01*
X67743390Y-40428094D02*
X67695771Y-40475713D01*
X67695771Y-40475713D02*
X67600533Y-40523332D01*
X67600533Y-40523332D02*
X67505295Y-40523332D01*
X67505295Y-40523332D02*
X67410057Y-40475713D01*
X67410057Y-40475713D02*
X67362438Y-40428094D01*
X67362438Y-40428094D02*
X67314819Y-40332856D01*
X67314819Y-40332856D02*
X67314819Y-40094761D01*
X67314819Y-40094761D02*
X67362438Y-39951904D01*
X67314819Y-39618570D02*
X68314819Y-39380475D01*
X68314819Y-39380475D02*
X67600533Y-39189999D01*
X67600533Y-39189999D02*
X68314819Y-38999523D01*
X68314819Y-38999523D02*
X67314819Y-38761428D01*
X68314819Y-37856666D02*
X68314819Y-38428094D01*
X68314819Y-38142380D02*
X67314819Y-38142380D01*
X67314819Y-38142380D02*
X67457676Y-38237618D01*
X67457676Y-38237618D02*
X67552914Y-38332856D01*
X67552914Y-38332856D02*
X67600533Y-38428094D01*
X66303333Y-51009580D02*
X66255714Y-51057200D01*
X66255714Y-51057200D02*
X66112857Y-51104819D01*
X66112857Y-51104819D02*
X66017619Y-51104819D01*
X66017619Y-51104819D02*
X65874762Y-51057200D01*
X65874762Y-51057200D02*
X65779524Y-50961961D01*
X65779524Y-50961961D02*
X65731905Y-50866723D01*
X65731905Y-50866723D02*
X65684286Y-50676247D01*
X65684286Y-50676247D02*
X65684286Y-50533390D01*
X65684286Y-50533390D02*
X65731905Y-50342914D01*
X65731905Y-50342914D02*
X65779524Y-50247676D01*
X65779524Y-50247676D02*
X65874762Y-50152438D01*
X65874762Y-50152438D02*
X66017619Y-50104819D01*
X66017619Y-50104819D02*
X66112857Y-50104819D01*
X66112857Y-50104819D02*
X66255714Y-50152438D01*
X66255714Y-50152438D02*
X66303333Y-50200057D01*
X66684286Y-50200057D02*
X66731905Y-50152438D01*
X66731905Y-50152438D02*
X66827143Y-50104819D01*
X66827143Y-50104819D02*
X67065238Y-50104819D01*
X67065238Y-50104819D02*
X67160476Y-50152438D01*
X67160476Y-50152438D02*
X67208095Y-50200057D01*
X67208095Y-50200057D02*
X67255714Y-50295295D01*
X67255714Y-50295295D02*
X67255714Y-50390533D01*
X67255714Y-50390533D02*
X67208095Y-50533390D01*
X67208095Y-50533390D02*
X66636667Y-51104819D01*
X66636667Y-51104819D02*
X67255714Y-51104819D01*
X33024819Y-48166666D02*
X32548628Y-48499999D01*
X33024819Y-48738094D02*
X32024819Y-48738094D01*
X32024819Y-48738094D02*
X32024819Y-48357142D01*
X32024819Y-48357142D02*
X32072438Y-48261904D01*
X32072438Y-48261904D02*
X32120057Y-48214285D01*
X32120057Y-48214285D02*
X32215295Y-48166666D01*
X32215295Y-48166666D02*
X32358152Y-48166666D01*
X32358152Y-48166666D02*
X32453390Y-48214285D01*
X32453390Y-48214285D02*
X32501009Y-48261904D01*
X32501009Y-48261904D02*
X32548628Y-48357142D01*
X32548628Y-48357142D02*
X32548628Y-48738094D01*
X32358152Y-47309523D02*
X33024819Y-47309523D01*
X31977200Y-47547618D02*
X32691485Y-47785713D01*
X32691485Y-47785713D02*
X32691485Y-47166666D01*
X35024819Y-39166666D02*
X34548628Y-39499999D01*
X35024819Y-39738094D02*
X34024819Y-39738094D01*
X34024819Y-39738094D02*
X34024819Y-39357142D01*
X34024819Y-39357142D02*
X34072438Y-39261904D01*
X34072438Y-39261904D02*
X34120057Y-39214285D01*
X34120057Y-39214285D02*
X34215295Y-39166666D01*
X34215295Y-39166666D02*
X34358152Y-39166666D01*
X34358152Y-39166666D02*
X34453390Y-39214285D01*
X34453390Y-39214285D02*
X34501009Y-39261904D01*
X34501009Y-39261904D02*
X34548628Y-39357142D01*
X34548628Y-39357142D02*
X34548628Y-39738094D01*
X34024819Y-38309523D02*
X34024819Y-38499999D01*
X34024819Y-38499999D02*
X34072438Y-38595237D01*
X34072438Y-38595237D02*
X34120057Y-38642856D01*
X34120057Y-38642856D02*
X34262914Y-38738094D01*
X34262914Y-38738094D02*
X34453390Y-38785713D01*
X34453390Y-38785713D02*
X34834342Y-38785713D01*
X34834342Y-38785713D02*
X34929580Y-38738094D01*
X34929580Y-38738094D02*
X34977200Y-38690475D01*
X34977200Y-38690475D02*
X35024819Y-38595237D01*
X35024819Y-38595237D02*
X35024819Y-38404761D01*
X35024819Y-38404761D02*
X34977200Y-38309523D01*
X34977200Y-38309523D02*
X34929580Y-38261904D01*
X34929580Y-38261904D02*
X34834342Y-38214285D01*
X34834342Y-38214285D02*
X34596247Y-38214285D01*
X34596247Y-38214285D02*
X34501009Y-38261904D01*
X34501009Y-38261904D02*
X34453390Y-38309523D01*
X34453390Y-38309523D02*
X34405771Y-38404761D01*
X34405771Y-38404761D02*
X34405771Y-38595237D01*
X34405771Y-38595237D02*
X34453390Y-38690475D01*
X34453390Y-38690475D02*
X34501009Y-38738094D01*
X34501009Y-38738094D02*
X34596247Y-38785713D01*
X72159579Y-54166666D02*
X72207199Y-54214285D01*
X72207199Y-54214285D02*
X72254818Y-54357142D01*
X72254818Y-54357142D02*
X72254818Y-54452380D01*
X72254818Y-54452380D02*
X72207199Y-54595237D01*
X72207199Y-54595237D02*
X72111960Y-54690475D01*
X72111960Y-54690475D02*
X72016722Y-54738094D01*
X72016722Y-54738094D02*
X71826246Y-54785713D01*
X71826246Y-54785713D02*
X71683389Y-54785713D01*
X71683389Y-54785713D02*
X71492913Y-54738094D01*
X71492913Y-54738094D02*
X71397675Y-54690475D01*
X71397675Y-54690475D02*
X71302437Y-54595237D01*
X71302437Y-54595237D02*
X71254818Y-54452380D01*
X71254818Y-54452380D02*
X71254818Y-54357142D01*
X71254818Y-54357142D02*
X71302437Y-54214285D01*
X71302437Y-54214285D02*
X71350056Y-54166666D01*
X71254818Y-53833332D02*
X71254818Y-53214285D01*
X71254818Y-53214285D02*
X71635770Y-53547618D01*
X71635770Y-53547618D02*
X71635770Y-53404761D01*
X71635770Y-53404761D02*
X71683389Y-53309523D01*
X71683389Y-53309523D02*
X71731008Y-53261904D01*
X71731008Y-53261904D02*
X71826246Y-53214285D01*
X71826246Y-53214285D02*
X72064341Y-53214285D01*
X72064341Y-53214285D02*
X72159579Y-53261904D01*
X72159579Y-53261904D02*
X72207199Y-53309523D01*
X72207199Y-53309523D02*
X72254818Y-53404761D01*
X72254818Y-53404761D02*
X72254818Y-53690475D01*
X72254818Y-53690475D02*
X72207199Y-53785713D01*
X72207199Y-53785713D02*
X72159579Y-53833332D01*
%TO.C,R3*%
D11*
X69762742Y-50017500D02*
X70237258Y-50017500D01*
X69762742Y-51062500D02*
X70237258Y-51062500D01*
%TO.C,C4*%
X62408748Y-35265000D02*
X62931252Y-35265000D01*
X62408748Y-36735000D02*
X62931252Y-36735000D01*
%TO.C,J2*%
X56620000Y-56120000D02*
X58000000Y-56120000D01*
X56620000Y-57500000D02*
X56620000Y-56120000D01*
X56620000Y-58770000D02*
X56620000Y-63960000D01*
X56620000Y-58770000D02*
X59380000Y-58770000D01*
X56620000Y-63960000D02*
X59380000Y-63960000D01*
X59380000Y-58770000D02*
X59380000Y-63960000D01*
%TO.C,R1*%
X64297499Y-46167258D02*
X64297499Y-45692742D01*
X65342499Y-46167258D02*
X65342499Y-45692742D01*
%TO.C,U1*%
X51120000Y-40120000D02*
X52500000Y-40120000D01*
X51120000Y-41500000D02*
X51120000Y-40120000D01*
X51120000Y-42770000D02*
X51120000Y-58120000D01*
X51120000Y-42770000D02*
X53880000Y-42770000D01*
X51120000Y-58120000D02*
X53880000Y-58120000D01*
X53880000Y-42770000D02*
X53880000Y-58120000D01*
%TO.C,C1*%
X36990000Y-49640580D02*
X36990000Y-49359420D01*
X38010000Y-49640580D02*
X38010000Y-49359420D01*
%TO.C,R2*%
X64297499Y-49507257D02*
X64297499Y-49032741D01*
X65342499Y-49507257D02*
X65342499Y-49032741D01*
%TO.C,Q1*%
X67060000Y-46190000D02*
X68580000Y-46190000D01*
X67060000Y-46240000D02*
X67060000Y-46190000D01*
X67060000Y-48140000D02*
X67060000Y-47360000D01*
X67060000Y-49310000D02*
X67060000Y-49260000D01*
X68580000Y-46190000D02*
X68580000Y-47190000D01*
X68580000Y-48310000D02*
X68580000Y-49310000D01*
X68580000Y-49310000D02*
X67060000Y-49310000D01*
X66520000Y-47370000D02*
X66760000Y-47700000D01*
X66280000Y-47700000D01*
X66520000Y-47370000D01*
G36*
X66760000Y-47700000D02*
G01*
X66280000Y-47700000D01*
X66520000Y-47370000D01*
X66760000Y-47700000D01*
G37*
%TO.C,Q2*%
X71260000Y-46190000D02*
X72780000Y-46190000D01*
X71260000Y-46240000D02*
X71260000Y-46190000D01*
X71260000Y-48140000D02*
X71260000Y-47360000D01*
X71260000Y-49310000D02*
X71260000Y-49260000D01*
X72780000Y-46190000D02*
X72780000Y-47190000D01*
X72780000Y-48310000D02*
X72780000Y-49310000D01*
X72780000Y-49310000D02*
X71260000Y-49310000D01*
X70720000Y-47370000D02*
X70960000Y-47700000D01*
X70480000Y-47700000D01*
X70720000Y-47370000D01*
G36*
X70960000Y-47700000D02*
G01*
X70480000Y-47700000D01*
X70720000Y-47370000D01*
X70960000Y-47700000D01*
G37*
%TO.C,J1*%
X65110000Y-33620000D02*
X66490000Y-33620000D01*
X65110000Y-35000000D02*
X65110000Y-33620000D01*
X65110000Y-36270000D02*
X65110000Y-38920000D01*
X65110000Y-36270000D02*
X67870000Y-36270000D01*
X65110000Y-38920000D02*
X67870000Y-38920000D01*
X67870000Y-36270000D02*
X67870000Y-38920000D01*
%TO.C,R5*%
X33477500Y-51237258D02*
X33477500Y-50762742D01*
X34522500Y-51237258D02*
X34522500Y-50762742D01*
%TO.C,SW1*%
X68620000Y-44380000D02*
X68620000Y-42997000D01*
X68620000Y-44380000D02*
X70003000Y-44380000D01*
X68860000Y-34240000D02*
X73700000Y-34240000D01*
X68860000Y-44140000D02*
X68860000Y-34240000D01*
X68860000Y-44140000D02*
X73700000Y-44140000D01*
X70645000Y-39866667D02*
X71915000Y-39866667D01*
X73700000Y-44140000D02*
X73700000Y-34240000D01*
X70645000Y-37160000D02*
X71915000Y-37160000D01*
X71915000Y-41220000D01*
X70645000Y-41220000D01*
X70645000Y-37160000D01*
X70645000Y-39866667D02*
X71915000Y-39866667D01*
X71915000Y-41220000D01*
X70645000Y-41220000D01*
X70645000Y-39866667D01*
G36*
X70645000Y-39866667D02*
G01*
X71915000Y-39866667D01*
X71915000Y-41220000D01*
X70645000Y-41220000D01*
X70645000Y-39866667D01*
G37*
%TO.C,C2*%
X62060302Y-53585000D02*
X62860302Y-53585000D01*
X62460302Y-53185000D02*
X62460302Y-53985000D01*
X66470000Y-51820000D02*
X66470000Y-59980000D01*
X66510000Y-51820000D02*
X66510000Y-59980000D01*
X66550000Y-51821000D02*
X66550000Y-59979000D01*
X66590000Y-51822000D02*
X66590000Y-59978000D01*
X66630000Y-51823000D02*
X66630000Y-59977000D01*
X66670000Y-51825000D02*
X66670000Y-59975000D01*
X66710000Y-51827000D02*
X66710000Y-59973000D01*
X66750000Y-51830000D02*
X66750000Y-59970000D01*
X66790000Y-51832000D02*
X66790000Y-59968000D01*
X66830000Y-51836000D02*
X66830000Y-59964000D01*
X66870000Y-51839000D02*
X66870000Y-59961000D01*
X66910000Y-51844000D02*
X66910000Y-59956000D01*
X66950000Y-51848000D02*
X66950000Y-59952000D01*
X66990000Y-51853000D02*
X66990000Y-59947000D01*
X67030000Y-51858000D02*
X67030000Y-59942000D01*
X67070000Y-51864000D02*
X67070000Y-59936000D01*
X67110000Y-51870000D02*
X67110000Y-59930000D01*
X67150000Y-51877000D02*
X67150000Y-59923000D01*
X67190000Y-51883000D02*
X67190000Y-54860000D01*
X67190000Y-56940000D02*
X67190000Y-59917000D01*
X67230000Y-51891000D02*
X67230000Y-54860000D01*
X67230000Y-56940000D02*
X67230000Y-59909000D01*
X67270000Y-51898000D02*
X67270000Y-54860000D01*
X67270000Y-56940000D02*
X67270000Y-59902000D01*
X67310000Y-51907000D02*
X67310000Y-54860000D01*
X67310000Y-56940000D02*
X67310000Y-59893000D01*
X67350000Y-51915000D02*
X67350000Y-54860000D01*
X67350000Y-56940000D02*
X67350000Y-59885000D01*
X67390000Y-51924000D02*
X67390000Y-54860000D01*
X67390000Y-56940000D02*
X67390000Y-59876000D01*
X67430000Y-51933000D02*
X67430000Y-54860000D01*
X67430000Y-56940000D02*
X67430000Y-59867000D01*
X67470000Y-51943000D02*
X67470000Y-54860000D01*
X67470000Y-56940000D02*
X67470000Y-59857000D01*
X67510000Y-51953000D02*
X67510000Y-54860000D01*
X67510000Y-56940000D02*
X67510000Y-59847000D01*
X67550000Y-51964000D02*
X67550000Y-54860000D01*
X67550000Y-56940000D02*
X67550000Y-59836000D01*
X67590000Y-51975000D02*
X67590000Y-54860000D01*
X67590000Y-56940000D02*
X67590000Y-59825000D01*
X67630000Y-51987000D02*
X67630000Y-54860000D01*
X67630000Y-56940000D02*
X67630000Y-59813000D01*
X67670000Y-51999000D02*
X67670000Y-54860000D01*
X67670000Y-56940000D02*
X67670000Y-59801000D01*
X67710000Y-52011000D02*
X67710000Y-54860000D01*
X67710000Y-56940000D02*
X67710000Y-59789000D01*
X67750000Y-52024000D02*
X67750000Y-54860000D01*
X67750000Y-56940000D02*
X67750000Y-59776000D01*
X67790000Y-52037000D02*
X67790000Y-54860000D01*
X67790000Y-56940000D02*
X67790000Y-59763000D01*
X67830000Y-52051000D02*
X67830000Y-54860000D01*
X67830000Y-56940000D02*
X67830000Y-59749000D01*
X67870000Y-52065000D02*
X67870000Y-54860000D01*
X67870000Y-56940000D02*
X67870000Y-59735000D01*
X67910000Y-52080000D02*
X67910000Y-54860000D01*
X67910000Y-56940000D02*
X67910000Y-59720000D01*
X67950000Y-52095000D02*
X67950000Y-54860000D01*
X67950000Y-56940000D02*
X67950000Y-59705000D01*
X67990000Y-52111000D02*
X67990000Y-54860000D01*
X67990000Y-56940000D02*
X67990000Y-59689000D01*
X68030000Y-52127000D02*
X68030000Y-54860000D01*
X68030000Y-56940000D02*
X68030000Y-59673000D01*
X68070000Y-52143000D02*
X68070000Y-54860000D01*
X68070000Y-56940000D02*
X68070000Y-59657000D01*
X68110000Y-52160000D02*
X68110000Y-54860000D01*
X68110000Y-56940000D02*
X68110000Y-59640000D01*
X68150000Y-52178000D02*
X68150000Y-54860000D01*
X68150000Y-56940000D02*
X68150000Y-59622000D01*
X68190000Y-52196000D02*
X68190000Y-54860000D01*
X68190000Y-56940000D02*
X68190000Y-59604000D01*
X68230000Y-52215000D02*
X68230000Y-54860000D01*
X68230000Y-56940000D02*
X68230000Y-59585000D01*
X68270000Y-52234000D02*
X68270000Y-54860000D01*
X68270000Y-56940000D02*
X68270000Y-59566000D01*
X68310000Y-52254000D02*
X68310000Y-54860000D01*
X68310000Y-56940000D02*
X68310000Y-59546000D01*
X68350000Y-52274000D02*
X68350000Y-54860000D01*
X68350000Y-56940000D02*
X68350000Y-59526000D01*
X68390000Y-52295000D02*
X68390000Y-54860000D01*
X68390000Y-56940000D02*
X68390000Y-59505000D01*
X68430000Y-52316000D02*
X68430000Y-54860000D01*
X68430000Y-56940000D02*
X68430000Y-59484000D01*
X68470000Y-52338000D02*
X68470000Y-54860000D01*
X68470000Y-56940000D02*
X68470000Y-59462000D01*
X68510000Y-52361000D02*
X68510000Y-54860000D01*
X68510000Y-56940000D02*
X68510000Y-59439000D01*
X68550000Y-52384000D02*
X68550000Y-54860000D01*
X68550000Y-56940000D02*
X68550000Y-59416000D01*
X68590000Y-52407000D02*
X68590000Y-54860000D01*
X68590000Y-56940000D02*
X68590000Y-59393000D01*
X68630000Y-52432000D02*
X68630000Y-54860000D01*
X68630000Y-56940000D02*
X68630000Y-59368000D01*
X68670000Y-52457000D02*
X68670000Y-54860000D01*
X68670000Y-56940000D02*
X68670000Y-59343000D01*
X68710000Y-52482000D02*
X68710000Y-54860000D01*
X68710000Y-56940000D02*
X68710000Y-59318000D01*
X68750000Y-52508000D02*
X68750000Y-54860000D01*
X68750000Y-56940000D02*
X68750000Y-59292000D01*
X68790000Y-52535000D02*
X68790000Y-54860000D01*
X68790000Y-56940000D02*
X68790000Y-59265000D01*
X68830000Y-52563000D02*
X68830000Y-54860000D01*
X68830000Y-56940000D02*
X68830000Y-59237000D01*
X68870000Y-52591000D02*
X68870000Y-54860000D01*
X68870000Y-56940000D02*
X68870000Y-59209000D01*
X68910000Y-52620000D02*
X68910000Y-54860000D01*
X68910000Y-56940000D02*
X68910000Y-59180000D01*
X68950000Y-52650000D02*
X68950000Y-54860000D01*
X68950000Y-56940000D02*
X68950000Y-59150000D01*
X68990000Y-52681000D02*
X68990000Y-54860000D01*
X68990000Y-56940000D02*
X68990000Y-59119000D01*
X69030000Y-52712000D02*
X69030000Y-54860000D01*
X69030000Y-56940000D02*
X69030000Y-59088000D01*
X69070000Y-52744000D02*
X69070000Y-54860000D01*
X69070000Y-56940000D02*
X69070000Y-59056000D01*
X69110000Y-52777000D02*
X69110000Y-54860000D01*
X69110000Y-56940000D02*
X69110000Y-59023000D01*
X69150000Y-52811000D02*
X69150000Y-54860000D01*
X69150000Y-56940000D02*
X69150000Y-58989000D01*
X69190000Y-52845000D02*
X69190000Y-54860000D01*
X69190000Y-56940000D02*
X69190000Y-58955000D01*
X69230000Y-52881000D02*
X69230000Y-54860000D01*
X69230000Y-56940000D02*
X69230000Y-58919000D01*
X69270000Y-52918000D02*
X69270000Y-58882000D01*
X69310000Y-52955000D02*
X69310000Y-58845000D01*
X69350000Y-52994000D02*
X69350000Y-58806000D01*
X69390000Y-53033000D02*
X69390000Y-58767000D01*
X69430000Y-53074000D02*
X69430000Y-58726000D01*
X69470000Y-53116000D02*
X69470000Y-58684000D01*
X69510000Y-53159000D02*
X69510000Y-58641000D01*
X69550000Y-53204000D02*
X69550000Y-58596000D01*
X69590000Y-53249000D02*
X69590000Y-58551000D01*
X69630000Y-53296000D02*
X69630000Y-58504000D01*
X69670000Y-53345000D02*
X69670000Y-58455000D01*
X69710000Y-53395000D02*
X69710000Y-58405000D01*
X69750000Y-53447000D02*
X69750000Y-58353000D01*
X69790000Y-53500000D02*
X69790000Y-58300000D01*
X69830000Y-53556000D02*
X69830000Y-58244000D01*
X69870000Y-53613000D02*
X69870000Y-58187000D01*
X69910000Y-53673000D02*
X69910000Y-58127000D01*
X69950000Y-53735000D02*
X69950000Y-58065000D01*
X69990000Y-53799000D02*
X69990000Y-58001000D01*
X70030000Y-53866000D02*
X70030000Y-57934000D01*
X70070000Y-53936000D02*
X70070000Y-57864000D01*
X70110000Y-54010000D02*
X70110000Y-57790000D01*
X70150000Y-54087000D02*
X70150000Y-57713000D01*
X70190000Y-54169000D02*
X70190000Y-57631000D01*
X70230000Y-54256000D02*
X70230000Y-57544000D01*
X70270000Y-54348000D02*
X70270000Y-57452000D01*
X70310000Y-54447000D02*
X70310000Y-57353000D01*
X70350000Y-54554000D02*
X70350000Y-57246000D01*
X70390000Y-54672000D02*
X70390000Y-57128000D01*
X70430000Y-54803000D02*
X70430000Y-56997000D01*
X70470000Y-54953000D02*
X70470000Y-56847000D01*
X70510000Y-55132000D02*
X70510000Y-56668000D01*
X70550000Y-55367000D02*
X70550000Y-56433000D01*
X70590000Y-55900000D02*
G75*
G02*
X62350000Y-55900000I-4120000J0D01*
G01*
X62350000Y-55900000D02*
G75*
G02*
X70590000Y-55900000I4120000J0D01*
G01*
%TO.C,R4*%
X33477500Y-48237258D02*
X33477500Y-47762742D01*
X34522500Y-48237258D02*
X34522500Y-47762742D01*
%TO.C,R6*%
X35477500Y-39237258D02*
X35477500Y-38762742D01*
X36522500Y-39237258D02*
X36522500Y-38762742D01*
%TO.C,C3*%
X72719999Y-54140580D02*
X72719999Y-53859420D01*
X73739999Y-54140580D02*
X73739999Y-53859420D01*
%TD*%
M02*
