%TF.GenerationSoftware,KiCad,Pcbnew,10.0.4*%
%TF.CreationDate,2026-06-22T13:15:05-04:00*%
%TF.ProjectId,smart_vent_v1_no_led,736d6172-745f-4766-956e-745f76315f6e,rev?*%
%TF.SameCoordinates,Original*%
%TF.FileFunction,AssemblyDrawing,Top*%
%FSLAX46Y46*%
G04 Gerber Fmt 4.6, Leading zero omitted, Abs format (unit mm)*
G04 Created by KiCad (PCBNEW 10.0.4) date 2026-06-22 13:15:05*
%MOMM*%
%LPD*%
G01*
G04 APERTURE LIST*
%ADD10C,0.150000*%
%ADD11C,0.060000*%
%ADD12C,0.090000*%
%ADD13C,0.110000*%
%ADD14C,0.080000*%
%ADD15C,0.100000*%
G04 APERTURE END LIST*
D10*
X37884819Y-45523810D02*
X37408628Y-45857143D01*
X37884819Y-46095238D02*
X36884819Y-46095238D01*
X36884819Y-46095238D02*
X36884819Y-45714286D01*
X36884819Y-45714286D02*
X36932438Y-45619048D01*
X36932438Y-45619048D02*
X36980057Y-45571429D01*
X36980057Y-45571429D02*
X37075295Y-45523810D01*
X37075295Y-45523810D02*
X37218152Y-45523810D01*
X37218152Y-45523810D02*
X37313390Y-45571429D01*
X37313390Y-45571429D02*
X37361009Y-45619048D01*
X37361009Y-45619048D02*
X37408628Y-45714286D01*
X37408628Y-45714286D02*
X37408628Y-46095238D01*
X37980057Y-45333334D02*
X37980057Y-44571429D01*
X36884819Y-44142857D02*
X36884819Y-44047619D01*
X36884819Y-44047619D02*
X36932438Y-43952381D01*
X36932438Y-43952381D02*
X36980057Y-43904762D01*
X36980057Y-43904762D02*
X37075295Y-43857143D01*
X37075295Y-43857143D02*
X37265771Y-43809524D01*
X37265771Y-43809524D02*
X37503866Y-43809524D01*
X37503866Y-43809524D02*
X37694342Y-43857143D01*
X37694342Y-43857143D02*
X37789580Y-43904762D01*
X37789580Y-43904762D02*
X37837200Y-43952381D01*
X37837200Y-43952381D02*
X37884819Y-44047619D01*
X37884819Y-44047619D02*
X37884819Y-44142857D01*
X37884819Y-44142857D02*
X37837200Y-44238095D01*
X37837200Y-44238095D02*
X37789580Y-44285714D01*
X37789580Y-44285714D02*
X37694342Y-44333333D01*
X37694342Y-44333333D02*
X37503866Y-44380952D01*
X37503866Y-44380952D02*
X37265771Y-44380952D01*
X37265771Y-44380952D02*
X37075295Y-44333333D01*
X37075295Y-44333333D02*
X36980057Y-44285714D01*
X36980057Y-44285714D02*
X36932438Y-44238095D01*
X36932438Y-44238095D02*
X36884819Y-44142857D01*
X36884819Y-42952381D02*
X36884819Y-43142857D01*
X36884819Y-43142857D02*
X36932438Y-43238095D01*
X36932438Y-43238095D02*
X36980057Y-43285714D01*
X36980057Y-43285714D02*
X37122914Y-43380952D01*
X37122914Y-43380952D02*
X37313390Y-43428571D01*
X37313390Y-43428571D02*
X37694342Y-43428571D01*
X37694342Y-43428571D02*
X37789580Y-43380952D01*
X37789580Y-43380952D02*
X37837200Y-43333333D01*
X37837200Y-43333333D02*
X37884819Y-43238095D01*
X37884819Y-43238095D02*
X37884819Y-43047619D01*
X37884819Y-43047619D02*
X37837200Y-42952381D01*
X37837200Y-42952381D02*
X37789580Y-42904762D01*
X37789580Y-42904762D02*
X37694342Y-42857143D01*
X37694342Y-42857143D02*
X37456247Y-42857143D01*
X37456247Y-42857143D02*
X37361009Y-42904762D01*
X37361009Y-42904762D02*
X37313390Y-42952381D01*
X37313390Y-42952381D02*
X37265771Y-43047619D01*
X37265771Y-43047619D02*
X37265771Y-43238095D01*
X37265771Y-43238095D02*
X37313390Y-43333333D01*
X37313390Y-43333333D02*
X37361009Y-43380952D01*
X37361009Y-43380952D02*
X37456247Y-43428571D01*
X36884819Y-42238095D02*
X36884819Y-42142857D01*
X36884819Y-42142857D02*
X36932438Y-42047619D01*
X36932438Y-42047619D02*
X36980057Y-42000000D01*
X36980057Y-42000000D02*
X37075295Y-41952381D01*
X37075295Y-41952381D02*
X37265771Y-41904762D01*
X37265771Y-41904762D02*
X37503866Y-41904762D01*
X37503866Y-41904762D02*
X37694342Y-41952381D01*
X37694342Y-41952381D02*
X37789580Y-42000000D01*
X37789580Y-42000000D02*
X37837200Y-42047619D01*
X37837200Y-42047619D02*
X37884819Y-42142857D01*
X37884819Y-42142857D02*
X37884819Y-42238095D01*
X37884819Y-42238095D02*
X37837200Y-42333333D01*
X37837200Y-42333333D02*
X37789580Y-42380952D01*
X37789580Y-42380952D02*
X37694342Y-42428571D01*
X37694342Y-42428571D02*
X37503866Y-42476190D01*
X37503866Y-42476190D02*
X37265771Y-42476190D01*
X37265771Y-42476190D02*
X37075295Y-42428571D01*
X37075295Y-42428571D02*
X36980057Y-42380952D01*
X36980057Y-42380952D02*
X36932438Y-42333333D01*
X36932438Y-42333333D02*
X36884819Y-42238095D01*
X36884819Y-41571428D02*
X36884819Y-40952381D01*
X36884819Y-40952381D02*
X37265771Y-41285714D01*
X37265771Y-41285714D02*
X37265771Y-41142857D01*
X37265771Y-41142857D02*
X37313390Y-41047619D01*
X37313390Y-41047619D02*
X37361009Y-41000000D01*
X37361009Y-41000000D02*
X37456247Y-40952381D01*
X37456247Y-40952381D02*
X37694342Y-40952381D01*
X37694342Y-40952381D02*
X37789580Y-41000000D01*
X37789580Y-41000000D02*
X37837200Y-41047619D01*
X37837200Y-41047619D02*
X37884819Y-41142857D01*
X37884819Y-41142857D02*
X37884819Y-41428571D01*
X37884819Y-41428571D02*
X37837200Y-41523809D01*
X37837200Y-41523809D02*
X37789580Y-41571428D01*
X37980057Y-40761905D02*
X37980057Y-40000000D01*
X37884819Y-39238095D02*
X37884819Y-39809523D01*
X37884819Y-39523809D02*
X36884819Y-39523809D01*
X36884819Y-39523809D02*
X37027676Y-39619047D01*
X37027676Y-39619047D02*
X37122914Y-39714285D01*
X37122914Y-39714285D02*
X37170533Y-39809523D01*
X36884819Y-38380952D02*
X36884819Y-38571428D01*
X36884819Y-38571428D02*
X36932438Y-38666666D01*
X36932438Y-38666666D02*
X36980057Y-38714285D01*
X36980057Y-38714285D02*
X37122914Y-38809523D01*
X37122914Y-38809523D02*
X37313390Y-38857142D01*
X37313390Y-38857142D02*
X37694342Y-38857142D01*
X37694342Y-38857142D02*
X37789580Y-38809523D01*
X37789580Y-38809523D02*
X37837200Y-38761904D01*
X37837200Y-38761904D02*
X37884819Y-38666666D01*
X37884819Y-38666666D02*
X37884819Y-38476190D01*
X37884819Y-38476190D02*
X37837200Y-38380952D01*
X37837200Y-38380952D02*
X37789580Y-38333333D01*
X37789580Y-38333333D02*
X37694342Y-38285714D01*
X37694342Y-38285714D02*
X37456247Y-38285714D01*
X37456247Y-38285714D02*
X37361009Y-38333333D01*
X37361009Y-38333333D02*
X37313390Y-38380952D01*
X37313390Y-38380952D02*
X37265771Y-38476190D01*
X37265771Y-38476190D02*
X37265771Y-38666666D01*
X37265771Y-38666666D02*
X37313390Y-38761904D01*
X37313390Y-38761904D02*
X37361009Y-38809523D01*
X37361009Y-38809523D02*
X37456247Y-38857142D01*
X36884819Y-37666666D02*
X36884819Y-37571428D01*
X36884819Y-37571428D02*
X36932438Y-37476190D01*
X36932438Y-37476190D02*
X36980057Y-37428571D01*
X36980057Y-37428571D02*
X37075295Y-37380952D01*
X37075295Y-37380952D02*
X37265771Y-37333333D01*
X37265771Y-37333333D02*
X37503866Y-37333333D01*
X37503866Y-37333333D02*
X37694342Y-37380952D01*
X37694342Y-37380952D02*
X37789580Y-37428571D01*
X37789580Y-37428571D02*
X37837200Y-37476190D01*
X37837200Y-37476190D02*
X37884819Y-37571428D01*
X37884819Y-37571428D02*
X37884819Y-37666666D01*
X37884819Y-37666666D02*
X37837200Y-37761904D01*
X37837200Y-37761904D02*
X37789580Y-37809523D01*
X37789580Y-37809523D02*
X37694342Y-37857142D01*
X37694342Y-37857142D02*
X37503866Y-37904761D01*
X37503866Y-37904761D02*
X37265771Y-37904761D01*
X37265771Y-37904761D02*
X37075295Y-37857142D01*
X37075295Y-37857142D02*
X36980057Y-37809523D01*
X36980057Y-37809523D02*
X36932438Y-37761904D01*
X36932438Y-37761904D02*
X36884819Y-37666666D01*
X37313390Y-36761904D02*
X37265771Y-36857142D01*
X37265771Y-36857142D02*
X37218152Y-36904761D01*
X37218152Y-36904761D02*
X37122914Y-36952380D01*
X37122914Y-36952380D02*
X37075295Y-36952380D01*
X37075295Y-36952380D02*
X36980057Y-36904761D01*
X36980057Y-36904761D02*
X36932438Y-36857142D01*
X36932438Y-36857142D02*
X36884819Y-36761904D01*
X36884819Y-36761904D02*
X36884819Y-36571428D01*
X36884819Y-36571428D02*
X36932438Y-36476190D01*
X36932438Y-36476190D02*
X36980057Y-36428571D01*
X36980057Y-36428571D02*
X37075295Y-36380952D01*
X37075295Y-36380952D02*
X37122914Y-36380952D01*
X37122914Y-36380952D02*
X37218152Y-36428571D01*
X37218152Y-36428571D02*
X37265771Y-36476190D01*
X37265771Y-36476190D02*
X37313390Y-36571428D01*
X37313390Y-36571428D02*
X37313390Y-36761904D01*
X37313390Y-36761904D02*
X37361009Y-36857142D01*
X37361009Y-36857142D02*
X37408628Y-36904761D01*
X37408628Y-36904761D02*
X37503866Y-36952380D01*
X37503866Y-36952380D02*
X37694342Y-36952380D01*
X37694342Y-36952380D02*
X37789580Y-36904761D01*
X37789580Y-36904761D02*
X37837200Y-36857142D01*
X37837200Y-36857142D02*
X37884819Y-36761904D01*
X37884819Y-36761904D02*
X37884819Y-36571428D01*
X37884819Y-36571428D02*
X37837200Y-36476190D01*
X37837200Y-36476190D02*
X37789580Y-36428571D01*
X37789580Y-36428571D02*
X37694342Y-36380952D01*
X37694342Y-36380952D02*
X37503866Y-36380952D01*
X37503866Y-36380952D02*
X37408628Y-36428571D01*
X37408628Y-36428571D02*
X37361009Y-36476190D01*
X37361009Y-36476190D02*
X37313390Y-36571428D01*
X37884819Y-35952380D02*
X36884819Y-35952380D01*
X36884819Y-35952380D02*
X37599104Y-35619047D01*
X37599104Y-35619047D02*
X36884819Y-35285714D01*
X36884819Y-35285714D02*
X37884819Y-35285714D01*
X37837200Y-34428571D02*
X37884819Y-34523809D01*
X37884819Y-34523809D02*
X37884819Y-34714285D01*
X37884819Y-34714285D02*
X37837200Y-34809523D01*
X37837200Y-34809523D02*
X37741961Y-34857142D01*
X37741961Y-34857142D02*
X37361009Y-34857142D01*
X37361009Y-34857142D02*
X37265771Y-34809523D01*
X37265771Y-34809523D02*
X37218152Y-34714285D01*
X37218152Y-34714285D02*
X37218152Y-34523809D01*
X37218152Y-34523809D02*
X37265771Y-34428571D01*
X37265771Y-34428571D02*
X37361009Y-34380952D01*
X37361009Y-34380952D02*
X37456247Y-34380952D01*
X37456247Y-34380952D02*
X37551485Y-34857142D01*
X37218152Y-34095237D02*
X37218152Y-33714285D01*
X36884819Y-33952380D02*
X37741961Y-33952380D01*
X37741961Y-33952380D02*
X37837200Y-33904761D01*
X37837200Y-33904761D02*
X37884819Y-33809523D01*
X37884819Y-33809523D02*
X37884819Y-33714285D01*
X37884819Y-33380951D02*
X37218152Y-33380951D01*
X37408628Y-33380951D02*
X37313390Y-33333332D01*
X37313390Y-33333332D02*
X37265771Y-33285713D01*
X37265771Y-33285713D02*
X37218152Y-33190475D01*
X37218152Y-33190475D02*
X37218152Y-33095237D01*
X37884819Y-32761903D02*
X37218152Y-32761903D01*
X36884819Y-32761903D02*
X36932438Y-32809522D01*
X36932438Y-32809522D02*
X36980057Y-32761903D01*
X36980057Y-32761903D02*
X36932438Y-32714284D01*
X36932438Y-32714284D02*
X36884819Y-32761903D01*
X36884819Y-32761903D02*
X36980057Y-32761903D01*
X37837200Y-31857142D02*
X37884819Y-31952380D01*
X37884819Y-31952380D02*
X37884819Y-32142856D01*
X37884819Y-32142856D02*
X37837200Y-32238094D01*
X37837200Y-32238094D02*
X37789580Y-32285713D01*
X37789580Y-32285713D02*
X37694342Y-32333332D01*
X37694342Y-32333332D02*
X37408628Y-32333332D01*
X37408628Y-32333332D02*
X37313390Y-32285713D01*
X37313390Y-32285713D02*
X37265771Y-32238094D01*
X37265771Y-32238094D02*
X37218152Y-32142856D01*
X37218152Y-32142856D02*
X37218152Y-31952380D01*
X37218152Y-31952380D02*
X37265771Y-31857142D01*
D11*
X36181927Y-39066666D02*
X35991451Y-39199999D01*
X36181927Y-39295237D02*
X35781927Y-39295237D01*
X35781927Y-39295237D02*
X35781927Y-39142856D01*
X35781927Y-39142856D02*
X35800975Y-39104761D01*
X35800975Y-39104761D02*
X35820022Y-39085714D01*
X35820022Y-39085714D02*
X35858118Y-39066666D01*
X35858118Y-39066666D02*
X35915260Y-39066666D01*
X35915260Y-39066666D02*
X35953356Y-39085714D01*
X35953356Y-39085714D02*
X35972403Y-39104761D01*
X35972403Y-39104761D02*
X35991451Y-39142856D01*
X35991451Y-39142856D02*
X35991451Y-39295237D01*
X35781927Y-38723809D02*
X35781927Y-38799999D01*
X35781927Y-38799999D02*
X35800975Y-38838095D01*
X35800975Y-38838095D02*
X35820022Y-38857142D01*
X35820022Y-38857142D02*
X35877165Y-38895237D01*
X35877165Y-38895237D02*
X35953356Y-38914285D01*
X35953356Y-38914285D02*
X36105737Y-38914285D01*
X36105737Y-38914285D02*
X36143832Y-38895237D01*
X36143832Y-38895237D02*
X36162880Y-38876190D01*
X36162880Y-38876190D02*
X36181927Y-38838095D01*
X36181927Y-38838095D02*
X36181927Y-38761904D01*
X36181927Y-38761904D02*
X36162880Y-38723809D01*
X36162880Y-38723809D02*
X36143832Y-38704761D01*
X36143832Y-38704761D02*
X36105737Y-38685714D01*
X36105737Y-38685714D02*
X36010499Y-38685714D01*
X36010499Y-38685714D02*
X35972403Y-38704761D01*
X35972403Y-38704761D02*
X35953356Y-38723809D01*
X35953356Y-38723809D02*
X35934308Y-38761904D01*
X35934308Y-38761904D02*
X35934308Y-38838095D01*
X35934308Y-38838095D02*
X35953356Y-38876190D01*
X35953356Y-38876190D02*
X35972403Y-38895237D01*
X35972403Y-38895237D02*
X36010499Y-38914285D01*
D10*
X75107200Y-60761427D02*
X75154819Y-60618570D01*
X75154819Y-60618570D02*
X75154819Y-60380475D01*
X75154819Y-60380475D02*
X75107200Y-60285237D01*
X75107200Y-60285237D02*
X75059580Y-60237618D01*
X75059580Y-60237618D02*
X74964342Y-60189999D01*
X74964342Y-60189999D02*
X74869104Y-60189999D01*
X74869104Y-60189999D02*
X74773866Y-60237618D01*
X74773866Y-60237618D02*
X74726247Y-60285237D01*
X74726247Y-60285237D02*
X74678628Y-60380475D01*
X74678628Y-60380475D02*
X74631009Y-60570951D01*
X74631009Y-60570951D02*
X74583390Y-60666189D01*
X74583390Y-60666189D02*
X74535771Y-60713808D01*
X74535771Y-60713808D02*
X74440533Y-60761427D01*
X74440533Y-60761427D02*
X74345295Y-60761427D01*
X74345295Y-60761427D02*
X74250057Y-60713808D01*
X74250057Y-60713808D02*
X74202438Y-60666189D01*
X74202438Y-60666189D02*
X74154819Y-60570951D01*
X74154819Y-60570951D02*
X74154819Y-60332856D01*
X74154819Y-60332856D02*
X74202438Y-60189999D01*
X74154819Y-59856665D02*
X75154819Y-59618570D01*
X75154819Y-59618570D02*
X74440533Y-59428094D01*
X74440533Y-59428094D02*
X75154819Y-59237618D01*
X75154819Y-59237618D02*
X74154819Y-58999523D01*
X75250057Y-58856666D02*
X75250057Y-58094761D01*
X75154819Y-57856665D02*
X74154819Y-57856665D01*
X74154819Y-57856665D02*
X74154819Y-57618570D01*
X74154819Y-57618570D02*
X74202438Y-57475713D01*
X74202438Y-57475713D02*
X74297676Y-57380475D01*
X74297676Y-57380475D02*
X74392914Y-57332856D01*
X74392914Y-57332856D02*
X74583390Y-57285237D01*
X74583390Y-57285237D02*
X74726247Y-57285237D01*
X74726247Y-57285237D02*
X74916723Y-57332856D01*
X74916723Y-57332856D02*
X75011961Y-57380475D01*
X75011961Y-57380475D02*
X75107200Y-57475713D01*
X75107200Y-57475713D02*
X75154819Y-57618570D01*
X75154819Y-57618570D02*
X75154819Y-57856665D01*
X75154819Y-56856665D02*
X74154819Y-56856665D01*
X75154819Y-56380475D02*
X74154819Y-56380475D01*
X74154819Y-56380475D02*
X74154819Y-55999523D01*
X74154819Y-55999523D02*
X74202438Y-55904285D01*
X74202438Y-55904285D02*
X74250057Y-55856666D01*
X74250057Y-55856666D02*
X74345295Y-55809047D01*
X74345295Y-55809047D02*
X74488152Y-55809047D01*
X74488152Y-55809047D02*
X74583390Y-55856666D01*
X74583390Y-55856666D02*
X74631009Y-55904285D01*
X74631009Y-55904285D02*
X74678628Y-55999523D01*
X74678628Y-55999523D02*
X74678628Y-56380475D01*
X75250057Y-55618571D02*
X75250057Y-54856666D01*
X75107200Y-54666189D02*
X75154819Y-54523332D01*
X75154819Y-54523332D02*
X75154819Y-54285237D01*
X75154819Y-54285237D02*
X75107200Y-54189999D01*
X75107200Y-54189999D02*
X75059580Y-54142380D01*
X75059580Y-54142380D02*
X74964342Y-54094761D01*
X74964342Y-54094761D02*
X74869104Y-54094761D01*
X74869104Y-54094761D02*
X74773866Y-54142380D01*
X74773866Y-54142380D02*
X74726247Y-54189999D01*
X74726247Y-54189999D02*
X74678628Y-54285237D01*
X74678628Y-54285237D02*
X74631009Y-54475713D01*
X74631009Y-54475713D02*
X74583390Y-54570951D01*
X74583390Y-54570951D02*
X74535771Y-54618570D01*
X74535771Y-54618570D02*
X74440533Y-54666189D01*
X74440533Y-54666189D02*
X74345295Y-54666189D01*
X74345295Y-54666189D02*
X74250057Y-54618570D01*
X74250057Y-54618570D02*
X74202438Y-54570951D01*
X74202438Y-54570951D02*
X74154819Y-54475713D01*
X74154819Y-54475713D02*
X74154819Y-54237618D01*
X74154819Y-54237618D02*
X74202438Y-54094761D01*
X75154819Y-53666189D02*
X74154819Y-53666189D01*
X74154819Y-53666189D02*
X74154819Y-53285237D01*
X74154819Y-53285237D02*
X74202438Y-53189999D01*
X74202438Y-53189999D02*
X74250057Y-53142380D01*
X74250057Y-53142380D02*
X74345295Y-53094761D01*
X74345295Y-53094761D02*
X74488152Y-53094761D01*
X74488152Y-53094761D02*
X74583390Y-53142380D01*
X74583390Y-53142380D02*
X74631009Y-53189999D01*
X74631009Y-53189999D02*
X74678628Y-53285237D01*
X74678628Y-53285237D02*
X74678628Y-53666189D01*
X75107200Y-52713808D02*
X75154819Y-52570951D01*
X75154819Y-52570951D02*
X75154819Y-52332856D01*
X75154819Y-52332856D02*
X75107200Y-52237618D01*
X75107200Y-52237618D02*
X75059580Y-52189999D01*
X75059580Y-52189999D02*
X74964342Y-52142380D01*
X74964342Y-52142380D02*
X74869104Y-52142380D01*
X74869104Y-52142380D02*
X74773866Y-52189999D01*
X74773866Y-52189999D02*
X74726247Y-52237618D01*
X74726247Y-52237618D02*
X74678628Y-52332856D01*
X74678628Y-52332856D02*
X74631009Y-52523332D01*
X74631009Y-52523332D02*
X74583390Y-52618570D01*
X74583390Y-52618570D02*
X74535771Y-52666189D01*
X74535771Y-52666189D02*
X74440533Y-52713808D01*
X74440533Y-52713808D02*
X74345295Y-52713808D01*
X74345295Y-52713808D02*
X74250057Y-52666189D01*
X74250057Y-52666189D02*
X74202438Y-52618570D01*
X74202438Y-52618570D02*
X74154819Y-52523332D01*
X74154819Y-52523332D02*
X74154819Y-52285237D01*
X74154819Y-52285237D02*
X74202438Y-52142380D01*
X74154819Y-51856665D02*
X74154819Y-51285237D01*
X75154819Y-51570951D02*
X74154819Y-51570951D01*
X75154819Y-51047141D02*
X74488152Y-50523332D01*
X74488152Y-51047141D02*
X75154819Y-50523332D01*
X74154819Y-49951903D02*
X74154819Y-49856665D01*
X74154819Y-49856665D02*
X74202438Y-49761427D01*
X74202438Y-49761427D02*
X74250057Y-49713808D01*
X74250057Y-49713808D02*
X74345295Y-49666189D01*
X74345295Y-49666189D02*
X74535771Y-49618570D01*
X74535771Y-49618570D02*
X74773866Y-49618570D01*
X74773866Y-49618570D02*
X74964342Y-49666189D01*
X74964342Y-49666189D02*
X75059580Y-49713808D01*
X75059580Y-49713808D02*
X75107200Y-49761427D01*
X75107200Y-49761427D02*
X75154819Y-49856665D01*
X75154819Y-49856665D02*
X75154819Y-49951903D01*
X75154819Y-49951903D02*
X75107200Y-50047141D01*
X75107200Y-50047141D02*
X75059580Y-50094760D01*
X75059580Y-50094760D02*
X74964342Y-50142379D01*
X74964342Y-50142379D02*
X74773866Y-50189998D01*
X74773866Y-50189998D02*
X74535771Y-50189998D01*
X74535771Y-50189998D02*
X74345295Y-50142379D01*
X74345295Y-50142379D02*
X74250057Y-50094760D01*
X74250057Y-50094760D02*
X74202438Y-50047141D01*
X74202438Y-50047141D02*
X74154819Y-49951903D01*
X75154819Y-48666189D02*
X75154819Y-49237617D01*
X75154819Y-48951903D02*
X74154819Y-48951903D01*
X74154819Y-48951903D02*
X74297676Y-49047141D01*
X74297676Y-49047141D02*
X74392914Y-49142379D01*
X74392914Y-49142379D02*
X74440533Y-49237617D01*
X75250057Y-48475713D02*
X75250057Y-47713808D01*
X75107200Y-47523331D02*
X75154819Y-47380474D01*
X75154819Y-47380474D02*
X75154819Y-47142379D01*
X75154819Y-47142379D02*
X75107200Y-47047141D01*
X75107200Y-47047141D02*
X75059580Y-46999522D01*
X75059580Y-46999522D02*
X74964342Y-46951903D01*
X74964342Y-46951903D02*
X74869104Y-46951903D01*
X74869104Y-46951903D02*
X74773866Y-46999522D01*
X74773866Y-46999522D02*
X74726247Y-47047141D01*
X74726247Y-47047141D02*
X74678628Y-47142379D01*
X74678628Y-47142379D02*
X74631009Y-47332855D01*
X74631009Y-47332855D02*
X74583390Y-47428093D01*
X74583390Y-47428093D02*
X74535771Y-47475712D01*
X74535771Y-47475712D02*
X74440533Y-47523331D01*
X74440533Y-47523331D02*
X74345295Y-47523331D01*
X74345295Y-47523331D02*
X74250057Y-47475712D01*
X74250057Y-47475712D02*
X74202438Y-47428093D01*
X74202438Y-47428093D02*
X74154819Y-47332855D01*
X74154819Y-47332855D02*
X74154819Y-47094760D01*
X74154819Y-47094760D02*
X74202438Y-46951903D01*
X75154819Y-46380474D02*
X75107200Y-46475712D01*
X75107200Y-46475712D02*
X75011961Y-46523331D01*
X75011961Y-46523331D02*
X74154819Y-46523331D01*
X75154819Y-45999521D02*
X74488152Y-45999521D01*
X74154819Y-45999521D02*
X74202438Y-46047140D01*
X74202438Y-46047140D02*
X74250057Y-45999521D01*
X74250057Y-45999521D02*
X74202438Y-45951902D01*
X74202438Y-45951902D02*
X74154819Y-45999521D01*
X74154819Y-45999521D02*
X74250057Y-45999521D01*
X75154819Y-45094760D02*
X74154819Y-45094760D01*
X75107200Y-45094760D02*
X75154819Y-45189998D01*
X75154819Y-45189998D02*
X75154819Y-45380474D01*
X75154819Y-45380474D02*
X75107200Y-45475712D01*
X75107200Y-45475712D02*
X75059580Y-45523331D01*
X75059580Y-45523331D02*
X74964342Y-45570950D01*
X74964342Y-45570950D02*
X74678628Y-45570950D01*
X74678628Y-45570950D02*
X74583390Y-45523331D01*
X74583390Y-45523331D02*
X74535771Y-45475712D01*
X74535771Y-45475712D02*
X74488152Y-45380474D01*
X74488152Y-45380474D02*
X74488152Y-45189998D01*
X74488152Y-45189998D02*
X74535771Y-45094760D01*
X75107200Y-44237617D02*
X75154819Y-44332855D01*
X75154819Y-44332855D02*
X75154819Y-44523331D01*
X75154819Y-44523331D02*
X75107200Y-44618569D01*
X75107200Y-44618569D02*
X75011961Y-44666188D01*
X75011961Y-44666188D02*
X74631009Y-44666188D01*
X74631009Y-44666188D02*
X74535771Y-44618569D01*
X74535771Y-44618569D02*
X74488152Y-44523331D01*
X74488152Y-44523331D02*
X74488152Y-44332855D01*
X74488152Y-44332855D02*
X74535771Y-44237617D01*
X74535771Y-44237617D02*
X74631009Y-44189998D01*
X74631009Y-44189998D02*
X74726247Y-44189998D01*
X74726247Y-44189998D02*
X74821485Y-44666188D01*
X75250057Y-43999522D02*
X75250057Y-43237617D01*
X75154819Y-42951902D02*
X75154819Y-42761426D01*
X75154819Y-42761426D02*
X75107200Y-42666188D01*
X75107200Y-42666188D02*
X75059580Y-42618569D01*
X75059580Y-42618569D02*
X74916723Y-42523331D01*
X74916723Y-42523331D02*
X74726247Y-42475712D01*
X74726247Y-42475712D02*
X74345295Y-42475712D01*
X74345295Y-42475712D02*
X74250057Y-42523331D01*
X74250057Y-42523331D02*
X74202438Y-42570950D01*
X74202438Y-42570950D02*
X74154819Y-42666188D01*
X74154819Y-42666188D02*
X74154819Y-42856664D01*
X74154819Y-42856664D02*
X74202438Y-42951902D01*
X74202438Y-42951902D02*
X74250057Y-42999521D01*
X74250057Y-42999521D02*
X74345295Y-43047140D01*
X74345295Y-43047140D02*
X74583390Y-43047140D01*
X74583390Y-43047140D02*
X74678628Y-42999521D01*
X74678628Y-42999521D02*
X74726247Y-42951902D01*
X74726247Y-42951902D02*
X74773866Y-42856664D01*
X74773866Y-42856664D02*
X74773866Y-42666188D01*
X74773866Y-42666188D02*
X74726247Y-42570950D01*
X74726247Y-42570950D02*
X74678628Y-42523331D01*
X74678628Y-42523331D02*
X74583390Y-42475712D01*
X75059580Y-42047140D02*
X75107200Y-41999521D01*
X75107200Y-41999521D02*
X75154819Y-42047140D01*
X75154819Y-42047140D02*
X75107200Y-42094759D01*
X75107200Y-42094759D02*
X75059580Y-42047140D01*
X75059580Y-42047140D02*
X75154819Y-42047140D01*
X74154819Y-41666188D02*
X74154819Y-40999522D01*
X74154819Y-40999522D02*
X75154819Y-41428093D01*
X74583390Y-40475712D02*
X74535771Y-40570950D01*
X74535771Y-40570950D02*
X74488152Y-40618569D01*
X74488152Y-40618569D02*
X74392914Y-40666188D01*
X74392914Y-40666188D02*
X74345295Y-40666188D01*
X74345295Y-40666188D02*
X74250057Y-40618569D01*
X74250057Y-40618569D02*
X74202438Y-40570950D01*
X74202438Y-40570950D02*
X74154819Y-40475712D01*
X74154819Y-40475712D02*
X74154819Y-40285236D01*
X74154819Y-40285236D02*
X74202438Y-40189998D01*
X74202438Y-40189998D02*
X74250057Y-40142379D01*
X74250057Y-40142379D02*
X74345295Y-40094760D01*
X74345295Y-40094760D02*
X74392914Y-40094760D01*
X74392914Y-40094760D02*
X74488152Y-40142379D01*
X74488152Y-40142379D02*
X74535771Y-40189998D01*
X74535771Y-40189998D02*
X74583390Y-40285236D01*
X74583390Y-40285236D02*
X74583390Y-40475712D01*
X74583390Y-40475712D02*
X74631009Y-40570950D01*
X74631009Y-40570950D02*
X74678628Y-40618569D01*
X74678628Y-40618569D02*
X74773866Y-40666188D01*
X74773866Y-40666188D02*
X74964342Y-40666188D01*
X74964342Y-40666188D02*
X75059580Y-40618569D01*
X75059580Y-40618569D02*
X75107200Y-40570950D01*
X75107200Y-40570950D02*
X75154819Y-40475712D01*
X75154819Y-40475712D02*
X75154819Y-40285236D01*
X75154819Y-40285236D02*
X75107200Y-40189998D01*
X75107200Y-40189998D02*
X75059580Y-40142379D01*
X75059580Y-40142379D02*
X74964342Y-40094760D01*
X74964342Y-40094760D02*
X74773866Y-40094760D01*
X74773866Y-40094760D02*
X74678628Y-40142379D01*
X74678628Y-40142379D02*
X74631009Y-40189998D01*
X74631009Y-40189998D02*
X74583390Y-40285236D01*
X75154819Y-39761426D02*
X74488152Y-39237617D01*
X74488152Y-39761426D02*
X75154819Y-39237617D01*
X74488152Y-38428093D02*
X75154819Y-38428093D01*
X74107200Y-38666188D02*
X74821485Y-38904283D01*
X74821485Y-38904283D02*
X74821485Y-38285236D01*
X75059580Y-37904283D02*
X75107200Y-37856664D01*
X75107200Y-37856664D02*
X75154819Y-37904283D01*
X75154819Y-37904283D02*
X75107200Y-37951902D01*
X75107200Y-37951902D02*
X75059580Y-37904283D01*
X75059580Y-37904283D02*
X75154819Y-37904283D01*
X74154819Y-37523331D02*
X74154819Y-36856665D01*
X74154819Y-36856665D02*
X75154819Y-37285236D01*
X74250057Y-36523331D02*
X74202438Y-36475712D01*
X74202438Y-36475712D02*
X74154819Y-36380474D01*
X74154819Y-36380474D02*
X74154819Y-36142379D01*
X74154819Y-36142379D02*
X74202438Y-36047141D01*
X74202438Y-36047141D02*
X74250057Y-35999522D01*
X74250057Y-35999522D02*
X74345295Y-35951903D01*
X74345295Y-35951903D02*
X74440533Y-35951903D01*
X74440533Y-35951903D02*
X74583390Y-35999522D01*
X74583390Y-35999522D02*
X75154819Y-36570950D01*
X75154819Y-36570950D02*
X75154819Y-35951903D01*
X75154819Y-35523331D02*
X74488152Y-35523331D01*
X74583390Y-35523331D02*
X74535771Y-35475712D01*
X74535771Y-35475712D02*
X74488152Y-35380474D01*
X74488152Y-35380474D02*
X74488152Y-35237617D01*
X74488152Y-35237617D02*
X74535771Y-35142379D01*
X74535771Y-35142379D02*
X74631009Y-35094760D01*
X74631009Y-35094760D02*
X75154819Y-35094760D01*
X74631009Y-35094760D02*
X74535771Y-35047141D01*
X74535771Y-35047141D02*
X74488152Y-34951903D01*
X74488152Y-34951903D02*
X74488152Y-34809046D01*
X74488152Y-34809046D02*
X74535771Y-34713807D01*
X74535771Y-34713807D02*
X74631009Y-34666188D01*
X74631009Y-34666188D02*
X75154819Y-34666188D01*
X75154819Y-34189998D02*
X74488152Y-34189998D01*
X74583390Y-34189998D02*
X74535771Y-34142379D01*
X74535771Y-34142379D02*
X74488152Y-34047141D01*
X74488152Y-34047141D02*
X74488152Y-33904284D01*
X74488152Y-33904284D02*
X74535771Y-33809046D01*
X74535771Y-33809046D02*
X74631009Y-33761427D01*
X74631009Y-33761427D02*
X75154819Y-33761427D01*
X74631009Y-33761427D02*
X74535771Y-33713808D01*
X74535771Y-33713808D02*
X74488152Y-33618570D01*
X74488152Y-33618570D02*
X74488152Y-33475713D01*
X74488152Y-33475713D02*
X74535771Y-33380474D01*
X74535771Y-33380474D02*
X74631009Y-33332855D01*
X74631009Y-33332855D02*
X75154819Y-33332855D01*
X75250057Y-33094761D02*
X75250057Y-32332856D01*
X74154819Y-32189998D02*
X75154819Y-31951903D01*
X75154819Y-31951903D02*
X74440533Y-31761427D01*
X74440533Y-31761427D02*
X75154819Y-31570951D01*
X75154819Y-31570951D02*
X74154819Y-31332856D01*
X74154819Y-31047141D02*
X74154819Y-30380475D01*
X74154819Y-30380475D02*
X75154819Y-30809046D01*
X75059580Y-29999522D02*
X75107200Y-29951903D01*
X75107200Y-29951903D02*
X75154819Y-29999522D01*
X75154819Y-29999522D02*
X75107200Y-30047141D01*
X75107200Y-30047141D02*
X75059580Y-29999522D01*
X75059580Y-29999522D02*
X75154819Y-29999522D01*
X74154819Y-29094761D02*
X74154819Y-29285237D01*
X74154819Y-29285237D02*
X74202438Y-29380475D01*
X74202438Y-29380475D02*
X74250057Y-29428094D01*
X74250057Y-29428094D02*
X74392914Y-29523332D01*
X74392914Y-29523332D02*
X74583390Y-29570951D01*
X74583390Y-29570951D02*
X74964342Y-29570951D01*
X74964342Y-29570951D02*
X75059580Y-29523332D01*
X75059580Y-29523332D02*
X75107200Y-29475713D01*
X75107200Y-29475713D02*
X75154819Y-29380475D01*
X75154819Y-29380475D02*
X75154819Y-29189999D01*
X75154819Y-29189999D02*
X75107200Y-29094761D01*
X75107200Y-29094761D02*
X75059580Y-29047142D01*
X75059580Y-29047142D02*
X74964342Y-28999523D01*
X74964342Y-28999523D02*
X74726247Y-28999523D01*
X74726247Y-28999523D02*
X74631009Y-29047142D01*
X74631009Y-29047142D02*
X74583390Y-29094761D01*
X74583390Y-29094761D02*
X74535771Y-29189999D01*
X74535771Y-29189999D02*
X74535771Y-29380475D01*
X74535771Y-29380475D02*
X74583390Y-29475713D01*
X74583390Y-29475713D02*
X74631009Y-29523332D01*
X74631009Y-29523332D02*
X74726247Y-29570951D01*
X74250057Y-28618570D02*
X74202438Y-28570951D01*
X74202438Y-28570951D02*
X74154819Y-28475713D01*
X74154819Y-28475713D02*
X74154819Y-28237618D01*
X74154819Y-28237618D02*
X74202438Y-28142380D01*
X74202438Y-28142380D02*
X74250057Y-28094761D01*
X74250057Y-28094761D02*
X74345295Y-28047142D01*
X74345295Y-28047142D02*
X74440533Y-28047142D01*
X74440533Y-28047142D02*
X74583390Y-28094761D01*
X74583390Y-28094761D02*
X75154819Y-28666189D01*
X75154819Y-28666189D02*
X75154819Y-28047142D01*
X75154819Y-27618570D02*
X74488152Y-27618570D01*
X74583390Y-27618570D02*
X74535771Y-27570951D01*
X74535771Y-27570951D02*
X74488152Y-27475713D01*
X74488152Y-27475713D02*
X74488152Y-27332856D01*
X74488152Y-27332856D02*
X74535771Y-27237618D01*
X74535771Y-27237618D02*
X74631009Y-27189999D01*
X74631009Y-27189999D02*
X75154819Y-27189999D01*
X74631009Y-27189999D02*
X74535771Y-27142380D01*
X74535771Y-27142380D02*
X74488152Y-27047142D01*
X74488152Y-27047142D02*
X74488152Y-26904285D01*
X74488152Y-26904285D02*
X74535771Y-26809046D01*
X74535771Y-26809046D02*
X74631009Y-26761427D01*
X74631009Y-26761427D02*
X75154819Y-26761427D01*
X75154819Y-26285237D02*
X74488152Y-26285237D01*
X74583390Y-26285237D02*
X74535771Y-26237618D01*
X74535771Y-26237618D02*
X74488152Y-26142380D01*
X74488152Y-26142380D02*
X74488152Y-25999523D01*
X74488152Y-25999523D02*
X74535771Y-25904285D01*
X74535771Y-25904285D02*
X74631009Y-25856666D01*
X74631009Y-25856666D02*
X75154819Y-25856666D01*
X74631009Y-25856666D02*
X74535771Y-25809047D01*
X74535771Y-25809047D02*
X74488152Y-25713809D01*
X74488152Y-25713809D02*
X74488152Y-25570952D01*
X74488152Y-25570952D02*
X74535771Y-25475713D01*
X74535771Y-25475713D02*
X74631009Y-25428094D01*
X74631009Y-25428094D02*
X75154819Y-25428094D01*
X75250057Y-25190000D02*
X75250057Y-24428095D01*
X75154819Y-24189999D02*
X74154819Y-24189999D01*
X74154819Y-24189999D02*
X74154819Y-23809047D01*
X74154819Y-23809047D02*
X74202438Y-23713809D01*
X74202438Y-23713809D02*
X74250057Y-23666190D01*
X74250057Y-23666190D02*
X74345295Y-23618571D01*
X74345295Y-23618571D02*
X74488152Y-23618571D01*
X74488152Y-23618571D02*
X74583390Y-23666190D01*
X74583390Y-23666190D02*
X74631009Y-23713809D01*
X74631009Y-23713809D02*
X74678628Y-23809047D01*
X74678628Y-23809047D02*
X74678628Y-24189999D01*
X74250057Y-23237618D02*
X74202438Y-23189999D01*
X74202438Y-23189999D02*
X74154819Y-23094761D01*
X74154819Y-23094761D02*
X74154819Y-22856666D01*
X74154819Y-22856666D02*
X74202438Y-22761428D01*
X74202438Y-22761428D02*
X74250057Y-22713809D01*
X74250057Y-22713809D02*
X74345295Y-22666190D01*
X74345295Y-22666190D02*
X74440533Y-22666190D01*
X74440533Y-22666190D02*
X74583390Y-22713809D01*
X74583390Y-22713809D02*
X75154819Y-23285237D01*
X75154819Y-23285237D02*
X75154819Y-22666190D01*
X75059580Y-22237618D02*
X75107200Y-22189999D01*
X75107200Y-22189999D02*
X75154819Y-22237618D01*
X75154819Y-22237618D02*
X75107200Y-22285237D01*
X75107200Y-22285237D02*
X75059580Y-22237618D01*
X75059580Y-22237618D02*
X75154819Y-22237618D01*
X74154819Y-21285238D02*
X74154819Y-21761428D01*
X74154819Y-21761428D02*
X74631009Y-21809047D01*
X74631009Y-21809047D02*
X74583390Y-21761428D01*
X74583390Y-21761428D02*
X74535771Y-21666190D01*
X74535771Y-21666190D02*
X74535771Y-21428095D01*
X74535771Y-21428095D02*
X74583390Y-21332857D01*
X74583390Y-21332857D02*
X74631009Y-21285238D01*
X74631009Y-21285238D02*
X74726247Y-21237619D01*
X74726247Y-21237619D02*
X74964342Y-21237619D01*
X74964342Y-21237619D02*
X75059580Y-21285238D01*
X75059580Y-21285238D02*
X75107200Y-21332857D01*
X75107200Y-21332857D02*
X75154819Y-21428095D01*
X75154819Y-21428095D02*
X75154819Y-21666190D01*
X75154819Y-21666190D02*
X75107200Y-21761428D01*
X75107200Y-21761428D02*
X75059580Y-21809047D01*
X74488152Y-20380476D02*
X75154819Y-20380476D01*
X74107200Y-20618571D02*
X74821485Y-20856666D01*
X74821485Y-20856666D02*
X74821485Y-20237619D01*
X75154819Y-19856666D02*
X74488152Y-19856666D01*
X74583390Y-19856666D02*
X74535771Y-19809047D01*
X74535771Y-19809047D02*
X74488152Y-19713809D01*
X74488152Y-19713809D02*
X74488152Y-19570952D01*
X74488152Y-19570952D02*
X74535771Y-19475714D01*
X74535771Y-19475714D02*
X74631009Y-19428095D01*
X74631009Y-19428095D02*
X75154819Y-19428095D01*
X74631009Y-19428095D02*
X74535771Y-19380476D01*
X74535771Y-19380476D02*
X74488152Y-19285238D01*
X74488152Y-19285238D02*
X74488152Y-19142381D01*
X74488152Y-19142381D02*
X74535771Y-19047142D01*
X74535771Y-19047142D02*
X74631009Y-18999523D01*
X74631009Y-18999523D02*
X75154819Y-18999523D01*
X75154819Y-18523333D02*
X74488152Y-18523333D01*
X74583390Y-18523333D02*
X74535771Y-18475714D01*
X74535771Y-18475714D02*
X74488152Y-18380476D01*
X74488152Y-18380476D02*
X74488152Y-18237619D01*
X74488152Y-18237619D02*
X74535771Y-18142381D01*
X74535771Y-18142381D02*
X74631009Y-18094762D01*
X74631009Y-18094762D02*
X75154819Y-18094762D01*
X74631009Y-18094762D02*
X74535771Y-18047143D01*
X74535771Y-18047143D02*
X74488152Y-17951905D01*
X74488152Y-17951905D02*
X74488152Y-17809048D01*
X74488152Y-17809048D02*
X74535771Y-17713809D01*
X74535771Y-17713809D02*
X74631009Y-17666190D01*
X74631009Y-17666190D02*
X75154819Y-17666190D01*
D12*
X70055391Y-37949285D02*
X70026820Y-38006428D01*
X70026820Y-38006428D02*
X69998248Y-38034999D01*
X69998248Y-38034999D02*
X69941105Y-38063571D01*
X69941105Y-38063571D02*
X69769677Y-38063571D01*
X69769677Y-38063571D02*
X69712534Y-38034999D01*
X69712534Y-38034999D02*
X69683962Y-38006428D01*
X69683962Y-38006428D02*
X69655391Y-37949285D01*
X69655391Y-37949285D02*
X69655391Y-37863571D01*
X69655391Y-37863571D02*
X69683962Y-37806428D01*
X69683962Y-37806428D02*
X69712534Y-37777857D01*
X69712534Y-37777857D02*
X69769677Y-37749285D01*
X69769677Y-37749285D02*
X69941105Y-37749285D01*
X69941105Y-37749285D02*
X69998248Y-37777857D01*
X69998248Y-37777857D02*
X70026820Y-37806428D01*
X70026820Y-37806428D02*
X70055391Y-37863571D01*
X70055391Y-37863571D02*
X70055391Y-37949285D01*
X69655391Y-37492142D02*
X70055391Y-37492142D01*
X69712534Y-37492142D02*
X69683962Y-37463571D01*
X69683962Y-37463571D02*
X69655391Y-37406428D01*
X69655391Y-37406428D02*
X69655391Y-37320714D01*
X69655391Y-37320714D02*
X69683962Y-37263571D01*
X69683962Y-37263571D02*
X69741105Y-37235000D01*
X69741105Y-37235000D02*
X70055391Y-37235000D01*
X70479999Y-35974320D02*
X70565714Y-36002891D01*
X70565714Y-36002891D02*
X70708571Y-36002891D01*
X70708571Y-36002891D02*
X70765714Y-35974320D01*
X70765714Y-35974320D02*
X70794285Y-35945748D01*
X70794285Y-35945748D02*
X70822856Y-35888605D01*
X70822856Y-35888605D02*
X70822856Y-35831462D01*
X70822856Y-35831462D02*
X70794285Y-35774320D01*
X70794285Y-35774320D02*
X70765714Y-35745748D01*
X70765714Y-35745748D02*
X70708571Y-35717177D01*
X70708571Y-35717177D02*
X70594285Y-35688605D01*
X70594285Y-35688605D02*
X70537142Y-35660034D01*
X70537142Y-35660034D02*
X70508571Y-35631462D01*
X70508571Y-35631462D02*
X70479999Y-35574320D01*
X70479999Y-35574320D02*
X70479999Y-35517177D01*
X70479999Y-35517177D02*
X70508571Y-35460034D01*
X70508571Y-35460034D02*
X70537142Y-35431462D01*
X70537142Y-35431462D02*
X70594285Y-35402891D01*
X70594285Y-35402891D02*
X70737142Y-35402891D01*
X70737142Y-35402891D02*
X70822856Y-35431462D01*
X71022857Y-35402891D02*
X71165714Y-36002891D01*
X71165714Y-36002891D02*
X71280000Y-35574320D01*
X71280000Y-35574320D02*
X71394285Y-36002891D01*
X71394285Y-36002891D02*
X71537143Y-35402891D01*
X72079999Y-36002891D02*
X71737142Y-36002891D01*
X71908571Y-36002891D02*
X71908571Y-35402891D01*
X71908571Y-35402891D02*
X71851428Y-35488605D01*
X71851428Y-35488605D02*
X71794285Y-35545748D01*
X71794285Y-35545748D02*
X71737142Y-35574320D01*
D10*
X63476189Y-52424819D02*
X63142856Y-51948628D01*
X62904761Y-52424819D02*
X62904761Y-51424819D01*
X62904761Y-51424819D02*
X63285713Y-51424819D01*
X63285713Y-51424819D02*
X63380951Y-51472438D01*
X63380951Y-51472438D02*
X63428570Y-51520057D01*
X63428570Y-51520057D02*
X63476189Y-51615295D01*
X63476189Y-51615295D02*
X63476189Y-51758152D01*
X63476189Y-51758152D02*
X63428570Y-51853390D01*
X63428570Y-51853390D02*
X63380951Y-51901009D01*
X63380951Y-51901009D02*
X63285713Y-51948628D01*
X63285713Y-51948628D02*
X62904761Y-51948628D01*
X63666666Y-52520057D02*
X64428570Y-52520057D01*
X64857142Y-51424819D02*
X64952380Y-51424819D01*
X64952380Y-51424819D02*
X65047618Y-51472438D01*
X65047618Y-51472438D02*
X65095237Y-51520057D01*
X65095237Y-51520057D02*
X65142856Y-51615295D01*
X65142856Y-51615295D02*
X65190475Y-51805771D01*
X65190475Y-51805771D02*
X65190475Y-52043866D01*
X65190475Y-52043866D02*
X65142856Y-52234342D01*
X65142856Y-52234342D02*
X65095237Y-52329580D01*
X65095237Y-52329580D02*
X65047618Y-52377200D01*
X65047618Y-52377200D02*
X64952380Y-52424819D01*
X64952380Y-52424819D02*
X64857142Y-52424819D01*
X64857142Y-52424819D02*
X64761904Y-52377200D01*
X64761904Y-52377200D02*
X64714285Y-52329580D01*
X64714285Y-52329580D02*
X64666666Y-52234342D01*
X64666666Y-52234342D02*
X64619047Y-52043866D01*
X64619047Y-52043866D02*
X64619047Y-51805771D01*
X64619047Y-51805771D02*
X64666666Y-51615295D01*
X64666666Y-51615295D02*
X64714285Y-51520057D01*
X64714285Y-51520057D02*
X64761904Y-51472438D01*
X64761904Y-51472438D02*
X64857142Y-51424819D01*
X66047618Y-51424819D02*
X65857142Y-51424819D01*
X65857142Y-51424819D02*
X65761904Y-51472438D01*
X65761904Y-51472438D02*
X65714285Y-51520057D01*
X65714285Y-51520057D02*
X65619047Y-51662914D01*
X65619047Y-51662914D02*
X65571428Y-51853390D01*
X65571428Y-51853390D02*
X65571428Y-52234342D01*
X65571428Y-52234342D02*
X65619047Y-52329580D01*
X65619047Y-52329580D02*
X65666666Y-52377200D01*
X65666666Y-52377200D02*
X65761904Y-52424819D01*
X65761904Y-52424819D02*
X65952380Y-52424819D01*
X65952380Y-52424819D02*
X66047618Y-52377200D01*
X66047618Y-52377200D02*
X66095237Y-52329580D01*
X66095237Y-52329580D02*
X66142856Y-52234342D01*
X66142856Y-52234342D02*
X66142856Y-51996247D01*
X66142856Y-51996247D02*
X66095237Y-51901009D01*
X66095237Y-51901009D02*
X66047618Y-51853390D01*
X66047618Y-51853390D02*
X65952380Y-51805771D01*
X65952380Y-51805771D02*
X65761904Y-51805771D01*
X65761904Y-51805771D02*
X65666666Y-51853390D01*
X65666666Y-51853390D02*
X65619047Y-51901009D01*
X65619047Y-51901009D02*
X65571428Y-51996247D01*
X66761904Y-51424819D02*
X66857142Y-51424819D01*
X66857142Y-51424819D02*
X66952380Y-51472438D01*
X66952380Y-51472438D02*
X66999999Y-51520057D01*
X66999999Y-51520057D02*
X67047618Y-51615295D01*
X67047618Y-51615295D02*
X67095237Y-51805771D01*
X67095237Y-51805771D02*
X67095237Y-52043866D01*
X67095237Y-52043866D02*
X67047618Y-52234342D01*
X67047618Y-52234342D02*
X66999999Y-52329580D01*
X66999999Y-52329580D02*
X66952380Y-52377200D01*
X66952380Y-52377200D02*
X66857142Y-52424819D01*
X66857142Y-52424819D02*
X66761904Y-52424819D01*
X66761904Y-52424819D02*
X66666666Y-52377200D01*
X66666666Y-52377200D02*
X66619047Y-52329580D01*
X66619047Y-52329580D02*
X66571428Y-52234342D01*
X66571428Y-52234342D02*
X66523809Y-52043866D01*
X66523809Y-52043866D02*
X66523809Y-51805771D01*
X66523809Y-51805771D02*
X66571428Y-51615295D01*
X66571428Y-51615295D02*
X66619047Y-51520057D01*
X66619047Y-51520057D02*
X66666666Y-51472438D01*
X66666666Y-51472438D02*
X66761904Y-51424819D01*
X67428571Y-51424819D02*
X68047618Y-51424819D01*
X68047618Y-51424819D02*
X67714285Y-51805771D01*
X67714285Y-51805771D02*
X67857142Y-51805771D01*
X67857142Y-51805771D02*
X67952380Y-51853390D01*
X67952380Y-51853390D02*
X67999999Y-51901009D01*
X67999999Y-51901009D02*
X68047618Y-51996247D01*
X68047618Y-51996247D02*
X68047618Y-52234342D01*
X68047618Y-52234342D02*
X67999999Y-52329580D01*
X67999999Y-52329580D02*
X67952380Y-52377200D01*
X67952380Y-52377200D02*
X67857142Y-52424819D01*
X67857142Y-52424819D02*
X67571428Y-52424819D01*
X67571428Y-52424819D02*
X67476190Y-52377200D01*
X67476190Y-52377200D02*
X67428571Y-52329580D01*
X68238095Y-52520057D02*
X68999999Y-52520057D01*
X69761904Y-52424819D02*
X69190476Y-52424819D01*
X69476190Y-52424819D02*
X69476190Y-51424819D01*
X69476190Y-51424819D02*
X69380952Y-51567676D01*
X69380952Y-51567676D02*
X69285714Y-51662914D01*
X69285714Y-51662914D02*
X69190476Y-51710533D01*
X70619047Y-51424819D02*
X70428571Y-51424819D01*
X70428571Y-51424819D02*
X70333333Y-51472438D01*
X70333333Y-51472438D02*
X70285714Y-51520057D01*
X70285714Y-51520057D02*
X70190476Y-51662914D01*
X70190476Y-51662914D02*
X70142857Y-51853390D01*
X70142857Y-51853390D02*
X70142857Y-52234342D01*
X70142857Y-52234342D02*
X70190476Y-52329580D01*
X70190476Y-52329580D02*
X70238095Y-52377200D01*
X70238095Y-52377200D02*
X70333333Y-52424819D01*
X70333333Y-52424819D02*
X70523809Y-52424819D01*
X70523809Y-52424819D02*
X70619047Y-52377200D01*
X70619047Y-52377200D02*
X70666666Y-52329580D01*
X70666666Y-52329580D02*
X70714285Y-52234342D01*
X70714285Y-52234342D02*
X70714285Y-51996247D01*
X70714285Y-51996247D02*
X70666666Y-51901009D01*
X70666666Y-51901009D02*
X70619047Y-51853390D01*
X70619047Y-51853390D02*
X70523809Y-51805771D01*
X70523809Y-51805771D02*
X70333333Y-51805771D01*
X70333333Y-51805771D02*
X70238095Y-51853390D01*
X70238095Y-51853390D02*
X70190476Y-51901009D01*
X70190476Y-51901009D02*
X70142857Y-51996247D01*
X71333333Y-51424819D02*
X71428571Y-51424819D01*
X71428571Y-51424819D02*
X71523809Y-51472438D01*
X71523809Y-51472438D02*
X71571428Y-51520057D01*
X71571428Y-51520057D02*
X71619047Y-51615295D01*
X71619047Y-51615295D02*
X71666666Y-51805771D01*
X71666666Y-51805771D02*
X71666666Y-52043866D01*
X71666666Y-52043866D02*
X71619047Y-52234342D01*
X71619047Y-52234342D02*
X71571428Y-52329580D01*
X71571428Y-52329580D02*
X71523809Y-52377200D01*
X71523809Y-52377200D02*
X71428571Y-52424819D01*
X71428571Y-52424819D02*
X71333333Y-52424819D01*
X71333333Y-52424819D02*
X71238095Y-52377200D01*
X71238095Y-52377200D02*
X71190476Y-52329580D01*
X71190476Y-52329580D02*
X71142857Y-52234342D01*
X71142857Y-52234342D02*
X71095238Y-52043866D01*
X71095238Y-52043866D02*
X71095238Y-51805771D01*
X71095238Y-51805771D02*
X71142857Y-51615295D01*
X71142857Y-51615295D02*
X71190476Y-51520057D01*
X71190476Y-51520057D02*
X71238095Y-51472438D01*
X71238095Y-51472438D02*
X71333333Y-51424819D01*
X72238095Y-51853390D02*
X72142857Y-51805771D01*
X72142857Y-51805771D02*
X72095238Y-51758152D01*
X72095238Y-51758152D02*
X72047619Y-51662914D01*
X72047619Y-51662914D02*
X72047619Y-51615295D01*
X72047619Y-51615295D02*
X72095238Y-51520057D01*
X72095238Y-51520057D02*
X72142857Y-51472438D01*
X72142857Y-51472438D02*
X72238095Y-51424819D01*
X72238095Y-51424819D02*
X72428571Y-51424819D01*
X72428571Y-51424819D02*
X72523809Y-51472438D01*
X72523809Y-51472438D02*
X72571428Y-51520057D01*
X72571428Y-51520057D02*
X72619047Y-51615295D01*
X72619047Y-51615295D02*
X72619047Y-51662914D01*
X72619047Y-51662914D02*
X72571428Y-51758152D01*
X72571428Y-51758152D02*
X72523809Y-51805771D01*
X72523809Y-51805771D02*
X72428571Y-51853390D01*
X72428571Y-51853390D02*
X72238095Y-51853390D01*
X72238095Y-51853390D02*
X72142857Y-51901009D01*
X72142857Y-51901009D02*
X72095238Y-51948628D01*
X72095238Y-51948628D02*
X72047619Y-52043866D01*
X72047619Y-52043866D02*
X72047619Y-52234342D01*
X72047619Y-52234342D02*
X72095238Y-52329580D01*
X72095238Y-52329580D02*
X72142857Y-52377200D01*
X72142857Y-52377200D02*
X72238095Y-52424819D01*
X72238095Y-52424819D02*
X72428571Y-52424819D01*
X72428571Y-52424819D02*
X72523809Y-52377200D01*
X72523809Y-52377200D02*
X72571428Y-52329580D01*
X72571428Y-52329580D02*
X72619047Y-52234342D01*
X72619047Y-52234342D02*
X72619047Y-52043866D01*
X72619047Y-52043866D02*
X72571428Y-51948628D01*
X72571428Y-51948628D02*
X72523809Y-51901009D01*
X72523809Y-51901009D02*
X72428571Y-51853390D01*
X73047619Y-52424819D02*
X73047619Y-51424819D01*
X73047619Y-51424819D02*
X73380952Y-52139104D01*
X73380952Y-52139104D02*
X73714285Y-51424819D01*
X73714285Y-51424819D02*
X73714285Y-52424819D01*
X74571428Y-52377200D02*
X74476190Y-52424819D01*
X74476190Y-52424819D02*
X74285714Y-52424819D01*
X74285714Y-52424819D02*
X74190476Y-52377200D01*
X74190476Y-52377200D02*
X74142857Y-52281961D01*
X74142857Y-52281961D02*
X74142857Y-51901009D01*
X74142857Y-51901009D02*
X74190476Y-51805771D01*
X74190476Y-51805771D02*
X74285714Y-51758152D01*
X74285714Y-51758152D02*
X74476190Y-51758152D01*
X74476190Y-51758152D02*
X74571428Y-51805771D01*
X74571428Y-51805771D02*
X74619047Y-51901009D01*
X74619047Y-51901009D02*
X74619047Y-51996247D01*
X74619047Y-51996247D02*
X74142857Y-52091485D01*
X74904762Y-51758152D02*
X75285714Y-51758152D01*
X75047619Y-51424819D02*
X75047619Y-52281961D01*
X75047619Y-52281961D02*
X75095238Y-52377200D01*
X75095238Y-52377200D02*
X75190476Y-52424819D01*
X75190476Y-52424819D02*
X75285714Y-52424819D01*
X75619048Y-52424819D02*
X75619048Y-51758152D01*
X75619048Y-51948628D02*
X75666667Y-51853390D01*
X75666667Y-51853390D02*
X75714286Y-51805771D01*
X75714286Y-51805771D02*
X75809524Y-51758152D01*
X75809524Y-51758152D02*
X75904762Y-51758152D01*
X76238096Y-52424819D02*
X76238096Y-51758152D01*
X76238096Y-51424819D02*
X76190477Y-51472438D01*
X76190477Y-51472438D02*
X76238096Y-51520057D01*
X76238096Y-51520057D02*
X76285715Y-51472438D01*
X76285715Y-51472438D02*
X76238096Y-51424819D01*
X76238096Y-51424819D02*
X76238096Y-51520057D01*
X77142857Y-52377200D02*
X77047619Y-52424819D01*
X77047619Y-52424819D02*
X76857143Y-52424819D01*
X76857143Y-52424819D02*
X76761905Y-52377200D01*
X76761905Y-52377200D02*
X76714286Y-52329580D01*
X76714286Y-52329580D02*
X76666667Y-52234342D01*
X76666667Y-52234342D02*
X76666667Y-51948628D01*
X76666667Y-51948628D02*
X76714286Y-51853390D01*
X76714286Y-51853390D02*
X76761905Y-51805771D01*
X76761905Y-51805771D02*
X76857143Y-51758152D01*
X76857143Y-51758152D02*
X77047619Y-51758152D01*
X77047619Y-51758152D02*
X77142857Y-51805771D01*
D11*
X69933333Y-50721927D02*
X69800000Y-50531451D01*
X69704762Y-50721927D02*
X69704762Y-50321927D01*
X69704762Y-50321927D02*
X69857143Y-50321927D01*
X69857143Y-50321927D02*
X69895238Y-50340975D01*
X69895238Y-50340975D02*
X69914285Y-50360022D01*
X69914285Y-50360022D02*
X69933333Y-50398118D01*
X69933333Y-50398118D02*
X69933333Y-50455260D01*
X69933333Y-50455260D02*
X69914285Y-50493356D01*
X69914285Y-50493356D02*
X69895238Y-50512403D01*
X69895238Y-50512403D02*
X69857143Y-50531451D01*
X69857143Y-50531451D02*
X69704762Y-50531451D01*
X70066666Y-50321927D02*
X70314285Y-50321927D01*
X70314285Y-50321927D02*
X70180952Y-50474308D01*
X70180952Y-50474308D02*
X70238095Y-50474308D01*
X70238095Y-50474308D02*
X70276190Y-50493356D01*
X70276190Y-50493356D02*
X70295238Y-50512403D01*
X70295238Y-50512403D02*
X70314285Y-50550499D01*
X70314285Y-50550499D02*
X70314285Y-50645737D01*
X70314285Y-50645737D02*
X70295238Y-50683832D01*
X70295238Y-50683832D02*
X70276190Y-50702880D01*
X70276190Y-50702880D02*
X70238095Y-50721927D01*
X70238095Y-50721927D02*
X70123809Y-50721927D01*
X70123809Y-50721927D02*
X70085714Y-50702880D01*
X70085714Y-50702880D02*
X70066666Y-50683832D01*
D10*
X35884819Y-54523810D02*
X35408628Y-54857143D01*
X35884819Y-55095238D02*
X34884819Y-55095238D01*
X34884819Y-55095238D02*
X34884819Y-54714286D01*
X34884819Y-54714286D02*
X34932438Y-54619048D01*
X34932438Y-54619048D02*
X34980057Y-54571429D01*
X34980057Y-54571429D02*
X35075295Y-54523810D01*
X35075295Y-54523810D02*
X35218152Y-54523810D01*
X35218152Y-54523810D02*
X35313390Y-54571429D01*
X35313390Y-54571429D02*
X35361009Y-54619048D01*
X35361009Y-54619048D02*
X35408628Y-54714286D01*
X35408628Y-54714286D02*
X35408628Y-55095238D01*
X35980057Y-54333334D02*
X35980057Y-53571429D01*
X34884819Y-53142857D02*
X34884819Y-53047619D01*
X34884819Y-53047619D02*
X34932438Y-52952381D01*
X34932438Y-52952381D02*
X34980057Y-52904762D01*
X34980057Y-52904762D02*
X35075295Y-52857143D01*
X35075295Y-52857143D02*
X35265771Y-52809524D01*
X35265771Y-52809524D02*
X35503866Y-52809524D01*
X35503866Y-52809524D02*
X35694342Y-52857143D01*
X35694342Y-52857143D02*
X35789580Y-52904762D01*
X35789580Y-52904762D02*
X35837200Y-52952381D01*
X35837200Y-52952381D02*
X35884819Y-53047619D01*
X35884819Y-53047619D02*
X35884819Y-53142857D01*
X35884819Y-53142857D02*
X35837200Y-53238095D01*
X35837200Y-53238095D02*
X35789580Y-53285714D01*
X35789580Y-53285714D02*
X35694342Y-53333333D01*
X35694342Y-53333333D02*
X35503866Y-53380952D01*
X35503866Y-53380952D02*
X35265771Y-53380952D01*
X35265771Y-53380952D02*
X35075295Y-53333333D01*
X35075295Y-53333333D02*
X34980057Y-53285714D01*
X34980057Y-53285714D02*
X34932438Y-53238095D01*
X34932438Y-53238095D02*
X34884819Y-53142857D01*
X34884819Y-51952381D02*
X34884819Y-52142857D01*
X34884819Y-52142857D02*
X34932438Y-52238095D01*
X34932438Y-52238095D02*
X34980057Y-52285714D01*
X34980057Y-52285714D02*
X35122914Y-52380952D01*
X35122914Y-52380952D02*
X35313390Y-52428571D01*
X35313390Y-52428571D02*
X35694342Y-52428571D01*
X35694342Y-52428571D02*
X35789580Y-52380952D01*
X35789580Y-52380952D02*
X35837200Y-52333333D01*
X35837200Y-52333333D02*
X35884819Y-52238095D01*
X35884819Y-52238095D02*
X35884819Y-52047619D01*
X35884819Y-52047619D02*
X35837200Y-51952381D01*
X35837200Y-51952381D02*
X35789580Y-51904762D01*
X35789580Y-51904762D02*
X35694342Y-51857143D01*
X35694342Y-51857143D02*
X35456247Y-51857143D01*
X35456247Y-51857143D02*
X35361009Y-51904762D01*
X35361009Y-51904762D02*
X35313390Y-51952381D01*
X35313390Y-51952381D02*
X35265771Y-52047619D01*
X35265771Y-52047619D02*
X35265771Y-52238095D01*
X35265771Y-52238095D02*
X35313390Y-52333333D01*
X35313390Y-52333333D02*
X35361009Y-52380952D01*
X35361009Y-52380952D02*
X35456247Y-52428571D01*
X34884819Y-51238095D02*
X34884819Y-51142857D01*
X34884819Y-51142857D02*
X34932438Y-51047619D01*
X34932438Y-51047619D02*
X34980057Y-51000000D01*
X34980057Y-51000000D02*
X35075295Y-50952381D01*
X35075295Y-50952381D02*
X35265771Y-50904762D01*
X35265771Y-50904762D02*
X35503866Y-50904762D01*
X35503866Y-50904762D02*
X35694342Y-50952381D01*
X35694342Y-50952381D02*
X35789580Y-51000000D01*
X35789580Y-51000000D02*
X35837200Y-51047619D01*
X35837200Y-51047619D02*
X35884819Y-51142857D01*
X35884819Y-51142857D02*
X35884819Y-51238095D01*
X35884819Y-51238095D02*
X35837200Y-51333333D01*
X35837200Y-51333333D02*
X35789580Y-51380952D01*
X35789580Y-51380952D02*
X35694342Y-51428571D01*
X35694342Y-51428571D02*
X35503866Y-51476190D01*
X35503866Y-51476190D02*
X35265771Y-51476190D01*
X35265771Y-51476190D02*
X35075295Y-51428571D01*
X35075295Y-51428571D02*
X34980057Y-51380952D01*
X34980057Y-51380952D02*
X34932438Y-51333333D01*
X34932438Y-51333333D02*
X34884819Y-51238095D01*
X34884819Y-50571428D02*
X34884819Y-49952381D01*
X34884819Y-49952381D02*
X35265771Y-50285714D01*
X35265771Y-50285714D02*
X35265771Y-50142857D01*
X35265771Y-50142857D02*
X35313390Y-50047619D01*
X35313390Y-50047619D02*
X35361009Y-50000000D01*
X35361009Y-50000000D02*
X35456247Y-49952381D01*
X35456247Y-49952381D02*
X35694342Y-49952381D01*
X35694342Y-49952381D02*
X35789580Y-50000000D01*
X35789580Y-50000000D02*
X35837200Y-50047619D01*
X35837200Y-50047619D02*
X35884819Y-50142857D01*
X35884819Y-50142857D02*
X35884819Y-50428571D01*
X35884819Y-50428571D02*
X35837200Y-50523809D01*
X35837200Y-50523809D02*
X35789580Y-50571428D01*
X35980057Y-49761905D02*
X35980057Y-49000000D01*
X35884819Y-48238095D02*
X35884819Y-48809523D01*
X35884819Y-48523809D02*
X34884819Y-48523809D01*
X34884819Y-48523809D02*
X35027676Y-48619047D01*
X35027676Y-48619047D02*
X35122914Y-48714285D01*
X35122914Y-48714285D02*
X35170533Y-48809523D01*
X34884819Y-47380952D02*
X34884819Y-47571428D01*
X34884819Y-47571428D02*
X34932438Y-47666666D01*
X34932438Y-47666666D02*
X34980057Y-47714285D01*
X34980057Y-47714285D02*
X35122914Y-47809523D01*
X35122914Y-47809523D02*
X35313390Y-47857142D01*
X35313390Y-47857142D02*
X35694342Y-47857142D01*
X35694342Y-47857142D02*
X35789580Y-47809523D01*
X35789580Y-47809523D02*
X35837200Y-47761904D01*
X35837200Y-47761904D02*
X35884819Y-47666666D01*
X35884819Y-47666666D02*
X35884819Y-47476190D01*
X35884819Y-47476190D02*
X35837200Y-47380952D01*
X35837200Y-47380952D02*
X35789580Y-47333333D01*
X35789580Y-47333333D02*
X35694342Y-47285714D01*
X35694342Y-47285714D02*
X35456247Y-47285714D01*
X35456247Y-47285714D02*
X35361009Y-47333333D01*
X35361009Y-47333333D02*
X35313390Y-47380952D01*
X35313390Y-47380952D02*
X35265771Y-47476190D01*
X35265771Y-47476190D02*
X35265771Y-47666666D01*
X35265771Y-47666666D02*
X35313390Y-47761904D01*
X35313390Y-47761904D02*
X35361009Y-47809523D01*
X35361009Y-47809523D02*
X35456247Y-47857142D01*
X34884819Y-46666666D02*
X34884819Y-46571428D01*
X34884819Y-46571428D02*
X34932438Y-46476190D01*
X34932438Y-46476190D02*
X34980057Y-46428571D01*
X34980057Y-46428571D02*
X35075295Y-46380952D01*
X35075295Y-46380952D02*
X35265771Y-46333333D01*
X35265771Y-46333333D02*
X35503866Y-46333333D01*
X35503866Y-46333333D02*
X35694342Y-46380952D01*
X35694342Y-46380952D02*
X35789580Y-46428571D01*
X35789580Y-46428571D02*
X35837200Y-46476190D01*
X35837200Y-46476190D02*
X35884819Y-46571428D01*
X35884819Y-46571428D02*
X35884819Y-46666666D01*
X35884819Y-46666666D02*
X35837200Y-46761904D01*
X35837200Y-46761904D02*
X35789580Y-46809523D01*
X35789580Y-46809523D02*
X35694342Y-46857142D01*
X35694342Y-46857142D02*
X35503866Y-46904761D01*
X35503866Y-46904761D02*
X35265771Y-46904761D01*
X35265771Y-46904761D02*
X35075295Y-46857142D01*
X35075295Y-46857142D02*
X34980057Y-46809523D01*
X34980057Y-46809523D02*
X34932438Y-46761904D01*
X34932438Y-46761904D02*
X34884819Y-46666666D01*
X35313390Y-45761904D02*
X35265771Y-45857142D01*
X35265771Y-45857142D02*
X35218152Y-45904761D01*
X35218152Y-45904761D02*
X35122914Y-45952380D01*
X35122914Y-45952380D02*
X35075295Y-45952380D01*
X35075295Y-45952380D02*
X34980057Y-45904761D01*
X34980057Y-45904761D02*
X34932438Y-45857142D01*
X34932438Y-45857142D02*
X34884819Y-45761904D01*
X34884819Y-45761904D02*
X34884819Y-45571428D01*
X34884819Y-45571428D02*
X34932438Y-45476190D01*
X34932438Y-45476190D02*
X34980057Y-45428571D01*
X34980057Y-45428571D02*
X35075295Y-45380952D01*
X35075295Y-45380952D02*
X35122914Y-45380952D01*
X35122914Y-45380952D02*
X35218152Y-45428571D01*
X35218152Y-45428571D02*
X35265771Y-45476190D01*
X35265771Y-45476190D02*
X35313390Y-45571428D01*
X35313390Y-45571428D02*
X35313390Y-45761904D01*
X35313390Y-45761904D02*
X35361009Y-45857142D01*
X35361009Y-45857142D02*
X35408628Y-45904761D01*
X35408628Y-45904761D02*
X35503866Y-45952380D01*
X35503866Y-45952380D02*
X35694342Y-45952380D01*
X35694342Y-45952380D02*
X35789580Y-45904761D01*
X35789580Y-45904761D02*
X35837200Y-45857142D01*
X35837200Y-45857142D02*
X35884819Y-45761904D01*
X35884819Y-45761904D02*
X35884819Y-45571428D01*
X35884819Y-45571428D02*
X35837200Y-45476190D01*
X35837200Y-45476190D02*
X35789580Y-45428571D01*
X35789580Y-45428571D02*
X35694342Y-45380952D01*
X35694342Y-45380952D02*
X35503866Y-45380952D01*
X35503866Y-45380952D02*
X35408628Y-45428571D01*
X35408628Y-45428571D02*
X35361009Y-45476190D01*
X35361009Y-45476190D02*
X35313390Y-45571428D01*
X35884819Y-44952380D02*
X34884819Y-44952380D01*
X34884819Y-44952380D02*
X35599104Y-44619047D01*
X35599104Y-44619047D02*
X34884819Y-44285714D01*
X34884819Y-44285714D02*
X35884819Y-44285714D01*
X35837200Y-43428571D02*
X35884819Y-43523809D01*
X35884819Y-43523809D02*
X35884819Y-43714285D01*
X35884819Y-43714285D02*
X35837200Y-43809523D01*
X35837200Y-43809523D02*
X35741961Y-43857142D01*
X35741961Y-43857142D02*
X35361009Y-43857142D01*
X35361009Y-43857142D02*
X35265771Y-43809523D01*
X35265771Y-43809523D02*
X35218152Y-43714285D01*
X35218152Y-43714285D02*
X35218152Y-43523809D01*
X35218152Y-43523809D02*
X35265771Y-43428571D01*
X35265771Y-43428571D02*
X35361009Y-43380952D01*
X35361009Y-43380952D02*
X35456247Y-43380952D01*
X35456247Y-43380952D02*
X35551485Y-43857142D01*
X35218152Y-43095237D02*
X35218152Y-42714285D01*
X34884819Y-42952380D02*
X35741961Y-42952380D01*
X35741961Y-42952380D02*
X35837200Y-42904761D01*
X35837200Y-42904761D02*
X35884819Y-42809523D01*
X35884819Y-42809523D02*
X35884819Y-42714285D01*
X35884819Y-42380951D02*
X35218152Y-42380951D01*
X35408628Y-42380951D02*
X35313390Y-42333332D01*
X35313390Y-42333332D02*
X35265771Y-42285713D01*
X35265771Y-42285713D02*
X35218152Y-42190475D01*
X35218152Y-42190475D02*
X35218152Y-42095237D01*
X35884819Y-41761903D02*
X35218152Y-41761903D01*
X34884819Y-41761903D02*
X34932438Y-41809522D01*
X34932438Y-41809522D02*
X34980057Y-41761903D01*
X34980057Y-41761903D02*
X34932438Y-41714284D01*
X34932438Y-41714284D02*
X34884819Y-41761903D01*
X34884819Y-41761903D02*
X34980057Y-41761903D01*
X35837200Y-40857142D02*
X35884819Y-40952380D01*
X35884819Y-40952380D02*
X35884819Y-41142856D01*
X35884819Y-41142856D02*
X35837200Y-41238094D01*
X35837200Y-41238094D02*
X35789580Y-41285713D01*
X35789580Y-41285713D02*
X35694342Y-41333332D01*
X35694342Y-41333332D02*
X35408628Y-41333332D01*
X35408628Y-41333332D02*
X35313390Y-41285713D01*
X35313390Y-41285713D02*
X35265771Y-41238094D01*
X35265771Y-41238094D02*
X35218152Y-41142856D01*
X35218152Y-41142856D02*
X35218152Y-40952380D01*
X35218152Y-40952380D02*
X35265771Y-40857142D01*
D11*
X34181927Y-48066666D02*
X33991451Y-48199999D01*
X34181927Y-48295237D02*
X33781927Y-48295237D01*
X33781927Y-48295237D02*
X33781927Y-48142856D01*
X33781927Y-48142856D02*
X33800975Y-48104761D01*
X33800975Y-48104761D02*
X33820022Y-48085714D01*
X33820022Y-48085714D02*
X33858118Y-48066666D01*
X33858118Y-48066666D02*
X33915260Y-48066666D01*
X33915260Y-48066666D02*
X33953356Y-48085714D01*
X33953356Y-48085714D02*
X33972403Y-48104761D01*
X33972403Y-48104761D02*
X33991451Y-48142856D01*
X33991451Y-48142856D02*
X33991451Y-48295237D01*
X33915260Y-47723809D02*
X34181927Y-47723809D01*
X33762880Y-47819047D02*
X34048594Y-47914285D01*
X34048594Y-47914285D02*
X34048594Y-47666666D01*
D10*
X65058095Y-50557200D02*
X65200952Y-50604819D01*
X65200952Y-50604819D02*
X65439047Y-50604819D01*
X65439047Y-50604819D02*
X65534285Y-50557200D01*
X65534285Y-50557200D02*
X65581904Y-50509580D01*
X65581904Y-50509580D02*
X65629523Y-50414342D01*
X65629523Y-50414342D02*
X65629523Y-50319104D01*
X65629523Y-50319104D02*
X65581904Y-50223866D01*
X65581904Y-50223866D02*
X65534285Y-50176247D01*
X65534285Y-50176247D02*
X65439047Y-50128628D01*
X65439047Y-50128628D02*
X65248571Y-50081009D01*
X65248571Y-50081009D02*
X65153333Y-50033390D01*
X65153333Y-50033390D02*
X65105714Y-49985771D01*
X65105714Y-49985771D02*
X65058095Y-49890533D01*
X65058095Y-49890533D02*
X65058095Y-49795295D01*
X65058095Y-49795295D02*
X65105714Y-49700057D01*
X65105714Y-49700057D02*
X65153333Y-49652438D01*
X65153333Y-49652438D02*
X65248571Y-49604819D01*
X65248571Y-49604819D02*
X65486666Y-49604819D01*
X65486666Y-49604819D02*
X65629523Y-49652438D01*
X66248571Y-49604819D02*
X66439047Y-49604819D01*
X66439047Y-49604819D02*
X66534285Y-49652438D01*
X66534285Y-49652438D02*
X66629523Y-49747676D01*
X66629523Y-49747676D02*
X66677142Y-49938152D01*
X66677142Y-49938152D02*
X66677142Y-50271485D01*
X66677142Y-50271485D02*
X66629523Y-50461961D01*
X66629523Y-50461961D02*
X66534285Y-50557200D01*
X66534285Y-50557200D02*
X66439047Y-50604819D01*
X66439047Y-50604819D02*
X66248571Y-50604819D01*
X66248571Y-50604819D02*
X66153333Y-50557200D01*
X66153333Y-50557200D02*
X66058095Y-50461961D01*
X66058095Y-50461961D02*
X66010476Y-50271485D01*
X66010476Y-50271485D02*
X66010476Y-49938152D01*
X66010476Y-49938152D02*
X66058095Y-49747676D01*
X66058095Y-49747676D02*
X66153333Y-49652438D01*
X66153333Y-49652438D02*
X66248571Y-49604819D01*
X66962857Y-49604819D02*
X67534285Y-49604819D01*
X67248571Y-50604819D02*
X67248571Y-49604819D01*
X67867619Y-50223866D02*
X68629524Y-50223866D01*
X69058095Y-49700057D02*
X69105714Y-49652438D01*
X69105714Y-49652438D02*
X69200952Y-49604819D01*
X69200952Y-49604819D02*
X69439047Y-49604819D01*
X69439047Y-49604819D02*
X69534285Y-49652438D01*
X69534285Y-49652438D02*
X69581904Y-49700057D01*
X69581904Y-49700057D02*
X69629523Y-49795295D01*
X69629523Y-49795295D02*
X69629523Y-49890533D01*
X69629523Y-49890533D02*
X69581904Y-50033390D01*
X69581904Y-50033390D02*
X69010476Y-50604819D01*
X69010476Y-50604819D02*
X69629523Y-50604819D01*
X69962857Y-49604819D02*
X70581904Y-49604819D01*
X70581904Y-49604819D02*
X70248571Y-49985771D01*
X70248571Y-49985771D02*
X70391428Y-49985771D01*
X70391428Y-49985771D02*
X70486666Y-50033390D01*
X70486666Y-50033390D02*
X70534285Y-50081009D01*
X70534285Y-50081009D02*
X70581904Y-50176247D01*
X70581904Y-50176247D02*
X70581904Y-50414342D01*
X70581904Y-50414342D02*
X70534285Y-50509580D01*
X70534285Y-50509580D02*
X70486666Y-50557200D01*
X70486666Y-50557200D02*
X70391428Y-50604819D01*
X70391428Y-50604819D02*
X70105714Y-50604819D01*
X70105714Y-50604819D02*
X70010476Y-50557200D01*
X70010476Y-50557200D02*
X69962857Y-50509580D01*
D13*
X68215937Y-47818571D02*
X68181651Y-47887142D01*
X68181651Y-47887142D02*
X68113080Y-47955714D01*
X68113080Y-47955714D02*
X68010222Y-48058571D01*
X68010222Y-48058571D02*
X67975937Y-48127142D01*
X67975937Y-48127142D02*
X67975937Y-48195714D01*
X68147365Y-48161428D02*
X68113080Y-48230000D01*
X68113080Y-48230000D02*
X68044508Y-48298571D01*
X68044508Y-48298571D02*
X67907365Y-48332857D01*
X67907365Y-48332857D02*
X67667365Y-48332857D01*
X67667365Y-48332857D02*
X67530222Y-48298571D01*
X67530222Y-48298571D02*
X67461651Y-48230000D01*
X67461651Y-48230000D02*
X67427365Y-48161428D01*
X67427365Y-48161428D02*
X67427365Y-48024285D01*
X67427365Y-48024285D02*
X67461651Y-47955714D01*
X67461651Y-47955714D02*
X67530222Y-47887142D01*
X67530222Y-47887142D02*
X67667365Y-47852857D01*
X67667365Y-47852857D02*
X67907365Y-47852857D01*
X67907365Y-47852857D02*
X68044508Y-47887142D01*
X68044508Y-47887142D02*
X68113080Y-47955714D01*
X68113080Y-47955714D02*
X68147365Y-48024285D01*
X68147365Y-48024285D02*
X68147365Y-48161428D01*
X68147365Y-47167142D02*
X68147365Y-47578571D01*
X68147365Y-47372856D02*
X67427365Y-47372856D01*
X67427365Y-47372856D02*
X67530222Y-47441428D01*
X67530222Y-47441428D02*
X67598794Y-47509999D01*
X67598794Y-47509999D02*
X67633080Y-47578571D01*
D10*
X66704818Y-52453810D02*
X66228627Y-52787143D01*
X66704818Y-53025238D02*
X65704818Y-53025238D01*
X65704818Y-53025238D02*
X65704818Y-52644286D01*
X65704818Y-52644286D02*
X65752437Y-52549048D01*
X65752437Y-52549048D02*
X65800056Y-52501429D01*
X65800056Y-52501429D02*
X65895294Y-52453810D01*
X65895294Y-52453810D02*
X66038151Y-52453810D01*
X66038151Y-52453810D02*
X66133389Y-52501429D01*
X66133389Y-52501429D02*
X66181008Y-52549048D01*
X66181008Y-52549048D02*
X66228627Y-52644286D01*
X66228627Y-52644286D02*
X66228627Y-53025238D01*
X66800056Y-52263334D02*
X66800056Y-51501429D01*
X65704818Y-51072857D02*
X65704818Y-50977619D01*
X65704818Y-50977619D02*
X65752437Y-50882381D01*
X65752437Y-50882381D02*
X65800056Y-50834762D01*
X65800056Y-50834762D02*
X65895294Y-50787143D01*
X65895294Y-50787143D02*
X66085770Y-50739524D01*
X66085770Y-50739524D02*
X66323865Y-50739524D01*
X66323865Y-50739524D02*
X66514341Y-50787143D01*
X66514341Y-50787143D02*
X66609579Y-50834762D01*
X66609579Y-50834762D02*
X66657199Y-50882381D01*
X66657199Y-50882381D02*
X66704818Y-50977619D01*
X66704818Y-50977619D02*
X66704818Y-51072857D01*
X66704818Y-51072857D02*
X66657199Y-51168095D01*
X66657199Y-51168095D02*
X66609579Y-51215714D01*
X66609579Y-51215714D02*
X66514341Y-51263333D01*
X66514341Y-51263333D02*
X66323865Y-51310952D01*
X66323865Y-51310952D02*
X66085770Y-51310952D01*
X66085770Y-51310952D02*
X65895294Y-51263333D01*
X65895294Y-51263333D02*
X65800056Y-51215714D01*
X65800056Y-51215714D02*
X65752437Y-51168095D01*
X65752437Y-51168095D02*
X65704818Y-51072857D01*
X65704818Y-49882381D02*
X65704818Y-50072857D01*
X65704818Y-50072857D02*
X65752437Y-50168095D01*
X65752437Y-50168095D02*
X65800056Y-50215714D01*
X65800056Y-50215714D02*
X65942913Y-50310952D01*
X65942913Y-50310952D02*
X66133389Y-50358571D01*
X66133389Y-50358571D02*
X66514341Y-50358571D01*
X66514341Y-50358571D02*
X66609579Y-50310952D01*
X66609579Y-50310952D02*
X66657199Y-50263333D01*
X66657199Y-50263333D02*
X66704818Y-50168095D01*
X66704818Y-50168095D02*
X66704818Y-49977619D01*
X66704818Y-49977619D02*
X66657199Y-49882381D01*
X66657199Y-49882381D02*
X66609579Y-49834762D01*
X66609579Y-49834762D02*
X66514341Y-49787143D01*
X66514341Y-49787143D02*
X66276246Y-49787143D01*
X66276246Y-49787143D02*
X66181008Y-49834762D01*
X66181008Y-49834762D02*
X66133389Y-49882381D01*
X66133389Y-49882381D02*
X66085770Y-49977619D01*
X66085770Y-49977619D02*
X66085770Y-50168095D01*
X66085770Y-50168095D02*
X66133389Y-50263333D01*
X66133389Y-50263333D02*
X66181008Y-50310952D01*
X66181008Y-50310952D02*
X66276246Y-50358571D01*
X65704818Y-49168095D02*
X65704818Y-49072857D01*
X65704818Y-49072857D02*
X65752437Y-48977619D01*
X65752437Y-48977619D02*
X65800056Y-48930000D01*
X65800056Y-48930000D02*
X65895294Y-48882381D01*
X65895294Y-48882381D02*
X66085770Y-48834762D01*
X66085770Y-48834762D02*
X66323865Y-48834762D01*
X66323865Y-48834762D02*
X66514341Y-48882381D01*
X66514341Y-48882381D02*
X66609579Y-48930000D01*
X66609579Y-48930000D02*
X66657199Y-48977619D01*
X66657199Y-48977619D02*
X66704818Y-49072857D01*
X66704818Y-49072857D02*
X66704818Y-49168095D01*
X66704818Y-49168095D02*
X66657199Y-49263333D01*
X66657199Y-49263333D02*
X66609579Y-49310952D01*
X66609579Y-49310952D02*
X66514341Y-49358571D01*
X66514341Y-49358571D02*
X66323865Y-49406190D01*
X66323865Y-49406190D02*
X66085770Y-49406190D01*
X66085770Y-49406190D02*
X65895294Y-49358571D01*
X65895294Y-49358571D02*
X65800056Y-49310952D01*
X65800056Y-49310952D02*
X65752437Y-49263333D01*
X65752437Y-49263333D02*
X65704818Y-49168095D01*
X65704818Y-48501428D02*
X65704818Y-47882381D01*
X65704818Y-47882381D02*
X66085770Y-48215714D01*
X66085770Y-48215714D02*
X66085770Y-48072857D01*
X66085770Y-48072857D02*
X66133389Y-47977619D01*
X66133389Y-47977619D02*
X66181008Y-47930000D01*
X66181008Y-47930000D02*
X66276246Y-47882381D01*
X66276246Y-47882381D02*
X66514341Y-47882381D01*
X66514341Y-47882381D02*
X66609579Y-47930000D01*
X66609579Y-47930000D02*
X66657199Y-47977619D01*
X66657199Y-47977619D02*
X66704818Y-48072857D01*
X66704818Y-48072857D02*
X66704818Y-48358571D01*
X66704818Y-48358571D02*
X66657199Y-48453809D01*
X66657199Y-48453809D02*
X66609579Y-48501428D01*
X66800056Y-47691905D02*
X66800056Y-46930000D01*
X66704818Y-46168095D02*
X66704818Y-46739523D01*
X66704818Y-46453809D02*
X65704818Y-46453809D01*
X65704818Y-46453809D02*
X65847675Y-46549047D01*
X65847675Y-46549047D02*
X65942913Y-46644285D01*
X65942913Y-46644285D02*
X65990532Y-46739523D01*
X65704818Y-45310952D02*
X65704818Y-45501428D01*
X65704818Y-45501428D02*
X65752437Y-45596666D01*
X65752437Y-45596666D02*
X65800056Y-45644285D01*
X65800056Y-45644285D02*
X65942913Y-45739523D01*
X65942913Y-45739523D02*
X66133389Y-45787142D01*
X66133389Y-45787142D02*
X66514341Y-45787142D01*
X66514341Y-45787142D02*
X66609579Y-45739523D01*
X66609579Y-45739523D02*
X66657199Y-45691904D01*
X66657199Y-45691904D02*
X66704818Y-45596666D01*
X66704818Y-45596666D02*
X66704818Y-45406190D01*
X66704818Y-45406190D02*
X66657199Y-45310952D01*
X66657199Y-45310952D02*
X66609579Y-45263333D01*
X66609579Y-45263333D02*
X66514341Y-45215714D01*
X66514341Y-45215714D02*
X66276246Y-45215714D01*
X66276246Y-45215714D02*
X66181008Y-45263333D01*
X66181008Y-45263333D02*
X66133389Y-45310952D01*
X66133389Y-45310952D02*
X66085770Y-45406190D01*
X66085770Y-45406190D02*
X66085770Y-45596666D01*
X66085770Y-45596666D02*
X66133389Y-45691904D01*
X66133389Y-45691904D02*
X66181008Y-45739523D01*
X66181008Y-45739523D02*
X66276246Y-45787142D01*
X65704818Y-44596666D02*
X65704818Y-44501428D01*
X65704818Y-44501428D02*
X65752437Y-44406190D01*
X65752437Y-44406190D02*
X65800056Y-44358571D01*
X65800056Y-44358571D02*
X65895294Y-44310952D01*
X65895294Y-44310952D02*
X66085770Y-44263333D01*
X66085770Y-44263333D02*
X66323865Y-44263333D01*
X66323865Y-44263333D02*
X66514341Y-44310952D01*
X66514341Y-44310952D02*
X66609579Y-44358571D01*
X66609579Y-44358571D02*
X66657199Y-44406190D01*
X66657199Y-44406190D02*
X66704818Y-44501428D01*
X66704818Y-44501428D02*
X66704818Y-44596666D01*
X66704818Y-44596666D02*
X66657199Y-44691904D01*
X66657199Y-44691904D02*
X66609579Y-44739523D01*
X66609579Y-44739523D02*
X66514341Y-44787142D01*
X66514341Y-44787142D02*
X66323865Y-44834761D01*
X66323865Y-44834761D02*
X66085770Y-44834761D01*
X66085770Y-44834761D02*
X65895294Y-44787142D01*
X65895294Y-44787142D02*
X65800056Y-44739523D01*
X65800056Y-44739523D02*
X65752437Y-44691904D01*
X65752437Y-44691904D02*
X65704818Y-44596666D01*
X66133389Y-43691904D02*
X66085770Y-43787142D01*
X66085770Y-43787142D02*
X66038151Y-43834761D01*
X66038151Y-43834761D02*
X65942913Y-43882380D01*
X65942913Y-43882380D02*
X65895294Y-43882380D01*
X65895294Y-43882380D02*
X65800056Y-43834761D01*
X65800056Y-43834761D02*
X65752437Y-43787142D01*
X65752437Y-43787142D02*
X65704818Y-43691904D01*
X65704818Y-43691904D02*
X65704818Y-43501428D01*
X65704818Y-43501428D02*
X65752437Y-43406190D01*
X65752437Y-43406190D02*
X65800056Y-43358571D01*
X65800056Y-43358571D02*
X65895294Y-43310952D01*
X65895294Y-43310952D02*
X65942913Y-43310952D01*
X65942913Y-43310952D02*
X66038151Y-43358571D01*
X66038151Y-43358571D02*
X66085770Y-43406190D01*
X66085770Y-43406190D02*
X66133389Y-43501428D01*
X66133389Y-43501428D02*
X66133389Y-43691904D01*
X66133389Y-43691904D02*
X66181008Y-43787142D01*
X66181008Y-43787142D02*
X66228627Y-43834761D01*
X66228627Y-43834761D02*
X66323865Y-43882380D01*
X66323865Y-43882380D02*
X66514341Y-43882380D01*
X66514341Y-43882380D02*
X66609579Y-43834761D01*
X66609579Y-43834761D02*
X66657199Y-43787142D01*
X66657199Y-43787142D02*
X66704818Y-43691904D01*
X66704818Y-43691904D02*
X66704818Y-43501428D01*
X66704818Y-43501428D02*
X66657199Y-43406190D01*
X66657199Y-43406190D02*
X66609579Y-43358571D01*
X66609579Y-43358571D02*
X66514341Y-43310952D01*
X66514341Y-43310952D02*
X66323865Y-43310952D01*
X66323865Y-43310952D02*
X66228627Y-43358571D01*
X66228627Y-43358571D02*
X66181008Y-43406190D01*
X66181008Y-43406190D02*
X66133389Y-43501428D01*
X66704818Y-42882380D02*
X65704818Y-42882380D01*
X65704818Y-42882380D02*
X66419103Y-42549047D01*
X66419103Y-42549047D02*
X65704818Y-42215714D01*
X65704818Y-42215714D02*
X66704818Y-42215714D01*
X66657199Y-41358571D02*
X66704818Y-41453809D01*
X66704818Y-41453809D02*
X66704818Y-41644285D01*
X66704818Y-41644285D02*
X66657199Y-41739523D01*
X66657199Y-41739523D02*
X66561960Y-41787142D01*
X66561960Y-41787142D02*
X66181008Y-41787142D01*
X66181008Y-41787142D02*
X66085770Y-41739523D01*
X66085770Y-41739523D02*
X66038151Y-41644285D01*
X66038151Y-41644285D02*
X66038151Y-41453809D01*
X66038151Y-41453809D02*
X66085770Y-41358571D01*
X66085770Y-41358571D02*
X66181008Y-41310952D01*
X66181008Y-41310952D02*
X66276246Y-41310952D01*
X66276246Y-41310952D02*
X66371484Y-41787142D01*
X66038151Y-41025237D02*
X66038151Y-40644285D01*
X65704818Y-40882380D02*
X66561960Y-40882380D01*
X66561960Y-40882380D02*
X66657199Y-40834761D01*
X66657199Y-40834761D02*
X66704818Y-40739523D01*
X66704818Y-40739523D02*
X66704818Y-40644285D01*
X66704818Y-40310951D02*
X66038151Y-40310951D01*
X66228627Y-40310951D02*
X66133389Y-40263332D01*
X66133389Y-40263332D02*
X66085770Y-40215713D01*
X66085770Y-40215713D02*
X66038151Y-40120475D01*
X66038151Y-40120475D02*
X66038151Y-40025237D01*
X66704818Y-39691903D02*
X66038151Y-39691903D01*
X65704818Y-39691903D02*
X65752437Y-39739522D01*
X65752437Y-39739522D02*
X65800056Y-39691903D01*
X65800056Y-39691903D02*
X65752437Y-39644284D01*
X65752437Y-39644284D02*
X65704818Y-39691903D01*
X65704818Y-39691903D02*
X65800056Y-39691903D01*
X66657199Y-38787142D02*
X66704818Y-38882380D01*
X66704818Y-38882380D02*
X66704818Y-39072856D01*
X66704818Y-39072856D02*
X66657199Y-39168094D01*
X66657199Y-39168094D02*
X66609579Y-39215713D01*
X66609579Y-39215713D02*
X66514341Y-39263332D01*
X66514341Y-39263332D02*
X66228627Y-39263332D01*
X66228627Y-39263332D02*
X66133389Y-39215713D01*
X66133389Y-39215713D02*
X66085770Y-39168094D01*
X66085770Y-39168094D02*
X66038151Y-39072856D01*
X66038151Y-39072856D02*
X66038151Y-38882380D01*
X66038151Y-38882380D02*
X66085770Y-38787142D01*
D11*
X65001926Y-45996666D02*
X64811450Y-46129999D01*
X65001926Y-46225237D02*
X64601926Y-46225237D01*
X64601926Y-46225237D02*
X64601926Y-46072856D01*
X64601926Y-46072856D02*
X64620974Y-46034761D01*
X64620974Y-46034761D02*
X64640021Y-46015714D01*
X64640021Y-46015714D02*
X64678117Y-45996666D01*
X64678117Y-45996666D02*
X64735259Y-45996666D01*
X64735259Y-45996666D02*
X64773355Y-46015714D01*
X64773355Y-46015714D02*
X64792402Y-46034761D01*
X64792402Y-46034761D02*
X64811450Y-46072856D01*
X64811450Y-46072856D02*
X64811450Y-46225237D01*
X65001926Y-45615714D02*
X65001926Y-45844285D01*
X65001926Y-45729999D02*
X64601926Y-45729999D01*
X64601926Y-45729999D02*
X64659069Y-45768095D01*
X64659069Y-45768095D02*
X64697164Y-45806190D01*
X64697164Y-45806190D02*
X64716212Y-45844285D01*
D10*
X39289580Y-56023810D02*
X39337200Y-56071429D01*
X39337200Y-56071429D02*
X39384819Y-56214286D01*
X39384819Y-56214286D02*
X39384819Y-56309524D01*
X39384819Y-56309524D02*
X39337200Y-56452381D01*
X39337200Y-56452381D02*
X39241961Y-56547619D01*
X39241961Y-56547619D02*
X39146723Y-56595238D01*
X39146723Y-56595238D02*
X38956247Y-56642857D01*
X38956247Y-56642857D02*
X38813390Y-56642857D01*
X38813390Y-56642857D02*
X38622914Y-56595238D01*
X38622914Y-56595238D02*
X38527676Y-56547619D01*
X38527676Y-56547619D02*
X38432438Y-56452381D01*
X38432438Y-56452381D02*
X38384819Y-56309524D01*
X38384819Y-56309524D02*
X38384819Y-56214286D01*
X38384819Y-56214286D02*
X38432438Y-56071429D01*
X38432438Y-56071429D02*
X38480057Y-56023810D01*
X39480057Y-55833334D02*
X39480057Y-55071429D01*
X38384819Y-54642857D02*
X38384819Y-54547619D01*
X38384819Y-54547619D02*
X38432438Y-54452381D01*
X38432438Y-54452381D02*
X38480057Y-54404762D01*
X38480057Y-54404762D02*
X38575295Y-54357143D01*
X38575295Y-54357143D02*
X38765771Y-54309524D01*
X38765771Y-54309524D02*
X39003866Y-54309524D01*
X39003866Y-54309524D02*
X39194342Y-54357143D01*
X39194342Y-54357143D02*
X39289580Y-54404762D01*
X39289580Y-54404762D02*
X39337200Y-54452381D01*
X39337200Y-54452381D02*
X39384819Y-54547619D01*
X39384819Y-54547619D02*
X39384819Y-54642857D01*
X39384819Y-54642857D02*
X39337200Y-54738095D01*
X39337200Y-54738095D02*
X39289580Y-54785714D01*
X39289580Y-54785714D02*
X39194342Y-54833333D01*
X39194342Y-54833333D02*
X39003866Y-54880952D01*
X39003866Y-54880952D02*
X38765771Y-54880952D01*
X38765771Y-54880952D02*
X38575295Y-54833333D01*
X38575295Y-54833333D02*
X38480057Y-54785714D01*
X38480057Y-54785714D02*
X38432438Y-54738095D01*
X38432438Y-54738095D02*
X38384819Y-54642857D01*
X38384819Y-53452381D02*
X38384819Y-53642857D01*
X38384819Y-53642857D02*
X38432438Y-53738095D01*
X38432438Y-53738095D02*
X38480057Y-53785714D01*
X38480057Y-53785714D02*
X38622914Y-53880952D01*
X38622914Y-53880952D02*
X38813390Y-53928571D01*
X38813390Y-53928571D02*
X39194342Y-53928571D01*
X39194342Y-53928571D02*
X39289580Y-53880952D01*
X39289580Y-53880952D02*
X39337200Y-53833333D01*
X39337200Y-53833333D02*
X39384819Y-53738095D01*
X39384819Y-53738095D02*
X39384819Y-53547619D01*
X39384819Y-53547619D02*
X39337200Y-53452381D01*
X39337200Y-53452381D02*
X39289580Y-53404762D01*
X39289580Y-53404762D02*
X39194342Y-53357143D01*
X39194342Y-53357143D02*
X38956247Y-53357143D01*
X38956247Y-53357143D02*
X38861009Y-53404762D01*
X38861009Y-53404762D02*
X38813390Y-53452381D01*
X38813390Y-53452381D02*
X38765771Y-53547619D01*
X38765771Y-53547619D02*
X38765771Y-53738095D01*
X38765771Y-53738095D02*
X38813390Y-53833333D01*
X38813390Y-53833333D02*
X38861009Y-53880952D01*
X38861009Y-53880952D02*
X38956247Y-53928571D01*
X38384819Y-52738095D02*
X38384819Y-52642857D01*
X38384819Y-52642857D02*
X38432438Y-52547619D01*
X38432438Y-52547619D02*
X38480057Y-52500000D01*
X38480057Y-52500000D02*
X38575295Y-52452381D01*
X38575295Y-52452381D02*
X38765771Y-52404762D01*
X38765771Y-52404762D02*
X39003866Y-52404762D01*
X39003866Y-52404762D02*
X39194342Y-52452381D01*
X39194342Y-52452381D02*
X39289580Y-52500000D01*
X39289580Y-52500000D02*
X39337200Y-52547619D01*
X39337200Y-52547619D02*
X39384819Y-52642857D01*
X39384819Y-52642857D02*
X39384819Y-52738095D01*
X39384819Y-52738095D02*
X39337200Y-52833333D01*
X39337200Y-52833333D02*
X39289580Y-52880952D01*
X39289580Y-52880952D02*
X39194342Y-52928571D01*
X39194342Y-52928571D02*
X39003866Y-52976190D01*
X39003866Y-52976190D02*
X38765771Y-52976190D01*
X38765771Y-52976190D02*
X38575295Y-52928571D01*
X38575295Y-52928571D02*
X38480057Y-52880952D01*
X38480057Y-52880952D02*
X38432438Y-52833333D01*
X38432438Y-52833333D02*
X38384819Y-52738095D01*
X38384819Y-52071428D02*
X38384819Y-51452381D01*
X38384819Y-51452381D02*
X38765771Y-51785714D01*
X38765771Y-51785714D02*
X38765771Y-51642857D01*
X38765771Y-51642857D02*
X38813390Y-51547619D01*
X38813390Y-51547619D02*
X38861009Y-51500000D01*
X38861009Y-51500000D02*
X38956247Y-51452381D01*
X38956247Y-51452381D02*
X39194342Y-51452381D01*
X39194342Y-51452381D02*
X39289580Y-51500000D01*
X39289580Y-51500000D02*
X39337200Y-51547619D01*
X39337200Y-51547619D02*
X39384819Y-51642857D01*
X39384819Y-51642857D02*
X39384819Y-51928571D01*
X39384819Y-51928571D02*
X39337200Y-52023809D01*
X39337200Y-52023809D02*
X39289580Y-52071428D01*
X39480057Y-51261905D02*
X39480057Y-50500000D01*
X39384819Y-49738095D02*
X39384819Y-50309523D01*
X39384819Y-50023809D02*
X38384819Y-50023809D01*
X38384819Y-50023809D02*
X38527676Y-50119047D01*
X38527676Y-50119047D02*
X38622914Y-50214285D01*
X38622914Y-50214285D02*
X38670533Y-50309523D01*
X38384819Y-48880952D02*
X38384819Y-49071428D01*
X38384819Y-49071428D02*
X38432438Y-49166666D01*
X38432438Y-49166666D02*
X38480057Y-49214285D01*
X38480057Y-49214285D02*
X38622914Y-49309523D01*
X38622914Y-49309523D02*
X38813390Y-49357142D01*
X38813390Y-49357142D02*
X39194342Y-49357142D01*
X39194342Y-49357142D02*
X39289580Y-49309523D01*
X39289580Y-49309523D02*
X39337200Y-49261904D01*
X39337200Y-49261904D02*
X39384819Y-49166666D01*
X39384819Y-49166666D02*
X39384819Y-48976190D01*
X39384819Y-48976190D02*
X39337200Y-48880952D01*
X39337200Y-48880952D02*
X39289580Y-48833333D01*
X39289580Y-48833333D02*
X39194342Y-48785714D01*
X39194342Y-48785714D02*
X38956247Y-48785714D01*
X38956247Y-48785714D02*
X38861009Y-48833333D01*
X38861009Y-48833333D02*
X38813390Y-48880952D01*
X38813390Y-48880952D02*
X38765771Y-48976190D01*
X38765771Y-48976190D02*
X38765771Y-49166666D01*
X38765771Y-49166666D02*
X38813390Y-49261904D01*
X38813390Y-49261904D02*
X38861009Y-49309523D01*
X38861009Y-49309523D02*
X38956247Y-49357142D01*
X38384819Y-48166666D02*
X38384819Y-48071428D01*
X38384819Y-48071428D02*
X38432438Y-47976190D01*
X38432438Y-47976190D02*
X38480057Y-47928571D01*
X38480057Y-47928571D02*
X38575295Y-47880952D01*
X38575295Y-47880952D02*
X38765771Y-47833333D01*
X38765771Y-47833333D02*
X39003866Y-47833333D01*
X39003866Y-47833333D02*
X39194342Y-47880952D01*
X39194342Y-47880952D02*
X39289580Y-47928571D01*
X39289580Y-47928571D02*
X39337200Y-47976190D01*
X39337200Y-47976190D02*
X39384819Y-48071428D01*
X39384819Y-48071428D02*
X39384819Y-48166666D01*
X39384819Y-48166666D02*
X39337200Y-48261904D01*
X39337200Y-48261904D02*
X39289580Y-48309523D01*
X39289580Y-48309523D02*
X39194342Y-48357142D01*
X39194342Y-48357142D02*
X39003866Y-48404761D01*
X39003866Y-48404761D02*
X38765771Y-48404761D01*
X38765771Y-48404761D02*
X38575295Y-48357142D01*
X38575295Y-48357142D02*
X38480057Y-48309523D01*
X38480057Y-48309523D02*
X38432438Y-48261904D01*
X38432438Y-48261904D02*
X38384819Y-48166666D01*
X38813390Y-47261904D02*
X38765771Y-47357142D01*
X38765771Y-47357142D02*
X38718152Y-47404761D01*
X38718152Y-47404761D02*
X38622914Y-47452380D01*
X38622914Y-47452380D02*
X38575295Y-47452380D01*
X38575295Y-47452380D02*
X38480057Y-47404761D01*
X38480057Y-47404761D02*
X38432438Y-47357142D01*
X38432438Y-47357142D02*
X38384819Y-47261904D01*
X38384819Y-47261904D02*
X38384819Y-47071428D01*
X38384819Y-47071428D02*
X38432438Y-46976190D01*
X38432438Y-46976190D02*
X38480057Y-46928571D01*
X38480057Y-46928571D02*
X38575295Y-46880952D01*
X38575295Y-46880952D02*
X38622914Y-46880952D01*
X38622914Y-46880952D02*
X38718152Y-46928571D01*
X38718152Y-46928571D02*
X38765771Y-46976190D01*
X38765771Y-46976190D02*
X38813390Y-47071428D01*
X38813390Y-47071428D02*
X38813390Y-47261904D01*
X38813390Y-47261904D02*
X38861009Y-47357142D01*
X38861009Y-47357142D02*
X38908628Y-47404761D01*
X38908628Y-47404761D02*
X39003866Y-47452380D01*
X39003866Y-47452380D02*
X39194342Y-47452380D01*
X39194342Y-47452380D02*
X39289580Y-47404761D01*
X39289580Y-47404761D02*
X39337200Y-47357142D01*
X39337200Y-47357142D02*
X39384819Y-47261904D01*
X39384819Y-47261904D02*
X39384819Y-47071428D01*
X39384819Y-47071428D02*
X39337200Y-46976190D01*
X39337200Y-46976190D02*
X39289580Y-46928571D01*
X39289580Y-46928571D02*
X39194342Y-46880952D01*
X39194342Y-46880952D02*
X39003866Y-46880952D01*
X39003866Y-46880952D02*
X38908628Y-46928571D01*
X38908628Y-46928571D02*
X38861009Y-46976190D01*
X38861009Y-46976190D02*
X38813390Y-47071428D01*
X39384819Y-46452380D02*
X38384819Y-46452380D01*
X38384819Y-46452380D02*
X39099104Y-46119047D01*
X39099104Y-46119047D02*
X38384819Y-45785714D01*
X38384819Y-45785714D02*
X39384819Y-45785714D01*
X39337200Y-44928571D02*
X39384819Y-45023809D01*
X39384819Y-45023809D02*
X39384819Y-45214285D01*
X39384819Y-45214285D02*
X39337200Y-45309523D01*
X39337200Y-45309523D02*
X39241961Y-45357142D01*
X39241961Y-45357142D02*
X38861009Y-45357142D01*
X38861009Y-45357142D02*
X38765771Y-45309523D01*
X38765771Y-45309523D02*
X38718152Y-45214285D01*
X38718152Y-45214285D02*
X38718152Y-45023809D01*
X38718152Y-45023809D02*
X38765771Y-44928571D01*
X38765771Y-44928571D02*
X38861009Y-44880952D01*
X38861009Y-44880952D02*
X38956247Y-44880952D01*
X38956247Y-44880952D02*
X39051485Y-45357142D01*
X38718152Y-44595237D02*
X38718152Y-44214285D01*
X38384819Y-44452380D02*
X39241961Y-44452380D01*
X39241961Y-44452380D02*
X39337200Y-44404761D01*
X39337200Y-44404761D02*
X39384819Y-44309523D01*
X39384819Y-44309523D02*
X39384819Y-44214285D01*
X39384819Y-43880951D02*
X38718152Y-43880951D01*
X38908628Y-43880951D02*
X38813390Y-43833332D01*
X38813390Y-43833332D02*
X38765771Y-43785713D01*
X38765771Y-43785713D02*
X38718152Y-43690475D01*
X38718152Y-43690475D02*
X38718152Y-43595237D01*
X39384819Y-43261903D02*
X38718152Y-43261903D01*
X38384819Y-43261903D02*
X38432438Y-43309522D01*
X38432438Y-43309522D02*
X38480057Y-43261903D01*
X38480057Y-43261903D02*
X38432438Y-43214284D01*
X38432438Y-43214284D02*
X38384819Y-43261903D01*
X38384819Y-43261903D02*
X38480057Y-43261903D01*
X39337200Y-42357142D02*
X39384819Y-42452380D01*
X39384819Y-42452380D02*
X39384819Y-42642856D01*
X39384819Y-42642856D02*
X39337200Y-42738094D01*
X39337200Y-42738094D02*
X39289580Y-42785713D01*
X39289580Y-42785713D02*
X39194342Y-42833332D01*
X39194342Y-42833332D02*
X38908628Y-42833332D01*
X38908628Y-42833332D02*
X38813390Y-42785713D01*
X38813390Y-42785713D02*
X38765771Y-42738094D01*
X38765771Y-42738094D02*
X38718152Y-42642856D01*
X38718152Y-42642856D02*
X38718152Y-42452380D01*
X38718152Y-42452380D02*
X38765771Y-42357142D01*
D11*
X37643832Y-49566666D02*
X37662880Y-49585714D01*
X37662880Y-49585714D02*
X37681927Y-49642856D01*
X37681927Y-49642856D02*
X37681927Y-49680952D01*
X37681927Y-49680952D02*
X37662880Y-49738095D01*
X37662880Y-49738095D02*
X37624784Y-49776190D01*
X37624784Y-49776190D02*
X37586689Y-49795237D01*
X37586689Y-49795237D02*
X37510499Y-49814285D01*
X37510499Y-49814285D02*
X37453356Y-49814285D01*
X37453356Y-49814285D02*
X37377165Y-49795237D01*
X37377165Y-49795237D02*
X37339070Y-49776190D01*
X37339070Y-49776190D02*
X37300975Y-49738095D01*
X37300975Y-49738095D02*
X37281927Y-49680952D01*
X37281927Y-49680952D02*
X37281927Y-49642856D01*
X37281927Y-49642856D02*
X37300975Y-49585714D01*
X37300975Y-49585714D02*
X37320022Y-49566666D01*
X37681927Y-49185714D02*
X37681927Y-49414285D01*
X37681927Y-49299999D02*
X37281927Y-49299999D01*
X37281927Y-49299999D02*
X37339070Y-49338095D01*
X37339070Y-49338095D02*
X37377165Y-49376190D01*
X37377165Y-49376190D02*
X37396213Y-49414285D01*
D10*
X75019579Y-60523810D02*
X75067199Y-60571429D01*
X75067199Y-60571429D02*
X75114818Y-60714286D01*
X75114818Y-60714286D02*
X75114818Y-60809524D01*
X75114818Y-60809524D02*
X75067199Y-60952381D01*
X75067199Y-60952381D02*
X74971960Y-61047619D01*
X74971960Y-61047619D02*
X74876722Y-61095238D01*
X74876722Y-61095238D02*
X74686246Y-61142857D01*
X74686246Y-61142857D02*
X74543389Y-61142857D01*
X74543389Y-61142857D02*
X74352913Y-61095238D01*
X74352913Y-61095238D02*
X74257675Y-61047619D01*
X74257675Y-61047619D02*
X74162437Y-60952381D01*
X74162437Y-60952381D02*
X74114818Y-60809524D01*
X74114818Y-60809524D02*
X74114818Y-60714286D01*
X74114818Y-60714286D02*
X74162437Y-60571429D01*
X74162437Y-60571429D02*
X74210056Y-60523810D01*
X75210056Y-60333334D02*
X75210056Y-59571429D01*
X74114818Y-59142857D02*
X74114818Y-59047619D01*
X74114818Y-59047619D02*
X74162437Y-58952381D01*
X74162437Y-58952381D02*
X74210056Y-58904762D01*
X74210056Y-58904762D02*
X74305294Y-58857143D01*
X74305294Y-58857143D02*
X74495770Y-58809524D01*
X74495770Y-58809524D02*
X74733865Y-58809524D01*
X74733865Y-58809524D02*
X74924341Y-58857143D01*
X74924341Y-58857143D02*
X75019579Y-58904762D01*
X75019579Y-58904762D02*
X75067199Y-58952381D01*
X75067199Y-58952381D02*
X75114818Y-59047619D01*
X75114818Y-59047619D02*
X75114818Y-59142857D01*
X75114818Y-59142857D02*
X75067199Y-59238095D01*
X75067199Y-59238095D02*
X75019579Y-59285714D01*
X75019579Y-59285714D02*
X74924341Y-59333333D01*
X74924341Y-59333333D02*
X74733865Y-59380952D01*
X74733865Y-59380952D02*
X74495770Y-59380952D01*
X74495770Y-59380952D02*
X74305294Y-59333333D01*
X74305294Y-59333333D02*
X74210056Y-59285714D01*
X74210056Y-59285714D02*
X74162437Y-59238095D01*
X74162437Y-59238095D02*
X74114818Y-59142857D01*
X74114818Y-57952381D02*
X74114818Y-58142857D01*
X74114818Y-58142857D02*
X74162437Y-58238095D01*
X74162437Y-58238095D02*
X74210056Y-58285714D01*
X74210056Y-58285714D02*
X74352913Y-58380952D01*
X74352913Y-58380952D02*
X74543389Y-58428571D01*
X74543389Y-58428571D02*
X74924341Y-58428571D01*
X74924341Y-58428571D02*
X75019579Y-58380952D01*
X75019579Y-58380952D02*
X75067199Y-58333333D01*
X75067199Y-58333333D02*
X75114818Y-58238095D01*
X75114818Y-58238095D02*
X75114818Y-58047619D01*
X75114818Y-58047619D02*
X75067199Y-57952381D01*
X75067199Y-57952381D02*
X75019579Y-57904762D01*
X75019579Y-57904762D02*
X74924341Y-57857143D01*
X74924341Y-57857143D02*
X74686246Y-57857143D01*
X74686246Y-57857143D02*
X74591008Y-57904762D01*
X74591008Y-57904762D02*
X74543389Y-57952381D01*
X74543389Y-57952381D02*
X74495770Y-58047619D01*
X74495770Y-58047619D02*
X74495770Y-58238095D01*
X74495770Y-58238095D02*
X74543389Y-58333333D01*
X74543389Y-58333333D02*
X74591008Y-58380952D01*
X74591008Y-58380952D02*
X74686246Y-58428571D01*
X74114818Y-57238095D02*
X74114818Y-57142857D01*
X74114818Y-57142857D02*
X74162437Y-57047619D01*
X74162437Y-57047619D02*
X74210056Y-57000000D01*
X74210056Y-57000000D02*
X74305294Y-56952381D01*
X74305294Y-56952381D02*
X74495770Y-56904762D01*
X74495770Y-56904762D02*
X74733865Y-56904762D01*
X74733865Y-56904762D02*
X74924341Y-56952381D01*
X74924341Y-56952381D02*
X75019579Y-57000000D01*
X75019579Y-57000000D02*
X75067199Y-57047619D01*
X75067199Y-57047619D02*
X75114818Y-57142857D01*
X75114818Y-57142857D02*
X75114818Y-57238095D01*
X75114818Y-57238095D02*
X75067199Y-57333333D01*
X75067199Y-57333333D02*
X75019579Y-57380952D01*
X75019579Y-57380952D02*
X74924341Y-57428571D01*
X74924341Y-57428571D02*
X74733865Y-57476190D01*
X74733865Y-57476190D02*
X74495770Y-57476190D01*
X74495770Y-57476190D02*
X74305294Y-57428571D01*
X74305294Y-57428571D02*
X74210056Y-57380952D01*
X74210056Y-57380952D02*
X74162437Y-57333333D01*
X74162437Y-57333333D02*
X74114818Y-57238095D01*
X74114818Y-56571428D02*
X74114818Y-55952381D01*
X74114818Y-55952381D02*
X74495770Y-56285714D01*
X74495770Y-56285714D02*
X74495770Y-56142857D01*
X74495770Y-56142857D02*
X74543389Y-56047619D01*
X74543389Y-56047619D02*
X74591008Y-56000000D01*
X74591008Y-56000000D02*
X74686246Y-55952381D01*
X74686246Y-55952381D02*
X74924341Y-55952381D01*
X74924341Y-55952381D02*
X75019579Y-56000000D01*
X75019579Y-56000000D02*
X75067199Y-56047619D01*
X75067199Y-56047619D02*
X75114818Y-56142857D01*
X75114818Y-56142857D02*
X75114818Y-56428571D01*
X75114818Y-56428571D02*
X75067199Y-56523809D01*
X75067199Y-56523809D02*
X75019579Y-56571428D01*
X75210056Y-55761905D02*
X75210056Y-55000000D01*
X75114818Y-54238095D02*
X75114818Y-54809523D01*
X75114818Y-54523809D02*
X74114818Y-54523809D01*
X74114818Y-54523809D02*
X74257675Y-54619047D01*
X74257675Y-54619047D02*
X74352913Y-54714285D01*
X74352913Y-54714285D02*
X74400532Y-54809523D01*
X74114818Y-53380952D02*
X74114818Y-53571428D01*
X74114818Y-53571428D02*
X74162437Y-53666666D01*
X74162437Y-53666666D02*
X74210056Y-53714285D01*
X74210056Y-53714285D02*
X74352913Y-53809523D01*
X74352913Y-53809523D02*
X74543389Y-53857142D01*
X74543389Y-53857142D02*
X74924341Y-53857142D01*
X74924341Y-53857142D02*
X75019579Y-53809523D01*
X75019579Y-53809523D02*
X75067199Y-53761904D01*
X75067199Y-53761904D02*
X75114818Y-53666666D01*
X75114818Y-53666666D02*
X75114818Y-53476190D01*
X75114818Y-53476190D02*
X75067199Y-53380952D01*
X75067199Y-53380952D02*
X75019579Y-53333333D01*
X75019579Y-53333333D02*
X74924341Y-53285714D01*
X74924341Y-53285714D02*
X74686246Y-53285714D01*
X74686246Y-53285714D02*
X74591008Y-53333333D01*
X74591008Y-53333333D02*
X74543389Y-53380952D01*
X74543389Y-53380952D02*
X74495770Y-53476190D01*
X74495770Y-53476190D02*
X74495770Y-53666666D01*
X74495770Y-53666666D02*
X74543389Y-53761904D01*
X74543389Y-53761904D02*
X74591008Y-53809523D01*
X74591008Y-53809523D02*
X74686246Y-53857142D01*
X74114818Y-52666666D02*
X74114818Y-52571428D01*
X74114818Y-52571428D02*
X74162437Y-52476190D01*
X74162437Y-52476190D02*
X74210056Y-52428571D01*
X74210056Y-52428571D02*
X74305294Y-52380952D01*
X74305294Y-52380952D02*
X74495770Y-52333333D01*
X74495770Y-52333333D02*
X74733865Y-52333333D01*
X74733865Y-52333333D02*
X74924341Y-52380952D01*
X74924341Y-52380952D02*
X75019579Y-52428571D01*
X75019579Y-52428571D02*
X75067199Y-52476190D01*
X75067199Y-52476190D02*
X75114818Y-52571428D01*
X75114818Y-52571428D02*
X75114818Y-52666666D01*
X75114818Y-52666666D02*
X75067199Y-52761904D01*
X75067199Y-52761904D02*
X75019579Y-52809523D01*
X75019579Y-52809523D02*
X74924341Y-52857142D01*
X74924341Y-52857142D02*
X74733865Y-52904761D01*
X74733865Y-52904761D02*
X74495770Y-52904761D01*
X74495770Y-52904761D02*
X74305294Y-52857142D01*
X74305294Y-52857142D02*
X74210056Y-52809523D01*
X74210056Y-52809523D02*
X74162437Y-52761904D01*
X74162437Y-52761904D02*
X74114818Y-52666666D01*
X74543389Y-51761904D02*
X74495770Y-51857142D01*
X74495770Y-51857142D02*
X74448151Y-51904761D01*
X74448151Y-51904761D02*
X74352913Y-51952380D01*
X74352913Y-51952380D02*
X74305294Y-51952380D01*
X74305294Y-51952380D02*
X74210056Y-51904761D01*
X74210056Y-51904761D02*
X74162437Y-51857142D01*
X74162437Y-51857142D02*
X74114818Y-51761904D01*
X74114818Y-51761904D02*
X74114818Y-51571428D01*
X74114818Y-51571428D02*
X74162437Y-51476190D01*
X74162437Y-51476190D02*
X74210056Y-51428571D01*
X74210056Y-51428571D02*
X74305294Y-51380952D01*
X74305294Y-51380952D02*
X74352913Y-51380952D01*
X74352913Y-51380952D02*
X74448151Y-51428571D01*
X74448151Y-51428571D02*
X74495770Y-51476190D01*
X74495770Y-51476190D02*
X74543389Y-51571428D01*
X74543389Y-51571428D02*
X74543389Y-51761904D01*
X74543389Y-51761904D02*
X74591008Y-51857142D01*
X74591008Y-51857142D02*
X74638627Y-51904761D01*
X74638627Y-51904761D02*
X74733865Y-51952380D01*
X74733865Y-51952380D02*
X74924341Y-51952380D01*
X74924341Y-51952380D02*
X75019579Y-51904761D01*
X75019579Y-51904761D02*
X75067199Y-51857142D01*
X75067199Y-51857142D02*
X75114818Y-51761904D01*
X75114818Y-51761904D02*
X75114818Y-51571428D01*
X75114818Y-51571428D02*
X75067199Y-51476190D01*
X75067199Y-51476190D02*
X75019579Y-51428571D01*
X75019579Y-51428571D02*
X74924341Y-51380952D01*
X74924341Y-51380952D02*
X74733865Y-51380952D01*
X74733865Y-51380952D02*
X74638627Y-51428571D01*
X74638627Y-51428571D02*
X74591008Y-51476190D01*
X74591008Y-51476190D02*
X74543389Y-51571428D01*
X75114818Y-50952380D02*
X74114818Y-50952380D01*
X74114818Y-50952380D02*
X74829103Y-50619047D01*
X74829103Y-50619047D02*
X74114818Y-50285714D01*
X74114818Y-50285714D02*
X75114818Y-50285714D01*
X75067199Y-49428571D02*
X75114818Y-49523809D01*
X75114818Y-49523809D02*
X75114818Y-49714285D01*
X75114818Y-49714285D02*
X75067199Y-49809523D01*
X75067199Y-49809523D02*
X74971960Y-49857142D01*
X74971960Y-49857142D02*
X74591008Y-49857142D01*
X74591008Y-49857142D02*
X74495770Y-49809523D01*
X74495770Y-49809523D02*
X74448151Y-49714285D01*
X74448151Y-49714285D02*
X74448151Y-49523809D01*
X74448151Y-49523809D02*
X74495770Y-49428571D01*
X74495770Y-49428571D02*
X74591008Y-49380952D01*
X74591008Y-49380952D02*
X74686246Y-49380952D01*
X74686246Y-49380952D02*
X74781484Y-49857142D01*
X74448151Y-49095237D02*
X74448151Y-48714285D01*
X74114818Y-48952380D02*
X74971960Y-48952380D01*
X74971960Y-48952380D02*
X75067199Y-48904761D01*
X75067199Y-48904761D02*
X75114818Y-48809523D01*
X75114818Y-48809523D02*
X75114818Y-48714285D01*
X75114818Y-48380951D02*
X74448151Y-48380951D01*
X74638627Y-48380951D02*
X74543389Y-48333332D01*
X74543389Y-48333332D02*
X74495770Y-48285713D01*
X74495770Y-48285713D02*
X74448151Y-48190475D01*
X74448151Y-48190475D02*
X74448151Y-48095237D01*
X75114818Y-47761903D02*
X74448151Y-47761903D01*
X74114818Y-47761903D02*
X74162437Y-47809522D01*
X74162437Y-47809522D02*
X74210056Y-47761903D01*
X74210056Y-47761903D02*
X74162437Y-47714284D01*
X74162437Y-47714284D02*
X74114818Y-47761903D01*
X74114818Y-47761903D02*
X74210056Y-47761903D01*
X75067199Y-46857142D02*
X75114818Y-46952380D01*
X75114818Y-46952380D02*
X75114818Y-47142856D01*
X75114818Y-47142856D02*
X75067199Y-47238094D01*
X75067199Y-47238094D02*
X75019579Y-47285713D01*
X75019579Y-47285713D02*
X74924341Y-47333332D01*
X74924341Y-47333332D02*
X74638627Y-47333332D01*
X74638627Y-47333332D02*
X74543389Y-47285713D01*
X74543389Y-47285713D02*
X74495770Y-47238094D01*
X74495770Y-47238094D02*
X74448151Y-47142856D01*
X74448151Y-47142856D02*
X74448151Y-46952380D01*
X74448151Y-46952380D02*
X74495770Y-46857142D01*
D11*
X73373831Y-54066666D02*
X73392879Y-54085714D01*
X73392879Y-54085714D02*
X73411926Y-54142856D01*
X73411926Y-54142856D02*
X73411926Y-54180952D01*
X73411926Y-54180952D02*
X73392879Y-54238095D01*
X73392879Y-54238095D02*
X73354783Y-54276190D01*
X73354783Y-54276190D02*
X73316688Y-54295237D01*
X73316688Y-54295237D02*
X73240498Y-54314285D01*
X73240498Y-54314285D02*
X73183355Y-54314285D01*
X73183355Y-54314285D02*
X73107164Y-54295237D01*
X73107164Y-54295237D02*
X73069069Y-54276190D01*
X73069069Y-54276190D02*
X73030974Y-54238095D01*
X73030974Y-54238095D02*
X73011926Y-54180952D01*
X73011926Y-54180952D02*
X73011926Y-54142856D01*
X73011926Y-54142856D02*
X73030974Y-54085714D01*
X73030974Y-54085714D02*
X73050021Y-54066666D01*
X73011926Y-53933333D02*
X73011926Y-53685714D01*
X73011926Y-53685714D02*
X73164307Y-53819047D01*
X73164307Y-53819047D02*
X73164307Y-53761904D01*
X73164307Y-53761904D02*
X73183355Y-53723809D01*
X73183355Y-53723809D02*
X73202402Y-53704761D01*
X73202402Y-53704761D02*
X73240498Y-53685714D01*
X73240498Y-53685714D02*
X73335736Y-53685714D01*
X73335736Y-53685714D02*
X73373831Y-53704761D01*
X73373831Y-53704761D02*
X73392879Y-53723809D01*
X73392879Y-53723809D02*
X73411926Y-53761904D01*
X73411926Y-53761904D02*
X73411926Y-53876190D01*
X73411926Y-53876190D02*
X73392879Y-53914285D01*
X73392879Y-53914285D02*
X73373831Y-53933333D01*
D10*
X45142856Y-65414819D02*
X45142856Y-64414819D01*
X45142856Y-64414819D02*
X45523808Y-64414819D01*
X45523808Y-64414819D02*
X45619046Y-64462438D01*
X45619046Y-64462438D02*
X45666665Y-64510057D01*
X45666665Y-64510057D02*
X45714284Y-64605295D01*
X45714284Y-64605295D02*
X45714284Y-64748152D01*
X45714284Y-64748152D02*
X45666665Y-64843390D01*
X45666665Y-64843390D02*
X45619046Y-64891009D01*
X45619046Y-64891009D02*
X45523808Y-64938628D01*
X45523808Y-64938628D02*
X45142856Y-64938628D01*
X46142856Y-65414819D02*
X46142856Y-64748152D01*
X46142856Y-64414819D02*
X46095237Y-64462438D01*
X46095237Y-64462438D02*
X46142856Y-64510057D01*
X46142856Y-64510057D02*
X46190475Y-64462438D01*
X46190475Y-64462438D02*
X46142856Y-64414819D01*
X46142856Y-64414819D02*
X46142856Y-64510057D01*
X46619046Y-64748152D02*
X46619046Y-65414819D01*
X46619046Y-64843390D02*
X46666665Y-64795771D01*
X46666665Y-64795771D02*
X46761903Y-64748152D01*
X46761903Y-64748152D02*
X46904760Y-64748152D01*
X46904760Y-64748152D02*
X46999998Y-64795771D01*
X46999998Y-64795771D02*
X47047617Y-64891009D01*
X47047617Y-64891009D02*
X47047617Y-65414819D01*
X47523808Y-65414819D02*
X47523808Y-64414819D01*
X47523808Y-64891009D02*
X48095236Y-64891009D01*
X48095236Y-65414819D02*
X48095236Y-64414819D01*
X48952379Y-65367200D02*
X48857141Y-65414819D01*
X48857141Y-65414819D02*
X48666665Y-65414819D01*
X48666665Y-65414819D02*
X48571427Y-65367200D01*
X48571427Y-65367200D02*
X48523808Y-65271961D01*
X48523808Y-65271961D02*
X48523808Y-64891009D01*
X48523808Y-64891009D02*
X48571427Y-64795771D01*
X48571427Y-64795771D02*
X48666665Y-64748152D01*
X48666665Y-64748152D02*
X48857141Y-64748152D01*
X48857141Y-64748152D02*
X48952379Y-64795771D01*
X48952379Y-64795771D02*
X48999998Y-64891009D01*
X48999998Y-64891009D02*
X48999998Y-64986247D01*
X48999998Y-64986247D02*
X48523808Y-65081485D01*
X49857141Y-65414819D02*
X49857141Y-64891009D01*
X49857141Y-64891009D02*
X49809522Y-64795771D01*
X49809522Y-64795771D02*
X49714284Y-64748152D01*
X49714284Y-64748152D02*
X49523808Y-64748152D01*
X49523808Y-64748152D02*
X49428570Y-64795771D01*
X49857141Y-65367200D02*
X49761903Y-65414819D01*
X49761903Y-65414819D02*
X49523808Y-65414819D01*
X49523808Y-65414819D02*
X49428570Y-65367200D01*
X49428570Y-65367200D02*
X49380951Y-65271961D01*
X49380951Y-65271961D02*
X49380951Y-65176723D01*
X49380951Y-65176723D02*
X49428570Y-65081485D01*
X49428570Y-65081485D02*
X49523808Y-65033866D01*
X49523808Y-65033866D02*
X49761903Y-65033866D01*
X49761903Y-65033866D02*
X49857141Y-64986247D01*
X50761903Y-65414819D02*
X50761903Y-64414819D01*
X50761903Y-65367200D02*
X50666665Y-65414819D01*
X50666665Y-65414819D02*
X50476189Y-65414819D01*
X50476189Y-65414819D02*
X50380951Y-65367200D01*
X50380951Y-65367200D02*
X50333332Y-65319580D01*
X50333332Y-65319580D02*
X50285713Y-65224342D01*
X50285713Y-65224342D02*
X50285713Y-64938628D01*
X50285713Y-64938628D02*
X50333332Y-64843390D01*
X50333332Y-64843390D02*
X50380951Y-64795771D01*
X50380951Y-64795771D02*
X50476189Y-64748152D01*
X50476189Y-64748152D02*
X50666665Y-64748152D01*
X50666665Y-64748152D02*
X50761903Y-64795771D01*
X51619046Y-65367200D02*
X51523808Y-65414819D01*
X51523808Y-65414819D02*
X51333332Y-65414819D01*
X51333332Y-65414819D02*
X51238094Y-65367200D01*
X51238094Y-65367200D02*
X51190475Y-65271961D01*
X51190475Y-65271961D02*
X51190475Y-64891009D01*
X51190475Y-64891009D02*
X51238094Y-64795771D01*
X51238094Y-64795771D02*
X51333332Y-64748152D01*
X51333332Y-64748152D02*
X51523808Y-64748152D01*
X51523808Y-64748152D02*
X51619046Y-64795771D01*
X51619046Y-64795771D02*
X51666665Y-64891009D01*
X51666665Y-64891009D02*
X51666665Y-64986247D01*
X51666665Y-64986247D02*
X51190475Y-65081485D01*
X52095237Y-65414819D02*
X52095237Y-64748152D01*
X52095237Y-64938628D02*
X52142856Y-64843390D01*
X52142856Y-64843390D02*
X52190475Y-64795771D01*
X52190475Y-64795771D02*
X52285713Y-64748152D01*
X52285713Y-64748152D02*
X52380951Y-64748152D01*
X52476190Y-65510057D02*
X53238094Y-65510057D01*
X53999999Y-65414819D02*
X53428571Y-65414819D01*
X53714285Y-65414819D02*
X53714285Y-64414819D01*
X53714285Y-64414819D02*
X53619047Y-64557676D01*
X53619047Y-64557676D02*
X53523809Y-64652914D01*
X53523809Y-64652914D02*
X53428571Y-64700533D01*
X54333333Y-65414819D02*
X54857142Y-64748152D01*
X54333333Y-64748152D02*
X54857142Y-65414819D01*
X55428571Y-64414819D02*
X55523809Y-64414819D01*
X55523809Y-64414819D02*
X55619047Y-64462438D01*
X55619047Y-64462438D02*
X55666666Y-64510057D01*
X55666666Y-64510057D02*
X55714285Y-64605295D01*
X55714285Y-64605295D02*
X55761904Y-64795771D01*
X55761904Y-64795771D02*
X55761904Y-65033866D01*
X55761904Y-65033866D02*
X55714285Y-65224342D01*
X55714285Y-65224342D02*
X55666666Y-65319580D01*
X55666666Y-65319580D02*
X55619047Y-65367200D01*
X55619047Y-65367200D02*
X55523809Y-65414819D01*
X55523809Y-65414819D02*
X55428571Y-65414819D01*
X55428571Y-65414819D02*
X55333333Y-65367200D01*
X55333333Y-65367200D02*
X55285714Y-65319580D01*
X55285714Y-65319580D02*
X55238095Y-65224342D01*
X55238095Y-65224342D02*
X55190476Y-65033866D01*
X55190476Y-65033866D02*
X55190476Y-64795771D01*
X55190476Y-64795771D02*
X55238095Y-64605295D01*
X55238095Y-64605295D02*
X55285714Y-64510057D01*
X55285714Y-64510057D02*
X55333333Y-64462438D01*
X55333333Y-64462438D02*
X55428571Y-64414819D01*
X56095238Y-64414819D02*
X56714285Y-64414819D01*
X56714285Y-64414819D02*
X56380952Y-64795771D01*
X56380952Y-64795771D02*
X56523809Y-64795771D01*
X56523809Y-64795771D02*
X56619047Y-64843390D01*
X56619047Y-64843390D02*
X56666666Y-64891009D01*
X56666666Y-64891009D02*
X56714285Y-64986247D01*
X56714285Y-64986247D02*
X56714285Y-65224342D01*
X56714285Y-65224342D02*
X56666666Y-65319580D01*
X56666666Y-65319580D02*
X56619047Y-65367200D01*
X56619047Y-65367200D02*
X56523809Y-65414819D01*
X56523809Y-65414819D02*
X56238095Y-65414819D01*
X56238095Y-65414819D02*
X56142857Y-65367200D01*
X56142857Y-65367200D02*
X56095238Y-65319580D01*
X56904762Y-65510057D02*
X57666666Y-65510057D01*
X57904762Y-65414819D02*
X57904762Y-64414819D01*
X57904762Y-64414819D02*
X58285714Y-64414819D01*
X58285714Y-64414819D02*
X58380952Y-64462438D01*
X58380952Y-64462438D02*
X58428571Y-64510057D01*
X58428571Y-64510057D02*
X58476190Y-64605295D01*
X58476190Y-64605295D02*
X58476190Y-64748152D01*
X58476190Y-64748152D02*
X58428571Y-64843390D01*
X58428571Y-64843390D02*
X58380952Y-64891009D01*
X58380952Y-64891009D02*
X58285714Y-64938628D01*
X58285714Y-64938628D02*
X57904762Y-64938628D01*
X58857143Y-64510057D02*
X58904762Y-64462438D01*
X58904762Y-64462438D02*
X59000000Y-64414819D01*
X59000000Y-64414819D02*
X59238095Y-64414819D01*
X59238095Y-64414819D02*
X59333333Y-64462438D01*
X59333333Y-64462438D02*
X59380952Y-64510057D01*
X59380952Y-64510057D02*
X59428571Y-64605295D01*
X59428571Y-64605295D02*
X59428571Y-64700533D01*
X59428571Y-64700533D02*
X59380952Y-64843390D01*
X59380952Y-64843390D02*
X58809524Y-65414819D01*
X58809524Y-65414819D02*
X59428571Y-65414819D01*
X59857143Y-65319580D02*
X59904762Y-65367200D01*
X59904762Y-65367200D02*
X59857143Y-65414819D01*
X59857143Y-65414819D02*
X59809524Y-65367200D01*
X59809524Y-65367200D02*
X59857143Y-65319580D01*
X59857143Y-65319580D02*
X59857143Y-65414819D01*
X60809523Y-64414819D02*
X60333333Y-64414819D01*
X60333333Y-64414819D02*
X60285714Y-64891009D01*
X60285714Y-64891009D02*
X60333333Y-64843390D01*
X60333333Y-64843390D02*
X60428571Y-64795771D01*
X60428571Y-64795771D02*
X60666666Y-64795771D01*
X60666666Y-64795771D02*
X60761904Y-64843390D01*
X60761904Y-64843390D02*
X60809523Y-64891009D01*
X60809523Y-64891009D02*
X60857142Y-64986247D01*
X60857142Y-64986247D02*
X60857142Y-65224342D01*
X60857142Y-65224342D02*
X60809523Y-65319580D01*
X60809523Y-65319580D02*
X60761904Y-65367200D01*
X60761904Y-65367200D02*
X60666666Y-65414819D01*
X60666666Y-65414819D02*
X60428571Y-65414819D01*
X60428571Y-65414819D02*
X60333333Y-65367200D01*
X60333333Y-65367200D02*
X60285714Y-65319580D01*
X61714285Y-64748152D02*
X61714285Y-65414819D01*
X61476190Y-64367200D02*
X61238095Y-65081485D01*
X61238095Y-65081485D02*
X61857142Y-65081485D01*
X62238095Y-65414819D02*
X62238095Y-64748152D01*
X62238095Y-64843390D02*
X62285714Y-64795771D01*
X62285714Y-64795771D02*
X62380952Y-64748152D01*
X62380952Y-64748152D02*
X62523809Y-64748152D01*
X62523809Y-64748152D02*
X62619047Y-64795771D01*
X62619047Y-64795771D02*
X62666666Y-64891009D01*
X62666666Y-64891009D02*
X62666666Y-65414819D01*
X62666666Y-64891009D02*
X62714285Y-64795771D01*
X62714285Y-64795771D02*
X62809523Y-64748152D01*
X62809523Y-64748152D02*
X62952380Y-64748152D01*
X62952380Y-64748152D02*
X63047619Y-64795771D01*
X63047619Y-64795771D02*
X63095238Y-64891009D01*
X63095238Y-64891009D02*
X63095238Y-65414819D01*
X63571428Y-65414819D02*
X63571428Y-64748152D01*
X63571428Y-64843390D02*
X63619047Y-64795771D01*
X63619047Y-64795771D02*
X63714285Y-64748152D01*
X63714285Y-64748152D02*
X63857142Y-64748152D01*
X63857142Y-64748152D02*
X63952380Y-64795771D01*
X63952380Y-64795771D02*
X63999999Y-64891009D01*
X63999999Y-64891009D02*
X63999999Y-65414819D01*
X63999999Y-64891009D02*
X64047618Y-64795771D01*
X64047618Y-64795771D02*
X64142856Y-64748152D01*
X64142856Y-64748152D02*
X64285713Y-64748152D01*
X64285713Y-64748152D02*
X64380952Y-64795771D01*
X64380952Y-64795771D02*
X64428571Y-64891009D01*
X64428571Y-64891009D02*
X64428571Y-65414819D01*
X64666666Y-65510057D02*
X65428570Y-65510057D01*
X65523809Y-64414819D02*
X65857142Y-65414819D01*
X65857142Y-65414819D02*
X66190475Y-64414819D01*
X66904761Y-65367200D02*
X66809523Y-65414819D01*
X66809523Y-65414819D02*
X66619047Y-65414819D01*
X66619047Y-65414819D02*
X66523809Y-65367200D01*
X66523809Y-65367200D02*
X66476190Y-65271961D01*
X66476190Y-65271961D02*
X66476190Y-64891009D01*
X66476190Y-64891009D02*
X66523809Y-64795771D01*
X66523809Y-64795771D02*
X66619047Y-64748152D01*
X66619047Y-64748152D02*
X66809523Y-64748152D01*
X66809523Y-64748152D02*
X66904761Y-64795771D01*
X66904761Y-64795771D02*
X66952380Y-64891009D01*
X66952380Y-64891009D02*
X66952380Y-64986247D01*
X66952380Y-64986247D02*
X66476190Y-65081485D01*
X67380952Y-65414819D02*
X67380952Y-64748152D01*
X67380952Y-64938628D02*
X67428571Y-64843390D01*
X67428571Y-64843390D02*
X67476190Y-64795771D01*
X67476190Y-64795771D02*
X67571428Y-64748152D01*
X67571428Y-64748152D02*
X67666666Y-64748152D01*
X67857143Y-64748152D02*
X68238095Y-64748152D01*
X68000000Y-64414819D02*
X68000000Y-65271961D01*
X68000000Y-65271961D02*
X68047619Y-65367200D01*
X68047619Y-65367200D02*
X68142857Y-65414819D01*
X68142857Y-65414819D02*
X68238095Y-65414819D01*
X68571429Y-65414819D02*
X68571429Y-64748152D01*
X68571429Y-64414819D02*
X68523810Y-64462438D01*
X68523810Y-64462438D02*
X68571429Y-64510057D01*
X68571429Y-64510057D02*
X68619048Y-64462438D01*
X68619048Y-64462438D02*
X68571429Y-64414819D01*
X68571429Y-64414819D02*
X68571429Y-64510057D01*
X69476190Y-65367200D02*
X69380952Y-65414819D01*
X69380952Y-65414819D02*
X69190476Y-65414819D01*
X69190476Y-65414819D02*
X69095238Y-65367200D01*
X69095238Y-65367200D02*
X69047619Y-65319580D01*
X69047619Y-65319580D02*
X69000000Y-65224342D01*
X69000000Y-65224342D02*
X69000000Y-64938628D01*
X69000000Y-64938628D02*
X69047619Y-64843390D01*
X69047619Y-64843390D02*
X69095238Y-64795771D01*
X69095238Y-64795771D02*
X69190476Y-64748152D01*
X69190476Y-64748152D02*
X69380952Y-64748152D01*
X69380952Y-64748152D02*
X69476190Y-64795771D01*
X70333333Y-65414819D02*
X70333333Y-64891009D01*
X70333333Y-64891009D02*
X70285714Y-64795771D01*
X70285714Y-64795771D02*
X70190476Y-64748152D01*
X70190476Y-64748152D02*
X70000000Y-64748152D01*
X70000000Y-64748152D02*
X69904762Y-64795771D01*
X70333333Y-65367200D02*
X70238095Y-65414819D01*
X70238095Y-65414819D02*
X70000000Y-65414819D01*
X70000000Y-65414819D02*
X69904762Y-65367200D01*
X69904762Y-65367200D02*
X69857143Y-65271961D01*
X69857143Y-65271961D02*
X69857143Y-65176723D01*
X69857143Y-65176723D02*
X69904762Y-65081485D01*
X69904762Y-65081485D02*
X70000000Y-65033866D01*
X70000000Y-65033866D02*
X70238095Y-65033866D01*
X70238095Y-65033866D02*
X70333333Y-64986247D01*
X70952381Y-65414819D02*
X70857143Y-65367200D01*
X70857143Y-65367200D02*
X70809524Y-65271961D01*
X70809524Y-65271961D02*
X70809524Y-64414819D01*
X57454819Y-60373333D02*
X58169104Y-60373333D01*
X58169104Y-60373333D02*
X58311961Y-60420952D01*
X58311961Y-60420952D02*
X58407200Y-60516190D01*
X58407200Y-60516190D02*
X58454819Y-60659047D01*
X58454819Y-60659047D02*
X58454819Y-60754285D01*
X57550057Y-59944761D02*
X57502438Y-59897142D01*
X57502438Y-59897142D02*
X57454819Y-59801904D01*
X57454819Y-59801904D02*
X57454819Y-59563809D01*
X57454819Y-59563809D02*
X57502438Y-59468571D01*
X57502438Y-59468571D02*
X57550057Y-59420952D01*
X57550057Y-59420952D02*
X57645295Y-59373333D01*
X57645295Y-59373333D02*
X57740533Y-59373333D01*
X57740533Y-59373333D02*
X57883390Y-59420952D01*
X57883390Y-59420952D02*
X58454819Y-59992380D01*
X58454819Y-59992380D02*
X58454819Y-59373333D01*
X59410475Y-60609580D02*
X59362856Y-60657200D01*
X59362856Y-60657200D02*
X59219999Y-60704819D01*
X59219999Y-60704819D02*
X59124761Y-60704819D01*
X59124761Y-60704819D02*
X58981904Y-60657200D01*
X58981904Y-60657200D02*
X58886666Y-60561961D01*
X58886666Y-60561961D02*
X58839047Y-60466723D01*
X58839047Y-60466723D02*
X58791428Y-60276247D01*
X58791428Y-60276247D02*
X58791428Y-60133390D01*
X58791428Y-60133390D02*
X58839047Y-59942914D01*
X58839047Y-59942914D02*
X58886666Y-59847676D01*
X58886666Y-59847676D02*
X58981904Y-59752438D01*
X58981904Y-59752438D02*
X59124761Y-59704819D01*
X59124761Y-59704819D02*
X59219999Y-59704819D01*
X59219999Y-59704819D02*
X59362856Y-59752438D01*
X59362856Y-59752438D02*
X59410475Y-59800057D01*
X59839047Y-60704819D02*
X59839047Y-59704819D01*
X59839047Y-59704819D02*
X60219999Y-59704819D01*
X60219999Y-59704819D02*
X60315237Y-59752438D01*
X60315237Y-59752438D02*
X60362856Y-59800057D01*
X60362856Y-59800057D02*
X60410475Y-59895295D01*
X60410475Y-59895295D02*
X60410475Y-60038152D01*
X60410475Y-60038152D02*
X60362856Y-60133390D01*
X60362856Y-60133390D02*
X60315237Y-60181009D01*
X60315237Y-60181009D02*
X60219999Y-60228628D01*
X60219999Y-60228628D02*
X59839047Y-60228628D01*
X60600952Y-60800057D02*
X61362856Y-60800057D01*
X61600952Y-60181009D02*
X61934285Y-60181009D01*
X62077142Y-60704819D02*
X61600952Y-60704819D01*
X61600952Y-60704819D02*
X61600952Y-59704819D01*
X61600952Y-59704819D02*
X62077142Y-59704819D01*
X62648571Y-60704819D02*
X62553333Y-60657200D01*
X62553333Y-60657200D02*
X62505714Y-60561961D01*
X62505714Y-60561961D02*
X62505714Y-59704819D01*
X63410476Y-60657200D02*
X63315238Y-60704819D01*
X63315238Y-60704819D02*
X63124762Y-60704819D01*
X63124762Y-60704819D02*
X63029524Y-60657200D01*
X63029524Y-60657200D02*
X62981905Y-60561961D01*
X62981905Y-60561961D02*
X62981905Y-60181009D01*
X62981905Y-60181009D02*
X63029524Y-60085771D01*
X63029524Y-60085771D02*
X63124762Y-60038152D01*
X63124762Y-60038152D02*
X63315238Y-60038152D01*
X63315238Y-60038152D02*
X63410476Y-60085771D01*
X63410476Y-60085771D02*
X63458095Y-60181009D01*
X63458095Y-60181009D02*
X63458095Y-60276247D01*
X63458095Y-60276247D02*
X62981905Y-60371485D01*
X64315238Y-60657200D02*
X64220000Y-60704819D01*
X64220000Y-60704819D02*
X64029524Y-60704819D01*
X64029524Y-60704819D02*
X63934286Y-60657200D01*
X63934286Y-60657200D02*
X63886667Y-60609580D01*
X63886667Y-60609580D02*
X63839048Y-60514342D01*
X63839048Y-60514342D02*
X63839048Y-60228628D01*
X63839048Y-60228628D02*
X63886667Y-60133390D01*
X63886667Y-60133390D02*
X63934286Y-60085771D01*
X63934286Y-60085771D02*
X64029524Y-60038152D01*
X64029524Y-60038152D02*
X64220000Y-60038152D01*
X64220000Y-60038152D02*
X64315238Y-60085771D01*
X64505715Y-60800057D02*
X65267619Y-60800057D01*
X65934286Y-59704819D02*
X65743810Y-59704819D01*
X65743810Y-59704819D02*
X65648572Y-59752438D01*
X65648572Y-59752438D02*
X65600953Y-59800057D01*
X65600953Y-59800057D02*
X65505715Y-59942914D01*
X65505715Y-59942914D02*
X65458096Y-60133390D01*
X65458096Y-60133390D02*
X65458096Y-60514342D01*
X65458096Y-60514342D02*
X65505715Y-60609580D01*
X65505715Y-60609580D02*
X65553334Y-60657200D01*
X65553334Y-60657200D02*
X65648572Y-60704819D01*
X65648572Y-60704819D02*
X65839048Y-60704819D01*
X65839048Y-60704819D02*
X65934286Y-60657200D01*
X65934286Y-60657200D02*
X65981905Y-60609580D01*
X65981905Y-60609580D02*
X66029524Y-60514342D01*
X66029524Y-60514342D02*
X66029524Y-60276247D01*
X66029524Y-60276247D02*
X65981905Y-60181009D01*
X65981905Y-60181009D02*
X65934286Y-60133390D01*
X65934286Y-60133390D02*
X65839048Y-60085771D01*
X65839048Y-60085771D02*
X65648572Y-60085771D01*
X65648572Y-60085771D02*
X65553334Y-60133390D01*
X65553334Y-60133390D02*
X65505715Y-60181009D01*
X65505715Y-60181009D02*
X65458096Y-60276247D01*
X66458096Y-60609580D02*
X66505715Y-60657200D01*
X66505715Y-60657200D02*
X66458096Y-60704819D01*
X66458096Y-60704819D02*
X66410477Y-60657200D01*
X66410477Y-60657200D02*
X66458096Y-60609580D01*
X66458096Y-60609580D02*
X66458096Y-60704819D01*
X66839048Y-59704819D02*
X67458095Y-59704819D01*
X67458095Y-59704819D02*
X67124762Y-60085771D01*
X67124762Y-60085771D02*
X67267619Y-60085771D01*
X67267619Y-60085771D02*
X67362857Y-60133390D01*
X67362857Y-60133390D02*
X67410476Y-60181009D01*
X67410476Y-60181009D02*
X67458095Y-60276247D01*
X67458095Y-60276247D02*
X67458095Y-60514342D01*
X67458095Y-60514342D02*
X67410476Y-60609580D01*
X67410476Y-60609580D02*
X67362857Y-60657200D01*
X67362857Y-60657200D02*
X67267619Y-60704819D01*
X67267619Y-60704819D02*
X66981905Y-60704819D01*
X66981905Y-60704819D02*
X66886667Y-60657200D01*
X66886667Y-60657200D02*
X66839048Y-60609580D01*
X67791429Y-60704819D02*
X68315238Y-60038152D01*
X67791429Y-60038152D02*
X68315238Y-60704819D01*
X69172381Y-59704819D02*
X68696191Y-59704819D01*
X68696191Y-59704819D02*
X68648572Y-60181009D01*
X68648572Y-60181009D02*
X68696191Y-60133390D01*
X68696191Y-60133390D02*
X68791429Y-60085771D01*
X68791429Y-60085771D02*
X69029524Y-60085771D01*
X69029524Y-60085771D02*
X69124762Y-60133390D01*
X69124762Y-60133390D02*
X69172381Y-60181009D01*
X69172381Y-60181009D02*
X69220000Y-60276247D01*
X69220000Y-60276247D02*
X69220000Y-60514342D01*
X69220000Y-60514342D02*
X69172381Y-60609580D01*
X69172381Y-60609580D02*
X69124762Y-60657200D01*
X69124762Y-60657200D02*
X69029524Y-60704819D01*
X69029524Y-60704819D02*
X68791429Y-60704819D01*
X68791429Y-60704819D02*
X68696191Y-60657200D01*
X68696191Y-60657200D02*
X68648572Y-60609580D01*
X69648572Y-60609580D02*
X69696191Y-60657200D01*
X69696191Y-60657200D02*
X69648572Y-60704819D01*
X69648572Y-60704819D02*
X69600953Y-60657200D01*
X69600953Y-60657200D02*
X69648572Y-60609580D01*
X69648572Y-60609580D02*
X69648572Y-60704819D01*
X70553333Y-60038152D02*
X70553333Y-60704819D01*
X70315238Y-59657200D02*
X70077143Y-60371485D01*
X70077143Y-60371485D02*
X70696190Y-60371485D01*
X64553333Y-56259580D02*
X64505714Y-56307200D01*
X64505714Y-56307200D02*
X64362857Y-56354819D01*
X64362857Y-56354819D02*
X64267619Y-56354819D01*
X64267619Y-56354819D02*
X64124762Y-56307200D01*
X64124762Y-56307200D02*
X64029524Y-56211961D01*
X64029524Y-56211961D02*
X63981905Y-56116723D01*
X63981905Y-56116723D02*
X63934286Y-55926247D01*
X63934286Y-55926247D02*
X63934286Y-55783390D01*
X63934286Y-55783390D02*
X63981905Y-55592914D01*
X63981905Y-55592914D02*
X64029524Y-55497676D01*
X64029524Y-55497676D02*
X64124762Y-55402438D01*
X64124762Y-55402438D02*
X64267619Y-55354819D01*
X64267619Y-55354819D02*
X64362857Y-55354819D01*
X64362857Y-55354819D02*
X64505714Y-55402438D01*
X64505714Y-55402438D02*
X64553333Y-55450057D01*
X64934286Y-55450057D02*
X64981905Y-55402438D01*
X64981905Y-55402438D02*
X65077143Y-55354819D01*
X65077143Y-55354819D02*
X65315238Y-55354819D01*
X65315238Y-55354819D02*
X65410476Y-55402438D01*
X65410476Y-55402438D02*
X65458095Y-55450057D01*
X65458095Y-55450057D02*
X65505714Y-55545295D01*
X65505714Y-55545295D02*
X65505714Y-55640533D01*
X65505714Y-55640533D02*
X65458095Y-55783390D01*
X65458095Y-55783390D02*
X64886667Y-56354819D01*
X64886667Y-56354819D02*
X65505714Y-56354819D01*
X56146189Y-38039580D02*
X56098570Y-38087200D01*
X56098570Y-38087200D02*
X55955713Y-38134819D01*
X55955713Y-38134819D02*
X55860475Y-38134819D01*
X55860475Y-38134819D02*
X55717618Y-38087200D01*
X55717618Y-38087200D02*
X55622380Y-37991961D01*
X55622380Y-37991961D02*
X55574761Y-37896723D01*
X55574761Y-37896723D02*
X55527142Y-37706247D01*
X55527142Y-37706247D02*
X55527142Y-37563390D01*
X55527142Y-37563390D02*
X55574761Y-37372914D01*
X55574761Y-37372914D02*
X55622380Y-37277676D01*
X55622380Y-37277676D02*
X55717618Y-37182438D01*
X55717618Y-37182438D02*
X55860475Y-37134819D01*
X55860475Y-37134819D02*
X55955713Y-37134819D01*
X55955713Y-37134819D02*
X56098570Y-37182438D01*
X56098570Y-37182438D02*
X56146189Y-37230057D01*
X56336666Y-38230057D02*
X57098570Y-38230057D01*
X57527142Y-37134819D02*
X57622380Y-37134819D01*
X57622380Y-37134819D02*
X57717618Y-37182438D01*
X57717618Y-37182438D02*
X57765237Y-37230057D01*
X57765237Y-37230057D02*
X57812856Y-37325295D01*
X57812856Y-37325295D02*
X57860475Y-37515771D01*
X57860475Y-37515771D02*
X57860475Y-37753866D01*
X57860475Y-37753866D02*
X57812856Y-37944342D01*
X57812856Y-37944342D02*
X57765237Y-38039580D01*
X57765237Y-38039580D02*
X57717618Y-38087200D01*
X57717618Y-38087200D02*
X57622380Y-38134819D01*
X57622380Y-38134819D02*
X57527142Y-38134819D01*
X57527142Y-38134819D02*
X57431904Y-38087200D01*
X57431904Y-38087200D02*
X57384285Y-38039580D01*
X57384285Y-38039580D02*
X57336666Y-37944342D01*
X57336666Y-37944342D02*
X57289047Y-37753866D01*
X57289047Y-37753866D02*
X57289047Y-37515771D01*
X57289047Y-37515771D02*
X57336666Y-37325295D01*
X57336666Y-37325295D02*
X57384285Y-37230057D01*
X57384285Y-37230057D02*
X57431904Y-37182438D01*
X57431904Y-37182438D02*
X57527142Y-37134819D01*
X58431904Y-37563390D02*
X58336666Y-37515771D01*
X58336666Y-37515771D02*
X58289047Y-37468152D01*
X58289047Y-37468152D02*
X58241428Y-37372914D01*
X58241428Y-37372914D02*
X58241428Y-37325295D01*
X58241428Y-37325295D02*
X58289047Y-37230057D01*
X58289047Y-37230057D02*
X58336666Y-37182438D01*
X58336666Y-37182438D02*
X58431904Y-37134819D01*
X58431904Y-37134819D02*
X58622380Y-37134819D01*
X58622380Y-37134819D02*
X58717618Y-37182438D01*
X58717618Y-37182438D02*
X58765237Y-37230057D01*
X58765237Y-37230057D02*
X58812856Y-37325295D01*
X58812856Y-37325295D02*
X58812856Y-37372914D01*
X58812856Y-37372914D02*
X58765237Y-37468152D01*
X58765237Y-37468152D02*
X58717618Y-37515771D01*
X58717618Y-37515771D02*
X58622380Y-37563390D01*
X58622380Y-37563390D02*
X58431904Y-37563390D01*
X58431904Y-37563390D02*
X58336666Y-37611009D01*
X58336666Y-37611009D02*
X58289047Y-37658628D01*
X58289047Y-37658628D02*
X58241428Y-37753866D01*
X58241428Y-37753866D02*
X58241428Y-37944342D01*
X58241428Y-37944342D02*
X58289047Y-38039580D01*
X58289047Y-38039580D02*
X58336666Y-38087200D01*
X58336666Y-38087200D02*
X58431904Y-38134819D01*
X58431904Y-38134819D02*
X58622380Y-38134819D01*
X58622380Y-38134819D02*
X58717618Y-38087200D01*
X58717618Y-38087200D02*
X58765237Y-38039580D01*
X58765237Y-38039580D02*
X58812856Y-37944342D01*
X58812856Y-37944342D02*
X58812856Y-37753866D01*
X58812856Y-37753866D02*
X58765237Y-37658628D01*
X58765237Y-37658628D02*
X58717618Y-37611009D01*
X58717618Y-37611009D02*
X58622380Y-37563390D01*
X59431904Y-37134819D02*
X59527142Y-37134819D01*
X59527142Y-37134819D02*
X59622380Y-37182438D01*
X59622380Y-37182438D02*
X59669999Y-37230057D01*
X59669999Y-37230057D02*
X59717618Y-37325295D01*
X59717618Y-37325295D02*
X59765237Y-37515771D01*
X59765237Y-37515771D02*
X59765237Y-37753866D01*
X59765237Y-37753866D02*
X59717618Y-37944342D01*
X59717618Y-37944342D02*
X59669999Y-38039580D01*
X59669999Y-38039580D02*
X59622380Y-38087200D01*
X59622380Y-38087200D02*
X59527142Y-38134819D01*
X59527142Y-38134819D02*
X59431904Y-38134819D01*
X59431904Y-38134819D02*
X59336666Y-38087200D01*
X59336666Y-38087200D02*
X59289047Y-38039580D01*
X59289047Y-38039580D02*
X59241428Y-37944342D01*
X59241428Y-37944342D02*
X59193809Y-37753866D01*
X59193809Y-37753866D02*
X59193809Y-37515771D01*
X59193809Y-37515771D02*
X59241428Y-37325295D01*
X59241428Y-37325295D02*
X59289047Y-37230057D01*
X59289047Y-37230057D02*
X59336666Y-37182438D01*
X59336666Y-37182438D02*
X59431904Y-37134819D01*
X60669999Y-37134819D02*
X60193809Y-37134819D01*
X60193809Y-37134819D02*
X60146190Y-37611009D01*
X60146190Y-37611009D02*
X60193809Y-37563390D01*
X60193809Y-37563390D02*
X60289047Y-37515771D01*
X60289047Y-37515771D02*
X60527142Y-37515771D01*
X60527142Y-37515771D02*
X60622380Y-37563390D01*
X60622380Y-37563390D02*
X60669999Y-37611009D01*
X60669999Y-37611009D02*
X60717618Y-37706247D01*
X60717618Y-37706247D02*
X60717618Y-37944342D01*
X60717618Y-37944342D02*
X60669999Y-38039580D01*
X60669999Y-38039580D02*
X60622380Y-38087200D01*
X60622380Y-38087200D02*
X60527142Y-38134819D01*
X60527142Y-38134819D02*
X60289047Y-38134819D01*
X60289047Y-38134819D02*
X60193809Y-38087200D01*
X60193809Y-38087200D02*
X60146190Y-38039580D01*
X60908095Y-38230057D02*
X61669999Y-38230057D01*
X61860476Y-37230057D02*
X61908095Y-37182438D01*
X61908095Y-37182438D02*
X62003333Y-37134819D01*
X62003333Y-37134819D02*
X62241428Y-37134819D01*
X62241428Y-37134819D02*
X62336666Y-37182438D01*
X62336666Y-37182438D02*
X62384285Y-37230057D01*
X62384285Y-37230057D02*
X62431904Y-37325295D01*
X62431904Y-37325295D02*
X62431904Y-37420533D01*
X62431904Y-37420533D02*
X62384285Y-37563390D01*
X62384285Y-37563390D02*
X61812857Y-38134819D01*
X61812857Y-38134819D02*
X62431904Y-38134819D01*
X63050952Y-37134819D02*
X63146190Y-37134819D01*
X63146190Y-37134819D02*
X63241428Y-37182438D01*
X63241428Y-37182438D02*
X63289047Y-37230057D01*
X63289047Y-37230057D02*
X63336666Y-37325295D01*
X63336666Y-37325295D02*
X63384285Y-37515771D01*
X63384285Y-37515771D02*
X63384285Y-37753866D01*
X63384285Y-37753866D02*
X63336666Y-37944342D01*
X63336666Y-37944342D02*
X63289047Y-38039580D01*
X63289047Y-38039580D02*
X63241428Y-38087200D01*
X63241428Y-38087200D02*
X63146190Y-38134819D01*
X63146190Y-38134819D02*
X63050952Y-38134819D01*
X63050952Y-38134819D02*
X62955714Y-38087200D01*
X62955714Y-38087200D02*
X62908095Y-38039580D01*
X62908095Y-38039580D02*
X62860476Y-37944342D01*
X62860476Y-37944342D02*
X62812857Y-37753866D01*
X62812857Y-37753866D02*
X62812857Y-37515771D01*
X62812857Y-37515771D02*
X62860476Y-37325295D01*
X62860476Y-37325295D02*
X62908095Y-37230057D01*
X62908095Y-37230057D02*
X62955714Y-37182438D01*
X62955714Y-37182438D02*
X63050952Y-37134819D01*
X64336666Y-38134819D02*
X63765238Y-38134819D01*
X64050952Y-38134819D02*
X64050952Y-37134819D01*
X64050952Y-37134819D02*
X63955714Y-37277676D01*
X63955714Y-37277676D02*
X63860476Y-37372914D01*
X63860476Y-37372914D02*
X63765238Y-37420533D01*
X64717619Y-37230057D02*
X64765238Y-37182438D01*
X64765238Y-37182438D02*
X64860476Y-37134819D01*
X64860476Y-37134819D02*
X65098571Y-37134819D01*
X65098571Y-37134819D02*
X65193809Y-37182438D01*
X65193809Y-37182438D02*
X65241428Y-37230057D01*
X65241428Y-37230057D02*
X65289047Y-37325295D01*
X65289047Y-37325295D02*
X65289047Y-37420533D01*
X65289047Y-37420533D02*
X65241428Y-37563390D01*
X65241428Y-37563390D02*
X64670000Y-38134819D01*
X64670000Y-38134819D02*
X65289047Y-38134819D01*
X65717619Y-38134819D02*
X65717619Y-37134819D01*
X65717619Y-37134819D02*
X66050952Y-37849104D01*
X66050952Y-37849104D02*
X66384285Y-37134819D01*
X66384285Y-37134819D02*
X66384285Y-38134819D01*
X67241428Y-38087200D02*
X67146190Y-38134819D01*
X67146190Y-38134819D02*
X66955714Y-38134819D01*
X66955714Y-38134819D02*
X66860476Y-38087200D01*
X66860476Y-38087200D02*
X66812857Y-37991961D01*
X66812857Y-37991961D02*
X66812857Y-37611009D01*
X66812857Y-37611009D02*
X66860476Y-37515771D01*
X66860476Y-37515771D02*
X66955714Y-37468152D01*
X66955714Y-37468152D02*
X67146190Y-37468152D01*
X67146190Y-37468152D02*
X67241428Y-37515771D01*
X67241428Y-37515771D02*
X67289047Y-37611009D01*
X67289047Y-37611009D02*
X67289047Y-37706247D01*
X67289047Y-37706247D02*
X66812857Y-37801485D01*
X67574762Y-37468152D02*
X67955714Y-37468152D01*
X67717619Y-37134819D02*
X67717619Y-37991961D01*
X67717619Y-37991961D02*
X67765238Y-38087200D01*
X67765238Y-38087200D02*
X67860476Y-38134819D01*
X67860476Y-38134819D02*
X67955714Y-38134819D01*
X68289048Y-38134819D02*
X68289048Y-37468152D01*
X68289048Y-37658628D02*
X68336667Y-37563390D01*
X68336667Y-37563390D02*
X68384286Y-37515771D01*
X68384286Y-37515771D02*
X68479524Y-37468152D01*
X68479524Y-37468152D02*
X68574762Y-37468152D01*
X68908096Y-38134819D02*
X68908096Y-37468152D01*
X68908096Y-37134819D02*
X68860477Y-37182438D01*
X68860477Y-37182438D02*
X68908096Y-37230057D01*
X68908096Y-37230057D02*
X68955715Y-37182438D01*
X68955715Y-37182438D02*
X68908096Y-37134819D01*
X68908096Y-37134819D02*
X68908096Y-37230057D01*
X69812857Y-38087200D02*
X69717619Y-38134819D01*
X69717619Y-38134819D02*
X69527143Y-38134819D01*
X69527143Y-38134819D02*
X69431905Y-38087200D01*
X69431905Y-38087200D02*
X69384286Y-38039580D01*
X69384286Y-38039580D02*
X69336667Y-37944342D01*
X69336667Y-37944342D02*
X69336667Y-37658628D01*
X69336667Y-37658628D02*
X69384286Y-37563390D01*
X69384286Y-37563390D02*
X69431905Y-37515771D01*
X69431905Y-37515771D02*
X69527143Y-37468152D01*
X69527143Y-37468152D02*
X69717619Y-37468152D01*
X69717619Y-37468152D02*
X69812857Y-37515771D01*
D14*
X62586666Y-36179530D02*
X62562857Y-36203340D01*
X62562857Y-36203340D02*
X62491428Y-36227149D01*
X62491428Y-36227149D02*
X62443809Y-36227149D01*
X62443809Y-36227149D02*
X62372381Y-36203340D01*
X62372381Y-36203340D02*
X62324762Y-36155720D01*
X62324762Y-36155720D02*
X62300952Y-36108101D01*
X62300952Y-36108101D02*
X62277143Y-36012863D01*
X62277143Y-36012863D02*
X62277143Y-35941435D01*
X62277143Y-35941435D02*
X62300952Y-35846197D01*
X62300952Y-35846197D02*
X62324762Y-35798578D01*
X62324762Y-35798578D02*
X62372381Y-35750959D01*
X62372381Y-35750959D02*
X62443809Y-35727149D01*
X62443809Y-35727149D02*
X62491428Y-35727149D01*
X62491428Y-35727149D02*
X62562857Y-35750959D01*
X62562857Y-35750959D02*
X62586666Y-35774768D01*
X63015238Y-35893816D02*
X63015238Y-36227149D01*
X62896190Y-35703340D02*
X62777143Y-36060482D01*
X62777143Y-36060482D02*
X63086666Y-36060482D01*
D10*
X39642856Y-59574819D02*
X39642856Y-58574819D01*
X39642856Y-58574819D02*
X40023808Y-58574819D01*
X40023808Y-58574819D02*
X40119046Y-58622438D01*
X40119046Y-58622438D02*
X40166665Y-58670057D01*
X40166665Y-58670057D02*
X40214284Y-58765295D01*
X40214284Y-58765295D02*
X40214284Y-58908152D01*
X40214284Y-58908152D02*
X40166665Y-59003390D01*
X40166665Y-59003390D02*
X40119046Y-59051009D01*
X40119046Y-59051009D02*
X40023808Y-59098628D01*
X40023808Y-59098628D02*
X39642856Y-59098628D01*
X40642856Y-59574819D02*
X40642856Y-58908152D01*
X40642856Y-58574819D02*
X40595237Y-58622438D01*
X40595237Y-58622438D02*
X40642856Y-58670057D01*
X40642856Y-58670057D02*
X40690475Y-58622438D01*
X40690475Y-58622438D02*
X40642856Y-58574819D01*
X40642856Y-58574819D02*
X40642856Y-58670057D01*
X41119046Y-58908152D02*
X41119046Y-59574819D01*
X41119046Y-59003390D02*
X41166665Y-58955771D01*
X41166665Y-58955771D02*
X41261903Y-58908152D01*
X41261903Y-58908152D02*
X41404760Y-58908152D01*
X41404760Y-58908152D02*
X41499998Y-58955771D01*
X41499998Y-58955771D02*
X41547617Y-59051009D01*
X41547617Y-59051009D02*
X41547617Y-59574819D01*
X42023808Y-59574819D02*
X42023808Y-58574819D01*
X42023808Y-59051009D02*
X42595236Y-59051009D01*
X42595236Y-59574819D02*
X42595236Y-58574819D01*
X43452379Y-59527200D02*
X43357141Y-59574819D01*
X43357141Y-59574819D02*
X43166665Y-59574819D01*
X43166665Y-59574819D02*
X43071427Y-59527200D01*
X43071427Y-59527200D02*
X43023808Y-59431961D01*
X43023808Y-59431961D02*
X43023808Y-59051009D01*
X43023808Y-59051009D02*
X43071427Y-58955771D01*
X43071427Y-58955771D02*
X43166665Y-58908152D01*
X43166665Y-58908152D02*
X43357141Y-58908152D01*
X43357141Y-58908152D02*
X43452379Y-58955771D01*
X43452379Y-58955771D02*
X43499998Y-59051009D01*
X43499998Y-59051009D02*
X43499998Y-59146247D01*
X43499998Y-59146247D02*
X43023808Y-59241485D01*
X44357141Y-59574819D02*
X44357141Y-59051009D01*
X44357141Y-59051009D02*
X44309522Y-58955771D01*
X44309522Y-58955771D02*
X44214284Y-58908152D01*
X44214284Y-58908152D02*
X44023808Y-58908152D01*
X44023808Y-58908152D02*
X43928570Y-58955771D01*
X44357141Y-59527200D02*
X44261903Y-59574819D01*
X44261903Y-59574819D02*
X44023808Y-59574819D01*
X44023808Y-59574819D02*
X43928570Y-59527200D01*
X43928570Y-59527200D02*
X43880951Y-59431961D01*
X43880951Y-59431961D02*
X43880951Y-59336723D01*
X43880951Y-59336723D02*
X43928570Y-59241485D01*
X43928570Y-59241485D02*
X44023808Y-59193866D01*
X44023808Y-59193866D02*
X44261903Y-59193866D01*
X44261903Y-59193866D02*
X44357141Y-59146247D01*
X45261903Y-59574819D02*
X45261903Y-58574819D01*
X45261903Y-59527200D02*
X45166665Y-59574819D01*
X45166665Y-59574819D02*
X44976189Y-59574819D01*
X44976189Y-59574819D02*
X44880951Y-59527200D01*
X44880951Y-59527200D02*
X44833332Y-59479580D01*
X44833332Y-59479580D02*
X44785713Y-59384342D01*
X44785713Y-59384342D02*
X44785713Y-59098628D01*
X44785713Y-59098628D02*
X44833332Y-59003390D01*
X44833332Y-59003390D02*
X44880951Y-58955771D01*
X44880951Y-58955771D02*
X44976189Y-58908152D01*
X44976189Y-58908152D02*
X45166665Y-58908152D01*
X45166665Y-58908152D02*
X45261903Y-58955771D01*
X46119046Y-59527200D02*
X46023808Y-59574819D01*
X46023808Y-59574819D02*
X45833332Y-59574819D01*
X45833332Y-59574819D02*
X45738094Y-59527200D01*
X45738094Y-59527200D02*
X45690475Y-59431961D01*
X45690475Y-59431961D02*
X45690475Y-59051009D01*
X45690475Y-59051009D02*
X45738094Y-58955771D01*
X45738094Y-58955771D02*
X45833332Y-58908152D01*
X45833332Y-58908152D02*
X46023808Y-58908152D01*
X46023808Y-58908152D02*
X46119046Y-58955771D01*
X46119046Y-58955771D02*
X46166665Y-59051009D01*
X46166665Y-59051009D02*
X46166665Y-59146247D01*
X46166665Y-59146247D02*
X45690475Y-59241485D01*
X46595237Y-59574819D02*
X46595237Y-58908152D01*
X46595237Y-59098628D02*
X46642856Y-59003390D01*
X46642856Y-59003390D02*
X46690475Y-58955771D01*
X46690475Y-58955771D02*
X46785713Y-58908152D01*
X46785713Y-58908152D02*
X46880951Y-58908152D01*
X46976190Y-59670057D02*
X47738094Y-59670057D01*
X48499999Y-59574819D02*
X47928571Y-59574819D01*
X48214285Y-59574819D02*
X48214285Y-58574819D01*
X48214285Y-58574819D02*
X48119047Y-58717676D01*
X48119047Y-58717676D02*
X48023809Y-58812914D01*
X48023809Y-58812914D02*
X47928571Y-58860533D01*
X48833333Y-59574819D02*
X49357142Y-58908152D01*
X48833333Y-58908152D02*
X49357142Y-59574819D01*
X49928571Y-58574819D02*
X50023809Y-58574819D01*
X50023809Y-58574819D02*
X50119047Y-58622438D01*
X50119047Y-58622438D02*
X50166666Y-58670057D01*
X50166666Y-58670057D02*
X50214285Y-58765295D01*
X50214285Y-58765295D02*
X50261904Y-58955771D01*
X50261904Y-58955771D02*
X50261904Y-59193866D01*
X50261904Y-59193866D02*
X50214285Y-59384342D01*
X50214285Y-59384342D02*
X50166666Y-59479580D01*
X50166666Y-59479580D02*
X50119047Y-59527200D01*
X50119047Y-59527200D02*
X50023809Y-59574819D01*
X50023809Y-59574819D02*
X49928571Y-59574819D01*
X49928571Y-59574819D02*
X49833333Y-59527200D01*
X49833333Y-59527200D02*
X49785714Y-59479580D01*
X49785714Y-59479580D02*
X49738095Y-59384342D01*
X49738095Y-59384342D02*
X49690476Y-59193866D01*
X49690476Y-59193866D02*
X49690476Y-58955771D01*
X49690476Y-58955771D02*
X49738095Y-58765295D01*
X49738095Y-58765295D02*
X49785714Y-58670057D01*
X49785714Y-58670057D02*
X49833333Y-58622438D01*
X49833333Y-58622438D02*
X49928571Y-58574819D01*
X50595238Y-58574819D02*
X51261904Y-58574819D01*
X51261904Y-58574819D02*
X50833333Y-59574819D01*
X51404762Y-59670057D02*
X52166666Y-59670057D01*
X52404762Y-59574819D02*
X52404762Y-58574819D01*
X52404762Y-58574819D02*
X52785714Y-58574819D01*
X52785714Y-58574819D02*
X52880952Y-58622438D01*
X52880952Y-58622438D02*
X52928571Y-58670057D01*
X52928571Y-58670057D02*
X52976190Y-58765295D01*
X52976190Y-58765295D02*
X52976190Y-58908152D01*
X52976190Y-58908152D02*
X52928571Y-59003390D01*
X52928571Y-59003390D02*
X52880952Y-59051009D01*
X52880952Y-59051009D02*
X52785714Y-59098628D01*
X52785714Y-59098628D02*
X52404762Y-59098628D01*
X53357143Y-58670057D02*
X53404762Y-58622438D01*
X53404762Y-58622438D02*
X53500000Y-58574819D01*
X53500000Y-58574819D02*
X53738095Y-58574819D01*
X53738095Y-58574819D02*
X53833333Y-58622438D01*
X53833333Y-58622438D02*
X53880952Y-58670057D01*
X53880952Y-58670057D02*
X53928571Y-58765295D01*
X53928571Y-58765295D02*
X53928571Y-58860533D01*
X53928571Y-58860533D02*
X53880952Y-59003390D01*
X53880952Y-59003390D02*
X53309524Y-59574819D01*
X53309524Y-59574819D02*
X53928571Y-59574819D01*
X54357143Y-59479580D02*
X54404762Y-59527200D01*
X54404762Y-59527200D02*
X54357143Y-59574819D01*
X54357143Y-59574819D02*
X54309524Y-59527200D01*
X54309524Y-59527200D02*
X54357143Y-59479580D01*
X54357143Y-59479580D02*
X54357143Y-59574819D01*
X55309523Y-58574819D02*
X54833333Y-58574819D01*
X54833333Y-58574819D02*
X54785714Y-59051009D01*
X54785714Y-59051009D02*
X54833333Y-59003390D01*
X54833333Y-59003390D02*
X54928571Y-58955771D01*
X54928571Y-58955771D02*
X55166666Y-58955771D01*
X55166666Y-58955771D02*
X55261904Y-59003390D01*
X55261904Y-59003390D02*
X55309523Y-59051009D01*
X55309523Y-59051009D02*
X55357142Y-59146247D01*
X55357142Y-59146247D02*
X55357142Y-59384342D01*
X55357142Y-59384342D02*
X55309523Y-59479580D01*
X55309523Y-59479580D02*
X55261904Y-59527200D01*
X55261904Y-59527200D02*
X55166666Y-59574819D01*
X55166666Y-59574819D02*
X54928571Y-59574819D01*
X54928571Y-59574819D02*
X54833333Y-59527200D01*
X54833333Y-59527200D02*
X54785714Y-59479580D01*
X56214285Y-58908152D02*
X56214285Y-59574819D01*
X55976190Y-58527200D02*
X55738095Y-59241485D01*
X55738095Y-59241485D02*
X56357142Y-59241485D01*
X56738095Y-59574819D02*
X56738095Y-58908152D01*
X56738095Y-59003390D02*
X56785714Y-58955771D01*
X56785714Y-58955771D02*
X56880952Y-58908152D01*
X56880952Y-58908152D02*
X57023809Y-58908152D01*
X57023809Y-58908152D02*
X57119047Y-58955771D01*
X57119047Y-58955771D02*
X57166666Y-59051009D01*
X57166666Y-59051009D02*
X57166666Y-59574819D01*
X57166666Y-59051009D02*
X57214285Y-58955771D01*
X57214285Y-58955771D02*
X57309523Y-58908152D01*
X57309523Y-58908152D02*
X57452380Y-58908152D01*
X57452380Y-58908152D02*
X57547619Y-58955771D01*
X57547619Y-58955771D02*
X57595238Y-59051009D01*
X57595238Y-59051009D02*
X57595238Y-59574819D01*
X58071428Y-59574819D02*
X58071428Y-58908152D01*
X58071428Y-59003390D02*
X58119047Y-58955771D01*
X58119047Y-58955771D02*
X58214285Y-58908152D01*
X58214285Y-58908152D02*
X58357142Y-58908152D01*
X58357142Y-58908152D02*
X58452380Y-58955771D01*
X58452380Y-58955771D02*
X58499999Y-59051009D01*
X58499999Y-59051009D02*
X58499999Y-59574819D01*
X58499999Y-59051009D02*
X58547618Y-58955771D01*
X58547618Y-58955771D02*
X58642856Y-58908152D01*
X58642856Y-58908152D02*
X58785713Y-58908152D01*
X58785713Y-58908152D02*
X58880952Y-58955771D01*
X58880952Y-58955771D02*
X58928571Y-59051009D01*
X58928571Y-59051009D02*
X58928571Y-59574819D01*
X59166666Y-59670057D02*
X59928570Y-59670057D01*
X60023809Y-58574819D02*
X60357142Y-59574819D01*
X60357142Y-59574819D02*
X60690475Y-58574819D01*
X61404761Y-59527200D02*
X61309523Y-59574819D01*
X61309523Y-59574819D02*
X61119047Y-59574819D01*
X61119047Y-59574819D02*
X61023809Y-59527200D01*
X61023809Y-59527200D02*
X60976190Y-59431961D01*
X60976190Y-59431961D02*
X60976190Y-59051009D01*
X60976190Y-59051009D02*
X61023809Y-58955771D01*
X61023809Y-58955771D02*
X61119047Y-58908152D01*
X61119047Y-58908152D02*
X61309523Y-58908152D01*
X61309523Y-58908152D02*
X61404761Y-58955771D01*
X61404761Y-58955771D02*
X61452380Y-59051009D01*
X61452380Y-59051009D02*
X61452380Y-59146247D01*
X61452380Y-59146247D02*
X60976190Y-59241485D01*
X61880952Y-59574819D02*
X61880952Y-58908152D01*
X61880952Y-59098628D02*
X61928571Y-59003390D01*
X61928571Y-59003390D02*
X61976190Y-58955771D01*
X61976190Y-58955771D02*
X62071428Y-58908152D01*
X62071428Y-58908152D02*
X62166666Y-58908152D01*
X62357143Y-58908152D02*
X62738095Y-58908152D01*
X62500000Y-58574819D02*
X62500000Y-59431961D01*
X62500000Y-59431961D02*
X62547619Y-59527200D01*
X62547619Y-59527200D02*
X62642857Y-59574819D01*
X62642857Y-59574819D02*
X62738095Y-59574819D01*
X63071429Y-59574819D02*
X63071429Y-58908152D01*
X63071429Y-58574819D02*
X63023810Y-58622438D01*
X63023810Y-58622438D02*
X63071429Y-58670057D01*
X63071429Y-58670057D02*
X63119048Y-58622438D01*
X63119048Y-58622438D02*
X63071429Y-58574819D01*
X63071429Y-58574819D02*
X63071429Y-58670057D01*
X63976190Y-59527200D02*
X63880952Y-59574819D01*
X63880952Y-59574819D02*
X63690476Y-59574819D01*
X63690476Y-59574819D02*
X63595238Y-59527200D01*
X63595238Y-59527200D02*
X63547619Y-59479580D01*
X63547619Y-59479580D02*
X63500000Y-59384342D01*
X63500000Y-59384342D02*
X63500000Y-59098628D01*
X63500000Y-59098628D02*
X63547619Y-59003390D01*
X63547619Y-59003390D02*
X63595238Y-58955771D01*
X63595238Y-58955771D02*
X63690476Y-58908152D01*
X63690476Y-58908152D02*
X63880952Y-58908152D01*
X63880952Y-58908152D02*
X63976190Y-58955771D01*
X64833333Y-59574819D02*
X64833333Y-59051009D01*
X64833333Y-59051009D02*
X64785714Y-58955771D01*
X64785714Y-58955771D02*
X64690476Y-58908152D01*
X64690476Y-58908152D02*
X64500000Y-58908152D01*
X64500000Y-58908152D02*
X64404762Y-58955771D01*
X64833333Y-59527200D02*
X64738095Y-59574819D01*
X64738095Y-59574819D02*
X64500000Y-59574819D01*
X64500000Y-59574819D02*
X64404762Y-59527200D01*
X64404762Y-59527200D02*
X64357143Y-59431961D01*
X64357143Y-59431961D02*
X64357143Y-59336723D01*
X64357143Y-59336723D02*
X64404762Y-59241485D01*
X64404762Y-59241485D02*
X64500000Y-59193866D01*
X64500000Y-59193866D02*
X64738095Y-59193866D01*
X64738095Y-59193866D02*
X64833333Y-59146247D01*
X65452381Y-59574819D02*
X65357143Y-59527200D01*
X65357143Y-59527200D02*
X65309524Y-59431961D01*
X65309524Y-59431961D02*
X65309524Y-58574819D01*
X51954819Y-49881904D02*
X52764342Y-49881904D01*
X52764342Y-49881904D02*
X52859580Y-49834285D01*
X52859580Y-49834285D02*
X52907200Y-49786666D01*
X52907200Y-49786666D02*
X52954819Y-49691428D01*
X52954819Y-49691428D02*
X52954819Y-49500952D01*
X52954819Y-49500952D02*
X52907200Y-49405714D01*
X52907200Y-49405714D02*
X52859580Y-49358095D01*
X52859580Y-49358095D02*
X52764342Y-49310476D01*
X52764342Y-49310476D02*
X51954819Y-49310476D01*
X52954819Y-48310476D02*
X52954819Y-48881904D01*
X52954819Y-48596190D02*
X51954819Y-48596190D01*
X51954819Y-48596190D02*
X52097676Y-48691428D01*
X52097676Y-48691428D02*
X52192914Y-48786666D01*
X52192914Y-48786666D02*
X52240533Y-48881904D01*
X69258095Y-50557200D02*
X69400952Y-50604819D01*
X69400952Y-50604819D02*
X69639047Y-50604819D01*
X69639047Y-50604819D02*
X69734285Y-50557200D01*
X69734285Y-50557200D02*
X69781904Y-50509580D01*
X69781904Y-50509580D02*
X69829523Y-50414342D01*
X69829523Y-50414342D02*
X69829523Y-50319104D01*
X69829523Y-50319104D02*
X69781904Y-50223866D01*
X69781904Y-50223866D02*
X69734285Y-50176247D01*
X69734285Y-50176247D02*
X69639047Y-50128628D01*
X69639047Y-50128628D02*
X69448571Y-50081009D01*
X69448571Y-50081009D02*
X69353333Y-50033390D01*
X69353333Y-50033390D02*
X69305714Y-49985771D01*
X69305714Y-49985771D02*
X69258095Y-49890533D01*
X69258095Y-49890533D02*
X69258095Y-49795295D01*
X69258095Y-49795295D02*
X69305714Y-49700057D01*
X69305714Y-49700057D02*
X69353333Y-49652438D01*
X69353333Y-49652438D02*
X69448571Y-49604819D01*
X69448571Y-49604819D02*
X69686666Y-49604819D01*
X69686666Y-49604819D02*
X69829523Y-49652438D01*
X70448571Y-49604819D02*
X70639047Y-49604819D01*
X70639047Y-49604819D02*
X70734285Y-49652438D01*
X70734285Y-49652438D02*
X70829523Y-49747676D01*
X70829523Y-49747676D02*
X70877142Y-49938152D01*
X70877142Y-49938152D02*
X70877142Y-50271485D01*
X70877142Y-50271485D02*
X70829523Y-50461961D01*
X70829523Y-50461961D02*
X70734285Y-50557200D01*
X70734285Y-50557200D02*
X70639047Y-50604819D01*
X70639047Y-50604819D02*
X70448571Y-50604819D01*
X70448571Y-50604819D02*
X70353333Y-50557200D01*
X70353333Y-50557200D02*
X70258095Y-50461961D01*
X70258095Y-50461961D02*
X70210476Y-50271485D01*
X70210476Y-50271485D02*
X70210476Y-49938152D01*
X70210476Y-49938152D02*
X70258095Y-49747676D01*
X70258095Y-49747676D02*
X70353333Y-49652438D01*
X70353333Y-49652438D02*
X70448571Y-49604819D01*
X71162857Y-49604819D02*
X71734285Y-49604819D01*
X71448571Y-50604819D02*
X71448571Y-49604819D01*
X72067619Y-50223866D02*
X72829524Y-50223866D01*
X73258095Y-49700057D02*
X73305714Y-49652438D01*
X73305714Y-49652438D02*
X73400952Y-49604819D01*
X73400952Y-49604819D02*
X73639047Y-49604819D01*
X73639047Y-49604819D02*
X73734285Y-49652438D01*
X73734285Y-49652438D02*
X73781904Y-49700057D01*
X73781904Y-49700057D02*
X73829523Y-49795295D01*
X73829523Y-49795295D02*
X73829523Y-49890533D01*
X73829523Y-49890533D02*
X73781904Y-50033390D01*
X73781904Y-50033390D02*
X73210476Y-50604819D01*
X73210476Y-50604819D02*
X73829523Y-50604819D01*
X74162857Y-49604819D02*
X74781904Y-49604819D01*
X74781904Y-49604819D02*
X74448571Y-49985771D01*
X74448571Y-49985771D02*
X74591428Y-49985771D01*
X74591428Y-49985771D02*
X74686666Y-50033390D01*
X74686666Y-50033390D02*
X74734285Y-50081009D01*
X74734285Y-50081009D02*
X74781904Y-50176247D01*
X74781904Y-50176247D02*
X74781904Y-50414342D01*
X74781904Y-50414342D02*
X74734285Y-50509580D01*
X74734285Y-50509580D02*
X74686666Y-50557200D01*
X74686666Y-50557200D02*
X74591428Y-50604819D01*
X74591428Y-50604819D02*
X74305714Y-50604819D01*
X74305714Y-50604819D02*
X74210476Y-50557200D01*
X74210476Y-50557200D02*
X74162857Y-50509580D01*
D13*
X72415937Y-47818571D02*
X72381651Y-47887142D01*
X72381651Y-47887142D02*
X72313080Y-47955714D01*
X72313080Y-47955714D02*
X72210222Y-48058571D01*
X72210222Y-48058571D02*
X72175937Y-48127142D01*
X72175937Y-48127142D02*
X72175937Y-48195714D01*
X72347365Y-48161428D02*
X72313080Y-48230000D01*
X72313080Y-48230000D02*
X72244508Y-48298571D01*
X72244508Y-48298571D02*
X72107365Y-48332857D01*
X72107365Y-48332857D02*
X71867365Y-48332857D01*
X71867365Y-48332857D02*
X71730222Y-48298571D01*
X71730222Y-48298571D02*
X71661651Y-48230000D01*
X71661651Y-48230000D02*
X71627365Y-48161428D01*
X71627365Y-48161428D02*
X71627365Y-48024285D01*
X71627365Y-48024285D02*
X71661651Y-47955714D01*
X71661651Y-47955714D02*
X71730222Y-47887142D01*
X71730222Y-47887142D02*
X71867365Y-47852857D01*
X71867365Y-47852857D02*
X72107365Y-47852857D01*
X72107365Y-47852857D02*
X72244508Y-47887142D01*
X72244508Y-47887142D02*
X72313080Y-47955714D01*
X72313080Y-47955714D02*
X72347365Y-48024285D01*
X72347365Y-48024285D02*
X72347365Y-48161428D01*
X71695937Y-47578571D02*
X71661651Y-47544285D01*
X71661651Y-47544285D02*
X71627365Y-47475714D01*
X71627365Y-47475714D02*
X71627365Y-47304285D01*
X71627365Y-47304285D02*
X71661651Y-47235714D01*
X71661651Y-47235714D02*
X71695937Y-47201428D01*
X71695937Y-47201428D02*
X71764508Y-47167142D01*
X71764508Y-47167142D02*
X71833080Y-47167142D01*
X71833080Y-47167142D02*
X71935937Y-47201428D01*
X71935937Y-47201428D02*
X72347365Y-47612856D01*
X72347365Y-47612856D02*
X72347365Y-47167142D01*
D10*
X66704818Y-55793809D02*
X66228627Y-56127142D01*
X66704818Y-56365237D02*
X65704818Y-56365237D01*
X65704818Y-56365237D02*
X65704818Y-55984285D01*
X65704818Y-55984285D02*
X65752437Y-55889047D01*
X65752437Y-55889047D02*
X65800056Y-55841428D01*
X65800056Y-55841428D02*
X65895294Y-55793809D01*
X65895294Y-55793809D02*
X66038151Y-55793809D01*
X66038151Y-55793809D02*
X66133389Y-55841428D01*
X66133389Y-55841428D02*
X66181008Y-55889047D01*
X66181008Y-55889047D02*
X66228627Y-55984285D01*
X66228627Y-55984285D02*
X66228627Y-56365237D01*
X66800056Y-55603333D02*
X66800056Y-54841428D01*
X65704818Y-54412856D02*
X65704818Y-54317618D01*
X65704818Y-54317618D02*
X65752437Y-54222380D01*
X65752437Y-54222380D02*
X65800056Y-54174761D01*
X65800056Y-54174761D02*
X65895294Y-54127142D01*
X65895294Y-54127142D02*
X66085770Y-54079523D01*
X66085770Y-54079523D02*
X66323865Y-54079523D01*
X66323865Y-54079523D02*
X66514341Y-54127142D01*
X66514341Y-54127142D02*
X66609579Y-54174761D01*
X66609579Y-54174761D02*
X66657199Y-54222380D01*
X66657199Y-54222380D02*
X66704818Y-54317618D01*
X66704818Y-54317618D02*
X66704818Y-54412856D01*
X66704818Y-54412856D02*
X66657199Y-54508094D01*
X66657199Y-54508094D02*
X66609579Y-54555713D01*
X66609579Y-54555713D02*
X66514341Y-54603332D01*
X66514341Y-54603332D02*
X66323865Y-54650951D01*
X66323865Y-54650951D02*
X66085770Y-54650951D01*
X66085770Y-54650951D02*
X65895294Y-54603332D01*
X65895294Y-54603332D02*
X65800056Y-54555713D01*
X65800056Y-54555713D02*
X65752437Y-54508094D01*
X65752437Y-54508094D02*
X65704818Y-54412856D01*
X65704818Y-53222380D02*
X65704818Y-53412856D01*
X65704818Y-53412856D02*
X65752437Y-53508094D01*
X65752437Y-53508094D02*
X65800056Y-53555713D01*
X65800056Y-53555713D02*
X65942913Y-53650951D01*
X65942913Y-53650951D02*
X66133389Y-53698570D01*
X66133389Y-53698570D02*
X66514341Y-53698570D01*
X66514341Y-53698570D02*
X66609579Y-53650951D01*
X66609579Y-53650951D02*
X66657199Y-53603332D01*
X66657199Y-53603332D02*
X66704818Y-53508094D01*
X66704818Y-53508094D02*
X66704818Y-53317618D01*
X66704818Y-53317618D02*
X66657199Y-53222380D01*
X66657199Y-53222380D02*
X66609579Y-53174761D01*
X66609579Y-53174761D02*
X66514341Y-53127142D01*
X66514341Y-53127142D02*
X66276246Y-53127142D01*
X66276246Y-53127142D02*
X66181008Y-53174761D01*
X66181008Y-53174761D02*
X66133389Y-53222380D01*
X66133389Y-53222380D02*
X66085770Y-53317618D01*
X66085770Y-53317618D02*
X66085770Y-53508094D01*
X66085770Y-53508094D02*
X66133389Y-53603332D01*
X66133389Y-53603332D02*
X66181008Y-53650951D01*
X66181008Y-53650951D02*
X66276246Y-53698570D01*
X65704818Y-52508094D02*
X65704818Y-52412856D01*
X65704818Y-52412856D02*
X65752437Y-52317618D01*
X65752437Y-52317618D02*
X65800056Y-52269999D01*
X65800056Y-52269999D02*
X65895294Y-52222380D01*
X65895294Y-52222380D02*
X66085770Y-52174761D01*
X66085770Y-52174761D02*
X66323865Y-52174761D01*
X66323865Y-52174761D02*
X66514341Y-52222380D01*
X66514341Y-52222380D02*
X66609579Y-52269999D01*
X66609579Y-52269999D02*
X66657199Y-52317618D01*
X66657199Y-52317618D02*
X66704818Y-52412856D01*
X66704818Y-52412856D02*
X66704818Y-52508094D01*
X66704818Y-52508094D02*
X66657199Y-52603332D01*
X66657199Y-52603332D02*
X66609579Y-52650951D01*
X66609579Y-52650951D02*
X66514341Y-52698570D01*
X66514341Y-52698570D02*
X66323865Y-52746189D01*
X66323865Y-52746189D02*
X66085770Y-52746189D01*
X66085770Y-52746189D02*
X65895294Y-52698570D01*
X65895294Y-52698570D02*
X65800056Y-52650951D01*
X65800056Y-52650951D02*
X65752437Y-52603332D01*
X65752437Y-52603332D02*
X65704818Y-52508094D01*
X65704818Y-51841427D02*
X65704818Y-51222380D01*
X65704818Y-51222380D02*
X66085770Y-51555713D01*
X66085770Y-51555713D02*
X66085770Y-51412856D01*
X66085770Y-51412856D02*
X66133389Y-51317618D01*
X66133389Y-51317618D02*
X66181008Y-51269999D01*
X66181008Y-51269999D02*
X66276246Y-51222380D01*
X66276246Y-51222380D02*
X66514341Y-51222380D01*
X66514341Y-51222380D02*
X66609579Y-51269999D01*
X66609579Y-51269999D02*
X66657199Y-51317618D01*
X66657199Y-51317618D02*
X66704818Y-51412856D01*
X66704818Y-51412856D02*
X66704818Y-51698570D01*
X66704818Y-51698570D02*
X66657199Y-51793808D01*
X66657199Y-51793808D02*
X66609579Y-51841427D01*
X66800056Y-51031904D02*
X66800056Y-50269999D01*
X66704818Y-49508094D02*
X66704818Y-50079522D01*
X66704818Y-49793808D02*
X65704818Y-49793808D01*
X65704818Y-49793808D02*
X65847675Y-49889046D01*
X65847675Y-49889046D02*
X65942913Y-49984284D01*
X65942913Y-49984284D02*
X65990532Y-50079522D01*
X65704818Y-48650951D02*
X65704818Y-48841427D01*
X65704818Y-48841427D02*
X65752437Y-48936665D01*
X65752437Y-48936665D02*
X65800056Y-48984284D01*
X65800056Y-48984284D02*
X65942913Y-49079522D01*
X65942913Y-49079522D02*
X66133389Y-49127141D01*
X66133389Y-49127141D02*
X66514341Y-49127141D01*
X66514341Y-49127141D02*
X66609579Y-49079522D01*
X66609579Y-49079522D02*
X66657199Y-49031903D01*
X66657199Y-49031903D02*
X66704818Y-48936665D01*
X66704818Y-48936665D02*
X66704818Y-48746189D01*
X66704818Y-48746189D02*
X66657199Y-48650951D01*
X66657199Y-48650951D02*
X66609579Y-48603332D01*
X66609579Y-48603332D02*
X66514341Y-48555713D01*
X66514341Y-48555713D02*
X66276246Y-48555713D01*
X66276246Y-48555713D02*
X66181008Y-48603332D01*
X66181008Y-48603332D02*
X66133389Y-48650951D01*
X66133389Y-48650951D02*
X66085770Y-48746189D01*
X66085770Y-48746189D02*
X66085770Y-48936665D01*
X66085770Y-48936665D02*
X66133389Y-49031903D01*
X66133389Y-49031903D02*
X66181008Y-49079522D01*
X66181008Y-49079522D02*
X66276246Y-49127141D01*
X65704818Y-47936665D02*
X65704818Y-47841427D01*
X65704818Y-47841427D02*
X65752437Y-47746189D01*
X65752437Y-47746189D02*
X65800056Y-47698570D01*
X65800056Y-47698570D02*
X65895294Y-47650951D01*
X65895294Y-47650951D02*
X66085770Y-47603332D01*
X66085770Y-47603332D02*
X66323865Y-47603332D01*
X66323865Y-47603332D02*
X66514341Y-47650951D01*
X66514341Y-47650951D02*
X66609579Y-47698570D01*
X66609579Y-47698570D02*
X66657199Y-47746189D01*
X66657199Y-47746189D02*
X66704818Y-47841427D01*
X66704818Y-47841427D02*
X66704818Y-47936665D01*
X66704818Y-47936665D02*
X66657199Y-48031903D01*
X66657199Y-48031903D02*
X66609579Y-48079522D01*
X66609579Y-48079522D02*
X66514341Y-48127141D01*
X66514341Y-48127141D02*
X66323865Y-48174760D01*
X66323865Y-48174760D02*
X66085770Y-48174760D01*
X66085770Y-48174760D02*
X65895294Y-48127141D01*
X65895294Y-48127141D02*
X65800056Y-48079522D01*
X65800056Y-48079522D02*
X65752437Y-48031903D01*
X65752437Y-48031903D02*
X65704818Y-47936665D01*
X66133389Y-47031903D02*
X66085770Y-47127141D01*
X66085770Y-47127141D02*
X66038151Y-47174760D01*
X66038151Y-47174760D02*
X65942913Y-47222379D01*
X65942913Y-47222379D02*
X65895294Y-47222379D01*
X65895294Y-47222379D02*
X65800056Y-47174760D01*
X65800056Y-47174760D02*
X65752437Y-47127141D01*
X65752437Y-47127141D02*
X65704818Y-47031903D01*
X65704818Y-47031903D02*
X65704818Y-46841427D01*
X65704818Y-46841427D02*
X65752437Y-46746189D01*
X65752437Y-46746189D02*
X65800056Y-46698570D01*
X65800056Y-46698570D02*
X65895294Y-46650951D01*
X65895294Y-46650951D02*
X65942913Y-46650951D01*
X65942913Y-46650951D02*
X66038151Y-46698570D01*
X66038151Y-46698570D02*
X66085770Y-46746189D01*
X66085770Y-46746189D02*
X66133389Y-46841427D01*
X66133389Y-46841427D02*
X66133389Y-47031903D01*
X66133389Y-47031903D02*
X66181008Y-47127141D01*
X66181008Y-47127141D02*
X66228627Y-47174760D01*
X66228627Y-47174760D02*
X66323865Y-47222379D01*
X66323865Y-47222379D02*
X66514341Y-47222379D01*
X66514341Y-47222379D02*
X66609579Y-47174760D01*
X66609579Y-47174760D02*
X66657199Y-47127141D01*
X66657199Y-47127141D02*
X66704818Y-47031903D01*
X66704818Y-47031903D02*
X66704818Y-46841427D01*
X66704818Y-46841427D02*
X66657199Y-46746189D01*
X66657199Y-46746189D02*
X66609579Y-46698570D01*
X66609579Y-46698570D02*
X66514341Y-46650951D01*
X66514341Y-46650951D02*
X66323865Y-46650951D01*
X66323865Y-46650951D02*
X66228627Y-46698570D01*
X66228627Y-46698570D02*
X66181008Y-46746189D01*
X66181008Y-46746189D02*
X66133389Y-46841427D01*
X66704818Y-46222379D02*
X65704818Y-46222379D01*
X65704818Y-46222379D02*
X66419103Y-45889046D01*
X66419103Y-45889046D02*
X65704818Y-45555713D01*
X65704818Y-45555713D02*
X66704818Y-45555713D01*
X66657199Y-44698570D02*
X66704818Y-44793808D01*
X66704818Y-44793808D02*
X66704818Y-44984284D01*
X66704818Y-44984284D02*
X66657199Y-45079522D01*
X66657199Y-45079522D02*
X66561960Y-45127141D01*
X66561960Y-45127141D02*
X66181008Y-45127141D01*
X66181008Y-45127141D02*
X66085770Y-45079522D01*
X66085770Y-45079522D02*
X66038151Y-44984284D01*
X66038151Y-44984284D02*
X66038151Y-44793808D01*
X66038151Y-44793808D02*
X66085770Y-44698570D01*
X66085770Y-44698570D02*
X66181008Y-44650951D01*
X66181008Y-44650951D02*
X66276246Y-44650951D01*
X66276246Y-44650951D02*
X66371484Y-45127141D01*
X66038151Y-44365236D02*
X66038151Y-43984284D01*
X65704818Y-44222379D02*
X66561960Y-44222379D01*
X66561960Y-44222379D02*
X66657199Y-44174760D01*
X66657199Y-44174760D02*
X66704818Y-44079522D01*
X66704818Y-44079522D02*
X66704818Y-43984284D01*
X66704818Y-43650950D02*
X66038151Y-43650950D01*
X66228627Y-43650950D02*
X66133389Y-43603331D01*
X66133389Y-43603331D02*
X66085770Y-43555712D01*
X66085770Y-43555712D02*
X66038151Y-43460474D01*
X66038151Y-43460474D02*
X66038151Y-43365236D01*
X66704818Y-43031902D02*
X66038151Y-43031902D01*
X65704818Y-43031902D02*
X65752437Y-43079521D01*
X65752437Y-43079521D02*
X65800056Y-43031902D01*
X65800056Y-43031902D02*
X65752437Y-42984283D01*
X65752437Y-42984283D02*
X65704818Y-43031902D01*
X65704818Y-43031902D02*
X65800056Y-43031902D01*
X66657199Y-42127141D02*
X66704818Y-42222379D01*
X66704818Y-42222379D02*
X66704818Y-42412855D01*
X66704818Y-42412855D02*
X66657199Y-42508093D01*
X66657199Y-42508093D02*
X66609579Y-42555712D01*
X66609579Y-42555712D02*
X66514341Y-42603331D01*
X66514341Y-42603331D02*
X66228627Y-42603331D01*
X66228627Y-42603331D02*
X66133389Y-42555712D01*
X66133389Y-42555712D02*
X66085770Y-42508093D01*
X66085770Y-42508093D02*
X66038151Y-42412855D01*
X66038151Y-42412855D02*
X66038151Y-42222379D01*
X66038151Y-42222379D02*
X66085770Y-42127141D01*
D11*
X65001926Y-49336665D02*
X64811450Y-49469998D01*
X65001926Y-49565236D02*
X64601926Y-49565236D01*
X64601926Y-49565236D02*
X64601926Y-49412855D01*
X64601926Y-49412855D02*
X64620974Y-49374760D01*
X64620974Y-49374760D02*
X64640021Y-49355713D01*
X64640021Y-49355713D02*
X64678117Y-49336665D01*
X64678117Y-49336665D02*
X64735259Y-49336665D01*
X64735259Y-49336665D02*
X64773355Y-49355713D01*
X64773355Y-49355713D02*
X64792402Y-49374760D01*
X64792402Y-49374760D02*
X64811450Y-49412855D01*
X64811450Y-49412855D02*
X64811450Y-49565236D01*
X64640021Y-49184284D02*
X64620974Y-49165236D01*
X64620974Y-49165236D02*
X64601926Y-49127141D01*
X64601926Y-49127141D02*
X64601926Y-49031903D01*
X64601926Y-49031903D02*
X64620974Y-48993808D01*
X64620974Y-48993808D02*
X64640021Y-48974760D01*
X64640021Y-48974760D02*
X64678117Y-48955713D01*
X64678117Y-48955713D02*
X64716212Y-48955713D01*
X64716212Y-48955713D02*
X64773355Y-48974760D01*
X64773355Y-48974760D02*
X65001926Y-49203332D01*
X65001926Y-49203332D02*
X65001926Y-48955713D01*
D10*
X53632856Y-40374819D02*
X53632856Y-39374819D01*
X53632856Y-39374819D02*
X54013808Y-39374819D01*
X54013808Y-39374819D02*
X54109046Y-39422438D01*
X54109046Y-39422438D02*
X54156665Y-39470057D01*
X54156665Y-39470057D02*
X54204284Y-39565295D01*
X54204284Y-39565295D02*
X54204284Y-39708152D01*
X54204284Y-39708152D02*
X54156665Y-39803390D01*
X54156665Y-39803390D02*
X54109046Y-39851009D01*
X54109046Y-39851009D02*
X54013808Y-39898628D01*
X54013808Y-39898628D02*
X53632856Y-39898628D01*
X54632856Y-40374819D02*
X54632856Y-39708152D01*
X54632856Y-39374819D02*
X54585237Y-39422438D01*
X54585237Y-39422438D02*
X54632856Y-39470057D01*
X54632856Y-39470057D02*
X54680475Y-39422438D01*
X54680475Y-39422438D02*
X54632856Y-39374819D01*
X54632856Y-39374819D02*
X54632856Y-39470057D01*
X55109046Y-39708152D02*
X55109046Y-40374819D01*
X55109046Y-39803390D02*
X55156665Y-39755771D01*
X55156665Y-39755771D02*
X55251903Y-39708152D01*
X55251903Y-39708152D02*
X55394760Y-39708152D01*
X55394760Y-39708152D02*
X55489998Y-39755771D01*
X55489998Y-39755771D02*
X55537617Y-39851009D01*
X55537617Y-39851009D02*
X55537617Y-40374819D01*
X56013808Y-40374819D02*
X56013808Y-39374819D01*
X56013808Y-39851009D02*
X56585236Y-39851009D01*
X56585236Y-40374819D02*
X56585236Y-39374819D01*
X57442379Y-40327200D02*
X57347141Y-40374819D01*
X57347141Y-40374819D02*
X57156665Y-40374819D01*
X57156665Y-40374819D02*
X57061427Y-40327200D01*
X57061427Y-40327200D02*
X57013808Y-40231961D01*
X57013808Y-40231961D02*
X57013808Y-39851009D01*
X57013808Y-39851009D02*
X57061427Y-39755771D01*
X57061427Y-39755771D02*
X57156665Y-39708152D01*
X57156665Y-39708152D02*
X57347141Y-39708152D01*
X57347141Y-39708152D02*
X57442379Y-39755771D01*
X57442379Y-39755771D02*
X57489998Y-39851009D01*
X57489998Y-39851009D02*
X57489998Y-39946247D01*
X57489998Y-39946247D02*
X57013808Y-40041485D01*
X58347141Y-40374819D02*
X58347141Y-39851009D01*
X58347141Y-39851009D02*
X58299522Y-39755771D01*
X58299522Y-39755771D02*
X58204284Y-39708152D01*
X58204284Y-39708152D02*
X58013808Y-39708152D01*
X58013808Y-39708152D02*
X57918570Y-39755771D01*
X58347141Y-40327200D02*
X58251903Y-40374819D01*
X58251903Y-40374819D02*
X58013808Y-40374819D01*
X58013808Y-40374819D02*
X57918570Y-40327200D01*
X57918570Y-40327200D02*
X57870951Y-40231961D01*
X57870951Y-40231961D02*
X57870951Y-40136723D01*
X57870951Y-40136723D02*
X57918570Y-40041485D01*
X57918570Y-40041485D02*
X58013808Y-39993866D01*
X58013808Y-39993866D02*
X58251903Y-39993866D01*
X58251903Y-39993866D02*
X58347141Y-39946247D01*
X59251903Y-40374819D02*
X59251903Y-39374819D01*
X59251903Y-40327200D02*
X59156665Y-40374819D01*
X59156665Y-40374819D02*
X58966189Y-40374819D01*
X58966189Y-40374819D02*
X58870951Y-40327200D01*
X58870951Y-40327200D02*
X58823332Y-40279580D01*
X58823332Y-40279580D02*
X58775713Y-40184342D01*
X58775713Y-40184342D02*
X58775713Y-39898628D01*
X58775713Y-39898628D02*
X58823332Y-39803390D01*
X58823332Y-39803390D02*
X58870951Y-39755771D01*
X58870951Y-39755771D02*
X58966189Y-39708152D01*
X58966189Y-39708152D02*
X59156665Y-39708152D01*
X59156665Y-39708152D02*
X59251903Y-39755771D01*
X60109046Y-40327200D02*
X60013808Y-40374819D01*
X60013808Y-40374819D02*
X59823332Y-40374819D01*
X59823332Y-40374819D02*
X59728094Y-40327200D01*
X59728094Y-40327200D02*
X59680475Y-40231961D01*
X59680475Y-40231961D02*
X59680475Y-39851009D01*
X59680475Y-39851009D02*
X59728094Y-39755771D01*
X59728094Y-39755771D02*
X59823332Y-39708152D01*
X59823332Y-39708152D02*
X60013808Y-39708152D01*
X60013808Y-39708152D02*
X60109046Y-39755771D01*
X60109046Y-39755771D02*
X60156665Y-39851009D01*
X60156665Y-39851009D02*
X60156665Y-39946247D01*
X60156665Y-39946247D02*
X59680475Y-40041485D01*
X60585237Y-40374819D02*
X60585237Y-39708152D01*
X60585237Y-39898628D02*
X60632856Y-39803390D01*
X60632856Y-39803390D02*
X60680475Y-39755771D01*
X60680475Y-39755771D02*
X60775713Y-39708152D01*
X60775713Y-39708152D02*
X60870951Y-39708152D01*
X60966190Y-40470057D02*
X61728094Y-40470057D01*
X62489999Y-40374819D02*
X61918571Y-40374819D01*
X62204285Y-40374819D02*
X62204285Y-39374819D01*
X62204285Y-39374819D02*
X62109047Y-39517676D01*
X62109047Y-39517676D02*
X62013809Y-39612914D01*
X62013809Y-39612914D02*
X61918571Y-39660533D01*
X62823333Y-40374819D02*
X63347142Y-39708152D01*
X62823333Y-39708152D02*
X63347142Y-40374819D01*
X63918571Y-39374819D02*
X64013809Y-39374819D01*
X64013809Y-39374819D02*
X64109047Y-39422438D01*
X64109047Y-39422438D02*
X64156666Y-39470057D01*
X64156666Y-39470057D02*
X64204285Y-39565295D01*
X64204285Y-39565295D02*
X64251904Y-39755771D01*
X64251904Y-39755771D02*
X64251904Y-39993866D01*
X64251904Y-39993866D02*
X64204285Y-40184342D01*
X64204285Y-40184342D02*
X64156666Y-40279580D01*
X64156666Y-40279580D02*
X64109047Y-40327200D01*
X64109047Y-40327200D02*
X64013809Y-40374819D01*
X64013809Y-40374819D02*
X63918571Y-40374819D01*
X63918571Y-40374819D02*
X63823333Y-40327200D01*
X63823333Y-40327200D02*
X63775714Y-40279580D01*
X63775714Y-40279580D02*
X63728095Y-40184342D01*
X63728095Y-40184342D02*
X63680476Y-39993866D01*
X63680476Y-39993866D02*
X63680476Y-39755771D01*
X63680476Y-39755771D02*
X63728095Y-39565295D01*
X63728095Y-39565295D02*
X63775714Y-39470057D01*
X63775714Y-39470057D02*
X63823333Y-39422438D01*
X63823333Y-39422438D02*
X63918571Y-39374819D01*
X64632857Y-39470057D02*
X64680476Y-39422438D01*
X64680476Y-39422438D02*
X64775714Y-39374819D01*
X64775714Y-39374819D02*
X65013809Y-39374819D01*
X65013809Y-39374819D02*
X65109047Y-39422438D01*
X65109047Y-39422438D02*
X65156666Y-39470057D01*
X65156666Y-39470057D02*
X65204285Y-39565295D01*
X65204285Y-39565295D02*
X65204285Y-39660533D01*
X65204285Y-39660533D02*
X65156666Y-39803390D01*
X65156666Y-39803390D02*
X64585238Y-40374819D01*
X64585238Y-40374819D02*
X65204285Y-40374819D01*
X65394762Y-40470057D02*
X66156666Y-40470057D01*
X66394762Y-40374819D02*
X66394762Y-39374819D01*
X66394762Y-39374819D02*
X66775714Y-39374819D01*
X66775714Y-39374819D02*
X66870952Y-39422438D01*
X66870952Y-39422438D02*
X66918571Y-39470057D01*
X66918571Y-39470057D02*
X66966190Y-39565295D01*
X66966190Y-39565295D02*
X66966190Y-39708152D01*
X66966190Y-39708152D02*
X66918571Y-39803390D01*
X66918571Y-39803390D02*
X66870952Y-39851009D01*
X66870952Y-39851009D02*
X66775714Y-39898628D01*
X66775714Y-39898628D02*
X66394762Y-39898628D01*
X67347143Y-39470057D02*
X67394762Y-39422438D01*
X67394762Y-39422438D02*
X67490000Y-39374819D01*
X67490000Y-39374819D02*
X67728095Y-39374819D01*
X67728095Y-39374819D02*
X67823333Y-39422438D01*
X67823333Y-39422438D02*
X67870952Y-39470057D01*
X67870952Y-39470057D02*
X67918571Y-39565295D01*
X67918571Y-39565295D02*
X67918571Y-39660533D01*
X67918571Y-39660533D02*
X67870952Y-39803390D01*
X67870952Y-39803390D02*
X67299524Y-40374819D01*
X67299524Y-40374819D02*
X67918571Y-40374819D01*
X68347143Y-40279580D02*
X68394762Y-40327200D01*
X68394762Y-40327200D02*
X68347143Y-40374819D01*
X68347143Y-40374819D02*
X68299524Y-40327200D01*
X68299524Y-40327200D02*
X68347143Y-40279580D01*
X68347143Y-40279580D02*
X68347143Y-40374819D01*
X69299523Y-39374819D02*
X68823333Y-39374819D01*
X68823333Y-39374819D02*
X68775714Y-39851009D01*
X68775714Y-39851009D02*
X68823333Y-39803390D01*
X68823333Y-39803390D02*
X68918571Y-39755771D01*
X68918571Y-39755771D02*
X69156666Y-39755771D01*
X69156666Y-39755771D02*
X69251904Y-39803390D01*
X69251904Y-39803390D02*
X69299523Y-39851009D01*
X69299523Y-39851009D02*
X69347142Y-39946247D01*
X69347142Y-39946247D02*
X69347142Y-40184342D01*
X69347142Y-40184342D02*
X69299523Y-40279580D01*
X69299523Y-40279580D02*
X69251904Y-40327200D01*
X69251904Y-40327200D02*
X69156666Y-40374819D01*
X69156666Y-40374819D02*
X68918571Y-40374819D01*
X68918571Y-40374819D02*
X68823333Y-40327200D01*
X68823333Y-40327200D02*
X68775714Y-40279580D01*
X70204285Y-39708152D02*
X70204285Y-40374819D01*
X69966190Y-39327200D02*
X69728095Y-40041485D01*
X69728095Y-40041485D02*
X70347142Y-40041485D01*
X70728095Y-40374819D02*
X70728095Y-39708152D01*
X70728095Y-39803390D02*
X70775714Y-39755771D01*
X70775714Y-39755771D02*
X70870952Y-39708152D01*
X70870952Y-39708152D02*
X71013809Y-39708152D01*
X71013809Y-39708152D02*
X71109047Y-39755771D01*
X71109047Y-39755771D02*
X71156666Y-39851009D01*
X71156666Y-39851009D02*
X71156666Y-40374819D01*
X71156666Y-39851009D02*
X71204285Y-39755771D01*
X71204285Y-39755771D02*
X71299523Y-39708152D01*
X71299523Y-39708152D02*
X71442380Y-39708152D01*
X71442380Y-39708152D02*
X71537619Y-39755771D01*
X71537619Y-39755771D02*
X71585238Y-39851009D01*
X71585238Y-39851009D02*
X71585238Y-40374819D01*
X72061428Y-40374819D02*
X72061428Y-39708152D01*
X72061428Y-39803390D02*
X72109047Y-39755771D01*
X72109047Y-39755771D02*
X72204285Y-39708152D01*
X72204285Y-39708152D02*
X72347142Y-39708152D01*
X72347142Y-39708152D02*
X72442380Y-39755771D01*
X72442380Y-39755771D02*
X72489999Y-39851009D01*
X72489999Y-39851009D02*
X72489999Y-40374819D01*
X72489999Y-39851009D02*
X72537618Y-39755771D01*
X72537618Y-39755771D02*
X72632856Y-39708152D01*
X72632856Y-39708152D02*
X72775713Y-39708152D01*
X72775713Y-39708152D02*
X72870952Y-39755771D01*
X72870952Y-39755771D02*
X72918571Y-39851009D01*
X72918571Y-39851009D02*
X72918571Y-40374819D01*
X73156666Y-40470057D02*
X73918570Y-40470057D01*
X74013809Y-39374819D02*
X74347142Y-40374819D01*
X74347142Y-40374819D02*
X74680475Y-39374819D01*
X75394761Y-40327200D02*
X75299523Y-40374819D01*
X75299523Y-40374819D02*
X75109047Y-40374819D01*
X75109047Y-40374819D02*
X75013809Y-40327200D01*
X75013809Y-40327200D02*
X74966190Y-40231961D01*
X74966190Y-40231961D02*
X74966190Y-39851009D01*
X74966190Y-39851009D02*
X75013809Y-39755771D01*
X75013809Y-39755771D02*
X75109047Y-39708152D01*
X75109047Y-39708152D02*
X75299523Y-39708152D01*
X75299523Y-39708152D02*
X75394761Y-39755771D01*
X75394761Y-39755771D02*
X75442380Y-39851009D01*
X75442380Y-39851009D02*
X75442380Y-39946247D01*
X75442380Y-39946247D02*
X74966190Y-40041485D01*
X75870952Y-40374819D02*
X75870952Y-39708152D01*
X75870952Y-39898628D02*
X75918571Y-39803390D01*
X75918571Y-39803390D02*
X75966190Y-39755771D01*
X75966190Y-39755771D02*
X76061428Y-39708152D01*
X76061428Y-39708152D02*
X76156666Y-39708152D01*
X76347143Y-39708152D02*
X76728095Y-39708152D01*
X76490000Y-39374819D02*
X76490000Y-40231961D01*
X76490000Y-40231961D02*
X76537619Y-40327200D01*
X76537619Y-40327200D02*
X76632857Y-40374819D01*
X76632857Y-40374819D02*
X76728095Y-40374819D01*
X77061429Y-40374819D02*
X77061429Y-39708152D01*
X77061429Y-39374819D02*
X77013810Y-39422438D01*
X77013810Y-39422438D02*
X77061429Y-39470057D01*
X77061429Y-39470057D02*
X77109048Y-39422438D01*
X77109048Y-39422438D02*
X77061429Y-39374819D01*
X77061429Y-39374819D02*
X77061429Y-39470057D01*
X77966190Y-40327200D02*
X77870952Y-40374819D01*
X77870952Y-40374819D02*
X77680476Y-40374819D01*
X77680476Y-40374819D02*
X77585238Y-40327200D01*
X77585238Y-40327200D02*
X77537619Y-40279580D01*
X77537619Y-40279580D02*
X77490000Y-40184342D01*
X77490000Y-40184342D02*
X77490000Y-39898628D01*
X77490000Y-39898628D02*
X77537619Y-39803390D01*
X77537619Y-39803390D02*
X77585238Y-39755771D01*
X77585238Y-39755771D02*
X77680476Y-39708152D01*
X77680476Y-39708152D02*
X77870952Y-39708152D01*
X77870952Y-39708152D02*
X77966190Y-39755771D01*
X78823333Y-40374819D02*
X78823333Y-39851009D01*
X78823333Y-39851009D02*
X78775714Y-39755771D01*
X78775714Y-39755771D02*
X78680476Y-39708152D01*
X78680476Y-39708152D02*
X78490000Y-39708152D01*
X78490000Y-39708152D02*
X78394762Y-39755771D01*
X78823333Y-40327200D02*
X78728095Y-40374819D01*
X78728095Y-40374819D02*
X78490000Y-40374819D01*
X78490000Y-40374819D02*
X78394762Y-40327200D01*
X78394762Y-40327200D02*
X78347143Y-40231961D01*
X78347143Y-40231961D02*
X78347143Y-40136723D01*
X78347143Y-40136723D02*
X78394762Y-40041485D01*
X78394762Y-40041485D02*
X78490000Y-39993866D01*
X78490000Y-39993866D02*
X78728095Y-39993866D01*
X78728095Y-39993866D02*
X78823333Y-39946247D01*
X79442381Y-40374819D02*
X79347143Y-40327200D01*
X79347143Y-40327200D02*
X79299524Y-40231961D01*
X79299524Y-40231961D02*
X79299524Y-39374819D01*
X65944819Y-36603333D02*
X66659104Y-36603333D01*
X66659104Y-36603333D02*
X66801961Y-36650952D01*
X66801961Y-36650952D02*
X66897200Y-36746190D01*
X66897200Y-36746190D02*
X66944819Y-36889047D01*
X66944819Y-36889047D02*
X66944819Y-36984285D01*
X66944819Y-35603333D02*
X66944819Y-36174761D01*
X66944819Y-35889047D02*
X65944819Y-35889047D01*
X65944819Y-35889047D02*
X66087676Y-35984285D01*
X66087676Y-35984285D02*
X66182914Y-36079523D01*
X66182914Y-36079523D02*
X66230533Y-36174761D01*
X35884819Y-57523810D02*
X35408628Y-57857143D01*
X35884819Y-58095238D02*
X34884819Y-58095238D01*
X34884819Y-58095238D02*
X34884819Y-57714286D01*
X34884819Y-57714286D02*
X34932438Y-57619048D01*
X34932438Y-57619048D02*
X34980057Y-57571429D01*
X34980057Y-57571429D02*
X35075295Y-57523810D01*
X35075295Y-57523810D02*
X35218152Y-57523810D01*
X35218152Y-57523810D02*
X35313390Y-57571429D01*
X35313390Y-57571429D02*
X35361009Y-57619048D01*
X35361009Y-57619048D02*
X35408628Y-57714286D01*
X35408628Y-57714286D02*
X35408628Y-58095238D01*
X35980057Y-57333334D02*
X35980057Y-56571429D01*
X34884819Y-56142857D02*
X34884819Y-56047619D01*
X34884819Y-56047619D02*
X34932438Y-55952381D01*
X34932438Y-55952381D02*
X34980057Y-55904762D01*
X34980057Y-55904762D02*
X35075295Y-55857143D01*
X35075295Y-55857143D02*
X35265771Y-55809524D01*
X35265771Y-55809524D02*
X35503866Y-55809524D01*
X35503866Y-55809524D02*
X35694342Y-55857143D01*
X35694342Y-55857143D02*
X35789580Y-55904762D01*
X35789580Y-55904762D02*
X35837200Y-55952381D01*
X35837200Y-55952381D02*
X35884819Y-56047619D01*
X35884819Y-56047619D02*
X35884819Y-56142857D01*
X35884819Y-56142857D02*
X35837200Y-56238095D01*
X35837200Y-56238095D02*
X35789580Y-56285714D01*
X35789580Y-56285714D02*
X35694342Y-56333333D01*
X35694342Y-56333333D02*
X35503866Y-56380952D01*
X35503866Y-56380952D02*
X35265771Y-56380952D01*
X35265771Y-56380952D02*
X35075295Y-56333333D01*
X35075295Y-56333333D02*
X34980057Y-56285714D01*
X34980057Y-56285714D02*
X34932438Y-56238095D01*
X34932438Y-56238095D02*
X34884819Y-56142857D01*
X34884819Y-54952381D02*
X34884819Y-55142857D01*
X34884819Y-55142857D02*
X34932438Y-55238095D01*
X34932438Y-55238095D02*
X34980057Y-55285714D01*
X34980057Y-55285714D02*
X35122914Y-55380952D01*
X35122914Y-55380952D02*
X35313390Y-55428571D01*
X35313390Y-55428571D02*
X35694342Y-55428571D01*
X35694342Y-55428571D02*
X35789580Y-55380952D01*
X35789580Y-55380952D02*
X35837200Y-55333333D01*
X35837200Y-55333333D02*
X35884819Y-55238095D01*
X35884819Y-55238095D02*
X35884819Y-55047619D01*
X35884819Y-55047619D02*
X35837200Y-54952381D01*
X35837200Y-54952381D02*
X35789580Y-54904762D01*
X35789580Y-54904762D02*
X35694342Y-54857143D01*
X35694342Y-54857143D02*
X35456247Y-54857143D01*
X35456247Y-54857143D02*
X35361009Y-54904762D01*
X35361009Y-54904762D02*
X35313390Y-54952381D01*
X35313390Y-54952381D02*
X35265771Y-55047619D01*
X35265771Y-55047619D02*
X35265771Y-55238095D01*
X35265771Y-55238095D02*
X35313390Y-55333333D01*
X35313390Y-55333333D02*
X35361009Y-55380952D01*
X35361009Y-55380952D02*
X35456247Y-55428571D01*
X34884819Y-54238095D02*
X34884819Y-54142857D01*
X34884819Y-54142857D02*
X34932438Y-54047619D01*
X34932438Y-54047619D02*
X34980057Y-54000000D01*
X34980057Y-54000000D02*
X35075295Y-53952381D01*
X35075295Y-53952381D02*
X35265771Y-53904762D01*
X35265771Y-53904762D02*
X35503866Y-53904762D01*
X35503866Y-53904762D02*
X35694342Y-53952381D01*
X35694342Y-53952381D02*
X35789580Y-54000000D01*
X35789580Y-54000000D02*
X35837200Y-54047619D01*
X35837200Y-54047619D02*
X35884819Y-54142857D01*
X35884819Y-54142857D02*
X35884819Y-54238095D01*
X35884819Y-54238095D02*
X35837200Y-54333333D01*
X35837200Y-54333333D02*
X35789580Y-54380952D01*
X35789580Y-54380952D02*
X35694342Y-54428571D01*
X35694342Y-54428571D02*
X35503866Y-54476190D01*
X35503866Y-54476190D02*
X35265771Y-54476190D01*
X35265771Y-54476190D02*
X35075295Y-54428571D01*
X35075295Y-54428571D02*
X34980057Y-54380952D01*
X34980057Y-54380952D02*
X34932438Y-54333333D01*
X34932438Y-54333333D02*
X34884819Y-54238095D01*
X34884819Y-53571428D02*
X34884819Y-52952381D01*
X34884819Y-52952381D02*
X35265771Y-53285714D01*
X35265771Y-53285714D02*
X35265771Y-53142857D01*
X35265771Y-53142857D02*
X35313390Y-53047619D01*
X35313390Y-53047619D02*
X35361009Y-53000000D01*
X35361009Y-53000000D02*
X35456247Y-52952381D01*
X35456247Y-52952381D02*
X35694342Y-52952381D01*
X35694342Y-52952381D02*
X35789580Y-53000000D01*
X35789580Y-53000000D02*
X35837200Y-53047619D01*
X35837200Y-53047619D02*
X35884819Y-53142857D01*
X35884819Y-53142857D02*
X35884819Y-53428571D01*
X35884819Y-53428571D02*
X35837200Y-53523809D01*
X35837200Y-53523809D02*
X35789580Y-53571428D01*
X35980057Y-52761905D02*
X35980057Y-52000000D01*
X35884819Y-51238095D02*
X35884819Y-51809523D01*
X35884819Y-51523809D02*
X34884819Y-51523809D01*
X34884819Y-51523809D02*
X35027676Y-51619047D01*
X35027676Y-51619047D02*
X35122914Y-51714285D01*
X35122914Y-51714285D02*
X35170533Y-51809523D01*
X34884819Y-50380952D02*
X34884819Y-50571428D01*
X34884819Y-50571428D02*
X34932438Y-50666666D01*
X34932438Y-50666666D02*
X34980057Y-50714285D01*
X34980057Y-50714285D02*
X35122914Y-50809523D01*
X35122914Y-50809523D02*
X35313390Y-50857142D01*
X35313390Y-50857142D02*
X35694342Y-50857142D01*
X35694342Y-50857142D02*
X35789580Y-50809523D01*
X35789580Y-50809523D02*
X35837200Y-50761904D01*
X35837200Y-50761904D02*
X35884819Y-50666666D01*
X35884819Y-50666666D02*
X35884819Y-50476190D01*
X35884819Y-50476190D02*
X35837200Y-50380952D01*
X35837200Y-50380952D02*
X35789580Y-50333333D01*
X35789580Y-50333333D02*
X35694342Y-50285714D01*
X35694342Y-50285714D02*
X35456247Y-50285714D01*
X35456247Y-50285714D02*
X35361009Y-50333333D01*
X35361009Y-50333333D02*
X35313390Y-50380952D01*
X35313390Y-50380952D02*
X35265771Y-50476190D01*
X35265771Y-50476190D02*
X35265771Y-50666666D01*
X35265771Y-50666666D02*
X35313390Y-50761904D01*
X35313390Y-50761904D02*
X35361009Y-50809523D01*
X35361009Y-50809523D02*
X35456247Y-50857142D01*
X34884819Y-49666666D02*
X34884819Y-49571428D01*
X34884819Y-49571428D02*
X34932438Y-49476190D01*
X34932438Y-49476190D02*
X34980057Y-49428571D01*
X34980057Y-49428571D02*
X35075295Y-49380952D01*
X35075295Y-49380952D02*
X35265771Y-49333333D01*
X35265771Y-49333333D02*
X35503866Y-49333333D01*
X35503866Y-49333333D02*
X35694342Y-49380952D01*
X35694342Y-49380952D02*
X35789580Y-49428571D01*
X35789580Y-49428571D02*
X35837200Y-49476190D01*
X35837200Y-49476190D02*
X35884819Y-49571428D01*
X35884819Y-49571428D02*
X35884819Y-49666666D01*
X35884819Y-49666666D02*
X35837200Y-49761904D01*
X35837200Y-49761904D02*
X35789580Y-49809523D01*
X35789580Y-49809523D02*
X35694342Y-49857142D01*
X35694342Y-49857142D02*
X35503866Y-49904761D01*
X35503866Y-49904761D02*
X35265771Y-49904761D01*
X35265771Y-49904761D02*
X35075295Y-49857142D01*
X35075295Y-49857142D02*
X34980057Y-49809523D01*
X34980057Y-49809523D02*
X34932438Y-49761904D01*
X34932438Y-49761904D02*
X34884819Y-49666666D01*
X35313390Y-48761904D02*
X35265771Y-48857142D01*
X35265771Y-48857142D02*
X35218152Y-48904761D01*
X35218152Y-48904761D02*
X35122914Y-48952380D01*
X35122914Y-48952380D02*
X35075295Y-48952380D01*
X35075295Y-48952380D02*
X34980057Y-48904761D01*
X34980057Y-48904761D02*
X34932438Y-48857142D01*
X34932438Y-48857142D02*
X34884819Y-48761904D01*
X34884819Y-48761904D02*
X34884819Y-48571428D01*
X34884819Y-48571428D02*
X34932438Y-48476190D01*
X34932438Y-48476190D02*
X34980057Y-48428571D01*
X34980057Y-48428571D02*
X35075295Y-48380952D01*
X35075295Y-48380952D02*
X35122914Y-48380952D01*
X35122914Y-48380952D02*
X35218152Y-48428571D01*
X35218152Y-48428571D02*
X35265771Y-48476190D01*
X35265771Y-48476190D02*
X35313390Y-48571428D01*
X35313390Y-48571428D02*
X35313390Y-48761904D01*
X35313390Y-48761904D02*
X35361009Y-48857142D01*
X35361009Y-48857142D02*
X35408628Y-48904761D01*
X35408628Y-48904761D02*
X35503866Y-48952380D01*
X35503866Y-48952380D02*
X35694342Y-48952380D01*
X35694342Y-48952380D02*
X35789580Y-48904761D01*
X35789580Y-48904761D02*
X35837200Y-48857142D01*
X35837200Y-48857142D02*
X35884819Y-48761904D01*
X35884819Y-48761904D02*
X35884819Y-48571428D01*
X35884819Y-48571428D02*
X35837200Y-48476190D01*
X35837200Y-48476190D02*
X35789580Y-48428571D01*
X35789580Y-48428571D02*
X35694342Y-48380952D01*
X35694342Y-48380952D02*
X35503866Y-48380952D01*
X35503866Y-48380952D02*
X35408628Y-48428571D01*
X35408628Y-48428571D02*
X35361009Y-48476190D01*
X35361009Y-48476190D02*
X35313390Y-48571428D01*
X35884819Y-47952380D02*
X34884819Y-47952380D01*
X34884819Y-47952380D02*
X35599104Y-47619047D01*
X35599104Y-47619047D02*
X34884819Y-47285714D01*
X34884819Y-47285714D02*
X35884819Y-47285714D01*
X35837200Y-46428571D02*
X35884819Y-46523809D01*
X35884819Y-46523809D02*
X35884819Y-46714285D01*
X35884819Y-46714285D02*
X35837200Y-46809523D01*
X35837200Y-46809523D02*
X35741961Y-46857142D01*
X35741961Y-46857142D02*
X35361009Y-46857142D01*
X35361009Y-46857142D02*
X35265771Y-46809523D01*
X35265771Y-46809523D02*
X35218152Y-46714285D01*
X35218152Y-46714285D02*
X35218152Y-46523809D01*
X35218152Y-46523809D02*
X35265771Y-46428571D01*
X35265771Y-46428571D02*
X35361009Y-46380952D01*
X35361009Y-46380952D02*
X35456247Y-46380952D01*
X35456247Y-46380952D02*
X35551485Y-46857142D01*
X35218152Y-46095237D02*
X35218152Y-45714285D01*
X34884819Y-45952380D02*
X35741961Y-45952380D01*
X35741961Y-45952380D02*
X35837200Y-45904761D01*
X35837200Y-45904761D02*
X35884819Y-45809523D01*
X35884819Y-45809523D02*
X35884819Y-45714285D01*
X35884819Y-45380951D02*
X35218152Y-45380951D01*
X35408628Y-45380951D02*
X35313390Y-45333332D01*
X35313390Y-45333332D02*
X35265771Y-45285713D01*
X35265771Y-45285713D02*
X35218152Y-45190475D01*
X35218152Y-45190475D02*
X35218152Y-45095237D01*
X35884819Y-44761903D02*
X35218152Y-44761903D01*
X34884819Y-44761903D02*
X34932438Y-44809522D01*
X34932438Y-44809522D02*
X34980057Y-44761903D01*
X34980057Y-44761903D02*
X34932438Y-44714284D01*
X34932438Y-44714284D02*
X34884819Y-44761903D01*
X34884819Y-44761903D02*
X34980057Y-44761903D01*
X35837200Y-43857142D02*
X35884819Y-43952380D01*
X35884819Y-43952380D02*
X35884819Y-44142856D01*
X35884819Y-44142856D02*
X35837200Y-44238094D01*
X35837200Y-44238094D02*
X35789580Y-44285713D01*
X35789580Y-44285713D02*
X35694342Y-44333332D01*
X35694342Y-44333332D02*
X35408628Y-44333332D01*
X35408628Y-44333332D02*
X35313390Y-44285713D01*
X35313390Y-44285713D02*
X35265771Y-44238094D01*
X35265771Y-44238094D02*
X35218152Y-44142856D01*
X35218152Y-44142856D02*
X35218152Y-43952380D01*
X35218152Y-43952380D02*
X35265771Y-43857142D01*
D11*
X34181927Y-51066666D02*
X33991451Y-51199999D01*
X34181927Y-51295237D02*
X33781927Y-51295237D01*
X33781927Y-51295237D02*
X33781927Y-51142856D01*
X33781927Y-51142856D02*
X33800975Y-51104761D01*
X33800975Y-51104761D02*
X33820022Y-51085714D01*
X33820022Y-51085714D02*
X33858118Y-51066666D01*
X33858118Y-51066666D02*
X33915260Y-51066666D01*
X33915260Y-51066666D02*
X33953356Y-51085714D01*
X33953356Y-51085714D02*
X33972403Y-51104761D01*
X33972403Y-51104761D02*
X33991451Y-51142856D01*
X33991451Y-51142856D02*
X33991451Y-51295237D01*
X33781927Y-50704761D02*
X33781927Y-50895237D01*
X33781927Y-50895237D02*
X33972403Y-50914285D01*
X33972403Y-50914285D02*
X33953356Y-50895237D01*
X33953356Y-50895237D02*
X33934308Y-50857142D01*
X33934308Y-50857142D02*
X33934308Y-50761904D01*
X33934308Y-50761904D02*
X33953356Y-50723809D01*
X33953356Y-50723809D02*
X33972403Y-50704761D01*
X33972403Y-50704761D02*
X34010499Y-50685714D01*
X34010499Y-50685714D02*
X34105737Y-50685714D01*
X34105737Y-50685714D02*
X34143832Y-50704761D01*
X34143832Y-50704761D02*
X34162880Y-50723809D01*
X34162880Y-50723809D02*
X34181927Y-50761904D01*
X34181927Y-50761904D02*
X34181927Y-50857142D01*
X34181927Y-50857142D02*
X34162880Y-50895237D01*
X34162880Y-50895237D02*
X34143832Y-50914285D01*
%TO.C,R6*%
D15*
X35587500Y-38200000D02*
X36412500Y-38200000D01*
X36412500Y-39800000D01*
X35587500Y-39800000D01*
X35587500Y-38200000D01*
%TO.C,SW1*%
X68920000Y-34300000D02*
X73640000Y-34300000D01*
X68920000Y-43080000D02*
X68920000Y-34300000D01*
X69920000Y-44080000D02*
X68920000Y-43080000D01*
X70645000Y-39866667D02*
X71915000Y-39866667D01*
X73640000Y-34300000D02*
X73640000Y-44080000D01*
X73640000Y-44080000D02*
X69920000Y-44080000D01*
X70645000Y-37160000D02*
X71915000Y-37160000D01*
X71915000Y-41220000D01*
X70645000Y-41220000D01*
X70645000Y-37160000D01*
X70645000Y-39866667D02*
X71915000Y-39866667D01*
X71915000Y-41220000D01*
X70645000Y-41220000D01*
X70645000Y-39866667D01*
G36*
X70645000Y-39866667D02*
G01*
X71915000Y-39866667D01*
X71915000Y-41220000D01*
X70645000Y-41220000D01*
X70645000Y-39866667D01*
G37*
%TO.C,R3*%
X69200000Y-50127500D02*
X70800000Y-50127500D01*
X70800000Y-50952500D01*
X69200000Y-50952500D01*
X69200000Y-50127500D01*
%TO.C,R4*%
X33587500Y-47200000D02*
X34412500Y-47200000D01*
X34412500Y-48800000D01*
X33587500Y-48800000D01*
X33587500Y-47200000D01*
%TO.C,Q1*%
X67495000Y-46300000D02*
X68470000Y-46300000D01*
X68470000Y-49200000D01*
X67170000Y-49200000D01*
X67170000Y-46625000D01*
X67495000Y-46300000D01*
%TO.C,R1*%
X64407499Y-45130000D02*
X65232499Y-45130000D01*
X65232499Y-46730000D01*
X64407499Y-46730000D01*
X64407499Y-45130000D01*
%TO.C,C1*%
X37100000Y-48700000D02*
X37900000Y-48700000D01*
X37900000Y-50300000D01*
X37100000Y-50300000D01*
X37100000Y-48700000D01*
%TO.C,C3*%
X72829999Y-53200000D02*
X73629999Y-53200000D01*
X73629999Y-54800000D01*
X72829999Y-54800000D01*
X72829999Y-53200000D01*
%TO.C,J2*%
X56730000Y-56865000D02*
X57365000Y-56230000D01*
X56730000Y-63850000D02*
X56730000Y-56865000D01*
X57365000Y-56230000D02*
X59270000Y-56230000D01*
X59270000Y-56230000D02*
X59270000Y-63850000D01*
X59270000Y-63850000D02*
X56730000Y-63850000D01*
%TO.C,C2*%
X61420000Y-53600000D02*
X61420000Y-58200000D01*
X61420000Y-53600000D02*
X62420000Y-52600000D01*
X61420000Y-58200000D02*
X62420000Y-59200000D01*
X62015162Y-54570000D02*
X62645162Y-54570000D01*
X62330162Y-54255000D02*
X62330162Y-54885000D01*
X62420000Y-52600000D02*
X68020000Y-52600000D01*
X62420000Y-59200000D02*
X68020000Y-59200000D01*
X68020000Y-52600000D02*
X68020000Y-59200000D01*
X67870000Y-55900000D02*
G75*
G02*
X61570000Y-55900000I-3150000J0D01*
G01*
X61570000Y-55900000D02*
G75*
G02*
X67870000Y-55900000I3150000J0D01*
G01*
%TO.C,C4*%
X61670000Y-35375000D02*
X63670000Y-35375000D01*
X63670000Y-36625000D01*
X61670000Y-36625000D01*
X61670000Y-35375000D01*
%TO.C,U1*%
X51230000Y-40865000D02*
X51865000Y-40230000D01*
X51230000Y-58010000D02*
X51230000Y-40865000D01*
X51865000Y-40230000D02*
X53770000Y-40230000D01*
X53770000Y-40230000D02*
X53770000Y-58010000D01*
X53770000Y-58010000D02*
X51230000Y-58010000D01*
%TO.C,Q2*%
X71695000Y-46300000D02*
X72670000Y-46300000D01*
X72670000Y-49200000D01*
X71370000Y-49200000D01*
X71370000Y-46625000D01*
X71695000Y-46300000D01*
%TO.C,R2*%
X64407499Y-48469999D02*
X65232499Y-48469999D01*
X65232499Y-50069999D01*
X64407499Y-50069999D01*
X64407499Y-48469999D01*
%TO.C,J1*%
X65220000Y-34365000D02*
X65855000Y-33730000D01*
X65220000Y-38810000D02*
X65220000Y-34365000D01*
X65855000Y-33730000D02*
X67760000Y-33730000D01*
X67760000Y-33730000D02*
X67760000Y-38810000D01*
X67760000Y-38810000D02*
X65220000Y-38810000D01*
%TO.C,R5*%
X33587500Y-50200000D02*
X34412500Y-50200000D01*
X34412500Y-51800000D01*
X33587500Y-51800000D01*
X33587500Y-50200000D01*
%TD*%
M02*
