%TF.GenerationSoftware,KiCad,Pcbnew,10.0.4*%
%TF.CreationDate,2026-06-22T13:15:05-04:00*%
%TF.ProjectId,smart_vent_v1_no_led,736d6172-745f-4766-956e-745f76315f6e,rev?*%
%TF.SameCoordinates,Original*%
%TF.FileFunction,Other,User*%
%FSLAX46Y46*%
G04 Gerber Fmt 4.6, Leading zero omitted, Abs format (unit mm)*
G04 Created by KiCad (PCBNEW 10.0.4) date 2026-06-22 13:15:05*
%MOMM*%
%LPD*%
G01*
G04 APERTURE LIST*
%ADD10C,0.050000*%
G04 APERTURE END LIST*
%TO.C,R6*%
D10*
X35270000Y-37520000D02*
X36730000Y-37520000D01*
X36730000Y-40480000D01*
X35270000Y-40480000D01*
X35270000Y-37520000D01*
%TO.C,SW1*%
X68610000Y-34050000D02*
X73950000Y-34050000D01*
X73950000Y-44330000D01*
X68610000Y-44330000D01*
X68610000Y-34050000D01*
%TO.C,R3*%
X68520000Y-49810000D02*
X71480000Y-49810000D01*
X71480000Y-51270000D01*
X68520000Y-51270000D01*
X68520000Y-49810000D01*
%TO.C,R4*%
X33270000Y-46520000D02*
X34730000Y-46520000D01*
X34730000Y-49480000D01*
X33270000Y-49480000D01*
X33270000Y-46520000D01*
%TO.C,Q1*%
X65890000Y-46250000D02*
X66920000Y-46250000D01*
X65890000Y-47360000D02*
X65890000Y-46250000D01*
X65890000Y-48140000D02*
X66920000Y-48140000D01*
X65890000Y-49250000D02*
X65890000Y-48140000D01*
X66920000Y-46050000D02*
X68720000Y-46050000D01*
X66920000Y-46250000D02*
X66920000Y-46050000D01*
X66920000Y-47360000D02*
X65890000Y-47360000D01*
X66920000Y-48140000D02*
X66920000Y-47360000D01*
X66920000Y-49250000D02*
X65890000Y-49250000D01*
X66920000Y-49450000D02*
X66920000Y-49250000D01*
X68720000Y-46050000D02*
X68720000Y-47200000D01*
X68720000Y-47200000D02*
X69750000Y-47200000D01*
X68720000Y-48300000D02*
X68720000Y-49450000D01*
X68720000Y-49450000D02*
X66920000Y-49450000D01*
X69750000Y-47200000D02*
X69750000Y-48300000D01*
X69750000Y-48300000D02*
X68720000Y-48300000D01*
%TO.C,R1*%
X64089999Y-44450000D02*
X65549999Y-44450000D01*
X65549999Y-47410000D01*
X64089999Y-47410000D01*
X64089999Y-44450000D01*
%TO.C,C1*%
X36770000Y-48020000D02*
X38230000Y-48020000D01*
X38230000Y-50980000D01*
X36770000Y-50980000D01*
X36770000Y-48020000D01*
%TO.C,C3*%
X72499999Y-52520000D02*
X73959999Y-52520000D01*
X73959999Y-55480000D01*
X72499999Y-55480000D01*
X72499999Y-52520000D01*
%TO.C,J2*%
X56230000Y-55730000D02*
X59770000Y-55730000D01*
X59770000Y-64350000D01*
X56230000Y-64350000D01*
X56230000Y-55730000D01*
%TO.C,C2*%
X59920000Y-54850000D02*
X59920000Y-56950000D01*
X59920000Y-56950000D02*
X61170000Y-56950000D01*
X61170000Y-53500000D02*
X61170000Y-54850000D01*
X61170000Y-53500000D02*
X62320000Y-52350000D01*
X61170000Y-54850000D02*
X59920000Y-54850000D01*
X61170000Y-56950000D02*
X61170000Y-58300000D01*
X61170000Y-58300000D02*
X62320000Y-59450000D01*
X62320000Y-52350000D02*
X68270000Y-52350000D01*
X62320000Y-59450000D02*
X68270000Y-59450000D01*
X68270000Y-52350000D02*
X68270000Y-54850000D01*
X68270000Y-54850000D02*
X69520000Y-54850000D01*
X68270000Y-56950000D02*
X68270000Y-59450000D01*
X69520000Y-54850000D02*
X69520000Y-56950000D01*
X69520000Y-56950000D02*
X68270000Y-56950000D01*
%TO.C,C4*%
X60970000Y-35020000D02*
X64370000Y-35020000D01*
X64370000Y-36980000D01*
X60970000Y-36980000D01*
X60970000Y-35020000D01*
%TO.C,U1*%
X50730000Y-39720000D02*
X54270000Y-39720000D01*
X54270000Y-58520000D01*
X50730000Y-58520000D01*
X50730000Y-39720000D01*
%TO.C,Q2*%
X70090000Y-46250000D02*
X71120000Y-46250000D01*
X70090000Y-47360000D02*
X70090000Y-46250000D01*
X70090000Y-48140000D02*
X71120000Y-48140000D01*
X70090000Y-49250000D02*
X70090000Y-48140000D01*
X71120000Y-46050000D02*
X72920000Y-46050000D01*
X71120000Y-46250000D02*
X71120000Y-46050000D01*
X71120000Y-47360000D02*
X70090000Y-47360000D01*
X71120000Y-48140000D02*
X71120000Y-47360000D01*
X71120000Y-49250000D02*
X70090000Y-49250000D01*
X71120000Y-49450000D02*
X71120000Y-49250000D01*
X72920000Y-46050000D02*
X72920000Y-47200000D01*
X72920000Y-47200000D02*
X73950000Y-47200000D01*
X72920000Y-48300000D02*
X72920000Y-49450000D01*
X72920000Y-49450000D02*
X71120000Y-49450000D01*
X73950000Y-47200000D02*
X73950000Y-48300000D01*
X73950000Y-48300000D02*
X72920000Y-48300000D01*
%TO.C,R2*%
X64089999Y-47789999D02*
X65549999Y-47789999D01*
X65549999Y-50749999D01*
X64089999Y-50749999D01*
X64089999Y-47789999D01*
%TO.C,J1*%
X64720000Y-33230000D02*
X68260000Y-33230000D01*
X68260000Y-39320000D01*
X64720000Y-39320000D01*
X64720000Y-33230000D01*
%TO.C,R5*%
X33270000Y-49520000D02*
X34730000Y-49520000D01*
X34730000Y-52480000D01*
X33270000Y-52480000D01*
X33270000Y-49520000D01*
%TD*%
M02*
